<svg width="178" height="459" viewBox="0 0 178 459" fill="none" xmlns="http://www.w3.org/2000/svg">
<path d="M66.0332 449.5C122.032 373.5 47.3323 312.8 12.5323 258C-22.2677 203.2 23.8655 153.834 48.5322 130C50.5322 146.5 52.4323 173.8 66.0323 199C79.6323 224.2 56.3657 253.167 43.0323 264.5C42.8792 279.512 63.4567 301.211 81.377 329.5C117.585 293.167 183.5 220.5 146 130C85.5 68.5 138.5 66.5 101 0.5C153.5 29 199 69.5 166 130C173.5 278 125.355 276.728 95.5331 355.342C108.443 383.88 113.949 417.622 95.5331 456.5C93.0031 461.841 66.0332 456.5 66.0332 449.5Z" fill="#9EAE5E"/>
</svg>
