<?xml version="1.0" encoding="UTF-8"?>
<svg id="Layer_1" xmlns="http://www.w3.org/2000/svg" xmlns:xlink="http://www.w3.org/1999/xlink" version="1.1" viewBox="0 0 2400.7 1400.5">
  <!-- Generator: Adobe Illustrator 29.5.1, SVG Export Plug-In . SVG Version: 2.1.0 Build 141)  -->
  <defs>
    <style>
      .st0 {
        fill: none;
      }

      .st1 {
        fill: #96938e;
      }

      .st2 {
        fill: #e5d8c2;
      }

      .st3 {
        fill: #e13300;
      }

      .st4 {
        fill: #bdb3a3;
        opacity: .5;
      }

      .st4, .st5 {
        isolation: isolate;
      }

      .st6 {
        fill: #917860;
      }

      .st7 {
        fill: #d0bfa3;
      }

      .st8 {
        fill: #636363;
      }

      .st9 {
        clip-path: url(#clippath-1);
      }

      .st10 {
        clip-path: url(#clippath-3);
      }

      .st11 {
        clip-path: url(#clippath-4);
      }

      .st12 {
        clip-path: url(#clippath-2);
      }

      .st13 {
        clip-path: url(#clippath-7);
      }

      .st14 {
        clip-path: url(#clippath-6);
      }

      .st15 {
        clip-path: url(#clippath-5);
      }

      .st16 {
        fill: #c1baad;
      }

      .st17 {
        fill: #c1b9ac;
      }

      .st18 {
        fill: #ff9600;
      }

      .st19 {
        fill: #ff6100;
      }

      .st20 {
        fill: #dcceb8;
      }

      .st21 {
        fill: #d8c9b0;
      }

      .st22 {
        fill: #96938d;
      }

      .st23 {
        clip-path: url(#clippath);
      }

      .st24 {
        fill: #7d6752;
      }
    </style>
    <clipPath id="clippath">
      <rect class="st0" x=".2" y=".2" width="2400" height="1400"/>
    </clipPath>
    <clipPath id="clippath-1">
      <rect class="st0" width="2400.5" height="1400.5"/>
    </clipPath>
    <clipPath id="clippath-2">
      <rect class="st0" x="276.7" y="450.1" width="799.3" height="843.4"/>
    </clipPath>
    <clipPath id="clippath-3">
      <rect class="st0" x="112.6" y="-35" width="2539.2" height="3405.4"/>
    </clipPath>
    <clipPath id="clippath-4">
      <rect class="st0" x="28.6" y="624.4" width="2318.8" height="2447.5"/>
    </clipPath>
    <clipPath id="clippath-5">
      <rect class="st0" y="676.8" width="2351.4" height="523.3"/>
    </clipPath>
    <clipPath id="clippath-6">
      <rect class="st0" y="703.6" width="2400.5" height="769.6"/>
    </clipPath>
    <clipPath id="clippath-7">
      <rect class="st0" y="1122.7" width="2400.5" height="277.8"/>
    </clipPath>
  </defs>
  <g class="st23">
    <image class="st5" width="2400" height="1400" transform="translate(.2 .2)" xlink:href="stage4-1.png"/>
  </g>
  <g class="st9">
    <g>
      <rect class="st7" x=".2" y=".3" width="2400" height="1400"/>
      <path class="st21" d="M.2,1400.3v-868c55.3-7.6,110.7-15,166.1-22.3,53.4-7,106.9-12.8,160.5-18.9,50.3-5.8,100.7-10,151.1-14.7,17.6-1.6,35.1-3.6,52.7-4.8,31.2-2.2,62.5-4.4,93.7-6.6,16.5-1.2,33-2.3,49.5-3.5,20.7-1.5,41.4-3.3,62.1-4.2,27.7-1.3,55.3-2.6,82.9-3.9,21.2-1,42.5-2.4,63.7-2.9,31.2-.7,62.5-1.4,93.8-2,16.5-.4,33-.3,49.5-.2,7.5,0,15,0,22.5,0,20.5,0,41-.1,61.5.3,32.8.6,65.7,1.3,98.5,1.9,19.4.4,38.8,1.4,58.1,2.1,33.1,1.2,66.1,2.5,99.1,3.7,15.7.6,31.4,1.7,47.2,2.7,36.4,2.2,72.9,4.4,109.3,6.6,29.6,1.8,59.4,3.1,89,5.8,59.7,5.6,119.4,11.2,179.1,16.8,17.1,1.6,34.1,4.5,51.2,6.8,35.3,4.8,70.6,9.6,105.9,14.4,7.6,1,15.2,2.1,22.7,3.1,6.2.8,12.5,2.3,18.7,3.4,33.4,6.2,66.8,12.3,100.2,18.5,47.9,8.8,95.6,18.5,142.9,30,33.9,8.3,67.5,18,100.5,29.2,19.5,6.6,39.3,13,58.4,20.9,3.3,1.4,6.5,2.8,9.8,4.2v781.6H.2Z"/>
      <path class="st21" d="M2323.9,743.2c-4.9,0-9.7-.4-14.6-.7-17.3-.9-34.9-2.2-52.3-3.5-3.8-.3-7.7-.6-11.5-.9-43-2.2-86.1-2.5-129.2-3.1-44.5-.6-89-.5-133.5-1.1-94.5-1.2-189-3.5-283.5-6.5-93.8-3-187.5-6.9-281.2-12.5-106.3-6.4-212.6-13.5-318.9-21.3-43.7-3.2-87.4-6.7-131.1-9.8-48.7-3.5-97.4-6.9-146.1-10.7-46.3-3.6-92.4-9.3-138.4-15.1-44.2-5.6-88.4-11.8-132.6-17.9-40.8-5.6-81.5-11.5-122.2-17.3-16.6-2.4-33.3-4.8-50-6.8-9.9-1.2-19.8-2.8-29.7-3.5-5.8-.4-11.6-.9-17.4-1.3-9.7-.1-19.4-.3-29.2-.4-7.4-.1-14.9.4-22.3.8-6.8.5-13.5,1-20.2,1.5,2.2-.2,4.4-.3,6.7-.5-4.4.3-8.7.7-13,1.1-6.2.9-12.4,1.1-18.6,1.4-5.1-.3-10.3-.7-15.4-1-10-1.4-19.6-4-28.8-7.9-17.9-7.6-33.8-19.9-45.7-35.3-21.7-28.1-28.9-65.4-19.6-99.7,4-14.7,10.7-28.5,20-40.6,6-7.8,12.9-14.7,20.7-20.7,9.2-7.1,17.3-11.4,27.8-16.4,13.8-6.6,30.3-9.9,45.3-12.5,8-1.4,16.1-2.7,24.1-4.2,13.1-2.4,26.1-4.9,39.2-7.5,45.2-10.2,90.1-22,135-33.5,44.5-11.3,89.2-22,133.9-32.5,19.7-4.6,39.6-8.8,59.5-12.9,30.6-6.2,61.2-12.3,91.9-18,19.9-3.7,39.9-7,60-10.1,47-7.4,94-14.9,141.3-20.5,92.1-11,184.4-20.1,276.9-26.5,107.4-7.4,214.9-13.9,322.5-19.2,90.7-4.4,181.4-8.2,272.2-10.6,48.5-1.3,97.1-2.4,145.6-3.3,45.5-.9,91-1.6,136.5-1.6,47.5,0,95,.4,142.4,2,24.1.8,48.3,1.9,72.4,2.6,10.4.3,20.9,0,31.3.3,17.9.6,35.9.8,53.6,3.9l3.7.6c6.4,1.3,12.7,2.6,19,3.9v542c-6.9,1.4-13.8,2.5-20.9,3.7-17.8,2.8-35.8,3.7-53.8,3.7h-1.6,0Z"/>
      <path class="st21" d="M638,288.9c-2.3.5-4.7,1-7,1.4-3,.6-6.1,1.2-9.2,1.9,5.4-1.1,10.8-2.2,16.2-3.3Z"/>
      <path class="st21" d="M645.9,287.3c-2.6.5-5.2,1.1-7.9,1.6,2.6-.5,5.2-1.1,7.9-1.6Z"/>
      <path class="st20" d="M1716.6,1031.1c-22.2,0-44.4-.8-66.6-1-22.9-.3-45.8-.1-68.7.1-47.5.5-95,1.1-142.5.7-46.7-.4-93.3-2.1-140-3.1-46.7-1-93.4-2.5-140.1-4.5-57-2.5-113.8-6.8-170.7-10.7-48.3-3.3-96.5-7-144.8-10.5-34-2.5-67.9-5-101.9-7.4-49.7-3.2-99.4-6-149-10.7-23.3-2.2-46.5-5.2-69.6-8.2-22.8-2.9-45.6-5.4-68.5-8.2-22.2-2.7-44.4-5.3-66.6-7.4-32.8-1.7-65.6-2.6-98.4-3-5.9,0-11.8-.1-17.7-.2-9.9,1.2-19.9,2.1-29.8,2.9-24.3,1.9-48.6,3.3-73,3.9-6,.2-12.1.2-18.1-.1-14.2-.7-28.5-1.6-42.7-2.9-12.1-1.1-23.9-4.8-35.8-7.2-18.3-3.8-46.3-16.4-62-26.3,0,0,0,0,0-.1-3.3-2-6.6-4-9.9-6.1v-418.5c3.2-2.1,6.5-4.1,9.8-6.1,9.4-6.2,19.5-11.4,30.2-15.4,25.4-10.7,37.3-12.2,64.4-17.6,2.3-.5,4.6-.7,6.9-.9,15.9-1.3,31.4-2.5,47.2-2.6,21.2-.2,42.5,2.1,63.7,3.6,14.4,1,28.7,2.9,43,5.1,10.6-.1,21.1-.3,31.6-.6,24.3-.6,48.7-1.5,73-2.7,22.7-1.1,45.3-2.8,68-3.8,35.2-1.7,70.4-3,105.6-4.9,49-3.7,98-7.9,147.1-10.4,46.6-2.5,93.1-4.1,139.8-4.1,93-.1,186,2,279.1,3.6,45.6.8,91.3,1.5,137,1.1,48-.3,96-1.6,144-1.7,45.2-.1,90.4-.6,135.6.2,60.6,1.1,121,4.8,181.3,10,17.6,1.5,35.2,3.2,52.8,4.8,9.4.5,18.8.9,28.2,1.1,14.9.4,29.8.2,44.8-.3,12.4-1,24.8-2.2,37.3-3.4,35.7-3.4,71.4-5.6,107.2-7.7,39.2-2.3,78.6-2,117.9-3.6,19.2-1.7,38.3-3.6,57.5-4.9,17.4-1.2,35.2-3.3,52.7-3.1,18.6.2,37.1,1.8,55.6,3.2,2.7.2,5.4.9,8.1,1.4,18.2,3.3,27.2,4.5,41.2,9.3,28.5,9.7,37.5,11.8,63.7,27,1.5.9,3,1.7,4.5,2.6,7.4,4.3,14.6,9,21.6,14v421.9c-21.2,16.1-45.2,28.9-69.6,39.2-20.8,8.7-42.5,14.9-64.3,20.2-21.6,5.2-43.4,9.4-65.1,13.5-11.7,2.2-23.4,4.3-35.1,6.2-22,3.7-44.2,5.6-66.5,7.2-22.4,1.6-44.8,3.2-67.2,5.1-23.9,2.1-47.8,4.3-71.7,6.8-21.9,2.3-43.7,5.4-65.6,7.5-56.2,5.5-112.6,7.8-169.1,7.8s-6.2,0-9.3,0h0Z"/>
      <path class="st2" d="M51.9,1332.4c-12.8-4.5-25.7-8.9-38.5-13.4-4.4-1.9-8.8-3.8-13.1-5.9v-598.6c11.1-7.7,22.2-15.4,33.7-22.5,21.9-13.4,45-24.5,68.1-35.6,9.7-4.7,19.7-8.7,29.8-12.4,23.8-8.8,47.8-17.1,71.9-25.1,11.1-3.7,22.2-7.3,33.4-10.8,11.8-3.7,23.7-7.4,35.8-10.1,24.8-5.4,49.6-11,74.7-14.4,11.1-1.5,22.4-2,33.6-2.8,25.7-1.8,51.4-3.7,77.1-5,12.1-.6,24.3-1.2,36.4-2,23.1-1.4,46.2-1.8,69.4-1.6,12.1,0,24.3.8,36.4,1.5,25.3,1.5,50.5,3.2,75.8,5.7,23.7,2.3,47.3,6.2,70.9,9.7,84.5,12.5,168.2,30.5,251.8,48,19.5,3.8,39.1,7.6,58.8,10.8,24.2,3.9,48.5,7.3,72.8,10.2,50.2,5.9,100.3,11.8,150.6,16.3,23.6,2.1,47.1,3.8,70.7,5.5,4.6.3,9.2.7,13.8,1,2.2.1,4.2.2,6.2.4,9.2,0,18.4.6,27.6,1.5,10.8.3,21.7,1.2,32.5,2.6,14.8,1,29.6,2,44.3,2.9,48.4,3.2,96.8,6.7,145.2,8.7,27.7,1.2,55.4,1.9,83.2,1.8,15.6,0,31.1-.2,46.6-.7,7.8-.2,15.5-.6,23.3-1,40.5-3.2,80.9-7.1,121.1-12.9,48.7-7.1,97.4-14,146-21.5,21.1-3.3,42.2-6.8,63.2-10.5,18-4.1,36-8.5,53.9-13.1,19.4-5,38.6-10.9,57.6-17.2,29-10.2,58.1-20.2,87.9-28,27.4-7.5,55.3-11.2,83.7-11.2s8.1,0,12.1.2v643.1c-4.5,1.6-9.1,3.1-13.6,4.7-10.8,3.7-21.7,7.3-32.7,10.3-24.8,6.9-49.6,13.3-74.6,19.3-4.3,1-8.6,1.9-12.9,2.8-19.9,4.2-39.8,8.7-59.8,12.3-11.2,2.1-22.3,4.2-33.5,6.1-24.1,4-48.2,7.8-72.3,11.3-49.5,7.3-98.9,14.9-148.5,21.5-24.4,3.3-49,5.4-73.6,7.6-38.3,3.3-76.7,5.6-115.1,7.8-23.3,1.3-46.8,1.2-70.1,1-25.5-.3-51-.8-76.4-1.9-47.6-2-95-5.5-142.5-8.6-27.4-1.8-54.8-3.6-82.2-5.4-1.3,0-2.7-.2-4-.3-.2,0-.4,0-.6,0-1.9-.1-3.7-.2-5.6-.4l-2.8-.2c-10.7,0-21.4-.6-32-1.7-7-.2-14-.6-21-1.2-6.2-.4-12.4-1.1-18.5-1.8-1,0-2-.1-3-.2-12.9-.9-25.8-1.8-38.7-2.7-49.2-3.5-98.4-7.7-147.5-13.3-48.4-5.5-96.9-10.7-145-18.5-55.2-9-109.9-20.9-164.6-32.5-36-7.3-72-14.4-108.1-20.3-39.7-6.5-79.5-12.8-119.5-16.8-7.1-.3-14.2-.5-21.4-.6-8.3,8.3-18.7,16.8-25.1,21.8-28.8,22.3-62.7,39.9-98,49-4.7,1.2-9.3,3-14,4.1-6.1,1.4-12.1,2.8-18.2,4.2-12.5,2.9-24.9,5.8-37.3,8.9-24.1,6-47.9,13.2-71.6,20.7-22,7-43.8,14.3-66.3,19.1-14.4,3.1-28.8,6.2-43.3,8.8-15.9,2.8-32.2,2.6-48.3,3.3-2.6.1-5.1.2-7.7.2-26.8,0-52.3-6.3-78.4-12h0Z"/>
      <path class="st2" d="M.2,1400.3v-219.7c8.3-11,17.4-21.4,27.1-31.2,46.4-46.4,107-76.2,172-85.4,18.4-2.6,36.9-3.9,55.4-6.1,11-1.3,22-2.5,33-3.9,24.8-3.1,49.5-6.2,74.2-9.4,25.4-3.3,50.8-6.5,76.2-9.6,7.2-2.8,14.5-5.3,21.8-7.4,1.1-.4,2.2-.7,3.4-1.1,17.8-5.2,35.6-7.9,53.9-8.9,5.8-.4,11.7-.7,17.5-1,35-3.2,70-6.6,105-10,21.3-2,42.5-4.1,63.8-6.1,14.5-1.4,29-2.8,43.4-4.2,3.6-.3,7.2-.7,10.8-1,6.7-.6,13.5-2,20.1-3,7.3-1.1,14.7-1.8,22-2.4,6-.9,11.9-1.3,17.9-1.9,11.9-.8,23.8-1.6,35.7-2.4,23.8,0,47.1,3.1,70,9.4,12.5,3.4,24.6,7.8,36.4,13,23.7-1.8,47.4-3.4,71.1-4.9,32.6-2.1,65.1-4.2,97.7-6.2,18.6-1.2,37.2-2.7,55.8-3.6,54-2.4,108-4.8,162-7.3,43.7-2,87.5-2.5,131.3-3.6,20.7-.5,41.4-1,62.2-1.5,14.6-.3,29.2-.3,43.7-.3,7.2,0,14.4,0,21.7,0,29.4-.1,58.7-.3,88.1-.4,16,0,32,.4,48,.7,30.8.5,61.7,1.1,92.5,1.6,17.3.3,34.6,1.1,51.8,1.8,26.8,1,53.7,2,80.5,3,24.2.9,48.3,2.5,72.5,3.7,43.2,2.2,86.3,4.9,129.5,7.5,23.7,1.4,47.3,3,71,4.1,23.7,1.2,47.5,2.7,71.3,3,5.9,0,11.8.2,17.6.2,4.4-.2,8.7-.4,13.1-.6,1.6,0,3.3-.2,4.9-.3,20,0,29.9.8,44.9,3.2.7.1,1.5.2,2.2.4,2.3.4,4.5.8,6.6,1.1v390.5H.2Z"/>
    </g>
  </g>
  <g class="st12">
    <g>
      <path class="st18" d="M377.3,1272c-17.3-10.1-32.6-23.6-44.9-39.5-3.8-5.6-7.5-11.1-11.2-16.6-6.9-11.8-12.1-24.2-15.8-37.4-2.7-12.7-5.2-24.8-6.7-37.6-.7-5.8-1.2-11.7-1.7-17.6-1-11-2-22-3-33-.3-3.3-.7-6.6-1-9.9-.9-2.9-1.8-5.8-2.7-8.7-3.3-11.3-5.3-23-7.5-34.6-3.4-18.5-4.4-37.2-5.3-56-.5-11.2-.5-22.5,0-33.7.8-14.8,1.4-29.8,3.2-44.5,0-3.3.2-6.6.3-9.9.1-5.4.5-10.8.7-16.2.5-12,1.3-24.7,2.5-36.8,3.1-30.2,8.1-60.4,16.5-89.6,5.1-17.8,11.2-35.3,18-52.5,4.3-11,10-21.6,15.5-31.9,2.9-5.6,6-10.9,9.3-16.3,4.8-8,10.6-15.7,15.9-23.5,1.5-2.1,3-4.1,4.5-6.1,3.7-4.8,7.7-9.5,11.6-14.1,7.6-8.9,15.5-18.1,24.1-26.2,9.5-8.9,19.2-17.4,29.2-25.8,13.3-11.1,28.1-20.8,42.6-30.4,10.4-6.8,20.8-13.4,31.5-19.7,4.9-2.9,9.9-5.5,14.9-8.2,8-4.4,16.5-8.3,24.8-12.4,3.3-1.7,6.7-3.3,10.1-4.8,27.5-12,56.5-19.5,86-24.4,4.1-.7,8.3-1.2,12.4-1.6,11.2-1,22.5-1.9,33.8-2.1,4,0,8,0,12.1.3,9.3.5,18.7.9,28,1.9,8.7,1,17.4,2,26,3.7,14.8,2.9,29.5,5.7,43.8,10.3,11.5,3.7,23.2,7.5,34.4,12.3,16.9,7.1,33.8,14.5,49.8,23.4,3.4,1.9,6.8,3.8,10.2,5.6,10,5.5,19.3,12.2,28.6,18.6,13.7,9.4,25.7,21,38,32.1,14,12.6,26.7,26.8,38.4,41.5,9.1,11.5,17.3,23.9,25.1,36.3,1.1,1.7,2.1,3.4,3.2,5.1-7.9-1.5-15.8-3-23.8-4.6-83.6-17.5-167.3-35.5-251.8-48-23.5-3.5-47.2-7.4-70.9-9.7-25.2-2.5-50.4-4.2-75.7-5.7-12.1-.7-24.3-1.4-36.4-1.5-1.5,0-2.9,0-4.4,0,1.5,0,2.9,0,4.4,0,12.2,0,24.3.8,36.4,1.5,25.3,1.5,50.5,3.2,75.7,5.7,23.7,2.3,47.3,6.2,70.9,9.7,84.5,12.5,168.2,30.5,251.8,48,7.9,1.5,15.8,3.1,23.8,4.6,3.3,5.5,6.5,11.1,9.4,16.9,6.6,13,13.4,25.9,18.6,39.6,5.2,13.8,10.3,27.9,13.7,42.3,3.5,14.8,6.6,29.8,8.4,45,1.7,15.1,2.9,30.5,2.6,45.8-.2,10.7-1,21.5-2.2,32.2-1.1,10.7-3.8,21.4-5.9,31.8-.3,1.6-.7,3.2-1.2,4.9-.4,6.5-1,13-1.6,19.4-1.1,11.9-2,23.8-3.8,35.7-1.6,11-3.3,21.9-5.4,32.8-3.1,16.2-6.8,32-10.8,47.9-1.9,8.4-4.2,16.7-8.2,24.8-5.3,12.4-12.1,24-20.3,34.7-4,5.6-8.5,10.8-13.6,15.6-9.5,9.5-20.1,17.7-31.7,24.5-6,3.5-12.1,7.1-18.7,9.3-6.4,2.2-12.9,4.5-19.3,6.7-13.6,3.7-27.5,5.6-41.6,5.6-27.7,0-55.1-7.4-79-21.4-23.9-14-43.8-34.6-57.5-58.6-10.2,3.8-20.6,7.1-31.1,9.7-14.4,3.5-29.2,6.8-44,8.3-10.7,1-21.5,1.9-32.2,2-7.9,0-15.8-.4-23.6-1.1-2.1,9.5-4.7,16.3-9,28.4-.6,1.8-1.4,3.6-2.2,5.4.4,9.5,0,19-1.3,28.5-2.8,20.3-9.6,40-19.9,57.8-20.5,35-54.5,61.2-93.5,71.9-13.5,3.7-27.4,5.6-41.3,5.6-27.6,0-55.2-7.2-79.3-21.3h0Z"/>
      <path class="st19" d="M660,1209c-1.4-.1-2.9-.3-4.4-.5-24.2-1.5-51.2-4.9-72-11.4-13.3-4.6-26.7-9.3-40-13.9-25.8-10.9-49.8-25-71.9-42.1-30.4-23.5-56.5-52.3-76.9-84.8-7.9-10.3-15.1-21.1-21.7-32.4-29.4-50.2-45-108.1-45-166.3s4-61.8,11.8-87.6c4.3-14.2,8.4-28.5,14.6-41.9,14.7-31.7,22-45.2,42.9-73.2,8-10.8,33.8-37.8,29-33,10.3-10.2,21.7-19.2,32.5-28.7,15.8-13.9,55.6-37.2,75.4-44,41-14.3,40.8-15.7,84.2-23,1-.2,2-.3,3-.5,2.5-.4,4.9-.7,7.4-.9,37.2-3.1,66.2-5.5,103.5-.1,16.7,2.4,33.7,4.9,49.7,10.4,14.4,5,29,9.3,43.2,15.1,14.1,5.8,27.3,13.6,41,20.4,3.2,1.6,6.3,3.6,9.3,5.6,14.3,9.5,29.8,19.2,43.8,29.9,8,6,15.8,12.4,23.2,19-64.8-13.5-129.7-26.5-195.1-36.1-23.5-3.5-47.2-7.4-70.9-9.7-25.2-2.5-50.4-4.2-75.7-5.7-12.1-.7-24.3-1.4-36.4-1.5-1.5,0-2.9,0-4.4,0,1.5,0,2.9,0,4.4,0,12.2,0,24.3.8,36.4,1.5,25.3,1.5,50.5,3.2,75.7,5.7,23.7,2.3,47.3,6.2,70.9,9.7,65.5,9.7,130.4,22.7,195.1,36.1,5.7,5.1,11.3,10.5,16.5,16.1,22.4,23.8,39.1,43.5,55.5,71.9,14.8,25.6,28.3,56.5,35.5,85.2,2.9,14.2,5.8,28.3,8.7,42.5,4,29.5,4,59.1,0,88.6-5.8,42.4-20,83.5-41.6,120.5-42.7,72.9-113.6,127.6-195.1,150.1-33.5,9.2-68.4,12.9-102.8,11.2-6.4.4-11.6.7-17,.7-10,0-20.8-.9-42.1-2.9h0Z"/>
      <path class="st19" d="M426.3,621.9l-.2.2.2-.2Z"/>
      <path class="st3" d="M630.2,1098.4c-15.2.6-32.5,0-43.1-1.9-27.3-4.8-34.6-6.5-60.3-16.4-20.5-7.9-34.9-18.2-52.8-30.8-8.5-6-16.2-13.2-23.5-20.7-12.3-12.6-29.4-32.9-37.5-48.7-11.1-21.9-17.7-32.9-24-56.9-2.7-10.5-4.9-21.3-6.5-32-3.9-25-1.9-42.2,0-67.2,1-12.6,3.8-25.3,7.9-37.4,4.2-12.3,7.7-24.2,13-35.8,5.2-11.5,10.8-23,17.1-34,12.6-21.9,24.2-34.8,41-53.4,8.4-9.3,18.2-17.5,28.2-25.1,19.5-14.8,42.4-28.8,65.5-37.3,11.4-4.2,23.6-9.3,35.9-12.2,12.8-3,25.6-5.7,38.6-7.9,2.7-.5,5.3-.8,8-1.1,5.4-.6,12.6-1.3,20.1-1.8,6.2.5,12.4,1.1,18.5,1.7,23.7,2.3,47.3,6.2,70.9,9.7,8.8,1.3,17.6,2.7,26.3,4.1,17.6,6.1,33.9,14.1,50.9,23.1,11.2,5.9,21.4,13.8,31.7,21,10,7,19.2,15.5,27.8,24.2,17.3,17.4,28.6,33,41.8,53.5,6.9,10.7,12.1,22.6,17.4,34.1,10.2,22.3,15.2,45.9,19.8,69.7,2.2,9.9,4.3,19.8,5.4,29.8.4,3.5.8,7,1.4,10.5,2.8,21.2,2.8,42.3,0,63.5-4.1,30.4-14.3,59.8-29.8,86.3-30.6,52.2-81.4,91.4-139.8,107.5-20.2,5.6-41,8.3-61.8,8.3-37.5,0-74.8-8.9-108.2-26.2h0Z"/>
      <path class="st3" d="M747.2,589.1c-23.5-3.5-47.2-7.4-70.9-9.7-6.2-.6-12.3-1.2-18.5-1.7,6.6-.4,13.3-.7,19.2-.6,27.9.6,50.5,3.6,77.5,10.4,6.5,1.6,12.8,3.5,19,5.7-8.8-1.4-17.5-2.8-26.3-4.1h0Z"/>
    </g>
  </g>
  <g class="st10">
    <g>
      <path class="st4" d="M1867,214.4c.8-11.4,3.3-22.7,6.1-33.8-10.3,5.5-8.7,21.9-8.1,32.1.7.6,1.3,1.1,2,1.7h0ZM2049.9,249.4c-.4,2-.7,4-1.2,6,4.5-1.4,9.2-2.5,13.8-3.2-3-4.4-7-7.8-11.6-10.4-.3,2.5-.6,5.1-1,7.6h0ZM1600.2,1217.3c-86.7-16.8-71.1-104.4-49.8-167.9-8.2-6.4-15.7-13.8-21.7-22.4-1.1-1.5-2.1-3-3.1-4.5-42.7-8.4-71.2-46.8-82.1-86.9-28.3-19.8-27.6-38.8-42-65.4-56.7-106.5-59.7-303.4,88.7-329.1-11.9-55.4-20.3-114.8-5.3-170.5,17.5-67.8,85.4-113.3,154.4-109.4,14.6-30.5,38.1-57.5,68.7-72.7,7.5-151.4,187-223.3,292-111.3,147.6-13.6,265.7,121.1,214.2,264.5,58.9,99.7,23.4,229.5-58.4,305.4,5.1,119.1-96.4,190.9-203.5,210.6-78.6,14.9-148.8-17.4-190.5-85.3-2.2-1.1-4.4-2.2-6.6-3.3-19.6,32.3-43.2,62.2-72.5,86.1,38.1,2.2,66.5,32.2,75.7,67.4,17.4,22,20.7,51.8,14.3,78.4-7,28.6-23.1,56.4-48.3,72.5-9.8,9.9-15.9,23.3-27.3,32.3-8.7,24.1-6.2,51.4-19.3,73.8-15.3,26.7-47.2,42.2-77.6,37.7h0Z"/>
      <path class="st4" d="M1737.4,708.9c-.5,2.5-1.1,5-1.9,7.4,4.9-4.7,9.2-10,12.9-15.7-3.4,1.8-6.8,3.5-10.4,5-.2,1.1-.5,2.2-.7,3.3ZM1457.4,1025.9c-32.5-4.1-60.4-30.9-65.2-63.4-49.5,16.5-101.8-25-102-76.1-17.7-2.3-35.2-6.8-51.5-14.3-31.3,30.4-70,6.7-92.7-21.5-35.1-44.3-54.6-102.9-54.9-159.3,5.1-79.2,81.4-149.8,161.2-146.1,5.5-66.9,44.2-129.5,102.9-162.7,83.8-47.9,203-40.5,264.1,40,69.8-18,148.2,14.3,184.5,76.6,92.2,40,132.6,162.1,94.6,252.6-47.5,111.4-209.8,203.7-321.6,130.8-8.4,9.8-17.9,18.6-28.4,26.1,4.6,59.8-21,124.4-91.1,117.2h0Z"/>
      <path class="st4" d="M1634,1071.3c-18.7-7.9-33.9-23.1-41.8-41.8-2.8-6.7-4.7-13.7-5.6-20.9-7.1-5-13.5-11.3-19-17.9-37.4,14.6-71.5-11.9-92.9-40.6-26.2-35.1-32.2-80.3-33.6-123-2.5-50.5,9.8-103.1,45.2-140.6-4.2-52.7,19-104.7,55.9-141.6-55.9-147.8,85.2-318.7,241-264.5,54.5-36.5,130.5-31.2,181.8,8.7,71.6,54.9,92.4,157.7,71.5,242.3-15.5,60-56.6,110.2-105.9,146.3,5.2,59.3-14.1,121.3-56.4,163.9-18,18.3-40.3,32.3-63.8,42.5-13.5,14.5-28.1,28-43.2,40.8-7,38.9-19,77.5-34.8,113.8-18.8,33.5-63.2,48.2-98.3,32.7h0Z"/>
      <path class="st4" d="M540.7,836c-43-.6-81.5-24-113.4-51-47.3-36.4-65.5-101.3-40.7-156.2-18.9-59.8,5.3-131.8,72.4-144,15.6-50.3,58.3-88.2,108.1-103.3,101.4-33,183.1,49.5,181.8,149.3,146,120.5,55,313.6-130.8,287.2-23.8,12.3-50.4,19.2-77.2,18h0Z"/>
      <path class="st4" d="M293.6,392.5c-7.6-1.8-14.5-5.2-21.4-8.7-3.6-1.9-7.2-4-10.6-6.5-54,3.6-123.5-30.5-121.6-91.8.3-47.3,40.9-86,86.7-89.8,10.5-6.2,22.2-11.3,34.3-13,22.5-15.1,54-16.9,76,.1,15.4,10.6,20.2,29.4,34.6,40.8,34,35.1,48.7,95,16.3,135.8-21.6,27.9-59.8,42.8-94.2,33.1h0Z"/>
      <path class="st4" d="M574,246c-3-2.9-5.6-6.1-8-9.5-.8-.2-1.5-.3-2.3-.5-14.1,4.6-30,5.5-44.5,2.4-10.9,2.6-20.8,5.5-31.9,7.8-56,11.4-111.3-39.6-102.4-96.6-22-36.5.5-96.5,38.6-113.3,21.5-9.9,48.1-6.7,67.6,6.4,21.3,6.2,39.7,20,52.9,37.6,7.4,3,14.3,6.6,20.9,10.9,13.3,2.1,26.5,6.8,37.5,14.6,38.6,1.5,65,34.7,81.5,66.2,28.5,67.4-58.2,125.8-109.9,74h0Z"/>
      <path class="st4" d="M356,468.5c-42.7-2.3-75.4,3.9-109.8-29.4-50.1-48-48.4-142.4,26.3-164.1,26.3-32.1,73.4-31.4,110.4-22.3,43.5,9.9,78.3,54.4,66.2,99.4,25.8,61.4-31.2,120.7-93.1,116.4h0Z"/>
      <path class="st4" d="M536.3,205.1c-7-.8-14-2.2-20.7-4.4-9.6-3.2-17.8-6.4-26.7-11.4-4.1-2.3-8.1-5.1-11.9-8-4-3.1-7.9-6.5-11.3-10.3-2.6-2.9-5.3-5.8-7.7-8.9-2.4-3.1-4.5-6.5-6.6-9.8-2.6-3.9-4.7-8.3-6.3-12.8-3.2-8.8-4.7-13.9-6.3-23.1-.9-5.2-1.3-10.5-1.1-15.8.4-10.1,1.5-20,4.5-29.7,1.7-5.7,3.6-11.5,6.2-17,2.1-4.4,4.2-8.8,6.5-13.2,0-3.2.3-6.3.9-9.5,1.6-9.2,3.2-14.3,6.4-23.2,1-2.7,2.2-5.3,3.6-7.9h498.8c-.3,3.6-.6,7.2-1.1,10.8-.5,3.6-1,7.2-1.6,10.8-1.2,6.7-2.5,13.3-4.2,19.9-2.6,9.8-6.6,18.7-11.3,27.7-3,5.7-6.8,11.2-11,16.1-3.1,3.6-6.3,7.4-9.7,10.8-3.7,3.6-7.6,7-11.6,10.1-5.2,4-10.8,7.8-16.6,10.9-4.3,2.2-8.8,4.6-13.3,6.5-4.9,2.1-9.9,3.7-14.9,5.2-5.9,1.9-12.2,2.9-18.3,4-6.2,1.1-12.8,1.4-19.1,1.6-3.1,5.2-6.5,10.2-10.3,15-8.1,10.4-17.6,20.4-28.5,27.9-3.9,2.7-7.8,5.4-11.9,7.9-4.1,2.4-8.5,4.4-12.7,6.5-6.1,3-12.8,5.2-19.4,6.8-4.7,1.1-9.6,2.1-14.4,2.9-4.9.7-9.9.9-14.9,1.1-10.2.4-20.1-1.5-30-3.7-4.6-1-9.5-3-13.8-4.5-1.7-.6-3.3-1.2-4.9-2-.4-.2-.7-.4-1.1-.6-.3.1-.7.3-1,.4-8.2,3.5-17.4,5.9-26.2,6.9-8.6,1-18.1,1.3-26.7-.3-1.2-.2-2.5-.5-3.7-.7-4.2,1.3-8.5,2.4-12.7,3.3-6.8,1.4-13.5,2.9-20.4,3.8-7.3.9-14.7,1.3-22,1.4-.5,0-1.1,0-1.6,0-6.4,0-12.9-.6-19.3-1.3h0Z"/>
      <path class="st4" d="M643.8,150.2c-3.8-.2-7.8-.4-11.6-.9-3.6-.4-8.5-1.6-11.2-2.2-11.9-2.6-23-8.6-32.8-15.7-6-4.4-10.9-9.9-15.6-15.5-2.9-3.4-5.5-7.2-7.6-11.1-1.6-3-2.9-5.6-4-8.2-3.1-1.4-6.2-3.1-9-4.9-4.8-3.2-8.4-6-12.7-9.9-3.9-3.5-6.8-7.9-9.6-12.2-4.4-6.8-7.5-15-8.5-23-1.2-10,.3-19.7,3.9-29,2.5-6.5,6.9-12.4,11.9-17.3h404.4c-6.4,9.7-15,18-25.1,23.7-10.1,5.7-20.5,11.2-31.1,15.7-10,4.2-20.3,8.2-30.9,10.7-3.8.9-7.6,1.7-11.4,2.4-.8.8-1.7,1.5-2.5,2.3-1.7,1.6-3.2,3.2-4.8,4.8-5.7,5.6-11.5,11.1-17.8,16-7.3,5.8-15.2,11-23.5,15.2-11.4,5.9-23.4,11.5-36,14.1-4.5.9-9.1,2-13.7,2.7-3,.5-6.3.7-9.4.9-9.7,9.4-20,17.3-31.3,24.5-5.4,3.4-11.3,6.3-17.3,8.6-9.3,3.5-18.4,6.3-28.3,7.6-3.7.5-7.5.9-11.3.9s-2,0-3,0h0Z"/>
      <path class="st4" d="M648,1138.8c-6.6-1.8-12.8-4.4-18.7-7.9-8.7-5.1-16.3-11.8-22.4-19.7-2.2-2.8-4.2-5.7-5.9-8.8-3.9-6.7-5.7-11.9-8.1-19.3-1.9-6.8-2.8-13.8-2.8-20.8s0-1.5,0-2.3c-.7-.3-1.4-.6-2-.9-8.1-3.9-10.8-5.2-18-10.6-5.8-4.3-12.6-10.9-16.6-16.8-4.5-6.7-8.7-12.6-11.6-20.3-1.1-3-2.9-7.4-3.8-11.2-2-8.8-2.5-11.3-2.8-19.3-1.2-1.6-2.3-3.3-3.4-5-11.2,14.5-27.1,24.9-44.7,29.8-15.5,4.4-32.9,4-48.3-.4-2.3-.7-7.6-2.4-11-3.9-5.1-2.2-8-3.8-11.4-6-5.1,1.4-10.3,2.4-15.7,3.5-6.9,1.3-14.1,1.6-21.2,1.7-10.3,0-21-1.4-31-4.2-19.4-5.6-36.8-16.8-50.7-31.2-4.8-4.9-9.3-10.2-13.5-15.7-3-4-5.7-8.1-8.3-12.3-2.8-4.5-5.1-9.5-7.4-14.2-3.1-6.3-5.3-13.1-7.6-19.8-1.4-4.1-2.5-8.3-3.5-12.5-1.1-5.1-2.2-10.2-3-15.4-.8-5.2-1-10.8-1.3-15.9-.4-7.6,0-15.4,1.4-22.9.9-5,1.9-10,3.2-15,1.4-4.9,3.2-9.7,5-14.4,2.7-7.1,6.4-13.7,10.5-20.1-3,0-6,0-9.1.2-4.3.4-8.6,1-12.9,1.8-3.4.8-6.8,1.7-10.1,2.7-2,.8-4,1.6-6,2.5-2.4,1.3-4.8,2.7-7.2,4.2-2.2,1.6-4.4,3.3-6.5,5-3.3,3-6.4,6.2-9.4,9.5-3.4,4.1-6.7,8.3-9.7,12.7-3.3,5-6.3,10.2-9,15.5-1.9,3.9-3.6,7.8-5.1,11.8-.8,2.5-1.5,5.1-2.1,7.7-.3,1.7-.5,3.3-.7,5h0c3.8,7.7,4.3,17.1,2.1,25.1-2.5,9-8.5,16.8-16.5,21.5-8.3,4.9-18.4,6.2-27.7,3.6-9.2-2.5-16.4-8.5-21.5-16.5-7.2-11.3-9.4-25.7-8.8-38.9.6-11.6,2.6-23,6.2-34.1,6.6-20.6,16.7-39.8,28.9-57.7,11.3-16.6,25.1-31.9,41.8-43.3,9.7-6.6,19.9-12.2,31-16.3,11.5-4.2,23.1-7.3,35.2-9.4,16.1-2.8,32.4-3.3,48.7-2.4,2.2-6.1,5.2-12,8.6-17.5,6.8-10.6,14.9-19.8,25-27.4,8.4-6.3,17.6-11.6,27.4-15.4,10.3-4,20.5-6.7,31.3-8.5,1.7-.3,3.4-.5,5.1-.7.5-1.5,1.1-3,1.6-4.5,1.5-4.1,3.2-8.1,5.1-12,3.2-6.6,6.5-13.1,10.5-19.3,7.8-12,16.5-23.6,27.1-33.2,3.6-3.2,7.2-6.5,11.1-9.5s8-5.6,12.1-8.3c8.5-5.6,18.1-9.3,27.8-12.5,6.7-2.2,13.8-3.6,20.8-4.4,10.5-1.1,21-1.1,31.5.5,17,2.7,33.9,8.5,48.5,17.8,14.3,9.2,27.4,20.4,37.5,34.2,10.1,13.8,18.3,29.6,22.3,46.3,2.5,10.5,3.6,19.9,4,30.7,0,2,.1,4,0,6,6.5,7.8,12.3,16.3,17,25.2,3.4,6.4,6.8,12.9,9.6,19.6,3,7.1,5.4,14.5,7.7,21.9,2.3,7.3,4.2,14.2,5.5,21.8,1.2,7.3,1.4,15,.9,22.5,1.3.7,2.6,1.3,4,2,6.3,3.3,12.2,7.4,18,11.6,5.9,4.3,11.3,9.3,16.3,14.6,9.8,10.5,18.9,22,25.6,34.8,14,26.7,23.2,56.1,22.6,86.5-.1,6.8-.7,13.7-1.7,20.5,2.2,3.1,4.2,6.3,6.2,9.5,5.2,8.9,9.8,19.1,12.2,29.2,2.3,9.9,4,20.3,3.4,30.6-.3,4.2-.4,8.4-.9,12.6-.5,4-1.7,8.8-2.4,12.2-1.1,5.2-3.1,10.3-5,15.2-3.5,9.1-9.3,18.1-15.2,25.8-4.4,5.8-9.3,11.4-14.8,16.3-3.8,3.4-7.4,6.8-11.5,9.8-4.1,3-8.3,5.8-12.6,8.5-3.8,2.5-7.7,4.8-11.8,6.9-.8.4-1.6.8-2.4,1.2-11.6,11.4-27.1,19.5-43.2,21.2-2.4.3-4.8.7-7.3.9-.7,0-1.3.1-2,.2-3.8.5-7.7.8-11.6.8-7.2,0-14.4-.9-21-3h0Z"/>
    </g>
  </g>
  <g class="st11">
    <g>
      <path class="st17" d="M1629.6,776.6c.8-.5,1.7-1,2.6-1.4-1.1,0-2.3,0-3.4,0,.3.5.6,1,.8,1.5h0ZM1513.3,836.5c.3-.8.6-1.6.9-2.4-1.2.4-2.3.8-3.4,1.3.9.3,1.7.7,2.5,1.1h0ZM1496.8,975.2c-8.7-1.2-15.1-8.8-15.2-17.4,0-4.5.2-9,.5-13.5-1.7-11.5-3.7-22.9-5.6-34.3-1.8-10.6-3.6-21.3-5.3-31.9-2.5-17.9-7.3-37.3-1.8-55,2.3-6.3,7.6-11.8,14.3-13.2,6.2-1.3,12.5-.1,18.7-1.7,9.1-1.9,18.1-4,27.1-6.3,0-8.9,0-17.8,0-26.7,0-19.2.2-38.5.2-57.8h0c0-2.7,1.3-5.3,3.3-7,.7-4.3,2.1-8.6,5.2-11.7,6.2-5.7,18.7-6.3,26.8-6.9,21.3-.6,23.2,26.5,24.9,42.4,0-.2,0-.5,0-.8.4,5.1.9,10.3,1.1,15.4,12.3-1.1,24.7-.7,37.1-1.2,5.2-.2,10.5-.3,15.7-.6,4.3-.2,8.6-.7,12.9.3,10.5,2.4,15.5,10.3,17.9,20.2,2,7.2,2.6,14.9,3.1,22.4.6,14.9,1.7,30,.3,44.8-1.3,11.4-14.1,18.8-24.6,14.1-11.8-5.7-14.8-20.7-17.8-32.3-5.9,10.2-11.5,20.5-16.8,31-1.7,3.6-3.4,7.2-5.9,10.4-7.6,10.3-24.8,6.2-27-6.4-3.5,1.8-8.2,1.9-11.6-.3-3-.9-5.8-2.7-7.9-4.9-2.9,3.6-7.8,5.8-12.5,5.1-1.4.8-2.9,1.7-4.3,2.6-.2.2-.5.3-.7.5-3.3,9.1-7.8,17.8-12.2,26.4-3.4,12-6.7,23.9-9.5,36-2.7,10.8-5.2,21.7-7.6,32.5-2,7.7-2.9,16.8-9.6,22-3.7,2.9-8.5,4.1-13.1,3.5h0Z"/>
      <path class="st17" d="M1045.8,779.4c-2.8-2.7-4.2-6.5-4.3-10.4-.3-5.4-.6-10.8-.8-16.2-.2-6.6-.5-13.2.3-19.8.6-7.6,4.3-15.4,11.5-18.7,4.8-2.3,10.4-1.8,15.6-1.9,9.3.2,18.6.6,27.9,1-.9-12.2-1.7-23.1,12-27.9,18.8-6,38.8-4,58.2-3.1,6.4.3,13.3,2.1,17.5,7.4,5.6,7.2,4.8,22.4,5.7,31.5.6,12.1.8,24.2,1.3,36.3,1,7.9-3.8,16.8-12.2,17.8-15.2,1.5-17.4-15.1-19.4-26.4-3.8,3.9-8.9,6.2-14,8-1.6,1.6-3.3,2.9-5.4,3.8-4.3,1.9-9.4,2.2-13.8.6-3.1.2-6.2-.1-8.9-1.3-2.4,11-18.1,10.7-19.9-.6-.2-1.4,0-2.9.3-4.2,0-4.5,0-9,0-13.5-4.3-.1-8.7-.2-13-.2-4.8,0-9.7-.1-14.6,0,0,9.2.8,18.3,1.3,27.5.2,3.8-1.7,7.8-4.3,10.4-5.5,5.7-15.4,5.7-20.8,0h0Z"/>
      <path class="st17" d="M595.5,946.6c-.8-5.9-1.5-11.8-1.6-17.8,0-5.7-.1-11.5-.1-17.2,0-11.1-.2-22.2-.2-33.4,0-5.3,0-10.6-.2-15.9,0-5.2-.2-10.5,0-15.8.4-10.3.8-20.6.9-30.9.1-10,.2-20,0-30,0-5.2-.2-10.4-.3-15.6-.1-4.4-.2-8.8-.5-13.2-.6-8.2-1-16.4-2.5-24.5-.4-2-.9-3.9-1.5-5.8-.3-.8-.6-1.5-1-2.3-.2-.4-.4-.8-.7-1.2,0,0,0-.1-.2-.2h0c-.2-.1-.4-.2-.5-.2-.5,0-.9-.1-1.4-.2-5.7-.2-11.4,0-17.1.4-5.5.4-11,.8-16.4,1.8,0,0,0,0,0,0-.3,4.8-.3,9.6-.4,14.4-.1,5.7-.2,11.5-.2,17.2,0,10.3,0,20.6.4,30.9.3,11.6.8,23.2,1.2,34.8.2,5.3.5,10.6.7,15.9,0,2.2.1,4.3.2,6.5,0,2.8,0,5.7,0,8.5,0,1.2-.3,2.4-.9,3.5-.7,1.4-1.9,2.5-3.5,3.1h0c-1.8.7-3.7.7-5.5,0-2.6-1-4.4-3.8-4.4-6.6s0-.4,0-.5c0-2.6-.1-5.3-.2-7.9-.1-2.3-.2-4.5-.3-6.8-.3-5.4-.7-10.8-1-16.3-.7-12.2-1.4-24.4-2-36.6-.5-10.5-.9-21.1-1.3-31.6-.2-5.1-.4-10.2-.5-15.3,0-2.7-.2-5.3-.2-8,0-4.1-.3-8.2.6-12.3.5-2.1,1.7-4.3,3.3-5.9s4.4-3.2,7-4c3.1-1,6.2-1.4,9.4-1.8,3.6-.5,7.3-.7,11-.9,7.1-.4,14.1-.6,21.2-.2,3.1.2,6.1.8,8.9,2.1,3.6,1.8,6.3,4.6,8.4,8,2,3.2,3.3,7,4.3,10.7,1.1,4,1.8,8.2,2.4,12.4.5,3.8.8,7.6,1.1,11.5.2,2.6.5,5.2.6,7.9.6,11.1,1.2,22.2,1.5,33.3.2,8.8.4,17.7.6,26.5.2,8.6.4,17.2.9,25.7.2,2.7.4,5.4.6,8.1.2,2.8.3,5.7.4,8.5.2,5.6.4,11.2.6,16.8.3,10.7.5,21.5.8,32.2.1,5.9.3,11.8.4,17.7,0,3.3,0,6.5-.2,9.8-.2,3.6-.6,7.2-1.1,10.8-.7,5.3-5.4,9.3-10.7,9.3s-10-4.1-10.7-9.3h0Z"/>
      <path class="st17" d="M586.7,704.9c-.2,0-.3,0-.5,0,.4,0,.8,0,1.2,0-.2,0-.5,0-.7,0h0Z"/>
      <path class="st17" d="M537.5,771.3c-7.7-1.2-15.5-.9-23.2-1.3-4.9-.4-10.2,0-14.7-2.2-2.1-1-3.1-3.8-1.9-5.9,1.3-2,4.6-3,6.6-1.6,12.4-.4,24.6-2.1,36.8-4.3,4.2-.6,9,1.8,10,6.2.8,3.2-.5,6.7-3.4,8.3-3.2,1.9-6.8,1.2-10.2.7h0Z"/>
      <path class="st17" d="M589.7,895.4c0-2.1.5-4.2,1.3-6.1-2.6-4.1-2.5-9.2-.8-13.6,1.2-3.8,3.2-7.4,6.7-9.7-8.3-5-9.1-15.2.3-19.5-.1,0-.3.1-.4.2,3.9-2.2,8.4-2.5,12.7-3.5-.4,0-.8-.2-1.2-.3,0,0,0,0,.1,0,0,0-.1,0-.2,0h0c-7-1.8-8.6-11.3-2.8-15.4,0,0,0,0,0,0,2.3-1.7,5.3-2.4,8.1-1.6,2.8,0,5.6,0,8.4,0,12.2.3,24.4,0,36.5.6-.2,0-.4,0-.6,0,3,0,5.9.5,8.7,1.8,6.9,2.7,8.2,12.6,2.2,17-1.7,1.3-3.5,2.3-5.5,3.1,12.2.3,16.5,16.3,6,22.5-5.5,3.3-11.7,4.6-17.9,6.1,7.1,7.5,5.9,21-4.3,25-6,2.5-12.3,3.9-18.8,4.7-8.2,1.3-16.5,2.6-24.8,2.9-7.6,0-13.8-7-13.8-14.4h0Z"/>
      <path class="st17" d="M577.3,751.7v.4c0,0,.2-.1.2-.2,0-1.5-.2-3-.2-4.5h0c0,1.4,0,2.9,0,4.3h0ZM584.6,857c-2.2,1-4.6,1.4-7.1,1.1-1.2-.2-2.5-.5-3.6-1.1-.7.3-1.4.5-2.2.6-2,.3-4-.2-5.7-1.2-6.6,4.1-16.4-.3-17.1-8.2-.9-8.5-1.4-17.1-1.8-25.6-.8-16.3-1.1-32.6-1.4-49,.3-8.7-1.2-17.7,1.1-26.3-6.8-6-6-17.9,2-22.5.2-9.5,7.3-13.1,15.3-15.6,9.8-3.6,20.1-13,30.7-6.3,7.6,4.5,8.8,13.9,9.7,21.9,2.9,28,3.3,56.2,3.6,84.4,0,8.3,0,16.6,0,24.8,0,4.1-.3,8.2-.5,12.3-.1,2.5-.6,4.8-1.9,7-4.1,7.3-14.5,9.1-20.9,3.7h0Z"/>
      <path class="st17" d="M592.6,818.1c-1.8-1.8-2.6-4.1-2.7-6.6-.8-25.3-.3-50.7-.4-76,0-6.1.2-12.2-.9-18.3-6.2-1.2-12.5-2.2-18.8-2.8-6.6-.9-13.6-.8-19.8-3.6-3.2-1.5-4.1-6.3-1.2-8.6,3-2,6.9-1.6,10.3-2,10.5-.8,21.1-1.4,31.7-.7,8.8.1,14.4,5.2,16.2,13.6,2.2,9.3,1.6,18.9,1.9,28.3.3,21.6,0,43.3-.5,64.9-.2,4,.3,8.6-2.9,11.7-3.5,3.6-9.7,3.6-13.1,0h0Z"/>
      <path class="st17" d="M494.2,866c-8.8-3.2-14-12.2-14.2-21.3-.4-8.3,4.2-15.9,8.8-22.5.2-.6.3-1.2.5-1.8-5-8.8,2.2-17.2,9.4-21.9l-.2-.2c-8.1,3.4-16.3,6.6-24.5,9.7-3.5,1.3-7.2,1.5-10.6,0-10.9-4.3-11-20.8,0-25.2,2.6-1,5.1-1.9,7.7-2.9,3.5-11,13.5-11.8,23.4-12.4,5.3-.7,10.8-2.6,16-1,1.4.5,3,.2,4.4.4,3.9.9,6.9-.8,10.7-1.3,3.6-.5,7.3,1.1,9.4,4,3.7-.2,7.5,0,11,1.3,4,.9,5.8,6,3.8,9.3-2,3.4-6.3,3.8-9.4,2.1,1.7,2.7,2.9,5.6,3.6,8.7.3,1.8.4,3.5.2,5.3,1.4,1.8,2.3,4,2.6,6.3.3,2.2,0,4.4-.8,6.5,6.4,3.6,8.8,12.3,5.3,18.7,0-.1.1-.3.2-.4-1,2.2-2.1,4.3-3.7,6.2-.6.7-1.3,1.5-2,2.1,12.2,5.9,10.7,23.9-2.5,27.7-4.9,1.5-10,2.3-15,3-4.9.7-9.8,1.7-14.9,1.7-6.5.2-13.2.6-19.3-2.2h0Z"/>
      <path class="st17" d="M163.5,817.9c-3-2.3-5.3-6-5.7-9.8-.4-4.8-.8-9.7-1.1-14.5-5.7.8-6.3-5.8-6.9-10-1.1-8.5-1.8-17.1-2.6-25.7-1.9-22.6-3.7-45.2-6.3-67.8-1.3-5.3.6-11.9,6.2-13.9,2.5-1,5.1-1.2,7.7-1.7,5-1.1,9.8-2.5,14.8-3.7,16.5-4.3,33.5-5.9,50.3-8,3.9-.5,7.8-.9,11.7-1.6,3.6-.8,7.2-1.5,10.9-.5,8.5,1.9,13.3,12.1,8.7,19.6-3.7,6.4-11.7,7-18.3,7.5-6.3.7-12.6,1.5-18.9,2.6.6,5.1-1.5,10-4.4,14,2.2,8.1-3.9,15.3-8.6,21.3-3.1,4.2-6.2,8.5-9.2,12.8-1.6,10.2-.6,20.5-1.1,30.8-.4,7.2.4,15.3-3.4,21.8,0,5,0,9.9.3,14.9.5,12.1-14.8,19.4-24.1,11.8h0Z"/>
      <path class="st17" d="M349,950.8c-4.5,0-9.1-.2-13.5-1.5-19-6.5-25.1-25.6-12.1-41.4-13.3-5.2-19.5-20.9-8.5-31.7-1.6-2.5-2.7-5.3-3.1-8.3-.2-1.5-.3-3-.2-4.5-4.7-2.5-8.1-7.2-8.8-12.6-.5-3.7.3-7.3,2-10.4-2.8-5.6-3.3-13,.9-18-8.6-1.2-11.3-12.8-3.6-17.3,2.2-1.3,4.6-1.5,7.1-.9,7.7,1.4,15.4,2,23.2,2.5,13.5.7,26.9,1.4,40.4,1,12.1-.8,18.3,14.6,8.9,22.3,3.2,2.2,5.7,5.6,6.8,9.4,1.6,5.7,0,11.4-3.9,15.7,5,2.7,8.5,7.5,9.2,13.2.7,5.4-1.1,11.1-5,14.9,5.7,10.8-1.7,21.6-10.4,28.1,9.9-1.4,19.8-2.8,29.8-4,4.7-.6,9.5.6,13.3,3.5,12.4,9.3,6.9,29.7-8.4,31.7-11.1,1.5-22.2,3.3-33.4,5-10.2,1.4-20.3,3.5-30.6,3.4h0Z"/>
      <path class="st17" d="M52.7,699.4c0,0,.2-.2.3-.3,2.3-2,5.5-2.9,8.6-2.8.1-3,.2-6,1.1-8.9.8-2.7,2.2-5.3,4.2-7.3,2.1-2.1,4.7-3.3,7.5-3.9.4,0,.8-.2,1.2-.2-.2-.8-.5-1.7-.7-2.5-.2-.5-.4-.9-.6-1.3-1.2,0-2.3,0-3.4.1-6.2.5-12.4,1.1-18.5,2,.5,8.4.5,16.8.3,25.2h0ZM80.3,911.3c-.8-3.5-.9-7.2-1.1-10.8,0-2-.2-4-.3-6-1.6-1.2-2.9-2.6-3.9-4.3-6-.4-11.6-4.6-13.2-10.6-.5-2-1-4.1-1.2-6.2-.2-1.5-.3-3.1-.4-4.7-.2-1.6-.3-3.2-.5-4.8,0-.3,0-.6,0-1-.1,0-.2,0-.3,0-3-.4-5.8-1.8-8-4-2.2-2.2-3.4-4.9-4-8-.3-1.8-.7-3.6-.9-5.4-.2-2.1-.3-4.2-.4-6.3,0-1.5-.2-3-.2-4.6-.1-2.7-.3-5.4-.4-8.2-.2-5.2-.4-10.4-.5-15.5-.1-5.6-.3-11.2-.3-16.8,0-2.1,0-4.2,0-6.3-.2-4.3-.3-8.7-.5-13-.1-4.1-.2-8.1-.3-12.2,0-2.9-.2-5.8-.2-8.7,0-.5,0-1,0-1.5-2.9.8-6.1.2-8.5-1.6-1.6-1.3-3.2-2.8-3.9-4.7-.7-1.8-1.2-3.5-1.4-5.4-.3-2.7,0-5.5-.2-8.2-.1-3.4-.2-6.8-.3-10.2-.2-5-.2-10.1-.2-15.1,0-10.9,0-21.9.6-32.8.2-3.1.5-6.1,1.7-9,.9-2.1,2.3-3.8,4-5.1.6-3.5,3.4-6.3,6.9-6.7,2.2-.3,4.3.3,6,1.6,1.3-.3,2.7-.5,4-.7,5.2-.9,10.3-1.8,15.5-2.6,4.2-.7,8.4-1.4,12.6-.8,8.4,1.2,13.9,8.3,16.7,15.9,2.7,7.2,3.9,14.9,4.8,22.4.6,4.5.9,9.1,1.2,13.6,0-.2,0-.5,0-.8,0,.5,0,1.1.1,1.6h0s0,0,0,0c.2,2.6.3,5.3.5,7.9,0,0,0,.2,0,.3h0c0,.6,0,1.2,0,1.7.7,10.7,1,21.5,1.2,32.3.3,11,.3,21.9.1,32.8-.2,10.6-.6,21.1-1,31.7-.2,5.2-.4,10.3-.6,15.5,0,.1,0,.2,0,.4,2.1,2.4,3.5,5.3,4.2,8.4.7,3,.8,6,1,9.1.2,2.5.2,4.9.2,7.3,0,5.5.1,11.1.2,16.6,0,10.7.3,21.3.2,32,0,3.3,0,6.5-.3,9.8-.2,3.1-2,6.2-4.2,8.4-2.2,2.2-5.2,3.7-8.4,4.2-.6,0-1.2.1-1.9.1-6.4,0-12.7-4.3-14.2-10.7h0Z"/>
      <path class="st17" d="M103.5,711.9c0-.2,0-.3,0-.5,0,.5,0,1.1.1,1.7,0-.4,0-.8,0-1.1h0Z"/>
      <path class="st17" d="M45.5,704.7c.2-6.3.3-12.6.4-18.9.2-4.5-.3-9.1.6-13.5,1.8-6.9,9.9-10.9,16.4-8,8.9,3.8,8,14.7,8.2,22.8.7.7,1.3,1.7,1.6,2.7.6,2.2,0,4.3-1.5,5.9v9c-.7,17-25.1,17-25.7,0h0Z"/>
      <path class="st17" d="M2015.6,701.1c.8-.3,1.7-.5,2.6-.6,1.1-.1,2.1-.2,3.2,0,.8-.8,1.8-1.5,2.8-2-8.8-.3-17.7-.1-26.5.4-.5,0-1.1,0-1.6.2.3.2.5.3.8.5,2.6-.8,5.3-.9,7.9-.2,1.1-.3,2.2-.5,3.5-.5,2.6,0,5.2.8,7.4,2.3h0ZM1976.6,838.3c-1.7-6.9-2.6-13.8-3.1-20.8-.3-4-.5-7.9-.8-11.9-1-28.6-1.4-73-6.5-106.7-3.2-20.3,12.4-21.3,28-22.9,13.6-1.2,27.4-1.5,40.9,0,19.1,3,22.1,25.5,24.4,41.2,3.1,23.7,4.7,47.6,6.1,71.5.2,9.3,2.8,21.8-5.4,28.5-7.2,5.6-18.5,2-22.9-5.6-2-3.1-3-6.8-3.8-10.3-2.9-11.1-5-22.4-6.5-33.7-1.4,7.2-1.6,14.8-4,21.8-.7,2-2.1,3.6-3.2,5.3-3.4,4.8-10.9,5.8-15.6,2.2-.4,5.7-5.3,10.6-11,11,.6,8.3,1,16.8,3.2,24.8,3,13.5-15.8,18.5-20,5.5h0Z"/>
      <path class="st17" d="M1983.4,857.6c-.8-1.2-1.7-2.3-2.4-3.5-1-1.6-1.5-3.6-1.9-5.4-.5-2.9-.3-5.7,0-8.6.5-8.7,1.5-17.3,2.5-26,.6-5.5,1.6-10.9,2.5-16.3.3-2.1.6-4.2,1.1-6.2.7-2.9,1.3-5.8,2-8.7,1.1-4.8,2-9.8,3.4-14.5,2-6.7,3.9-13.3,5.9-20,1.5-5,3.2-9.8,4.9-14.7,1.6-4.8,3.2-9.7,4.8-14.5.9-2.7,1.7-5.3,2.6-8,.4-1.3.7-2.6,1.1-3.9.3-1.2.8-2.5,1-3.7.2-.8.3-1.6.5-2.4,0-.6.2-1.2.2-1.8v-.2s0,0,0,0h0c0-1.5.3-3,1.1-4.3,1.5-2.5,4.2-4.1,7.2-4.1s5,1.2,6.6,3.2c1.5,2,1.9,4.3,1.5,6.6,0-.1,0-.2,0-.3-1.8,10.6-4.9,20.9-8.1,31.2-2,6.4-3.9,12.8-5.9,19.2-1.5,4.8-2.7,9.8-4,14.7-.8,3.1-1.7,6.3-2.5,9.4-.6,3.3-1.3,6.7-1.9,10,2.4-.2,4.8.3,7,1.6,3.1,1.8,5.7,5.2,5.9,8.9.2,3,.4,6,.6,8.9,0-.3,0-.5,0-.8.2,3.7.4,7.4.9,11.1,0,0,0,0,0,0,.2.4.3.8.5,1.2.5,1,1.1,1.9,1.7,2.8.1.2.3.4.4.5,1.6,2.3,2.6,4.8,2.6,7.6s-1.3,6.5-3.7,8.8c-3.2,3.2-8,4.3-12.2,3.2-.3,1.2-.6,2.5-.9,3.7-.7,2.5-1.5,5-2.5,7.3-1.1,2.3-2.5,4.4-3.8,6.6-1.8,3-4.8,5-8.2,5.5-.5,0-1,0-1.5,0-3.4,0-6.9-1.6-9-4.4h0Z"/>
      <path class="st17" d="M2019.2,804.2c0,.3,0,.6,0,.9,0-.3,0-.6,0-.9Z"/>
      <path class="st17" d="M2195.5,655.7c-.2-.9-.3-1.8-.5-2.7-.3-1.4-.6-2.8-1-4.2-1.4,0-2.8,0-4.2,0-2.3.2-4.5.4-6.8.7,1.4.4,2.8,1.1,4.1,2.1,1.3,1,2.5,2.4,3.4,3.9.7-.2,1.5-.3,2.2-.3s1.9.2,2.8.5h0ZM2205.6,873c-11.2-5.8-11-33-12.8-44.7-3.1-37-2.1-74.2-4.3-111.3-.3,0-.6.1-1,.2h0c-4.9,9-19.1,6.7-20.5-3.6-3.6-.5-6.7-3.7-6.9-7.3-1.5-10.4-2.8-20.8-4.7-31.1-1-5.3-2-10.6-3.1-15.9-.9-6.1-3.5-12.8-.9-18.8,1.9-4.4,5.6-8,10.1-9.7,10.3-4.2,21.7-5.1,32.8-5.4,17.7-.8,22.4,10.6,25.2,25.8,2.9,15.1,4.8,30.5,6.1,45.8,0-.4,0-.8,0-1.2,3.9,44,2.6,88.3,2.9,132.5,0,6.8,0,13.6.1,20.4,0,4.5.3,9-.6,13.4-1.4,10.3-13.4,16.3-22.3,10.9h0Z"/>
      <path class="st17" d="M2237.8,867.6c-10.3-1.2-17.6-12.4-14.4-22.3-9.2-2.1-18.3-4.4-22.6-13.8,0,.1.1.3.2.4-4.2-6.8-3.3-15.9,2.5-21.5-3.8-7.6-.4-15.4,4.8-21.4-8.9-4.5-10.2-18-2.7-24.5-4.4-6.8-2.5-17,4.8-21,3.7-2.2,8-2.2,12.1-2.9.6-4.2,3.7-7.9,7.9-9,4.5-1.2,9.3-1.6,13.9-2.1,2.2-3.9,7.1-4.9,11.1-5.6,4.7-.8,9.6-2,14.2-.2,7,3.4,9.1,12.7,2,17.3-1.7,1.1-3.4,2.2-5.2,3,0,.8,0,1.5,0,2.3,18.9.5,21.4,21.7,5.7,29.6,1.3,2.8,1.8,5.9,1.4,9,0,.2,0,.5,0,.7,0-.2,0-.5,0-.8-.2,2.3-.5,4.6-1.6,6.8-1,2.1-2.4,4.1-4,5.7,9.1,6.9,7.8,21.8-2.1,27.4,7.2,7.6,6.9,19.2.3,27-2.9,3.7-6.8,6.4-10.5,9.2-5.6,3.8-10.7,7.8-17.9,6.6h0Z"/>
      <path class="st17" d="M2183.2,678.7c-6.8-.9-11.9-8.1-9.8-14.9.8-2.7,1.8-5.4,2.8-8.1-.3-1.3-.7-2.5-1.1-3.8-.7-1.7-1.4-3.3-2.2-5,0,.1.1.2.2.3-1.4-2.8-2.4-5.7-1.5-8.9.9-3.4,3.9-5.7,7.3-6.2,0,0-.1,0-.1,0,.8-.1,1.6-.2,2.4,0,1.8.2,3.4,1.1,4.7,2.3,1.6,1.5,2.4,3.6,2.4,5.7.5.7,1,1.3,1.5,2-.1-.2-.2-.3-.3-.5.2.4.5.7.7,1.1,0,0,0-.1-.1-.2,1,1.5,2.1,3.1,3.1,4.6.9,1.2,1.8,2.3,2.5,3.6,1.9,3.3,2.2,6.8,1.9,10.5-.2,2.4-.5,4.8-.9,7.1-.5,3.1-2,5.8-4.5,7.8-2.1,1.6-4.6,2.5-7.3,2.5s-1.1,0-1.6-.1h0Z"/>
      <path class="st17" d="M2189.1,641.4c.1.2.2.3.3.4-.1-.2-.2-.3-.3-.4Z"/>
      <path class="st16" d="M231.1,814.8c-1.9-.3-3.7-.7-5.5-1.4-7.2-.6-14.3-3.6-19.2-9-3.4-3.7-6.2-7.4-8.1-12-.2-.4-.4-.9-.5-1.3-5.1.5-10.4-.2-15.2-2.2-7.3-3.1-13.3-9-16.4-16.4-1.6-3.8-2.4-7.9-2.4-12s1-8,2.4-12c2.7-7.3,7.4-13.5,11.8-19.9,1.8-2.6,3.5-5.2,5.3-7.7,3-4.4,6.5-8.3,10.5-11.8,2.4-2.1,5.2-3.6,8.1-5,3.4-12.7,15.3-22,28.7-22s13,2.2,18.1,6.2c3,2.3,5.6,5.2,7.5,8.5,2,3.5,3,7,3.8,11,1,5.1.6,10.7.8,16,0,2.8.2,5.6.2,8.3.1,4.6.3,9.3.5,13.9.2,5.4.5,10.8.8,16.2.2,3.4.4,6.8.6,10.1.1,2.2.2,4.3.4,6.5.1,2.8,0,5.7-.2,8.5-.4,4-1.8,7.6-3.2,11.2-4.1,10-14.3,16.4-25,16.4s-2.3,0-3.5-.2h0Z"/>
      <path class="st16" d="M239.4,889c-4.7-3.6-8.6-9.5-9-15.6-1.7-22.9-2.8-45.9-3.6-68.9-.8-23.2-1.6-46.5-2.6-69.7-.3-8.2-.7-16.4-.8-24.5,0-4.6-.2-9.2,0-13.8.3-5.2.5-10.5,1.4-15.6,0-2.3.6-4.6,1.8-6.7,3.1-5.3,9.5-7.9,15.4-6.3,5.8,1.6,10,7.1,10,13.1s0,1.4-.2,2.1c.9,9.6,2.5,19.1,4,28.6,1.9,11.7,3.7,23.4,5.6,35,3.3,21,6,42.2,8.9,63.3,2.5,19,5,37.9,7.2,57,.7,6.3-.8,12.6-4.7,17.7-3.8,4.9-9.4,8.2-15.6,9-1,.1-2.1.2-3.2.2-5.2,0-10.4-1.7-14.6-4.9h0Z"/>
      <path class="st16" d="M238.2,785.5c-2.9-2.3-5.4-6-5.7-9.8-.9-11.6-1.9-23.1-2.9-34.7-1-11.3-2.1-22.7-3.8-33.9-.7-4.5-1.4-9-2.3-13.5-.2-1-.5-1.9-.7-2.9-1.6-2.7-2.2-5.9-1.8-8.9.7-5.3,4.7-9.9,9.9-11.3,5.3-1.5,11.1.5,14.4,4.8,1.4,1.9,2.4,4.1,2.7,6.5.1.8.1,1.6.1,2.3,1.1,4.5,2.3,9,3.2,13.5.9,4.9,2.1,9.8,2.8,14.7,1.7,11.2,3.3,22.4,4.7,33.7,1.1,8.5,2.2,17.1,3.1,25.7.5,4-.5,8-3,11.1-2.4,3.1-5.9,5.1-9.8,5.7-.7,0-1.3.1-2,.1-3.3,0-6.5-1.1-9.1-3.1h0Z"/>
      <path class="st16" d="M578.3,1118.1c-4.4-1.8-8.4-4.6-11.7-7.9-3.5-3.5-5.8-7.4-7.9-11.7-2-4.1-3.2-8.5-4.5-12.8-.7-2.4-1.3-4.8-1.8-7.2-1.5-6.6-2.9-13.2-4.1-19.9-2-11-3.6-22-4.6-33.2,0-.4,0-.7,0-1.1-2.6,1.5-5.4,2.7-8.4,3.3-3.5.8-6.2,1.1-9.7,1.2-.5,0-1,0-1.5,0-.4,0-.8,0-1.2,0-1.5,0-3,0-4.6-.3-5.3,4.1-12.1,6.5-18.8,6.5-9.7,0-19.5-5-25.1-13-11.1-.6-21.1-9.3-22.5-20.6-.3-2.6-.6-5.1-.7-7.6,0,.6,0,1.2.1,1.8,0-.9-.1-1.8-.2-2.8,0-.1,0-.2,0-.4,0,0,0,.2,0,.2-.5-8.4-.3-16.9-.5-25.3,0-4.9-.1-9.7-.2-14.6-.1-11.8-.1-23.6,0-35.5.1-21.7.2-43.3-.2-65-.2-8.9-.4-17.8-.7-26.8-.4-9.5-1-19.2-.6-28.8-1-5,0-10.3,3.3-14.5,4.4-5.7,12-8.2,19-6.3,6.8,1.9,12,7.8,13,14.8.4,3.2,0,6.3-1.2,9.1,0,4,.5,8,.7,11.9,0-.7,0-1.3-.1-1.9.6,6.9,1.1,13.9,1.6,20.8,2-.2,4.1-.2,6.1.1,5.7.8,11,3.4,15,7.5.9.9,1.6,1.8,2.3,2.7,3.2-1.1,6.6-1.6,10.1-1.6s4.6.2,6.9.7c7.2-12.1,21.4-18.8,35.4-16.9,6.2.8,12,3.3,16.9,7.1,2.4,1.9,4.6,4,6.4,6.4,2.5,3.3,4.1,6.7,5.5,10.5-.2-.6-.4-1.2-.6-1.7,1.6,4.4,3.4,8.7,4.4,13.2,0,.1,0,.2,0,.3,1.4.8,2.7,1.7,3.9,2.7,3.8,2.9,7,6.5,9.4,10.7,2.1,3.5,3.3,7.1,4.2,11,0,0,0-.2,0-.3,0,0,0,.2,0,.3.2.9.4,1.8.6,2.7,0,.2,0,.5.1.7,0,.3.1.6.2.9,0,0,0,.2,0,.2,0,0,0-.2,0-.2.7,3.5,1.3,6.9,1.5,10.5.4,5.5.7,11.1.8,16.6,0,4.2.2,8.3.2,12.5.1,7.2.3,14.5.4,21.7.2,11.2.5,22.4.9,33.5.2,8.1.7,16.2,1.2,24.3.5,5.1.9,10.1,1.4,15.2.5,5,1.3,9.9,2,14.9,1.1,8.1,2.7,16.2,4.3,24.2.6,2.8,1.3,5.5,2,8.2,0,.1.1.2.2.4,4,8.9,3.8,19.8,0,28.7-3.7,8.8-10.9,15.9-19.6,19.6-4.5,1.9-9.5,2.9-14.4,2.9s-9.8-1-14.4-2.9h0Z"/>
      <path class="st16" d="M2002.5,953.4c-3.3-1.4-6.4-3.5-9-6.1-2.4-2.5-4.9-5.7-6.1-9-1.8-5.1-3.2-10-4.1-15.3-.5-2.7-1-5.4-1.4-8.2-.8-5.3-1.4-10.6-1.8-16-.3-3.8-.8-7.6-.8-11.4,0-3.4-.2-6.8-.3-10.2-.1-5.5,0-11,.2-16.5.2-9,.7-18,1.4-27,0-1.4,0-2.9,0-4.3.1-4,.6-7.5,1.5-11.4,1-4.4,3.4-8.9,6.1-12.5,2.9-3.8,6.5-6.5,10.6-8.6,1.3-3.6,3.2-6.8,6-9.6,1.1-1.1,2.3-2.1,3.5-3,0-2.4.2-4.8.4-7.2,0-.5,0-1,0-1.5,0-.9,0-1.8.2-2.6,0-7.2,4.3-13.9,10.4-17.5h0c3.2-1.9,6.9-2.9,10.6-2.9s9.4,1.4,12.8,4.4h0c2.1,1.8,3.9,3.6,5.3,6,1.4,2.4,2.3,5,2.7,7.7.7,4.8-.4,9.8-3,13.9,0,.2,0,.4,0,.6-.2,3.2-.3,6.5-.4,9.7,1.1,2.3,1.8,4.8,2.2,7.4.1.8.2,1.6.3,2.4,0,0,0-.1,0-.2,0,.2,0,.4,0,.5,0,1,.1,2,.2,3,0-.6,0-1.2-.1-1.8.3,4.7,0,9.5.1,14.2,0,2.3,0,4.6,0,6.9,0,5.6,0,11.2.2,16.8,0,5.2.2,10.5.3,15.7.1,3.8.2,7.7.4,11.5,0,2.6,0,5.1,0,7.7.1,1.3.2,2.5.4,3.8.6,6.6-.4,13.1-3.8,18.9-2,3.4-4.7,6.4-7.8,8.7.3,3.2.6,6.4,1.1,9.6,1.4,6.2,1.2,12.4-1.3,18.3-2.8,6.7-8.3,12.2-15.1,15-3.5,1.5-7.2,2.2-11,2.2s-7.5-.7-11-2.2h0Z"/>
      <path class="st16" d="M2082.3,895.7c-4.2-.6-8.3-1-12.5-2.2-3.9-1.1-7.4-2.7-10.9-4.6-5.8-3.3-10.5-8.3-14.1-13.9-2.1-3.2-3.6-7.2-4.6-10.9-.9-3.1-1.3-6.8-1.4-10,0-3.6.5-6.5,1.2-9.9.4-1.6.9-3.2,1.6-4.8-2.4-2.4-4.3-5.2-5.8-8.1-1,0-1.9-.2-2.9-.3-.6,0-1.2-.2-1.8-.2-8.7-1-15.8-8.4-17-17-1.4-10,5-19,14.4-21.8,5.7-1.8,12.1-2,18.1-2.4,1.3,0,2.5-.1,3.8,0,1.2-.7,2.5-1.3,3.8-1.9,3.3-1.5,6.4-2.2,9.9-2.9,3.8-.8,7.7-.6,11.6-.8,2.6-.1,5.3-.3,7.9-.4,4.9-.2,9.7-.4,14.6-.6,4.4-.2,8.9,0,13.3,0,2.1,0,4.2,0,6.3,0,4.3,0,8.7.5,13,.9,2.4.2,5,.5,7.2,1.2,2.4.8,4.8,1.7,7.1,2.5,5.2,2,9.7,6.2,12.5,11,3.6,6.1,4.5,13.5,2.7,20.3-.6,2.1-1.4,4.2-2.5,6,4.6,1.2,9.1,3.4,12.8,6.2,7,5.4,11.7,13.5,12.9,22.2,1.2,9-1.2,18.2-6.8,25.3-5.4,7-13.4,11.6-22.2,12.9-11.5,1.7-23.1,3-34.6,3.8-8.1.6-16.2,1.3-24.2,1.3s-8.9-.2-13.3-.8h0Z"/>
      <path class="st16" d="M2290.8,848.9c-6.8-5.2-11.1-12.6-12.9-20.9-.1-.3-.2-.7-.3-1-.9-2.3-1.9-4.7-3-6.9-.7-1.3-1.4-2.6-2.2-3.9-6.6-11.1-4.6-25.8,4.5-34.8.8-.8,1.6-1.6,2.5-2.2.1-3.7.3-7.5.4-11.2,0-2.9.2-5.8.2-8.8,0-.6,0-1.2,0-1.9-3.2-.9-6.3-1.6-9.5-2.3-3.2-.6-6.4-1.2-9.6-1.8-2.4-.5-4.8-.8-7.1-1.4-1.3-.3-2.5-.7-3.8-1-1.8-.5-3.5-1.2-5.1-2.1-.1,0-.2-.1-.4-.2-4-1.9-7-5.4-7.6-9.9-.6-4.5,1.3-8.8,4.8-11.7,1.7-1.4,3.5-2.7,5.5-3.6.9-.4,1.9-.7,2.8-1l4.5-1.5c1.2-.4,2.5-.5,3.7-.8,2-.5,4-.9,6-1.3,5-.9,10-1.8,15.1-2.7,5.4-.9,10.8-1.8,16.2-2.7,1-.2,2-.3,3-.4.7,0,1.3-.2,2-.3,4.8-.7,9.4-.7,14.2.5,8.8,2.1,15.5,8.2,20,15.8,3.5,5.9,4.9,13.2,5.9,20,1.8,12.1,2.4,24.5,3.2,36.7.4,5.3.8,10.6,1.2,15.8.2,2.3.4,4.6.6,6.9.1,1.3.3,2.7.4,4,.1.8.2,1.6.3,2.5.7,5.4.8,10.7-.8,15.9-2.2,7.3-6.3,13.7-12.3,18.3-6.1,4.7-13.6,7.3-21.3,7.3s-15.2-2.6-21.3-7.3h0Z"/>
      <path class="st16" d="M966,866.6c-7-5.4-11.3-13.2-12.7-21.9-.8-4.8-1.3-9.6-1.8-14.5-9.4-1.8-16.6-10.9-15.1-20.9,0,0,0-.2,0-.3.1-6.7-.2-13.3-.6-20-1.5-21.5-3-42.9-4.9-64.3-.9-10.5-1.9-21-3.2-31.4-.3-2.8-.7-5.5-1.1-8.2-.7-5.1-1-10.2.4-15.2,2.8-10,10.9-17.8,20.9-20.6,5.9-1.6,12.2-1.9,18.3-2.2,2.7,0,5.5-.2,8.2,0,6.6.3,13.1,1.1,19.7,2.2,3.6.6,7.2,1.3,10.7,2.2,1.5.4,2.9.8,4.3,1.2,8.3,2.5,15.4,7.1,20.7,14,7.1,9.2,9.9,20.9,11.8,32.1,1.1,6.5,1.6,13.3,1.9,19.9.2,5.4.5,10.9.6,16.3.2,22.7-.3,45.3-1,68-.3,9.9-.3,19.9-1.4,29.8-1.7,15.1-14.7,26.9-29.3,28.7-5.3,6.5-13,10.8-21.4,12-1.5.2-3,.3-4.5.3-7.4,0-14.6-2.4-20.5-7h0Z"/>
      <path class="st16" d="M1349.3,1054.5c-5.4-4.2-9.3-10-11.1-16.6-.8-2.7-1.1-5.5-1.1-8.4s.7-8.6,2.5-12.3c.1-.3.3-.6.4-.8,0,0,0,0,0-.1.3-1.9.5-3.8.7-5.8.9-13.5,2.1-26.9,3.1-40.4,0,1.5-.2,3-.3,4.5.5-7.1.9-14.1,1.4-21.2,1.4-21.9,2.7-43.8,3.6-65.7.9-22,1.3-44.1,1.6-66.2,0-3.1,0-6.2-.2-9.4-.2,0-.4,0-.6,0-8.9-.5-17.8-1-26.7-1.4-4.1-.2-8.1-.4-12.2-.6,2,16.5,4.3,33,6.1,49.5,0,.5.1,1,.2,1.6.6,5.8-.7,11.5-4.3,16.2-3.4,4.5-8.6,7.5-14.2,8.2-5.7.8-11.6-.8-16.2-4.3-4.3-3.3-7.8-8.7-8.2-14.2-.8-10.9-1.9-21.8-3.2-32.7-1.1-8.8-2.7-17.5-4.5-26.3-.6-2.5-1.1-5.1-1.8-7.6-.7-2.8-1.4-5.5-1.9-8.3-.6-3.9-.5-7.9.5-11.7,1.3-4.7,3.9-8.6,7.2-12.2,4.9-5.4,12.8-7.6,19.8-8.6,1.9-.3,3.8-.4,5.7-.5,3.6-.2,7.2-.5,10.9-.7,10.9-.5,21.8-1,32.7-1.4,5.6-.2,11.3-.4,16.9-.6,2.6,0,5.2-.2,7.8-.3,3.4,0,6.9,0,10.3.6,4.6.9,8.8,2.3,12.9,4.5,4.3,2.4,7.7,5.6,10.9,9.3,7.6,8.7,10.6,20.5,12.1,31.7.7,4.8.9,9.6,1.2,14.4.1,1.8.2,3.6.3,5.5.1,6.9.3,13.8.4,20.7.2,10.6,0,21.2,0,31.9,0,10,0,19.9-.3,29.9-.5,23.2-1.1,46.3-1.6,69.5-.2,7.5-.4,15.1-.7,22.6-.1,4.1-.3,8.2-.6,12.3-.3,6.3-.8,12.8-2.7,18.8-.8,2.3-1.5,4.6-2.5,6.8-1.5,3.5-3.4,6.4-5.6,9.5-2.7,3.9-6.3,7.4-10.2,10.2-5.7,4.1-12.2,6.6-19.3,6.6s-13.8-2.3-19.3-6.6h0Z"/>
      <path class="st16" d="M1321.2,1047.8c-6.4-4.9-11.3-12.7-12.1-20.9-1.1-10.9-2.3-21.9-3.7-32.8-1.4-11.3-3.2-22.6-5.1-33.8-1.6-9.7-3.2-19.4-4.3-29.1-.8-6.4-1.5-12.9-2.3-19.3-.6-5.4-.9-10.8-1.4-16.2-.5-6-1.1-12-1.4-18-.4-6.8-.9-13.6-1-20.5,0-4.5.2-9,.7-13.4.4-3.4,1.1-6.7,1.5-10.1,1.4-10,8-18.7,17.3-22.6,3.6-1.5,7.3-2.2,11.1-2.2.2-1.3.3-2.7.5-4,.2-2.8.3-5.5,1.1-8.2,1.2-4.3,3.3-8.2,6.4-11.3,4.2-4.3,9.8-6.5,15.8-6.7,5.1-.2,10.2,1.8,14.2,4.8,5.4,4.1,8.6,10.8,8.6,17.5s-1.9,10.3-5.2,14.3c0,0,0,.2,0,.3-.5,8.3-.4,16.5-.3,24.8,0,4.1,0,8.2.1,12.4,0,2,0,4.1,0,6.1.6,9.5,1.1,19,2.2,28.5.8,6.5,1.5,12.9,2.5,19.3.9,5,1.8,10,2.8,14.9,0-.4-.2-.9-.3-1.3.8,4.1,1.6,8.3,2.4,12.4h0c.6,4.7.2,9.4-1.7,13.9-1.6,3.8-4.1,7.1-7.2,9.8.1.5.2,1,.4,1.5,2.6,11.2,5.1,22.5,6.6,33.9,1.2,8.8,2.3,17.7,3,26.5.3,4.4.3,8.5-.8,12.8-1.1,4-3,7.7-5.5,11-5.1,6.6-12.7,11-20.9,12.1-1.4.2-2.8.3-4.3.3-7,0-13.9-2.3-19.5-6.6h0Z"/>
      <path class="st16" d="M1359.5,869.7c0,0,0-.1,0-.2,0,.2,0,.3,0,.5,0,0,0-.2,0-.3h0Z"/>
      <path class="st16" d="M1359.4,869.2s0,0,0,0c0,0,0,0,0,0Z"/>
    </g>
  </g>
  <g class="st15">
    <g>
      <path class="st22" d="M1535.3,869.5c.6-.5,1.3-.9,2-1.3-.3-.3-.5-.6-.8-1-.4-.6-.8-1.2-1.1-1.8,0,1.3,0,2.7,0,4h0ZM1564.8,995.2c-3.4-1.1-6.5-2.8-9-5.3s-4.4-6-5.4-9.6c-.9-3.2-.9-6.5-.2-9.7-.5,0-.9,0-1.4.1-1.5,0-2.9,0-4.3-.2-1.3.3-2.7.4-4.1.4-1.4,0-2.9,0-4.3-.3,0,.2,0,.5,0,.7,0-.2,0-.5,0-.7h0c.2,2.3-.2,4.5-1.4,6.5-1.6,2.8-4.6,4.8-7.8,5.2-6.4.9-12.1-4.2-12.1-10.6,0-5.2-.3-10.5-.3-15.8,0-5.1,0-10.2-.2-15.3-.3-11.4-.7-22.8-1.3-34.2-.5-10.5-1.1-21-1.7-31.5-.3-5.4-.7-10.8-.8-16.3-.1-4.1.6-8.9,3.4-12.1,1.6-1.8,3.1-3.2,5.1-4.5,1.9-1.3,4.4-2,6.6-2.7,4.9-1.4,10-1.9,15-2.4,6.3-.7,12.7-.5,19.1-.7,4.6-.1,9.2-.1,13.8-.2,11.8,0,23.5-.1,35.2-.2,6.9,0,13.8,0,20.7-.1,6.4,0,12.1,4.9,13,11.3.5,3.5-.5,7-2.6,9.8-2,2.6-5.3,4.7-8.6,5-3.2.2-6.4.5-9.6.9.3.8.6,1.6.9,2.4.8,3,.7,5.8.2,8.7,0-.2,0-.4.1-.6-.4,2.2-.8,4.4-1.4,6.5-.6,2.2-1.6,4.4-2.6,6.5,1.3,3.5,1.4,7.3.4,10.9,9,3.7,15.9,11.8,18.8,21,3.1,9.5,2,19.8-1.4,29-2.9,8-7.7,15.3-13.3,21.7-5.8,6.7-12.4,12.5-19.8,17.3-7.4,4.9-15.5,8.3-24.2,9.8-1.7.3-3.5.4-5.3.4-3.1,0-6.2-.4-9-1.3h0Z"/>
      <path class="st22" d="M1779.3,997c-4.3-2.5-7.6-7.1-8.1-12.1-.7-6.6-1.7-13.2-2-19.8,0-2.3-.2-4.7-.3-7,0-1.3,0-2.6-.2-3.9-.3,0-.6.2-.9.3-3.6,1-7.5.7-10.9-.7-3.2-1.3-6.3-3.8-7.9-6.9-.5-1-1.2-2.2-1.6-3.2-.6-1.7-1.1-3.2-1.4-4.9-.4-2.2-.6-4.5-.7-6.7-.2-4,0-8,.3-11.9.2-3.2.4-6.3.6-9.5.6-7.5,1.2-15,1.7-22.5.3-3.8.5-7.5.9-11.3.8-6.7,1.6-13.4,2.3-20.1,1-8.4,2-16.8,3-25.2-4.3-.5-8.7-2.6-11.2-6.2-.6-.8-1.2-1.6-1.8-2.5-1.3-1.8-2.3-3.5-3.2-5.5-1.2-2.5-1.8-5.2-2.3-8-5.2,1.2-10.5-.4-14.4-4.1-1.5-1.4-2.6-3-3.5-4.7-.5.2-1.1.3-1.6.4-6,.8-11.8-4-11.7-10.2.1-6.9-.4-13.9-.8-20.8-.8-10.4-1.5-20.8-2.7-31.2-.5-4.2-1.1-8.4-.8-12.6.3-4.3,2-8.4,4.8-11.7,3.3-3.8,7.7-6.2,12.4-7.7,5.6-1.8,11.5-2.7,17.4-3.2,3.2-.3,6.5-.7,9.7-.7,6.3-.2,12.6-.4,18.8,0,5.5.4,10.9.9,16.4,1.6,2.6.3,5.1.8,7.7,1.2,5,1,10.2,2.1,14.6,4.8,6.8,4.2,9.5,11.7,10.9,19.2,3.3,1.8,5.8,4.7,7.5,8.2.5,1,.9,2.2,1.1,3.3.9,3.6.8,7.3-.7,10.8-1.2,2.9-3.4,5.7-6.2,7.4-.1,9.7-.2,19.4-.4,29.1-.3,11.2-.6,22.3-.8,33.5-.5,21.9-.9,43.8-2.1,65.6-1.3,23.4-2.7,46.8-4.2,70.2-.2,4-.5,8-.8,12-.2,2.5,0,5,0,7.5.1,3.6-.6,7.1-1.9,10.4-.9,2.3-2.4,4.4-4.1,6.1-1.9,1.8-3.9,2.9-6.2,4-1.9.9-4,1.4-6.2,1.4-3.1,0-6.2-.9-8.7-2.3h0Z"/>
      <path class="st22" d="M2137.8,712.7c0-.1,0-.2.1-.3-.2,0-.4,0-.6,0-.4,0-.7,0-1.1,0,.5,0,1.1.1,1.6.2h0ZM2124.9,715.8c.7-.4,1.3-.8,2-1.2,1.3-.8,2.7-1.4,4.2-1.8-2.1.2-4.2.4-6.2.7,0,.8,0,1.5,0,2.3h0ZM2162.1,911.7c-1.6-1.6-2.9-3.5-3.8-5.6-.9-2.2-1.3-4.5-1.4-6.9-.8-17.4-1.8-34.7-2.6-52.1-1.1.9-2.4,1.6-3.7,2.1-2.6,1.1-5.6,1.5-8.4,1.1-5.1-.7-9.7-3.9-12.1-8.5.2,2,.3,4,.5,6,0,1.2.2,2.4.3,3.5.1,1.7,0,3.3,0,5-.1,2.8-2.9,4.9-5.7,3.8-1.1-.5-1.8-1.3-2.1-2.2,0,0,0,0,0,0-.8-1.7-1.6-3.3-2-5.1-.5-1.9-.9-3.8-1.4-5.7-.5-2.1-1-4.2-1.4-6.4-.9-5.4-1.9-10.8-2.5-16.2-1.4-12.1-2.6-24.1-3.9-36.2-1.1-10.8-2.6-21.5-4-32.3-1.4-10.7-3.1-21.3-4.9-31.9-.4-2.5-.9-5-1.4-7.4,0,0,0,0,0,0,0-.2-.1-.5-.1-.7.1.5.2,1,.3,1.5-.2-.9-.4-1.9-.6-2.8,0-.2,0-.3,0-.4,0,0,0,0,0,.2-.4-1.8-.8-3.7-1.1-5.6-.3-2.4-.2-4.7.3-7.1,1-4.8,4.8-9.2,9.1-11.4,5.6-2.8,11.9-3.7,18.1-4.5,5.4-.7,10.8-1.2,16.1-1.7,6-.5,12-.9,18.1-1.1,3.6-.2,7.3-.3,10.9,0,4.6.5,8.9,2.1,12.6,4.9,4,3,6.7,7.6,8.4,12.2,1.6,4.1,2.5,8.2,3.3,12.5.6,3,1,6.1,1.3,9.1.3,3.4.6,6.8.9,10.2.5,6.1.8,12.2,1.2,18.3.7,11.1,1.2,22.2,1.8,33.2,1.1,21.4,1.7,42.8,2.2,64.2.1,5.1.2,10.3.4,15.4.1,1.1.2,2.3.2,3.4,0,2.5-.6,4.9-1.4,7.3-.8,2.3-2.2,4.3-3.9,6-1.3,1.4-2.8,2.4-4.4,3.4-1.1.7-2.3,1.2-3.6,1.6.2,4.7.4,9.5.5,14.2.2,4.6-2,9.3-5.2,12.5-3.3,3.3-7.8,5.2-12.5,5.2s-9.2-1.9-12.5-5.2h0Z"/>
      <path class="st22" d="M2101.1,714.8s0,0,0,.1c.1.5.2,1,.3,1.4-.1-.5-.2-1-.3-1.5h0Z"/>
      <path class="st22" d="M758,716.4c.8-1.1,1.8-2.2,2.7-3.1.9-.8,1.8-1.6,2.8-2.3-1.8.3-3.7.6-5.5,1,0,1.5,0,2.9,0,4.4h0ZM832.5,774.4c1.6,4.5,3.5,8.8,5.3,13.2,1.6,3.9,3.2,7.8,4.9,11.6,1.7-.1,3.5-.3,5.2-.4-.8-3.2-1.6-6.4-2.3-9.6-.6-3.2-1.3-6.4-1.9-9.6-1-5.2-1.9-10.5-2.8-15.7-1.4-8.2-2.7-16.4-3.8-24.6-2,2.3-4.5,4.1-7.2,5.2,0,4.5-.3,9.1-.5,13.6,0,2.1-.2,4.2-.4,6.3,1.2,3.3,2.3,6.7,3.5,10h0ZM787.9,760.8c-.3,11.4-.8,22.8-1.4,34.2-.1,2.5-.3,5.1-.4,7.6,1.1-.3,2.2-.5,3.4-.7,2.8-.4,5.6-.4,8.5-.6,3.5-.2,7-.3,10.6-.4-1.3-3.2-2.6-6.4-3.9-9.6-.5-1.3-1-2.5-1.5-3.8-3.2-2.1-5.6-5.3-6.5-9-1.2-5.1-1.8-10.3-2.3-15.5-1-2.6-2.1-5.1-3.3-7.6-.9-1.7-1.8-3.4-2.8-5,0,3.5,0,7-.2,10.4h0ZM990.7,830.8c0-1.9,0-3.9,0-5.8-.4,0-.7,0-1.1,0-1.5,0-3.1,0-4.7,0,.2.4.3.8.5,1.2,2,1.1,3.8,2.6,5.3,4.4h0ZM886.1,851.8c.8-.6,1.5-1.2,2.3-1.8,1.3-1,2.5-1.9,3.8-2.8,4.7-3.5,9.5-6.9,14.3-10.2,0,0-.2.1-.3.2,1.6-1.2,3.3-2.3,5.1-3.1,0-1.7.1-3.3.6-5,.5-1.8,1.3-3.5,2.3-5-8.1,0-16.2,0-24.3.2.2,3.1-.6,6.2-2.1,8.9-2.5,4.2-6.7,6.8-11.5,7.6-2.1.3-4.4.2-6.6,0,.6.6,1.2,1.1,1.8,1.7,1.9,1.6,3.9,3.2,6,4.6,1.8,1.2,3.7,2.3,5.7,3.3,1,.5,2,.9,2.9,1.3h0ZM924.3,1046.5c-3.9-.5-7.5-2.3-10.3-5.1-2.8-2.9-4.4-6.4-5.1-10.3-.3-1.8-.7-3.7-1-5.5-.3-2.3-.4-4.8-.5-7.1,0-2.7,0-5.4,0-8.1s0-6.9,0-10.3c0-5.3.1-10.7.3-16,.1-4.5.2-9.1.5-13.6.4-5.9.7-11.8,1.1-17.6-2.2-1.7-4-3.9-5.4-6.4-4.6-7.8-4.9-17.3-4.4-26.1.5-8.2,2.1-16.2,4.5-24-2.9-.8-5.8-2.5-8-4.7-4.5,1.8-9.5,1.9-14,0-4.7-2-8.4-6-10-10.8-14.8-6.5-27-18-37-30.5-3.2-4-6.1-8.2-8.7-12.5-9.5-.8-18.9-1.6-28.3-3-2.1-.3-4.2-.7-6.3-1.1-1.3-.2-2.6-.5-3.9-.7-1.2-.2-2.4-.5-3.6-.8,0,.4,0,.9,0,1.3-.5,9.2-.9,18.4-1.6,27.6-.7,10.5-1.2,21-2.2,31.5-1.2,12.2-2.4,24.4-3.9,36.6-2.6,21.9-4.5,43.9-6.3,65.9-.3,3.6-.8,7.1-1.2,10.7-.7,6.2-5.1,11.7-10.8,14.1-6.7,2.8-14.5,1.2-19.7-3.8-2.4-2.3-4.3-5.3-5.2-8.6-.5-1.9-.7-3.6-.8-5.5,0-1,0-2,0-3,.2-5.6,0-11.3.2-16.9,0-5.1.1-10.2.2-15.4.2-11.6.3-23.2.4-34.8.2-21.1,0-42.2-.3-63.3-.3-21.9-.7-43.8-2-65.7-.7-10-1.5-19.9-2.5-29.9-1.2-11.2-2.3-22.5-3.2-33.8-.5-6.4-.8-12.8-1.1-19.2-.3-6.9,0-13.9,1.5-20.7,1.2-5.3,4.2-10,8.3-13.5,2.1-1.8,4.7-3.1,7.3-3.9,1.7-.5,3.5-.8,5.3-1,4.9-.7,9.8-1.4,14.7-1.8,5.8-.5,11.6-1,17.4-1.2,7.2-.3,14.5-.6,21.8-.3,4.4.2,8.8.5,13.1,1,2.2.2,4.5.7,6.6,1.3.7.2,1.4.4,2,.6,2.9,0,5.9-.1,8.8-.1,3.2,0,6.4.1,9.6.3,7.2.5,15.2,1.5,20.5,7,2.2,2.2,3.8,5.1,4.7,8.1.6,2.1.7,4.3.8,6.5,0,1.2,0,2.3,0,3.5,0,2.5-.1,5,0,7.5,0,.2,0,.3,0,.5.8,10.1,2.4,20.2,4,30.2,1.6,10.6,3.2,21.3,5.2,31.9.5,2.7,1,5.4,1.5,8.1.9,3.8,1.7,7.5,2.6,11.3.1.6.3,1.2.4,1.8,1.5,0,3.1,0,4.7,0,5.3,0,10.5.1,15.8.2,21.7.5,43.5,1,65.2,1.7,5.6.2,11.1.4,16.7.5,2.7,0,5.5,0,8.2.1,1.1,0,2.2,0,3.3,0,3.1,0,6.4-.1,9.3.8,2.5.8,4.8,1.8,6.7,3.7s3,3.8,3.6,6.2c.9,3.2.4,6.5-.2,9.7-.4,2.5-.8,5-1.2,7.5-.7,5.1-1.4,10.1-1.9,15.2-.6,5.7-1.1,11.4-1.5,17.1-.8,12.7-1.6,25.4-1.3,38.1,0,.3,0,.6.1.9,0-.2,0-.3-.2-.5.4,2.1.2,4.3-1,6.3-1.4,2.3-3.8,4-6.5,4.3-2.7.4-5.5-.6-7.5-2.5s-2.9-5.3-2.3-8.4c0,.3-.1.6-.2.9,0,.3,0,.5,0,.8-.1-5-.4-10-.3-15,0-.6,0-1.2,0-1.8-.3,1.5-.7,3-1.1,4.5-.6,2.6-1.6,5.1-2.9,7.4-1,1.9-2.4,3.6-3.7,5.4-.2.2-.4.5-.6.7-1.1,5-2.2,10.1-3.2,15.1-3.6,16.8-7,33.6-10.6,50.3-1.1,5.4-1.9,10.9-3.5,16.2-1.1,3.4-2.4,6.5-4.1,9.6-1.7,3.3-4.5,5.7-7.1,8.3-.8.9-1.8,1.6-2.7,2.3,0,.3,0,.6,0,.9,0-.3,0-.6,0-.9h0c-.4,5.3-.7,10.7-1.5,16.1-.4,3.1-1.1,6.2-1.9,9.2-.7,2.3-1.5,4.5-2.7,6.6-.7,1.2-1.4,2.3-2.1,3.5-3.2,5.6-9.3,8.9-15.6,8.9s-1.6,0-2.4-.2h0Z"/>
      <path class="st22" d="M750,810.6c0-.1,0-.2,0-.3,0,0,0-.2,0-.2,0,.2,0,.3,0,.5h0c0,0,0,0,0,0h0Z"/>
      <path class="st22" d="M985,856.7c-.7-1.1-1.5-2.2-2.1-3.3-.2-.3-.4-.7-.6-1-.8-.2-1.5-.4-2.3-.7-3.8-1.6-6.4-4.8-7.6-8.7-.8-2.6-1.3-5.4-1.4-8.1,0-1.2-.1-2.5.1-3.6.3-1.6.7-3.1,1.3-4.6,1.3-3.4,4.6-6.1,8.2-6.8,2-.4,3.9-.5,5.9,0,1.8.5,3.5,1.5,4.9,2.9s1.8,2.2,2.4,3.5h0c.2.5.4,1,.6,1.5,1,2,1.8,4,2.8,6,0-.2-.2-.3-.2-.5.7,1.5,1.3,2.8,1.5,4.5.2,1.8.1,3.6-.3,5.3-.5,2-1.6,3.9-3,5.4,0,.1.2.2.3.4,2.1,2.8,1.7,6.9-1.2,9.1-1.1.9-2.6,1.3-4,1.3s-3.9-.8-5.1-2.5h0Z"/>
      <path class="st22" d="M1019.2,786.8c1.5-.3,3.1-.4,4.6-.2,0,0,.2-.2.3-.3.3-.9.8-1.7,1.2-2.6h-.1c-.9,0-1.9,0-2.8,0-1,0-2.1,0-3.1,0,0,1,0,2.1,0,3.1ZM1065.6,797.7c1.1-1,2.2-1.9,3.4-2.9,4.4-3.7,8.9-7,13.6-10.2,0,0,0,0,0,0-1.2.5-2.4.8-3.6,1.2-4.7,1.7-9.3,3.6-13.8,5.6.2,1.8.2,3.6.3,5.4,0,.3,0,.6,0,.9h0ZM1013,875.2c-7.4-1-12.7-7.4-12.9-14.8,0-4.9.3-9.8.8-14.7.2-2.4.5-4.8.8-7.2.4-3.9.9-7.8,1.4-11.7.4-3,.8-5.9,1.2-8.9-.1-.4-.2-.8-.3-1.3,0-.4-.1-.8-.2-1.2-.2-.3-.5-.6-.7-.9-.3-.6-.6-1.2-.8-1.8-.7-2-.9-4.2-1.1-6.3-.2-1.6-.4-3.2-.6-4.8,0,0,0,0,0-.1,0,0,0-.2,0-.3-.1-.8-.2-1.7-.3-2.5-.8-5.4-1.5-10.7-2.2-16.1-.8-5.3-1.6-10.6-2.2-15.9-.5-4.3.2-8.2,2.3-12,2.3-4.2,6.5-6.8,10.7-8.8,3.6-1.7,7.7-2.5,11.5-3.2,3.9-.8,8-1.2,11.9-1.6,7.5-.7,15-1,22.5-1.3,1.5,0,3,0,4.5,0h2.2c3.4,0,6.9,0,10.3,0,5.6,0,11.2.3,16.8.5,5.4.2,10.9.6,16.3.9,21.6,1.3,43,4,64.4,7,4.6.6,9.3,1.3,13.9,1.9,1.9.3,3.7.5,5.6.8,1.4.2,2.8.4,4.2.7,1.8.3,3.6.5,5.4,1.2,4.1,1.7,7,5.1,8.1,9.3.5,1.8.6,3.6.3,5.4,2.8,2.8,4.7,6.4,5.2,10.4.5,4-.3,8.1-2.3,11.5-.5.8-1.1,1.6-1.7,2.4,0,2.9-.4,5.8-1.6,8.5-.1.3-.3.6-.4.9,1.7,2.8,2.7,6.1,2.7,9.4s-1.3,7.9-3.8,11c-1.3,1.7-2.8,3-4.5,4,3.8,3.7,5.9,9.1,5.1,14.6-.6,4.4-2.9,8.4-6.4,11.1-3.4,2.6-8.3,4.2-12.7,3.4-6.6-1.3-13.2-2.8-19.8-4.7-3.6-1-7.1-2.1-10.7-3-4.1-1.1-8.2-2-12.1-3.9-1.4-.7-2.8-1.5-4.1-2.3-6.2,1.4-12.4,2.9-18.6,4.4-9,2.2-18,4.4-26.9,6.7-6.7,1.7-13.4,3.4-20.1,5.1-4.8,1.2-9.6,2.3-14.4,3.3-.4.9-.9,1.8-1.3,2.8-1.7,3.4-3.8,6.2-7.1,8.1-3.9,2.3-8.7,2.9-13.1,1.7-3.5-1-6.7-3.1-9-6-.2-.2-.3-.4-.4-.6-2.4,5.5-7.7,9.3-13.8,9.3s-1.3,0-2-.1h0Z"/>
      <path class="st22" d="M1077.7,814.7c-.4-.1-.9-.2-1.4-.3-4.2-.8-8.4-1.2-12.7-1.6-1.2,0-2.3-.1-3.5-.2-1.2,0-2.5-.2-3.7-.4-1.7-.4-3.4-1.2-4.8-2.2-2.5-2-4.2-4.7-5-7.7-1.2.2-2.4.4-3.6.6-4.1.5-8.3,0-12.3-1.1-1.1-.3-2.3-.7-3.4-1.1-2.5,0-5-.3-7.4-1.3-4.2-1.8-7.7-5.2-9.4-9.4-1.5-3.7-1.8-7.8-.8-11.6,1.2-4.3,4.2-8.5,8.2-10.6,3.7-2,7.5-3.3,11.8-3.3,2.3,0,4.7.5,6.9,1.4,2.2.9,3.9,2.3,5.7,3.9.1.1.3.3.4.4.3.1.6.2.8.3,5.2.1,10.5-.2,15.7-.3,2.5,0,4.9,0,7.4,0,1.7,0,3.3,0,5,.2,2,.1,4.1.2,6.1.5,2.7.4,5.1,1.3,7.7,2.3,3.7,1.4,6.6,4.9,7.6,8.7,1.1,3.9.3,8.4-2.3,11.6-1.2,1.5-2.5,2.8-4.1,3.9,3.3,1.3,6.3,3.8,7.1,7.3.6,2.7.4,5.3-1,7.7-1.3,2.2-3.5,3.9-6,4.6-.8.2-1.7.3-2.5.3-2.4,0-4.8-.9-6.7-2.4h0Z"/>
      <path class="st22" d="M636,1007.1c-3-.1-5.7-.8-8.5-1.9-5.8-2.3-10-8-10.8-14.1,0-.7-.2-1.4-.2-2.1-2.8-.7-5.5-1.4-8.2-2.1-5.2-1.2-9.7-5.5-11.8-10.3-2.5-6-1.5-12.8,2.3-17.9.2-.2.3-.4.5-.7,0,0,0,0,0,0,0,0,0,0,0,0,0,0,.1-.2.2-.3.3-.5.7-.9,1-1.4-4.9-1.5-8.9-4.9-11-9.4-3.6,0-7.2,0-10.8,0-2.9,0-5.8-.2-8.7-.4-3.7-.2-7.2-.8-10.9-1.3-7.7-1-13.9-7.2-14.9-14.9-.5-3.8.3-7.8,2.2-11.2,1.8-3.1,4.8-6,8.3-7.3,2.2-.8,4.3-1.6,6.5-2.2,2.2-.6,4.5-.9,6.8-1.3,1.7-.3,3.3-.5,5-.8,0,0,0,0,.2,0-2.5-2.5-4.2-5.7-4.6-9.1-.9-6.8,2.9-14,9.4-16.5,2.7-1,5.4-1.8,8.3-1.8s2.2,0,3.4,0c1.4,0,2.8,0,4.3.1,2.9,0,5.8.1,8.6.2,5.6.1,11.3.3,16.9.4,10.8.3,21.5.6,32.3.9,9.5.2,19.1.5,28.7,1,10,.5,20,1.3,30,2,3.5.2,7,.4,10.5.6,4.4.2,9.2,0,13.3,1.9,1.8.2,3.7.6,5.5,1,1.3.3,2.5.7,3.7,1.1,2.7.9,4.5,2.9,5,5.7.7,4-2.3,7-5.3,9.1,0,.7.1,1.3.1,2,0,1.1-.1,2.2-.4,3.3,1.7.9,3.2,2.1,4.5,3.5,2.1,2.3,3.7,4.8,4.6,7.8.8,3.1.8,6.4,0,9.5-.5,1.8-1.3,3.5-2.3,5,1.4,2.2,2.3,4.6,2.7,7.2,1.2,8.6-4.4,17.4-12.9,19.6,6,3.6,9.5,10.9,8.5,17.9-.5,3.9-2.3,7.5-5.1,10.3-2.8,2.8-6.4,4.4-10.3,5.1-4.6.8-9.2,1.6-13.9,1.9-5.3.4-10.7.6-16,1-5,.4-10.1.8-15.2,1.3-3.9.3-7.8.6-11.6,1-5.1.6-10.2,1-15.3,1.6-1.4.2-2.7.3-4.1.5-1.1.6-2.3,1.1-3.5,1.4-2,.6-4,1.1-6.1,1.6-2.1.5-4.3,1-6.4,1.3-1.3.2-2.6.3-3.9.3s-.6,0-.8,0h0Z"/>
      <path class="st22" d="M599.8,957.3c0,0-.1.2-.2.3s-.1.2-.2.3c.1-.2.3-.4.4-.6h0Z"/>
      <path class="st22" d="M674.6,895.5c0-1.2,1-2.3,2.3-2.3s2.3,1,2.3,2.3-1,2.3-2.3,2.3-2.3-1-2.3-2.3Z"/>
      <path class="st22" d="M676.3,764.9c0,.9,0,1.8,0,2.7.1-1,.3-2.1.5-3.2.2-.8.4-1.5.7-2.2h0c-.5,0-1-.1-1.5-.2,0,1,0,1.9,0,2.9h0ZM676.7,775.7c.2-.2.5-.3.8-.5-.4-1-.7-2.1-.9-3.1,0,1.2,0,2.4.1,3.6ZM660.2,925.4c-3.2-2.3-4.8-6.2-6-9.8-1.3-4.2-1.8-8.6-2.3-12.9-.4-3.5-.4-7-.6-10.4-.1-2.1-.2-4.3-.2-6.4-.2-11.4,0-22.8,0-34.2,0-7.3,0-14.7,0-22,0-6.5,0-13-.5-19.5-.5-5.1-1.1-10.2-1.6-15.3-.5-5.8-.8-11.6-1-17.4-.2-5.4-.3-10.9-.3-16.3,0-5.2,0-10.4.1-15.6.2-5.7.8-11.5,3.9-16.5,2.6-4.2,6.8-6.9,11.6-8,3.6-.8,7.2-1,10.9-1.2,5.3-.2,10.7-.4,16-.2,11.5.4,23,1.2,34.4,2.4,4.6.5,9.2,1,13.9,1.6,2.4.3,4.9.5,7.3.8,2.8-1.4,5.7-2.8,8.6-4.1.5-.3,1.1-.5,1.6-.8-.6-5.1,1.1-10.4,4.7-14.1,5.2-5.2,13.7-6.3,20-2.7,4.3,1.1,8.4,2.8,11.6,6,3.5,3.5,5.5,8.2,5.3,13.2-.2,5.1-2.3,9.7-5.8,13.4-3.4,3.6-7.7,6.2-11.9,8.7-1.7,1-3.3,2-5,2.9-3.7,2-7.5,4-11.2,5.9-4.8,2.5-9.6,4.9-14.1,7.8-.9.7-1.9,1.3-2.8,2.1.3.5.6,1,1,1.5,1.9,3.1,3.2,6.6,4.3,10,1.2.5,2.4,1.2,3.5,2,1.6,1.1,3.1,2.2,4.6,3.6,2.4,2.3,4.4,5.8,5.2,9,.7,2.6,1,5.1,1,7.8,0,2.5-.4,4.9-.6,7.4-.4,3.8-1.1,7.6-1.9,11.4-.9,4.5-1.8,9-2.9,13.4-.2.7-.3,1.3-.5,1.9v15.8c0,2.9,0,5.8-.2,8.8,0,3.2-.2,6.4-.4,9.5-.2,3.1-.5,6.2-.7,9.3-.1,1.8-.2,3.7-.4,5.5-.2,2.2-.6,4.3-1.1,6.4-.3,1.2-.8,2.6-1.2,3.7-.5,1.1-1,2.5-1.7,3.5-1,1.5-1.9,2.9-3.2,4.2-1,1-2.1,1.9-3.2,2.8-1.4,1.2-2.9,2.2-4.7,3-3,1.2-6.2,1.7-9.4,1.2-5.1-.7-9.4-3.5-12.2-7.5-5.6,4-11.8,7.2-18.5,8.9-2,.5-4.1.9-6.2,1.2-2.7.3-5.2.2-7.9,0-.9,0-1.9-.2-2.8-.5-.2.3-.4.5-.6.8-1.5,1.8-3.4,3.3-5.2,4.9-.6.6-1.2,1.1-1.7,1.7-.4.5-.7.9-1.1,1.4,0,.1-.1.2-.2.3,0,.3-.2.5-.3.8-.1.4-.3.9-.4,1.3-.2,1.2-.4,2.5-.9,3.6-.8,1.7-1.8,3.2-3.3,4.3-1.8,1.4-4,2-6.2,2s-4.8-1-6.9-2.5h0Z"/>
      <path class="st22" d="M123.9,897.8c-1.2-1.6-1.8-3.5-1.7-5.5-.3-5.6-.4-11.2-.6-16.8-.2-5.1-.5-10.2-.7-15.3-.5-10.9-1-21.8-1.5-32.8-.5-10.6-1.2-21.3-1.9-31.9,0,0,0,.2,0,.3,0-.2,0-.4,0-.6,0,.1,0,.3,0,.4,0-.5,0-1,0-1.5,0-.7-.1-1.3-.2-2,0,.2,0,.5,0,.7,0-1.5-.2-3-.3-4.6-.1-1.8,0-3.7.3-5.4.6-3,1.8-5.5,3.6-7.9,2.7-3.6,7.1-5.7,11.2-7.1,3.6-1.2,7.2-2.1,10.9-2.7,4.7-.7,9.6-.5,14.3-.6,2.7,0,5.4,0,8.1,0,10.8.1,21.5.5,32.2,1.1,8,.5,15.9,1.1,23.9,1.7,7.6.5,15.2.9,22.8,1.1,2.2,0,4.5.2,6.7.3,2.1.1,4.1.6,6,1.4,4.6,2,7.8,6.4,8.4,11.3.6,4.7-1.2,9-3.4,13-1,2-2.1,3.9-3.1,5.9-1.2,2.3-3.6,4.2-6,5.2-3.1,1.3-6.7,1.3-9.8,0-3-1.3-5.4-3.7-6.7-6.7-.7-1.7-1-3.5-.9-5.2-7.2-.4-14.5-.7-21.7-1.2-11.2-.7-22.5-1.3-33.7-1.6-4.8-.1-9.6-.2-14.5-.3-5.9,0-11.9-.2-17.9,0-1.3.1-2.6.3-3.9.5-.9.2-1.9.4-2.8.7,0,.4,0,.8-.1,1.2,0,.5,0,.9,0,1.3-1.2,21.3-1.7,42.6-1.9,63.9-.1,11.3,0,22.6-.6,33.9,0,2-.4,3.9-1.7,5.5-1.6,2-4,3.2-6.5,3.2s-5-1.2-6.5-3.2h0Z"/>
      <path class="st22" d="M117.4,794.5c0,.3,0,.5,0,.8,0-.3,0-.5,0-.8Z"/>
      <path class="st22" d="M117.3,792.9c0,.3,0,.6,0,.9,0-.3,0-.6,0-.9Z"/>
      <path class="st22" d="M155.7,935.6c-2.4-3.9-3.9-8.3-5-12.8-.8.1-1.6.2-2.3.2-6.8,0-13.7-4.3-16.2-10.7-.7-1.7-1.4-3.4-2-5.2-.6-1.8-.9-3.7-1.2-5.6-.5-3.5-.5-7-.4-10.5.1-6.9.5-13.7,1.1-20.6.5-5.2,1.3-10.4,2.2-15.5-.6-6.9-.5-13.9-.1-20.8.1-2.9.3-5.8.4-8.7,0-3.3,0-6.7,0-10,0-2.4,0-4.7.1-7.1,0-2.2,0-4.4.1-6.6,0-1.8.2-3.6.4-5.4.3-2.1.9-4,1.8-5.9,1.2-2.5,2.9-4.7,5.3-6.1,2.5-1.4,5.4-2,8.2-1.6.7,0,1.4.2,2,.4-.6-2.4,0-5,1.5-7,.3-.4.6-.7.9-1.1-.2.3-.4.5-.7.8,1.4-1.6,2.8-2.7,4.9-3.1,3.5-.8,6.9.6,8.7,3.4,2.5-.4,5.1-.2,7.5.4,3.7,1,7,3.3,9.4,6.3,2.3,3,3.9,7.1,3.7,10.9-.1,2.3-.2,4.6-.4,6.9,0,.7-.1,1.5-.3,2.2,3.3,2.2,5.9,5.6,6.9,9.5.6,2.4,1.1,4.8.9,7.3-.2,2.8-.5,5.3-1.1,8-.9,3.8-2.2,7.5-3.2,11.3-.6,2.2-1.3,4.3-2,6.5-1.4,4.6-2.7,9.2-4.2,13.8,0,.9,0,1.7-.1,2.6-.2,2.9-.2,5.8-.2,8.6-.2,8.3-.6,16.7-.1,25,.5,6.5,1.4,13,2.5,19.5.3,1.2.6,2.3.9,3.5,0,0,0,0,0,0,2.1,4.1,2.9,8.6,1.6,13.1-1.2,4.3-4.1,8.1-8,10.4-2.7,1.6-5.7,2.3-8.6,2.3-6,0-11.9-3.1-15.2-8.6h0Z"/>
      <path class="st22" d="M409,1059.2c-6.5-.3-13-.9-19.4-1.4-4.2-.3-8.3-.8-12.5-1.3-4.1-.5-8.3-1.3-12.3-2.4-3.6-1-7.3-1.8-10.7-3.5-3-1.5-5.5-3.2-7.9-5.4-2.4-2.2-4-5.2-5.4-8.1-1.4-2.9-2-6.5-1.9-9.7.1-2.6.5-5.1,1.6-7.6.8-1.8,1.8-3.4,3-5.1.1-.2.2-.3.4-.5-1.2-1.3-2.2-2.7-3.2-4.1.3.4.5.8.8,1.2-.1-.2-.2-.3-.4-.5-1.9-2.5-3.1-5.4-3.5-8.4-.9,0-1.8-.2-2.6-.3-2.6-.3-5.1-.8-7.6-1.6-2.7-.9-5.3-2-8-3-4.3-1.6-7.8-5.4-9.5-9.5-1.8-4.2-2.1-9.8,0-14,.8-1.6,1.4-3.3,2.3-4.8,0,0,0-.1.1-.2-3.5-2.8-5.9-6.8-6.5-11.4-.6-4.3.5-8.8,3-12.4-.7-1-1.3-2-1.8-3.2-.1-.3-.2-.6-.4-.9-.4,0-.8,0-1.2,0-3.8,0-7.5-1.6-9.8-4.8-2-2.8-2.8-6.2-1.9-9.5.9-3.2,3.2-5.9,6.3-7.1,1.6-.7,3.3-1.4,5-1.9,1.9-.6,4-.9,5.9-1.2,2.3-.4,4.6-.7,7-.9,3.5-.3,7-.7,10.4-1,5.9-.5,11.8-.9,17.7-1.2,5.7-.3,11.4-.5,17.1-.7,2.4,0,4.7-.1,7.1-.2,4.8-.1,9.6-.5,14.4-.2.9,0,1.7.1,2.5.2,3.2.2,6.2,1,8.8,3,3,2.3,4.9,5.7,5.4,9.4.5,3.6,0,7.3-1.8,10.4-.6,1-1.3,1.9-2.1,2.8,1.5,3.6,1.9,7.5.8,11.4-.9,3.2-2.7,6-5.1,8.2,0,3.8-1.2,7.5-3.4,10.5.1,0,.3,0,.4,0-.1,0-.3,0-.4,0h0c.1,0,.3,0,.4,0,2.7.6,5.2,1.6,7.5,3.3,3.1,2.4,5.3,5.7,6.4,9.5.6,2.4.8,4.8.5,7.2,4.1,2.7,6.9,7.7,7.6,12.4.9,6.3-1.7,12.9-6.8,16.7-1.7,1.3-3.4,2.5-5.2,3.7-.9.6-1.8,1.1-2.8,1.6.1,0,.3,0,.5,0,3.8.3,7.6.7,11.5,1,8.2.6,16.4,1.3,24.6,1.9,3.4.2,6.9.4,10.3.5,4.6.1,8.9,1.8,12.1,5,3.2,3.2,5,7.6,5,12.1s-1.8,8.9-5,12.1c-3.2,3.2-7.6,4.9-12.1,5-1.7,0-3.4,0-5.1,0-9.9,0-19.7-.5-29.5-1h0Z"/>
      <path class="st22" d="M389.8,968c.1,0,.2,0,.3,0-.1,0-.2,0-.3,0Z"/>
      <path class="st22" d="M1431.5,826c.2-.1.3-.2.5-.3.5-.8.9-1.6,1.4-2.4-.8.8-1.6,1.5-2.4,2.3.2.1.3.3.4.4h0ZM1448.8,1088.4c-2.2-2.2-3.3-5.1-3.4-8.2-.5-12.1-1-24.2-1.4-36.4-.4-11.2-.4-22.4-.4-33.5,0-8.2,0-16.5,0-24.7,0-4.2.2-8.3.2-12.5.1-7.6.2-15.2.8-22.7.1-2.8.1-5.6.6-8.4.2-1.1.4-2.2.8-3.3-.3-6.1-.6-12.2-1-18.4-.3-4.2-.6-8.3-.9-12.5-.5-.8-.9-1.6-1.3-2.5-.8-2.4-1.4-4.6-1.9-7.1-.2-1.4-.3-2.8-.4-4.2-.1-1.8-.4-3.7-.5-5.5-.4-5-.7-10-.9-15,0-.6,0-1.2,0-1.7-.6,1.2-1.2,2.4-1.8,3.6-4.4,8.7-9.2,17.2-13.8,25.8-1.5,3.1-3.1,6.4-6,8.4-1.8,1.3-3.7,2.4-5.9,2.9-1.2.3-2.5.5-3.8.5s-2.2-.2-3.2-.2c-3.6-.3-7.2-2.6-9.3-5.4-2.3-3-3-6.4-2.9-10,0,.1,0,.3,0,.4,0-.2,0-.3,0-.5,0-.2,0-.3,0-.5,0-.4,0-.7,0-1.1-2.3-1.3-4.3-3.2-5.7-5.6-.8-1.5-1.5-3-2-4.7-.7-2.2-.5-4.5-.3-6.8,0-.7.2-1.5.4-2.2-.3-2-.6-4.1-.9-6.1-.5-3.4-1-6.8-1.7-10.1-.3-1.1-.6-2.2-.9-3.3-.2-.4-.3-.8-.5-1.1-1-2.1-1.5-4.4-1.5-6.7,0-5.1,2.9-9.4,5.8-13.3,1.6-2.2,3.5-4.3,5.2-6.4,2.2-2.7,4.7-5.3,7-7.9,1.5-1.7,3.1-3.4,4.7-5.1,7.6-8.1,15.3-16,23.3-23.8,1.8-1.8,3.6-3.5,5.5-5.2,1.6-1.5,3.2-3,4.8-4.3,2-1.6,4.4-3.1,6.9-3.8,3.7-1,7.2-.8,10.8.5,8.1,3,11,11.6,12.8,19.3.8,3.4,1.5,6.9,2.2,10.3,2.1,10.3,3.3,20.8,4.6,31.2.6,4.7,1.1,9.3,1.5,14,.5,5.1,1,10.2,1.1,15.4,0,1.8,0,3.6,0,5.4.3,3,.7,5.9.9,8.9,1,11,2.1,22.1,3,33.1.9,11.5,1.8,23,2.2,34.5.2,4.2.3,8.5.4,12.7.2,3.9.3,7.9.4,11.8.2,8.8.2,17.6.2,26.4,0,5.2,0,10.4,0,15.6,0,7.5-4.8,14-11.4,16.6-.8,15.1-1.8,30.2-2.6,45.2-.2,3.1-1.2,6-3.4,8.2s-5.1,3.4-8.2,3.4-6-1.2-8.2-3.4h0Z"/>
      <path class="st22" d="M38.5,864.5c-2.5-.3-4.9-1.3-6.9-2.9-2.3-1.8-3.8-4.1-4.8-6.8,0,0,0,0,0,.1,0,0,0,0,0-.1-.1-.3-.2-.5-.3-.8,0-.1,0-.3-.1-.4-.5-1.6-1.1-3.2-1.5-4.8-.6-2.1-.9-4.3-1.3-6.5-.6-3.4-1.1-6.8-1.6-10.2-.4-2.8-.7-5.5-1.1-8.3,0-.3,0-.7-.1-1-.2,1.8-.7,3.5-1.7,5.1-1.7,2.9-4.6,5.1-7.8,6-3.4.9-7.1.5-10.1-1.3-.3-.2-.6-.4-1-.6v-96.6c.7-.7,1.5-1.3,2.4-1.8-.8-.3-1.6-.6-2.4-1v-17.5c2.5,0,4.8,1.5,5.8,3.7,2,.3,4,.5,5.9.7,6.2.3,12.4.3,18.7,0,1.8-.1,3.7-.3,5.5-.4,2.1,0,4.2,0,6.2.7,2.8.8,5.2,2.1,7.4,4.1,6.6,6,7.7,15.5,8.5,23.9.8,9.2.6,18.5.5,27.8,0,11-.7,22-1.2,32.9-.3,6.7-.6,13.4-.9,20.1-.2,3.5-.3,6.9-.4,10.3l-.2,5.2c0,1.8,0,3.5-.2,5.3-.2,1.8-.6,3.6-1.3,5.3-.7,1.6-1.6,3-2.6,4.4-2.6,3.6-7.1,5.6-11.5,5.6s-1.3,0-1.9-.1h0Z"/>
      <path class="st1" d="M833.7,923.5c-3.8-2.2-7.3-5-10.2-8.4-6.7-.4-13.3-2.7-18.5-7-2.1-1.7-4.2-3.3-6.1-5.2-2.9-2.9-5.4-6.4-7.2-10.1-5.2-3.1-9-8.1-10.8-14,0,0,0,0,0,0-1.8-7.4-2.5-14.9-3.4-22.5-.7-5.2-1.2-10.5-1.7-15.8-1.1-10.1-2-20.3-3.2-30.4-.4-3.2-.7-6.5-1.1-9.8-.5-4.3-1.4-8.4-1.6-12.7,0-.2,0-.3,0-.5-.5-4.2-.2-8.3,1-12.3,0-.3,0-.7-.1-1-1.7-12.7,7.4-24.8,20.2-26.6,1.9-.3,3.8-.3,5.7,0,.8-1.5,1.8-3,2.9-4.3,2.9-3.7,6.4-6.8,10.5-9.2,4.2-2.5,8.6-3.7,13.4-4.6,9.6-1.8,20.2,1.4,27.7,7.2,3.8,3,7.1,6.7,9.6,10.8,1.3,2.3,2.2,4.5,3.1,6.8-.2-.5-.3-.9-.5-1.4,1.7,4.7,3.3,9.2,4.5,14.1.8,3.2,1.5,6.5,2,9.8.6,3.4,1.2,6.9,1.8,10.3.9,5.3,1.5,10.7,2.2,16,.6,4.6,1.2,9.2,1.9,13.8,4.3-3.3,9.4-5.8,14.6-7.2.8-.2,1.7-.4,2.6-.6,1.9-.5,3.8-.8,5.8-1.2,2-.2,4-.4,6-.5,9.2-.6,18.7,2.2,26.7,6.7,11.3,6.5,19.4,18.6,21.1,31.5.8,6.3.3,12.2-1,18.3-.7,3.1-1.8,6.2-2.9,9.2-1.8,4.8-4.3,9.4-6.7,13.9-8.6,15.7-29.1,21.9-45.2,15-.3-.1-.6-.2-.8-.4-1.4.9-2.9,1.9-4.3,2.8-1.5,1-2.9,2.1-4.3,3.2-.3.3-.6.6-.9.9-1.5,1.9-2.9,4-4.4,5.9-5,6.3-11.7,10.9-19.5,13.1-3.2.9-6.5,1.3-9.8,1.3-6.5,0-13.1-1.7-18.8-5h0Z"/>
      <path class="st1" d="M605,900.8s0,0-.1-.1c-.1-.1-.3-.2-.4-.3-.1,0-.2-.2-.3-.2.3.2.6.5.8.7h0ZM575.7,920.4c-2.9-.5-5.5-1.5-7.9-3.3-2.2-1.7-4-4-5.1-6.7-1.2-2.7-1.5-5.8-1.2-8.7.5-3.4,2.1-7.2,4.7-9.5,1.3-1.1,2.5-2.3,4-3.1,2.2-1.3,4.4-1.8,6.8-2.3,2.7-.5,5.7-.2,8.4.5,2.8.8,5.1,2.3,7.4,3.9,2,1.3,3.9,2.7,5.9,4,2.7,1.7,5.9,3.3,7.2,6.4.8,1.3,1,3,.4,4.6-.8,1.9-2.8,3.1-4.8,3.1-.6.2-1.2.3-1.8.4.2,0,.4,0,.6-.1-.6.1-1.2.3-1.8.5-.2,0-.4.2-.7.3-.3.2-.7.4-1,.6-.3.3-.7.5-1,.8-.5.4-.9.9-1.3,1.3-1.5,1.7-3.1,3.5-5.2,4.6-1.6.8-3.2,1.7-5,2.2-1.8.5-3.6.8-5.5.8s-2.1,0-3.1-.3h0Z"/>
      <path class="st1" d="M879.1,1189.6c-6.6-1.8-12.7-5.2-18.1-9.3-6.4-4.8-11.4-11.4-14.6-18.7-1.9-4.3-2.9-8.6-3.8-13,.1.5.2,1.1.3,1.6-1-5-2.2-9.9-3-15-.6-4-1-8-1.5-12-.3-2.7-.5-5.4-.7-8.1,0,0,0,.1-.2.2-3.3,3.9-6.8,7.9-10.5,11.5-4.9,4.8-10.1,8.8-15.7,12.6-10.8,7.3-23.1,12.7-36.3,12.9-12.3.2-24.6-4.8-33.8-13-3,2.2-6.2,4.1-9.6,5.7-3,1.3-6.3,2.4-9.5,3.2-2,.5-4,.9-6,1.5-7.8,2.5-17.1,1.6-24.5-1.6-4.4-1.9-8.5-4.6-11.9-8-.5-.6-1.1-1.1-1.6-1.7-1.4,1.3-2.9,2.6-4.5,3.8-3,2.2-6.4,4.3-9.9,5.7-3.4,1.3-6.4,2.3-10,2.7-2.1.3-4.2.4-6.4.4-3.7.1-8.4-.6-12-1.6-5.2-1.4-10.4-3.7-14.6-7.1-4-3.3-7.5-7-10.2-11.5-.5-.8-.9-1.6-1.3-2.3-7.3,2.8-15.4,3.3-23,1.2-10.8-3-19.6-10.9-24-21.1-2.1-4.7-4.3-9.3-5.5-14.4-.8-3.4-1.4-6.7-1.6-10.2-.2-2.3-.3-4.6-.4-6.9-.2-.2-.4-.3-.6-.5-3.6-2.8-6.2-6.1-8.7-9.9-4.7-7.3-6.6-15.7-6.5-24.3,0-2,0-4,0-6,0-3.1,0-6.2,0-9.2,0-6.9-.2-13.9-.2-20.8-.2-11.9-.7-23.9-.9-35.8-.3-11.8-.5-23.5,0-35.2.4-7.4.8-14.9,2.4-22.1.7-3.4,1.4-6.8,2.5-10,1-3,2-5.8,3.5-8.6,1.5-2.8,3.2-5.8,5.6-8,2.7-2.5,5.4-4.8,8.8-6.2,3.8-1.6,8.3-2.2,12.4-1.5,4.6.9,8.8,2.7,12.2,6,2.8,2.8,4.6,6.2,5.6,10,0,0,0-.2,0-.3.7,2.3.9,4.6.8,6.9,0-.2,0-.4,0-.6,0,.3,0,.5,0,.8,0,.9,0,1.8-.1,2.8,0-.8.1-1.6.2-2.4.1,3.8,0,7.6.2,11.3,16.3,1.3,30.7,14.2,32.6,30.8.5,4.4,1,8.8,1.4,13.3,1.3-.5,2.6-1,4-1.3,3.8-1.1,7.3-1.5,11.3-1.6.6,0,1.2,0,1.8,0s1.5,0,2.2,0c3.3,0,6.6.4,9.9,1.3,4.6,1.3,9,3.5,12.8,6.4,2,1.5,3.8,3.3,5.5,5.2.8-1.6,1.7-3.2,2.6-4.8,3.2-5.5,7.5-9.8,11.8-14.4,9.1-9.6,23.8-13.1,36.4-9.6,11.9,3.3,21.8,12.7,25.7,24.5.2-.2.4-.3.6-.5,5.5-4.4,12.2-7.2,19.2-8.1,5-.7,10.8-.5,15.7,1.1,1.8.6,3.5,1.2,5.2,1.8,1.7.8,3.3,1.6,4.9,2.5,7.2,3.9,13.2,11.1,16.3,18.7,2.4,5.8,3.4,11.6,3.6,17.8.2,6.8-1.7,13.4-3.2,19.9-.4,2.3-.8,4.7-1.2,7,1.4-2.3,2.9-4.6,4.3-6.9,3-4.7,6-9.3,9.2-13.8,2.3-3.7,4.6-7.4,7.1-11,5.2-7.2,12.5-12.9,20.6-16.5,9.7-4.2,20.7-4,30.8-1.6,5.4,1.3,10.8,4.1,15.3,7.5,3,2.3,5.1,4.7,7.6,7.6,2.4,2.7,4,6.1,5.5,9.4,3.4,6.9,4.2,14.9,4.5,22.5,0,.2,0,.4,0,.6,3.5-12.3,7-24.6,10.5-36.8,1.7-6,3.7-11.9,5.7-17.8.9-3.2,2.1-6.1,3.8-9,1.9-3.3,4.3-6.2,7.1-8.8.5-2.6.9-5.2,1.4-7.8.3-2,.7-4,1.1-6-3.6-8.4-5-17.5-4-26.6,1.8-16.1,12.3-29,24.3-39.1,3.9-3.3,8.4-6,12.9-8.5,4.9-2.6,9.9-5,15-7.2,9.2-4,19.1-6.9,28.8-9.2,10.3-2.5,20.8-4.2,31.3-5.2,7.9-.8,15.8-1.2,23.8-1.3,8.3-.2,16.7.3,25,.8,3.3.2,6.6.5,9.9.9,3,.4,6,1,9,1.6,2.3.5,4.6.9,6.8,1.5,1.9-.2,3.9-.3,5.8-.4,5.3-.2,11,.6,16.1,2,7.4,2,14.5,6,19.8,11.6,5.6,5.8,9.4,12.7,11.6,20.4.8,2.6,1.3,5.2,1.7,7.9.7,4.4.4,8.5,0,13-.3,4.1-1.8,8-3.2,11.8-.9,2.5-2.3,5-3.8,7.3-1.3,2.1-2.7,4.1-4.2,6-1.2,2.2-2.6,4.3-4.2,6.1-1.7,1.9-3.2,3.6-4.9,5.1-.6.8-1.2,1.5-1.8,2.2-2.2,2.7-4.5,5.3-6.8,7.9-.8,1-1.7,2-2.6,3-.3.3-.6.6-.8.9.3-.3.5-.6.8-.9,0,0,0,0,0,0-4.9,5.5-9.8,10.9-14.8,16.3-4.9,5.4-9.8,10.9-14.9,16.2-13.4,13.7-27.3,27-42.6,38.6-8.1,6.1-16.6,11.8-25.4,16.7-4.9,2.7-9.9,5.2-15.1,7.4-5.5,2.4-11.2,4-17,5.6-.7.2-1.4.4-2.1.6-5.4,1.6-11.1,1.8-16.5.8-1,8.7-2.1,17.4-3.1,26.1-.8,6.7-1.6,13.4-2.4,20-1,8.4-1.8,16.9-3,25.4-.9,6.4-2,12.7-3.5,18.9-1.1,4.9-3,9.5-4.4,14.3-2,6.3-5,11.9-9.6,16.6-4.6,4.6-10.3,7.9-16.5,9.6-6.5,1.8-13.5,1.8-19.9,0-3.8-1-7.3-2.7-10.4-4.8-7.6,6.9-16.5,12.8-26.6,15.2-4,1-7.9,1.5-11.9,1.5s-8.3-.6-12.5-1.7h0Z"/>
      <path class="st1" d="M591.5,901.9c0,0,0-.2,0-.2,0,.2,0,.5,0,.7,0-.2,0-.3,0-.5h0Z"/>
      <path class="st1" d="M591.5,901.7v-.2c0,.1,0,.2,0,.4s0,.1,0,.2c0-.1,0-.2,0-.4h0Z"/>
      <path class="st1" d="M1148.8,1053.9c-6.2-6.2-10.4-15.4-10.1-24.4.9-23.5,2.3-46.9,3.6-70.3.6-11.6,1.3-23.2,2.1-34.7.8-12.5,1.9-24.9,2.9-37.3.5-6.2,1.5-12.4,2.2-18.5,1.6-12.2,10.2-22.2,21.2-26.4,1.4-13.4,2.8-26.7,3.8-40.1.2-2.6.4-5.2.6-7.8.3-7.6.8-15.1.9-22.7-.4-4.1.5-8.3,2.6-11.9,3.5-6,10-9.7,16.9-9.7s13.4,3.7,16.9,9.7c2.1,3.5,3,7.8,2.6,11.9,0,10,.6,20,.6,29.9,0,12.2-.3,24.4-.7,36.6-.3,8.8-.5,17.6-.7,26.3.3,1.3.6,2.7.7,4.1.3,2.8.5,5.6.3,8.5-.1,3.1-.4,6.2-.7,9.3-.2,4-.4,8.1-.6,12.1,0,1.7-.2,3.4-.2,5.1v2c0,10.5.3,21,.4,31.5.2,10.2.6,20.5,1.1,30.7.2,3.6.3,7.1.5,10.7.3,3.7.5,7.5.8,11.2.3,3.1.5,6.3.8,9.4,0,.6.1,1.2.2,1.8.4,2.8.8,5.5.8,8.4.1,6-1.6,12.2-4.7,17.4-1.8,3-4,5.6-6.5,7.9-.4,2.9-1.2,5.7-2.3,8.4-1.7,4.1-4.2,7.8-7.4,10.9-6.4,6.4-15.3,10.1-24.4,10.1s-17.9-3.7-24.4-10.1h0Z"/>
      <path class="st1" d="M1375.8,1093.3c-3.3-2.6-6.2-5.8-8.3-9.4-1.4-2.5-2.6-5.1-3.3-7.8-.8-2.9-1.2-5.8-1.2-8.7-.1-2-.3-3.9-.3-5.9,0-3,.2-6,.5-8.9.6-10.1.9-20.3,1.6-30.4.7-10.9,1.3-21.8,2-32.7,1.4-23.3,2.7-46.7,4.8-70,1-11.3,2.1-22.6,3.4-33.8.6-4.9,1.5-9.8,2.3-14.7.6-3.2,1.5-6.4,2.3-9.6,1.1-4.4,3.1-8.6,5.7-12.2,6.1-8.6,20.6-6.9,24.7,2.6.9-.9,1.9-1.8,2.9-2.5,5.7-4.4,12.8-6.8,20-6.8,14.7,0,27.5,10,31.6,24,1.3,4.6,2.4,9.1,2.8,13.9.4,5.2.5,10.4.6,15.7,0,2.5.1,4.9.2,7.4.2,7.4.3,14.8.5,22.1.2,11.1.3,22.2.5,33.2.3,20.9.7,41.8,1.8,62.7.4,8.1.9,16.2,1.4,24.3,0-1.2-.2-2.4-.2-3.7.2,3.5.4,7.1.8,10.7.3,1.5.5,3.1.7,4.6h0c.2,1.6.4,3.2.4,4.8,0,4.8-.9,9.5-2.8,13.9-4.2,10-13,17.7-23.4,20.5-9.2,2.5-19.3,1.2-27.5-3.6-.4-.2-.8-.5-1.3-.8-4.2,3.4-9.1,5.7-14.3,7-2.9.7-5.8,1.1-8.7,1.1-7.2,0-14.2-2.2-20.1-6.8h0Z"/>
      <path class="st1" d="M1547.1,1148.3c-3.5-.5-7.1-1.2-10.5-2.3-2.2-.7-4.4-1.5-6.4-2.5-1.9,0-3.8,0-5.7,0-5-.1-10,0-15.1-.4-7.4-.4-14.6-1.2-21.8-3.2-6.1-1.7-11.7-4.6-17.3-7.4-.3-.1-.6-.3-.9-.4-8.9-4.1-16-10.8-19.9-19.9-1.9-4.6-2.9-9.6-2.9-14.5s1.7-12.5,4.7-18.2c1-2.1,2-4.2,3.2-6.2,1.8-3,4.2-6.2,6.7-8.7-2.8-3-5.1-6.5-6.8-10.5-2.6-6-3.4-12.7-2.5-19.2.8-6.1,3.2-12.7,7.3-17.4.7-.8,1.4-1.7,2.1-2.6-1.6-1.9-2.9-4-4-6.2-1,0-2-.2-3-.4-.2,0-.3,0-.5-.1.3,0,.6.1.9.2-2.3-.5-4.3-1.2-6.4-2.3-4.3-2.5-7.1-7.3-7.1-12.3s3.4-11.1,8.7-13.1c1.9-.7,3.8-1.5,5.7-2.1,1-.3,2-.5,3.1-.7,1.3-2.1,2.8-4.1,4.6-5.9,2.6-2.7,5.3-5,8.5-7,3.1-2,6.6-3.3,10.1-4.3,3.3-1,6.7-1.2,10-1.8,3-.5,6-1,9.1-1.6,4.9-.8,9.9-1.4,14.8-1.9,6.6-.7,13.2-1.4,19.8-1.8,5.4-.3,10.8-.9,16.2-.8,7.6,0,15.1,0,22.7.4,5.1.2,10.2.5,15.4.9,4.2.3,8.3.9,12.5,1.3,5.3.5,10.7,1.5,15.6,3.7,5.3,2.3,10.6,6,13.3,11.3.3.7.7,1.3,1,1.9,2.1.2,4.1.4,6.2.7,4.2.6,8.2,1.7,12.3,2.8,13.5,3.4,23.9,15.7,25.7,29.4.7,5.2.2,10.6-1.3,15.6,6.6,5.9,11,14,12.2,22.8,1.3,9.8-1.3,19.9-7.4,27.7-5.9,7.6-14.8,12.9-24.4,14.1-9.2,1.2-18.3,2.5-27.4,3.8.5,1.3,1,2.7,1.4,4,2.7,9.7,1.3,20.2-3.8,28.8-4.9,8.4-13,14.6-22.4,17.2-5.9,1.7-12,3-18,4.6-6.2,1.6-12.4,3.2-18.8,4.4-3.1.6-6.4.6-9.5.8-.7,0-1.3,0-2,0-2.7,0-5.4-.3-8.1-.7h0Z"/>
      <path class="st1" d="M1629.9,867.1c0-.1.1-.2.2-.3,0,0,0-.2,0-.2,0,.2-.2.4-.2.6h0ZM1603.8,951.6c.2-10.8-.3-21.6.2-32.3.3-5.7.6-11.5.9-17.2.3-5.1.6-10.1.8-15.2.2-6.7.5-13.5.1-20.2,0-.6-.1-1.1-.2-1.7-.7-2.7-.6-5.7.6-8.4,2-4.8,6.8-8,12-8s8.9,2.5,11.2,6.5c.8,1.4,1.4,3,1.6,4.5,1,3.9,1.2,8,1.6,12,.2,3,.4,5.9.5,8.8.3,5.9.4,11.8.6,17.8.3,10.5.5,20.9,0,31.4-.3,8-.9,16-1.6,24-.6,7-7.4,12.3-14.1,12.3s-14.4-6.5-14.3-14.3h0Z"/>
      <path class="st1" d="M1624.5,957.4c-2.4-2.4-3.5-5.4-3.6-8.8-1.1-22.1-.5-44.3.4-66.4.2-4,.4-7.9.6-11.9,0-1.8.3-3.5.5-5.3l.3-2.8c.1-1.1.6-2.2,1-3.2.8-2.3,2.5-4,5-4.3,2.7-.4,5.2,1.2,6.3,3.6.5,1.1,1.1,2.2,1.4,3.5.4,1.6.8,3.2,1.1,4.8.7,3,1,6,1.5,9,.8,4.8,1.3,9.7,1.9,14.6,1.2,11.2,2.3,22.5,3.2,33.7.6,8.2,1.1,16.4,1.6,24.6.2,3.2-1.4,6.6-3.6,8.8-2.3,2.3-5.5,3.6-8.8,3.6s-6.5-1.3-8.8-3.6h0Z"/>
      <path class="st1" d="M1628.9,950.3c-2.4-2.4-4.1-6-3.9-9.5.6-11.6,1-23.2,1.5-34.8.5-10.8,1.2-21.7,1.9-32.5.3-4.6.6-9.2,1-13.9.2-2.4.4-4.8.6-7.2.2-1.5.4-3.1,1.2-4.5,1.3-2.3,4.1-3.5,6.7-2.8,2.3.6,3.8,2.5,4.7,4.6.3.7.5,1.5.8,2.3.2.5.4,1.1.5,1.7.6,2.8,1.3,5.6,1.7,8.5.8,5.2,1.6,10.4,2.1,15.6.5,5.7,1.1,11.3,1.5,17,.5,6.4.8,12.7,1.2,19.1.5,9,.9,18,1.4,27,.2,3.5-1.5,7.1-3.9,9.5-2.5,2.5-5.9,3.9-9.5,3.9s-7-1.4-9.5-3.9h0Z"/>
      <path class="st1" d="M1712.1,751.9c0-.2,0-.4,0-.6,0,0,0,.2,0,.2,0,.1,0,.2,0,.3ZM1726.7,752.9c0-.1,0-.2,0-.4,0,0,0-.2,0-.3,0,.2,0,.4,0,.7h0ZM1696.1,993.9c-1-7.7-1.4-15.5-1.9-23.2-.3-5.2-.6-10.5-.9-15.7-.5-11.4-.7-22.8-.9-34.3-.3-21.3-.2-42.7.9-64,.6-11.8,1.4-23.6,2.6-35.4,1.1-10.8,2.2-21.5,4.1-32.2.4-2.5.8-5,1.3-7.4l-.4,1.9c.7-3.4,1.3-6.8,2.2-10.2.8-3.4,1.6-6.8,2.9-10,1.1-2.6,2.2-5.2,3.5-7.7,1.2-2.5,2.2-5.3,4-7.5h0s0,0,0,0h0c.1-.1.2-.2.3-.4,1.3-1.5,3.2-2.5,5.5-2.5,3.3,0,5.9,2.1,6.9,4.9,0-.1,0-.2,0-.3-.1-.3-.3-.5-.4-.8,1.7,2.6,1.6,6.1,1.9,9.1.3,2.8.7,5.5,1,8.3.4,3.5.4,7.1.6,10.6,0,.9,0,1.8.2,2.7,4.3-1,8.8-.9,13.1.3,4.4,1.2,8.5,3.6,11.7,6.8,1.9,1.9,3.7,4.2,5,6.8.2.1.4.2.6.3,3.2,1.9,6.1,4.4,8.4,7.4,2.2,2.9,4.3,6.5,5.1,10.1.9,4.4,1.7,8.7,2.3,13.1.4,2.8.6,5.5.9,8.3.6,6.5.8,13.1,1,19.7.2,10.8,0,21.7,0,32.5,0,7-.2,14.1-.3,21.1,0,3.7-.2,7.5-.3,11.2-.2,5.7.4,11.4-1.3,16.9-1.6,5.6-4.3,10.7-8.5,14.8-3.6,3.6-8,6.2-12.9,7.5-1.4.3-2.9.6-4.4.9-1,.2-1.9.2-2.9.2,0,3.8,0,7.6-.1,11.5,0,3.5-.2,7.1-.1,10.6.2,1.9.3,3.9.4,5.8.2,3.3-.4,6.7-1.1,9.9-.3,1.4-.8,2.8-1.5,4.1-1.5,3.1-3.2,5.9-5.6,8.3-4.9,4.9-11.5,7.3-18.3,7.3-12.1,0-22.8-9.2-24.4-21.3h0Z"/>
      <path class="st1" d="M1704.3,1064.2c-1-2.4-2.3-4.8-3.3-7.2-1.4-3.4-2.6-6.9-3.8-10.5-.4-1.2-.6-2.6-.8-3.8-.4-2.1-.9-4.1-1.2-6.2-.4-2.6-.8-5.2-1.1-7.8-1.3-11.7-2.3-23.4-3.3-35.2-1-11.2-1.7-22.5-2.3-33.7-.2-5.2-.6-10.4-.7-15.6-.1-6.6-.2-13.3-.3-19.9,0-5.7.1-11.4.2-17.1,0-4.9.2-9.8.4-14.8.3-10.4.6-20.8,1.1-31.2,1-23.5,2.2-47,4-70.5.8-10.7,1.8-21.5,3.1-32.2.6-5.1,1.2-10.3,2.2-15.4.6-3.2,1.1-6.4,1.9-9.6.4-1.8.8-3.5,1.4-5.2.5-1.5,1-3.2,1.8-4.6.3-.6.7-1.2,1-1.7,1.7-2.8,4.7-4.6,8-4.6s6.4,1.8,8,4.6c1.5,2.7,2.7,5.5,3.3,8.5.7,3.2,1.4,6.4,1.9,9.6.8,5,1.5,10.1,2,15.1,1.2,11.5,2.1,23.1,3,34.6,1.8,23,2.9,46,3.8,69.1.9,21.6,1.5,43.2,2.3,64.9.2,6.3.7,12.5,1.1,18.8,0-.1,0-.2,0-.3,1,11.3,2,22.6,3.2,33.9,1.2,10.9,2.4,21.8,3.7,32.7.9,8.3,1.6,16.6,2.1,24.9.1,1.9,0,3.9,0,5.8,0,3.7-.6,7.6-1.4,11.2-.8,3.7-1.9,7.2-2.9,10.8-2.3,7.7-8.7,13.6-16.8,14.7-.9.1-1.8.2-2.7.2-8,0-15.6-4.8-18.7-12.3h0Z"/>
      <path class="st1" d="M1780.1,1149c.3,0,.6.2.8.3-1.7-.6-3.4-1.1-5.1-1.8-8.7-1-16.8-6-21.3-13.8-1.3-2.3-2.5-4.7-3.4-7.1.1.4.3.8.4,1.2-.7-1.9-1.4-3.8-1.8-5.7-.7-3.4-1.1-6.3-1.3-9.7-.1-2.3,0-4.5-.1-6.8-1.6-21.5-3.5-42.9-5.7-64.3-2.3-22.2-5.3-44.4-8.6-66.5-1.5-10-3.1-19.9-5-29.8,0,0,0-.1,0-.2-1.4-6.3-.9-12.7,2.4-18.4,3.1-5.3,8.3-9.3,14.2-11,6.2-1.7,12.9-.8,18.4,2.4.6.3,1.2.7,1.7,1.1.6-.2,1.2-.4,1.9-.6,15.2-4.2,32.5,3.7,38.4,18.6,1.3,3.3,2.6,6.5,3.7,9.9.8,2.2,1.1,4.7,1.5,7,.3,1.5.5,3.1.7,4.7.9,6.8,1.2,13.7,1.6,20.6,0-1.5-.2-3-.3-4.5,1.7,25.6,3,51.1,4.3,76.7,0,1.8.2,3.5.3,5.3,0,1.2.2,2.4.3,3.6,4.9,4.6,8.7,10.5,10.2,16.9,1,4.1,1.7,8,1.8,12.2,0,3.2-.3,6.4-.7,9.6-.1,1.4-.3,2.8-.4,4.2-.2,2.2-.4,4.4-.7,6.7-.5,5-1.9,9.9-3,14.8-2.1,8.8-8.6,16.8-16.4,21.3-4,2.4-8.5,3.9-13.2,4.5-1.5.2-3,.3-4.5.3-3.8,0-7.5-.7-11.2-1.8h0Z"/>
      <path class="st1" d="M2141.1,1092.6c-3-3-5.4-6.6-7.1-10.5-.5-1.4-.9-2.7-1.4-4.1-.8-2.9-1.2-5.8-1.2-8.8,0-.8-.1-1.6-.2-2.4.1,1.5.2,3,.3,4.5-.9-13-1.6-25.9-1.7-39,0-3,0-5.9,0-8.9-2,.1-4.1,0-6.1-.2-7.9-1.1-15.1-5.3-19.9-11.5-2.4-3.1-4.2-6.7-5.2-10.5-.7-2.7-1-5.4-1-8.1h0c-.4-12.2-.6-24.5-.4-36.8.1-7,.2-13.9.4-20.9,0-4.1,0-8.1.3-12.2.7-13.2,1.4-26.5,2.4-39.7.4-5.8.9-11.6,1.5-17.4,0-2.8.1-5.6.2-8.3.6-22.4,1.1-44.9,2.9-67.3.9-10.8,1.8-21.6,2.9-32.4.5-4.9,1-9.8,1.7-14.7,1-6.3,1.8-12.8,4.1-18.8,2.9-7.6,13.2-9.2,18.8-3.7,2.8,2.8,3.8,6.7,3.1,10.2,0,.7,0,1.3,0,2,1.8,21.1,3.4,42.2,5.2,63.4.4,4.4.7,8.8,1.1,13.1,8.3,1.4,16.1,6.1,21,13.1,2-.4,4.1-.5,6.1-.5,9.2,0,18.1,3.7,24.6,10.2,6.4,6.4,10.3,15.5,10.2,24.6-.2,22.6-1,45.2-1.4,67.8-.4,22.5-.7,45-1,67.5-.1,12.1-.3,24.1-.5,36.2-.2,11.9-1.2,23.9-2.6,35.7-.4,3.2-.8,6.3-1.3,9.5-2.3,16.1-16.3,28.5-32.6,28.5s-17.1-3.5-23.3-9.6h0Z"/>
      <path class="st1" d="M2246.2,1042.3c-17.4-2.4-31.1-17.8-31-35.5,0-.7,0-1.3,0-2-3.9,0-7.9-.3-11.8-1-4.6-.9-9.1-1.9-13.3-4-3.2-1.6-6.2-3.4-9.4-5-4.1-2.2-7.9-5.8-10.7-9.4-4-5.2-6.6-11.3-7.4-17.8-1.5-11.1,2.2-23.7,10.6-31.5,1.3-1.2,2.5-2.4,3.7-3.6,2.4-2.2,4.7-4.1,7.2-5.9-.3-.4-.6-.8-.8-1.3,0,0-.1-.2-.1-.2,0,0,0,0,.1.2-1.7-2.8-3.1-5.7-4.1-8.9-.4-.1-.8-.2-1.2-.4-7.1-2.2-13.4-6.1-17.9-12-4.6-6-7.1-13.3-7.1-20.9s2.5-14.9,7.1-20.9c1.8-2.3,3.9-4.4,6.2-6.2.3-.2.5-.4.8-.6-1.8-8.1,1.6-17,9.1-21.3,3-1.7,5.9-2.8,9.4-3.2,1.9-.3,3.9-.3,5.8-.5,1.9-.2,3.8-.3,5.7-.4,3.8-.2,7.6-.4,11.3-.6,4.7-.2,9.5-.5,14.2-.7,12.1-.6,24.2-1.2,36.4-1.8,9.2-.5,18.4-1,27.6-1.5,3.1-.2,6.2-.5,9.3-.7,6.8-.5,13.6-1.6,20.4-1.8-.2,0-.4,0-.6,0,1.9,0,3.8-.1,5.7-.2,12.9-.1,24.6,9,28.1,21.4,1.7,6.3,1.3,13.1-1.2,19.1-3,7.1-8.6,12.3-15.5,15.5-.2.1-.5.2-.7.3,0,3.1-.5,6.2-1.3,9.2-.6,2-1.3,4-2.2,5.9,5.1,6.5,8.1,14.5,8.1,23s-1.8,13.1-5.1,18.8c-3.5,5.9-8.4,10.5-14.3,13.8h0c3.9,9.3,3.8,19.8,0,29.2-.5,1.2-.9,2.5-1.4,3.7-1.6,3.8-3.7,6.9-6.1,10.3-2.2,3.3-5.3,6.1-8.1,8.9-2.1,2-4.1,4-6.1,6-3.4,3.3-6.9,6.6-10.2,10-.2.2-.3.4-.5.6-2.4,6.6-6.3,12.3-11.9,16.6-6.3,4.9-14.1,7.5-22,7.5s-3.2-.1-4.8-.3h0Z"/>
      <path class="st1" d="M1940.6,999.8c-4.7-.7-9.2-2.1-13.8-3.2-12.2-2.9-22.1-13.5-25.4-25.4-1.7-6.3-1.7-13,0-19.3.3-1.1.7-2.2,1.1-3.3-.5-.7-1-1.5-1.4-2.2-4.7-8.1-5.5-17.4-2.9-26.2,0,.1,0,.2-.1.4,0-.2.2-.5.2-.7.2-.6.3-1.1.6-1.7,1-2.9,2.1-5.7,3.7-8.3.2-.4.5-.8.8-1.2-7.1-2.9-12.7-9.2-14.7-16.6-1.2-4.4-1.2-9,0-13.4,1.5-5.4,4.7-9.6,8.9-13.2,3-2.5,6.6-4.3,10.4-5.4,3.2-.9,6.4-1,9.7-1.1,20.9-1.5,41.7-3.6,62.5-5.2,7.8-.6,15.6-1.1,23.4-1.7,21.7-1.9,43.3-4,64.9-6.8,7.8-1,15.6-2,23.4-3,6.4-.8,12.8-1.6,19.3-1.9,3.5-.6,7.2,0,10.4,1.8,4.7,2.8,7.6,7.9,7.6,13.3s-2.9,10.6-7.6,13.3c-2.5,1.5-5.2,2.1-7.9,2-.4,0-.8.2-1.2.2-3.3.7-6.7,1.5-10,2.2,1.4,1,2.7,2,3.9,3.3,4.4,4.5,7.4,10.3,8.2,16.6.9,6.4-.4,13-3.7,18.6-3.9,6.7-10.1,11-17.3,13.3-1.6.5-3.2,1.1-4.9,1.6,4.2,5.2,7.1,11.5,8.1,18.3,1.3,9.8-1.3,19.8-7.4,27.6-6,7.8-14.6,12.5-24.3,14-24.6,3.9-49.3,7.2-74.1,10.3-4.4.6-8.8,1.2-13.2,1.7-7.9.8-15.8,1.8-23.8,2.1-.9,0-1.9,0-2.9,0-3.5,0-7.1-.2-10.4-.7h0Z"/>
      <path class="st1" d="M330.8,1197.6c-.6-.3-1.3-.6-1.9-.8-2.4-1-4.5-2.3-6.6-3.8-3.3-2.2-6-5.6-8-8.9-3-4.9-4.5-10.5-5-16.2-.3-3.3-1-6.6-1.4-9.9-.4-3.1-.7-6.3-1-9.4-.6-6.5-1.2-13-1.9-19.6-1.1-12.2-1.2-24.5-1.7-36.7-.1-3.7,0-7.3,0-11,0-7.6.1-15.2.1-22.8,0-10.3.8-20.7,1.3-31,.1-3.3.6-6.6.9-9.9.4-3.7.8-7.3,1.3-10.9,1-6.5,4.2-12.3,9.5-16.3,5.2-4,12-5.8,18.6-5,6.4.9,12.4,4.3,16.3,9.5,2.9,3.8,5,8.9,5.3,13.9,4.3,2.1,8.1,5.2,11,9.2,3.5,4.9,6.2,10.1,7.7,16,.9,3.4,1.3,6.8,1.9,10.3.4,1.8.9,3.6,1.3,5.4,4.6.7,9.1,2.2,13.2,4.6,5.4,3.2,10,7.7,13.2,13.2,3.4,5.8,4.7,11.9,5,18.5.2,4.9.6,9.7.6,14.6,0,3.7,0,7.3-.1,10.9,0,5.4-.3,10.8-.5,16.2-.5,12.6-1.4,25.2-2.3,37.9-.4,3.1-1.2,6.2-2.5,9.1-1.8,4.2-4.4,8.1-7.7,11.4-6.7,6.7-15.9,10.5-25.3,10.5s-9.1-.9-13.3-2.6c-1,.8-2.1,1.6-3.3,2.2-4.2,2.5-9.4,3.9-14.4,3.9s-7.2-.7-10.4-2.3h0Z"/>
      <path class="st1" d="M208.4,922.4c-6.8-6.8-10.2-15.7-10.5-25.3,0-2.6-.2-5.2-.4-7.8-.7-8.5-1.5-17-3-25.4-.1-.6-.3-1.2-.4-1.8-.7-.6-1.4-1.2-2.1-1.9-5-4.9-9-11.6-10.6-18.4-.8-3.6-1.4-7-1.3-10.8,0-1.8.2-3.6.5-5.4-2.1,0-4.1-.3-6.1-.8-8.9-2.5-15.7-10.2-16.9-19.3-1.3-9.3,3.3-18.6,11.3-23.3,5.5-3.2,12.4-4,18.5-2.2,5.6.3,11.2.5,16.8.6,5.7,0,11.4-.2,17-.5,7.6-.6,15.1-1.1,22.7.7,8.2,2,15.5,7.6,19.7,14.9,5,8.5,6.1,20.1,2,29.3-1.4,3-3,5.8-5,8.4,1.8,4.6,3.2,9.3,4.3,14.1,1.7,7.3,2.6,14.6,3.5,22.1.6,5.1.7,10.4.9,15.5.1,4,.1,8,0,12.1-.2,9.5-3.7,18.5-10.5,25.3-6.7,6.7-15.8,10.5-25.3,10.5s-18.6-3.8-25.3-10.5h0Z"/>
      <path class="st1" d="M161.2,1156c-3-3-5.5-6.7-7.1-10.6-1.8-4.2-2.4-8.4-2.6-13-.8-13.6-1.5-27.1-2.1-40.7-.2-5.6-.6-11.1-.7-16.7-8.4.3-16.8-3.4-21.9-10.2-.4-.6-.9-1.1-1.3-1.7-1.7-2.2-2.6-4-3.8-6.4-1.5-3-2.1-6.2-2.7-9.5-.3-1.6-.3-3.2-.4-4.8-.3-3-.4-5.9-.5-8.9-.1-3.6-.2-7.3-.3-10.9-.2-5.8-.2-11.7-.2-17.5-.1-10.9,0-21.8,0-32.7,0-21.4.1-42.8,1.1-64.2,1-21.8,2.2-43.6,3.3-65.4.3-5.9.7-11.8,1-17.8.2-2.7.3-5.4.4-8,.1-2.8,0-5.8.7-8.5.8-5.5,6.1-9.6,11.5-9.6s10.7,4.1,11.5,9.6c.2,1.1.4,2.3.6,3.4,2.1,10.2,4.3,20.3,5.8,30.6,1.6,10.8,2.7,21.7,3.6,32.7.5,6.6,1,13.3,1.4,19.9,2.9.8,5.7,2.2,8.2,4,4.2-2,8.8-3.2,13.6-3.2,7,0,13.8,2.3,19.3,6.6,6.3,4.9,11.3,12.7,12,20.8.5,5.2,1.1,10.5,1.2,15.7,0,3.5.2,7,.2,10.5.1,5,.3,10,.3,15,.2,12.4.3,24.9.5,37.3.2,11.6.4,23.2.6,34.8.2,10.9.6,21.7,1,32.6.7,21.1,1.8,42.2,2.7,63.3.4,8.6-3.7,17.6-9.8,23.6-6.2,6.2-14.8,9.8-23.6,9.8s-17.4-3.6-23.6-9.8h0Z"/>
      <path class="st1" d="M5.5,1074.8c-2.1-2.1-3.9-4.5-5.2-7v-141c.3-3.7.6-7.3.8-10.9.8-10.8,1.8-21.7,2.7-32.5,1-11,2.5-22,4.1-32.9,1.7-11.5,3.9-22.9,6.4-34.2,1-4.8,2.1-9.6,3.5-14.2,1-3.3,1.9-6.7,3.1-9.9.5-1.4,1-2.8,1.6-4.3.3-.7.6-1.4,1-2.1.5-1.1.9-2.3,1.6-3.4.6-1,1.3-1.9,2.1-2.8,2-2.5,4.8-4.3,7.9-5.2,4.2-1.2,8.2-.4,12,1.6,9.9,5,10.3,18.2,11.3,28,.5,5.6.8,11.3.9,17,.2,11,.3,22,.2,33,0,22,.3,43.9.4,65.9.1,22,.3,44.1.6,66.1.2,11.6.4,23.1.4,34.7,0,12.2-1,24.3-2.7,36.4-2.2,15.2-15.4,26.8-30.8,26.8s-16.2-3.3-22-9.1h0Z"/>
      <path class="st1" d="M.2,1055.9v-267.7c.2-.2.3-.3.5-.5,3.5-3.3,7.3-5.2,12-6,11.4-1.9,21.9,7.8,21.9,19.1s-1.1,7.2-3,10.1c-.3,8.2-.1,16.5.2,24.8,3,4.1,5,9,5.5,14,.6,5.8,1.3,11.7,1.6,17.6.1,3,.3,5.9.4,8.9.3,7,.7,14,1,21.1,0,1.2.1,2.3.2,3.5.4,3.7.7,7.4,1.2,11.1,1.4,12.3,2.8,24.6,4.2,36.9.5,4.1.8,8.2,1.1,12.4.4,5.2.8,10.5.8,15.7s0,5.8-.6,8.6c-.6,3-1.3,5.9-2,8.9-.5,2.2-1.4,4.3-2.5,6.3,0,7.8.1,15.7.2,23.5,0,8.8-3.6,17.3-9.8,23.5-6.2,6.2-14.8,9.8-23.5,9.8s-6.2-.4-9.2-1.3h0Z"/>
      <path class="st1" d="M137.3,1118.2c-3-1.5-6.3-2.9-9.1-4.8-2.1-1.4-4.2-2.7-6.2-4.2-3.3-2.4-6.3-5.1-9.2-7.9-6.6-6.4-11.4-14.2-15.4-22.4-3.7-7.6-5.7-15.9-7.2-24.2-1-5.6-1.6-11.2-1.9-16.8-1.5-.2-2.9-.3-4.4-.6-5-.8-9.8-2.1-14.4-4.1-4.4-1.9-8.4-4.4-12.3-7.3-4.9-3.6-8.8-8.3-12.1-13.4-3.5-5.3-5.3-11.6-6.5-17.8-1.8-9.5-.3-20.2,3.9-28.8,2.2-4.5,4.6-8.5,7.4-12.6,1-1.5,2.1-2.9,3.3-4.2-.4-.5-.9-1-1.3-1.5-5.8-7.1-9.1-16.5-9.1-25.6v-.8c-4.2-3.5-7.1-8.6-7.9-14.2-1.5-10.8,5.5-22,16.3-24.7,6.7-1.7,13.9-1.7,20.8-1.9,2.7-.1,5.5,0,8.2,0,1.8,0,3.6,0,5.3,0,6,0,11.9-.2,17.9-.5.2,0,.4,0,.6,0,3.4-.2,6.8-.4,10.2-.5.2,0,.4,0,.7,0,4.8-.4,9.6-1,14.4-1.1,1.3-.1,2.5-.2,3.8-.2,5.7,0,10.9,1.7,16,4.3,3.8,2,6.9,4.9,9.6,8.2,2.8,3.5,4.3,7.2,5.7,11.4,1.8,5.2,1.4,11.5,0,16.8-1.5,5.4-4.4,9.8-8.1,13.9-3.1,3.4-6.8,5.7-10.9,7.4.1,4.1-.2,8-1.2,12-.9,3.7-2.4,6.7-4.1,10.1-.6,1.1-1.2,2.2-1.9,3.2,2.2,1.1,4.3,2.4,6.3,3.9,1.3,1.2,2.6,2.3,4,3.5,3.8,3.4,6.6,8.2,8.6,12.8,1.4,3.2,2.3,6.4,3,9.6,0-.2,0-.4-.1-.6.7,3.3,1.4,6.6,1.7,9.9.3,3.8.4,7.6.5,11.4,0,1.8.1,3.5.2,5.3.1,3.6.2,7.2.4,10.7.3,4,.8,8,1.4,12,.3,1.1.5,2.1.9,3.1.3.8.7,1.7,1,2.5.4.8.9,1.6,1.4,2.4.4.6.9,1.1,1.3,1.7.4.4.7.7,1.1,1.1.6.5,1.3,1,1.9,1.5-.1,0-.2-.2-.4-.2,5.5,4,9.9,9,12.6,15.4,3.7,8.8,3.7,19,0,27.8-3.6,8.5-10.5,15.4-19,19-4.4,1.9-9.1,2.8-13.9,2.8s-9.8-.8-13.9-2.8h0Z"/>
    </g>
  </g>
  <g class="st14">
    <g>
      <path class="st8" d="M2014.1,954.4c0,.1,0,.3,0,.4,0-.1,0-.3,0-.4Z"/>
      <path class="st8" d="M1073.3,1126.4c0,0,0,.2,0,.3,0,0,0-.2,0-.3Z"/>
      <path class="st8" d="M1073.3,1126.2c0,0,0,.1,0,.2,0,0,0-.1,0-.2Z"/>
      <path class="st8" d="M1073.4,1125.9h0c0,0,0,.2,0,.3,0,0,0-.2,0-.3h0Z"/>
      <path class="st8" d="M1073.4,1125.9h0c0,0,0,0,0,0h0Z"/>
      <path class="st8" d="M1073.4,1125.6v.2-.2Z"/>
      <path class="st8" d="M1073.5,1124.5c0,.4,0,.7,0,1.1,0-.4,0-.7,0-1.1Z"/>
      <path class="st8" d="M1074.3,1112.5c0,0,0,.1,0,.2,0,0,0-.1,0-.2Z"/>
      <path class="st8" d="M1074.3,1112.4c0-.5,0-.9,0-1.4,0,.5,0,.9,0,1.4h0Z"/>
      <path class="st8" d="M2375.7,827.3c0,0,0,.1,0,.2,0,0,0-.1,0-.2Z"/>
      <path class="st8" d="M2375.6,826.8c0-.1,0-.2,0-.3,0,.3,0,.6,0,.9,0-.2,0-.4,0-.5Z"/>
      <path class="st8" d="M92.4,1026.2c.2-.2.3-.4.5-.6h-.5c0,.1,0,.3,0,.5h0ZM1665.8,1389.2c-33.1,0-66.2,0-99.3,0-22.2-.9-44.3-1.9-66.5-2.8-19.2-.8-38.4-1.2-57.6-1.7-41-1.1-82-2.2-123.1-3.3-9-.2-18.1-.5-27.1-.7-5.2-.2-10.5-.1-15.8,0-2.7,0-5.3,0-7.9,0-26.1,0-52.3,0-78.4-.1-10.7-.5-21.4-1-32.1-1.5-12.9-.7-25.8-1.6-38.7-1.8l-44.2-.9c-26.1-.6-52.3-1.2-78.4-1.7-13.5-.3-26.9-.8-40.4-.9-58.5-.4-117.1-1-175.6-1.4-57.4-.4-114.7-.7-172.1-1.4-52-.6-104-1.3-156-1.9-3.3-2.2-6.8-3.6-10.6-4.8-5.4-1.8-11-2.6-16.7-2.6-1.8,0-3.5,0-5.3,0-1.8,0-3.6,0-5.4,0-12.4-.6-24.8-1.3-37.2-1.5-10.7-.2-21.4-.4-32.2-.6-5.1,0-10.1-.3-15.2-.1-17.5.5-35,1.1-52.5,1.6-10.2.3-20.5.4-30.7,1.2-19.1,1.3-38.2,2.7-57.3,4-2.1.2-4.3.3-6.4.4-7.1,0-14.1-.1-21.2-.2-20.7-.2-41.4-.4-62.1-.6-8.7,0-17.4-.2-26.2-.4-19.7-.6-39.4-1.2-59.1-1.7-4.9-.1-9.7-.3-14.6-.5v-423.5c2.6,0,5.2,0,7.8,0,7,0,14.1.1,21.1.3,9.6.3,19.1.9,28.6,2.2,4.5.6,9,1.3,13.3,2.4,2.2.5,4.2,1.3,6.3,2,1.1-1,2.5-1.6,4.1-1,2.7,1,3.4,4.6,4.1,7,.4.6.7,1.3,1,1.9.8,1.6.8,3.5.3,5.2,0,.2,0,.4,0,.5.7,5.4,1.4,10.9,1.9,16.3.6,7,1.1,14,1.6,21.1,2.6-.3,5.1-.3,7.8,0,2.8.2,5.5.5,8.3.8,5.3.6,10.6,1.2,15.9,1.8,10.9,1.3,21.9,2.2,32.8,3.2,2,.2,4,.3,5.9.5,1.5,0,3,.1,4.5,0,.2-2.4.4-4.9.6-7.3.4-5,.9-9.9,1.4-14.9.5-5.2,1-10.5,1.6-15.7.6-4.9,1.5-9.8,2.5-14.6.5-2.5.8-5,1-7.5.6-9.6,1-19.1,1.7-28.7.6-9.4,1.4-18.8,2-28.1.4-5.5.6-11,1.1-16.5.4-4.3.8-8.5,1.7-12.8.8-3.6,2.8-7,5.6-9.5,1-.9,2-1.8,3-2.6,1.4-1.3,2.8-2.7,4.2-4.1,3.2-3.7,6.5-7.3,10-10.8,3.9-3.8,7.8-7.7,11.6-11.6,7.8-7.9,15.3-16,22.9-24,5.3-5.5,10.6-10.9,15.9-16.5,5.3-5.7,10.6-11.3,15.8-17.1,3.4-4,6.8-8,10.1-12.1,1.8-2.2,3.7-4.2,5.5-6.3,2-2.2,4.4-4.3,7.4-4.9,1.9-.4,3.5-.5,5.4-.3,2.6.3,5.4,1.7,7.2,3.6,3.5,3.5,4.6,8.5,4.9,13.2.2,3,.4,5.9.6,8.9.3,5.2.6,10.5.9,15.7.2,3.2.4,6.4.6,9.6,1.6,21.8,3.2,43.6,5.2,65.3,1.9,21.4,3.1,42.9,3.6,64.5.3,12.1.5,24.3.6,36.4.1,10.1.1,20.2.3,30.3.1,6.1.2,12.3.3,18.4,0,5.1.4,10.3.5,15.4.4,9.5,1,19,1.5,28.5.8,10.4,1.6,20.8,2.3,31.2.4,6.6.9,13.1,1.3,19.6.4,5.6.4,11.2.7,16.8.1,3.6.4,7.2.5,10.7,0,1.1.2,2.2.3,3.4.2,0,.4,0,.6,0,7,.4,14,.6,21,.8,4.4,0,8.9.2,13.3.3,0-2.3.2-4.5.2-6.8.4-11,.8-22.1.9-33.2.1-22.3.2-44.6.2-66.8,0-21.5-.2-43.1-1.1-64.6-.9-22.7-2.5-45.3-3-67.9-.1-6,0-12.1.8-18,.3-1.9.7-3.9,1.3-5.8.8-2.5,2-4.6,3.5-6.7,1.6-2.3,4.2-4.1,6.7-5.2,2.4-1,5-1.4,7.6-1.3,5.1.2,10.3.6,15.4.9,11.4.8,22.8,1.3,34.1,2.2,5.1.4,10.1.8,15.2,1.2,5.4.5,10.8.9,16.1,1.7,5.2.7,10.4,1.4,15.4,2.9,4.4,1.3,8.7,3.4,11.8,6.8,1.9,2.1,3.3,4.4,4.1,7.1.7,2.2.9,4.5.9,6.8,0,2.9-.3,5.9-.5,8.8-.1,2.9-.2,5.8-.4,8.8-.4,11.2-.2,22.4,0,33.6.1,10.2.2,20.5,0,30.7,0,3.6-.2,7.1-.3,10.7.4-.1.8-.2,1.3-.3.8-.2,1.7-.3,2.5-.5,1.7-.3,3.6-.1,5.4-.1,2,0,4,.3,6,.4,5.2.4,10.5.9,15.7,1.4,11.3,1.1,22.5,2.8,33.7,4.6,5.3.9,10.5,1.9,15.8,2.9,6.5,1.3,13.7,2.7,18.4,7.8,1.9,2.1,3.1,4.3,3.9,7,.5,1.7.5,3.5.5,5.3s0,2.6,0,3.9c-.3,10.8-1.2,21.5-1.9,32.3-.5,8.7-.5,17.5-.8,26.2-.1,4.1-.2,8.1-.4,12.1,1.9.1,3.9.3,5.8.4,2.7.2,5.3.4,8,.6,21.3,1.3,42.6,2.4,63.9,3.8,5.4.3,10.7.7,16.1,1,0,0-.2,0-.3,0,.5,0,.9,0,1.4.1.3,0,.6,0,.9,0,.1,0,.2,0,.3,0,.7,0,1.3,0,2,.1,1.2,0,2.5.2,3.7.2h0c.5,0,1,0,1.5,0h0c.1,0,.2,0,.4,0,.2,0,.3,0,.5,0h.2c.3,0,.6,0,.9,0,.6,0,1.2,0,1.7.1,0,0,.2,0,.3,0h0c.2,0,.5,0,.7,0,.8,0,1.7.1,2.5.2,1,0,2,.1,3,.2.7,0,1.3,0,2,.1h.2c0,0,.1,0,.2,0,11.3.8,22.6,1.6,34,2.4,5.5.4,10.9.9,16.4,1.5,4.6.5,9.2,1.1,13.8,1.8,0-4.7,0-9.3,0-14,0-21.5-.3-42.9-1-64.3-.7-22.2-1.6-44.5-3-66.7-.2-4-.5-8.1-.8-12.1-.9-11.4-1.8-22.8-2.8-34.2-.5-5.1-1-10.3-1.4-15.4-.3-3.4-.6-6.8-.8-10.2-.2-4.2-.3-8.4.2-12.6.6-4.5,2.4-9,5.8-12,2.1-1.9,4.4-3.1,7.1-3.9,2.1-.6,4.4-.7,6.6-.5,10.7.6,21.4,1.7,32.1,3,5.2.6,10.4,1.3,15.6,1.9,4.8.5,9.5.8,14.3,1.2,10.5.6,21,.9,31.6,1,.8,0,1.6,0,2.4,0,3,0,6,0,9,.4,5.1.8,9.2,4.3,11.1,9,.6,1.5,1,3.2,1.4,4.8.7,3,1.2,6.1,1.7,9.2.4,2.6.9,5.2,1.3,7.9,1.8,10.5,3.8,21,5.4,31.6,1.6,11,2.8,22.1,3.9,33.2,1,10,1.8,19.9,2.5,29.9h0c0,.2,0,.4,0,.5h0c0,.2,0,.2,0,.2h0s0,0,0,0c0,.2,0,.4,0,.5,0,0,0-.2,0-.3.4,5.8.8,11.6,1.2,17.5.4,6.2.8,12.3,1.2,18.4,0-.1,0-.2,0-.4.8,11.2,1.6,22.5,2.5,33.7.8,10.3,1.5,20.5,2.3,30.8,1.1,12.8,1.7,25.7,4.1,38.3.2,1,.5,2.1.7,3.1,3.4,0,6.8,0,10.1.3,1.9,0,3.8.2,5.8.3.2-3.9.4-7.8.6-11.6,1.2-23.1,2.6-46.2,4.1-69.3h0c.7-10.5,1.4-21.1,1.1-31.6,0-.4,0-.8-.1-1.1-.2-.4-.3-.8-.4-1.2-.7-2.6-.7-5.2,0-7.8.8-3,2.7-5.6,5.1-7.5,2.4-1.8,5.1-2.6,8-3.2,2.9-.5,6-.4,8.9-.3,5.5.2,11,.4,16.4.7,10.5.4,21,.8,31.5.7,7.1,0,14.2-.3,21.4-.7,2.7-.2,5.3-.4,8-.5,0-.2,0-.5,0-.7.4-5.9.6-11.9,1.2-17.8.4-4.2.9-8.5,2.2-12.6,1.7-5.2,4.9-9.6,10-11.9,2.5-1.1,5.1-1.6,7.8-2.1,10.3-2,20.9-2.3,31.3-2,10.6.3,21.2.9,31.8,1.3,11.5.4,22.9.7,34.4.7s17.8-.4,26.7-.8c1.6,0,3.2-.1,4.8-.2.7-10.2,1.4-20.3,2-30.5.7-12,.8-24,1.3-36,.2-6.1.5-12.2.8-18.3.2-3.7.4-7.4,1.2-11,.8-3.5,3.5-6.7,6.8-8.1,1.9-.8,4-1.1,6-.8,1.8.2,3.3,1,5,1.7,1.1.3,2.3.6,3.4.9,3.8.7,7.6,1,11.4,1.5,12.8.8,25.7,1.2,38.5,1.2,13.4,0,26.9.4,40.4-.4,3.7-.3,7.3-.6,11-.9,1.8-.2,3.5-.4,5.2-.5,2.3-.2,4.7-.4,7,.3,3.2.9,5.8,2.7,7.8,5.3,3.1,4,3.8,9.5,4.4,14.3.3,2.4.4,4.8.6,7.3.4,4.3.5,8.6.8,12.9.4,7.9.5,15.9.7,23.8.2,7.1.3,14.2.3,21.4.1,15.9.1,31.8-.5,47.6-.3,6.4-.5,12.7-.8,19.1,4.1-.3,8.1-.6,12.2-.9h0c.6,0,1.3,0,1.9-.1,15.4-1,30.8-1.9,46.2-2.2,7.6-.2,15.1-.3,22.7-.5,3.5,0,7-.2,10.5,0,4.3.2,8.6.5,12.5,2.7,5.7,3.2,9.1,8.7,11.1,14.8,2.5,7.7,2.8,15.9,3.3,23.9.2,3.9.4,7.8.6,11.6.3,8.1.5,16.1.7,24.2.2,7.5.4,15,.6,22.5,0,.4,0,.8,0,1.2,12.9-.7,25.8-1.6,38.7-2.1,16.2-.6,32.5-1,48.7-1.3,9.6-.2,19.1-.3,28.7-.3,4.9,0,9.7,0,14.6.1,2,0,4.1,0,6.1.1,0-.9.2-1.7.3-2.6.2-3.4.4-6.9.6-10.3.3-4.3.3-8.6.4-12.8.2-7.1.3-14.2.4-21.3.2-15.6.3-31.3,1-46.9.7-16.4,1.5-32.8,2.6-49.2.5-7.8,1.3-15.5,2.5-23.2.8-5.5,1.6-11.4,5.1-15.8,4.7-6,12.9-6.6,19.9-7.3,15.9-1.5,31.9-.8,47.8-.2,7.4.3,14.8.9,22.1,1.3,3.9.2,7.8.4,11.7.6,1.6,0,3.2.2,4.8.2,3.9.2,7.8.3,11.4,1.8,10.9,4.6,13.8,18,15.4,28.5.8,5.1,1.1,10.3,1.5,15.4.7,7.9.8,16,1.1,23.9.5,16.1.9,32.3,1.4,48.4.4,14.3.8,28.6,1.1,42.8.1,5.5.2,10.9.4,16.4,2.8.2,5.6.4,8.4.6,5.3.3,10.5.6,15.8.9.3-3,.5-5.9.7-8.9.4-7.7.7-15.4.8-23.1.2-7.6-.2-15.2-.6-22.8-.8-15.3-1.5-30.6-1.6-45.9-.2-15.4-.1-30.8.7-46.2.8-15.6,1.8-31.2,3.1-46.7.3-3.7.6-7.5.8-11.2.9-14.7,1.6-29.5.8-44.2-.2-2.5-.4-5-.9-7.4-.7-3.7-.9-7.5.2-11.2,1.1-3.7,2.7-7.1,4.4-10.6h0c0-.1.1-.2.2-.4h0c0,0,0-.1.1-.2h0s0,0,0-.1c0-.1.1-.3.2-.4,0,0,0-.2.1-.3,0-.1.1-.2.2-.4.2-.5.5-1,.8-1.5,0,0,0,0,0-.1,0,0,0-.1.1-.2,0-.1.1-.2.2-.4,0,0,0,0,0-.1,7-14,15.1-27.5,23.6-40.7,8.6-13.2,17.2-26.5,26.2-39.5.9-1.3,1.8-2.7,2.8-4,3.2-4.1,7.6-7.3,13-7.3s6.7,1,9,3c1.1.9,2.1,1.8,3,2.9.7,1,1.4,2,2,3,1.1,1.8,2,3.7,2.9,5.6,3.5,6.6,7.7,12.7,11.3,19.2,3.8,6.8,7.5,13.8,11.2,20.7,3.6,6.8,7.2,13.5,10.7,20.3.8,1.6,1.6,3.1,2.4,4.7.3.5.5,1.1.8,1.6.3.6.6,1.1.8,1.6,1.4,2.8,2.8,5.6,4.2,8.4,3.2,6.3,6.6,12.6,10.5,18.6,1.6,2.3,3.3,4.6,5,6.9,1.4,1.9,2.6,4,3.4,6.2.8,2,1.2,3.9,1.6,6,.5,2.6.8,5.2,1,7.8.4,5.8,0,11.7-.4,17.5.2,1.6.3,3.2.4,4.8.5,6.2.8,12.4,1.2,18.7.6,11,1,22,1.6,32.9.5,9.6,1,19.1,1.6,28.7.8-.7,1.6-1.3,2.6-1.7,2.8-1.2,6-.8,8.4.9,6.2.2,12.5-.3,18.8-.6,10.3-.8,20.6-1.7,30.9-2.8,2.2-.2,4.4-.4,6.7-.6,0-.3,0-.6,0-.9-.3-5.8-.6-11.5-.9-17.3-.5-6.2-1.2-12.4-2.2-18.6-.2-.8-.4-1.7-.6-2.5-.5-1.8-.9-3.7-.9-5.6,0-3.7,1.4-7.1,3.9-9.8,3.2-3.5,7.7-4.8,12.2-5.5,3.3-.5,6.8-.6,10.1-.5,5.6,0,11.2.3,16.8.6,11,.6,22,.8,33,1.1,11.2.3,22.4.7,33.6,1.6,2.9.2,5.8.8,8.7,1.4,3.2.7,6.2,2.1,9.1,3.6,10.2,5.2,11,17.9,11.7,28,.8,11.2,1.3,22.4,1.4,33.6,0,3.9,0,7.8,0,11.7,6.4,1,13,1.4,19.6,1.8,22.4,1.2,44.7,2.1,67.1,2.7,5.9.2,11.9.3,17.8.5,2.9,0,5.8.2,8.6.2.8,0,1.6,0,2.4,0,1.3-7.1,1.9-14.4,2.6-21.6.5-4.6.9-9.2,1.2-13.8.4-6.4.8-12.7,1.2-19.1,0,.8-.1,1.6-.2,2.4.5-11.5.8-23,1.1-34.4.2-10.7.2-21.5-.4-32.2,0-.3,0-.7,0-1-1-10.5-2.1-21-3.5-31.4-.7-5.4-1.5-10.8-2.1-16.2-.4-2.8-.7-5.6-.9-8.4-.2-1.8-.3-3.7-.3-5.5,0-3,.3-6,1-8.9.8-3.2,2.7-6,4.9-8.4,2.1-2.3,5.1-3.6,7.9-4.5,3.3-1,6.9-1,10.2-1.1,2.5,0,4.9-.2,7.4-.2,5.4,0,10.7-.2,16.1,0,11.5.3,22.9,1.1,34.3,1.8,11.1.7,22.2,1.2,33.2,2.3,5.1.5,10.2,1.1,15.3,1.6,2.2.2,4.5.4,6.7.7v30.1c-1.8-.3-3.5-.5-5.3-.7-.2.5-.4,1.1-.7,1.6.6,4.7,1.6,9.3,2.4,13.9,1,5.1,1.9,10.2,2.9,15.2.2,1.2.5,2.5.7,3.7v542.5c-1.6.2-3.1.4-4.7.7-13.6,1.9-27.1,3.6-40.7,5.8-3.1.5-6.1,1-9.2,1.5-11.2-1.4-22.3-2.8-33.6-3.4-9.9-.5-19.8-1-29.6-1.4-12.6-.6-25.3-1.6-38-1.7-36.4-.4-72.8-.8-109.2-1.2-6.6,0-13.2.2-19.8.4-18.8.5-37.7,1-56.5,1.6-33.8.9-67.6,1.9-101.4,2.8-5.6.2-11.1.5-16.6.8-16.9.8-33.7,1.7-50.6,2.6-41.2,2.1-82.4,4.2-123.7,6.2-11.9.6-23.9,1.3-35.8,2-21.7,0-43.3,0-65,0h.1Z"/>
      <path class="st8" d="M1566.5,1389.1c-22.2-.9-44.3-1.9-66.5-2.8-19.2-.8-38.4-1.2-57.6-1.7-20.3-.6-40.5-1.1-60.8-1.7,8.1-.3,16.1-.6,24.2-.9,6.2-.2,12.3-.4,18.5-.7,6.5-.2,13,0,19.5.1,14,.2,28.1.5,42.1,1,28.5,1,57,3,85.4,5.6,3.2.3,6.5.6,9.7.9-4.8,0-9.6,0-14.4,0h0Z"/>
      <path class="st8" d="M1636.7,1473h.2-.2Z"/>
      <path class="st8" d="M.2,1400.3v-48.7c14-.3,28.1-.5,42.1-.7,2.4,0,4.8,0,7.1,0,13.3-.6,26.6-1.3,39.9-2,2.7-.8,5.4-1.6,8.2-2.4,28.3-8.4,57-14.9,86.2-19.3,46.7-7,94.2-6,141-.5,10.1,1.2,20.3,2.2,30.4,3.8,6.3,1,12.6,1.9,18.9,2.9,1,.2,2.1.3,3.2.5,5.3-5.1,12-8.6,19.1-10.6,4.2-1.2,8.8-1.7,13.2-1.9,2.3,0,4.6,0,7,0,1.8,0,3.6,0,5.3,0,108.2-10,216.2-22,324.3-32.9,25.3-2.5,50.5-5.2,75.8-7.5,33-3,66.1-6.1,99.2-9.1,9.7-.9,19.4-1.5,29.1-2.2,5.8-.4,11.5-.9,17.3-1.3,3.8-.4,7.6-.9,11.3-1.3,8.4-1,16.8-1.9,25.1-2.9,3.1-.4,6.3-.8,9.5-1.1,16.8-1.3,33.5-2.7,50.3-4,11.8-.9,23.7-1.9,35.5-2.5,9.3-.4,18.6-.9,27.9-1.3,5.2-.2,10.4-.7,15.7-.7,10.1,0,20.2,0,30.2,0,4.5,0,9,.3,13.5.4,8.1.3,16.2,1,24.3,1.9,9.6,1.1,18.7,6.6,24.6,14.2,7.2,9.3,9.6,21.6,6.5,32.9-1.5,5.5-3.9,10.8-7.4,15.3-2,2.5-4.2,4.8-6.8,6.8-3.4,2.6-7.2,4.3-11,6.2-2.5,1.1-5.1,1.8-7.8,2.3-1.6.3-3.2.7-4.9,1-2.8.2-5.7.4-8.6.5-2.9-.1-5.9-.3-8.8-.5-2.8-.3-5.7-.6-8.5-.9-4.2,0-8.4,0-12.6,0-8.5,0-17.1.2-25.6.2-9.5,0-19,0-28.6.4-3.6.2-7.1.3-10.7.4,19.7.9,39.4,2.5,59,4.4,11.3,1.1,22.5,2.6,33.7,4.3,10.5,1.6,21.1,3.3,31.5,5.4,3.8.8,7.5,1.6,11.3,2.5,6.1-.2,12.2-.3,18.3-.5,21.6-.6,43.1-1.3,64.7-1.6,34.9-.4,69.9-.7,104.8-1.1,15.2-.2,30.5-.4,45.8-.4,1.2-.7,2.5-1.3,3.8-1.9,3.9-1.5,7.8-2.8,11.9-3.9,4.1-1.1,8.4-1.7,12.6-2.2,8.4-1.1,17-.9,25.4-1.1,3.5,0,7-.3,10.5-.5,17.5-1,35-1.9,52.4-2.9,9.5-.5,19-1.3,28.5-1.4,15.4-.2,30.8-.5,46.2-.7,18.9-.3,37.8-.6,56.8-.9,6.6,0,13.2-.3,19.9,0,34.8,1.4,69.6,2.9,104.4,4.3,21.5.9,42.9,2.7,64.3,5.1,12.5-.2,25-.4,37.5-.6,11-.2,22-.3,33-.5,5.9,0,11.7.1,17.6.2,37.5.5,75.1,1,112.6,1.4,11.6.2,23.2.2,34.8.4,5.7-.4,11.3-.7,17-.9,34.2-.9,68.5-1.8,102.7-2.7,15.7-.4,31.3-.4,47-.4h10.6c13,0,26.1,0,39.1,0s16.4,0,24.6-.1c5.8,0,11.6,0,17.3.4v60.4H.2Z"/>
    </g>
  </g>
  <g class="st13">
    <g>
      <path class="st24" d="M.2,1400.3v-179.2c2.8-1.7,5.7-3.4,8.6-5,10.9-6,21.6-11.7,32.9-17.2,5.9-2.9,11.8-6.2,17.8-8.7,12.7-5.3,25.5-10.3,38.4-15.2,32-11.9,64.6-22,98-29.2,21-4.6,42-8.8,63.2-11.7,22.4-3,44.9-4.5,67.4-5.7,102-5.5,203.8,5.5,305.4,13,52.3,3.1,104.5,6,156.8,9.1,3.4.2,6.8.4,10.1.6,9.5.6,18.9,1.2,28.4,1.9,2.1.1,4.2.3,6.3.4,24.8,1.7,49.7,3.4,74.5,5.2,56.3,4,112.5,8.5,168.7,13.6,57.1,5.2,114.2,11.2,171.3,16.7,31.4,3,62.7,5.5,94.2,7.8,53.2,2.7,106.3,4.8,159.5,5.9,56.8,1.2,113.5,2.3,170.3,3.3,41.8.7,83.6,1.5,125.3,1,24.2-.3,48.3-.9,72.4-1.7,11.4-.4,22.8-1,34.1-1.7,27.4-2.4,54.8-5.1,82.3-8,28-3,56-6.3,84-9.5,54.4-6.2,108.9-11.6,163.4-17,49.4-4.9,98.6-11.2,148.1-15.9,6.2-.6,12.4-1.2,18.6-1.7v249H.2Z"/>
      <path class="st6" d="M.2,1400.3v-169.4c9.8.6,19.6,1.3,29.4,2.4,7.1.8,14.1,1.7,21.1,2.7,12.9,1.8,25.8,3.9,38.7,5.9,26.6,4.2,53.2,8.4,79.8,12.4,33.2,5.1,66.2,11.8,99.1,18.8,35.9,7.7,71.6,15.7,107.2,24.6,32.9,8.2,66,15.6,99.1,22.6,47.3,9.4,94.7,18.7,142.3,26.5,25.1,4.1,50.3,7.3,75.5,10.4,27.2,3.3,54.4,6.5,81.7,9.3,1.6.2,3.3.3,4.9.5,22.6,1,45.1,1.6,67.7,1.8,26.1.2,52.2.5,78.3-.2,27.6-.8,55.2-2,82.8-3.2,25.9-1.1,51.8-1.7,77.8-2.6,23.9-.8,47.8-1.9,71.7-3.3,15.4-1.1,30.8-2.4,46.2-3.8,20.7-1.9,41.3-4.4,61.9-6.4,21.5-2,42.9-4.6,64.2-7.6,18.6-2.6,37-5.2,55.4-8.6,26.6-5.6,53.2-11.3,79.9-16.5,26-5.1,51.9-10.2,77.8-15.5,24.7-5,49.5-9.4,74.3-13.7,12.5-2.2,24.9-4.4,37.4-6.7,12.7-2.4,25.4-4.9,38.3-6.7,13-1.8,26.2-2.6,39.3-3.6,18.5-1.4,37-2.4,55.5-3.3,26-1.2,52.1-2.6,78.1-3.2,26-.6,51.9-1.3,77.9-1,13,.1,25.9.1,38.9.8,19.1.9,38.1,2.5,57.1,4.1,24.7,2.1,49.3,4.5,73.8,7.9,30.9,4.4,61.5,9.8,91.6,17.9,28.6,7.7,56.8,17,84,28.5,22.9,9.7,45.1,21,68.1,30.3,6.8,2.8,13.7,5.4,20.6,8,.2,0,.4.2.7.2.4,0,.9,0,1.4,0,6.9,0,13.8,1.2,20.3,3.4v36.5H.2Z"/>
    </g>
  </g>
</svg>