<svg width="60" height="72" viewBox="0 0 60 72" fill="none" xmlns="http://www.w3.org/2000/svg">
<path d="M33.9999 3.96875C33.9826 1.75968 32.1778 -0.0171362 29.9688 0.00012207C27.7597 0.0173803 25.9829 1.82218 26.0001 4.03125L33.9999 3.96875ZM27.6938 70.8504C29.268 72.4003 31.8006 72.3805 33.3504 70.8062L58.6066 45.1523C60.1565 43.5781 60.1367 41.0455 58.5624 39.4956C56.9882 37.9458 54.4556 37.9656 52.9058 39.5398L30.4558 62.3433L7.65231 39.8934C6.07805 38.3435 3.54547 38.3633 1.99563 39.9376C0.44578 41.5118 0.465566 44.0444 2.03982 45.5942L27.6938 70.8504ZM30 4L26.0001 4.03125L26.5001 68.0312L30.5 68L34.4999 67.9688L33.9999 3.96875L30 4Z" fill="#980000"/>
</svg>
