<svg width="178" height="123" viewBox="0 0 178 123" fill="none" xmlns="http://www.w3.org/2000/svg">
<path d="M100 75C100 62 102 50.8333 106 41.5C110 31.8333 115.167 24 121.5 18C127.833 11.6667 135 7.16665 143 4.49998C151.333 1.49998 159.5 -1.90735e-05 167.5 -1.90735e-05V17.5C158.833 17.5 150.667 20.5 143 26.5C135.667 32.1667 131.333 40 130 50C131 49.6667 132.167 49.3333 133.5 49C134.5 48.6666 135.667 48.3333 137 48C138.667 47.6667 140.5 47.5 142.5 47.5C152.5 47.5 160.833 51.3333 167.5 59C174.167 66.3333 177.5 75 177.5 85C177.5 95 174 103.833 167 111.5C160.333 118.833 151.333 122.5 140 122.5C127.333 122.5 117.5 117.833 110.5 108.5C103.5 98.8333 100 87.6667 100 75ZM3.72529e-07 75C3.72529e-07 62 2 50.8333 6 41.5C10 31.8333 15.1667 24 21.5 18C27.8333 11.6667 35 7.16665 43 4.49998C51.3333 1.49998 59.5 -1.90735e-05 67.5 -1.90735e-05V17.5C58.8333 17.5 50.6667 20.5 43 26.5C35.6667 32.1667 31.3333 40 30 50C31 49.6667 32.1667 49.3333 33.5 49C34.5 48.6666 35.6667 48.3333 37 48C38.6667 47.6667 40.5 47.5 42.5 47.5C52.5 47.5 60.8333 51.3333 67.5 59C74.1667 66.3333 77.5 75 77.5 85C77.5 95 74 103.833 67 111.5C60.3333 118.833 51.3333 122.5 40 122.5C27.3333 122.5 17.5 117.833 10.5 108.5C3.5 98.8333 3.72529e-07 87.6667 3.72529e-07 75Z" fill="#7A0000"/>
</svg>
