<?xml version="1.0" encoding="UTF-8"?>
<svg id="Layer_1" xmlns="http://www.w3.org/2000/svg" xmlns:xlink="http://www.w3.org/1999/xlink" version="1.1" viewBox="0 0 2400.5 1400.7">
  <!-- Generator: Adobe Illustrator 29.5.1, SVG Export Plug-In . SVG Version: 2.1.0 Build 141)  -->
  <defs>
    <style>
      .st0 {
        fill: none;
      }

      .st1 {
        fill: #96938e;
      }

      .st2 {
        fill: #88793f;
      }

      .st3 {
        fill: #cad9df;
      }

      .st4 {
        fill: #414141;
      }

      .st5 {
        fill: #980000;
      }

      .st6 {
        fill: #af9b4f;
      }

      .st7 {
        fill: #bbd2db;
      }

      .st8, .st9, .st10 {
        isolation: isolate;
      }

      .st9 {
        fill: #b8aa77;
        opacity: .3;
      }

      .st11 {
        clip-path: url(#clippath-11);
      }

      .st12 {
        clip-path: url(#clippath-10);
      }

      .st13 {
        fill: #d0bfa3;
      }

      .st14 {
        fill: #636363;
      }

      .st15 {
        clip-path: url(#clippath-1);
      }

      .st16 {
        clip-path: url(#clippath-3);
      }

      .st17 {
        clip-path: url(#clippath-4);
      }

      .st18 {
        clip-path: url(#clippath-2);
      }

      .st19 {
        clip-path: url(#clippath-7);
      }

      .st20 {
        clip-path: url(#clippath-6);
      }

      .st21 {
        clip-path: url(#clippath-9);
      }

      .st22 {
        clip-path: url(#clippath-8);
      }

      .st23 {
        clip-path: url(#clippath-5);
      }

      .st24 {
        fill: #c1baad;
      }

      .st25 {
        fill: #c1b9ac;
      }

      .st26 {
        fill: #b7b7b7;
      }

      .st27 {
        fill: #ff9600;
      }

      .st28 {
        fill: #ff6100;
      }

      .st29 {
        fill: #ffc71b;
      }

      .st30 {
        fill: #8dbbcf;
      }

      .st31 {
        fill: #394d27;
      }

      .st32 {
        fill: #959595;
      }

      .st33 {
        fill: #dcceb8;
      }

      .st34 {
        fill: #d8c9b0;
      }

      .st35 {
        fill: #ffb500;
      }

      .st36 {
        fill: #96938d;
      }

      .st37 {
        fill: #a1c2cf;
      }

      .st38 {
        fill: #c9b66c;
      }

      .st39 {
        clip-path: url(#clippath);
      }

      .st40 {
        fill: #7d6752;
      }

      .st41 {
        fill: #7b7b7b;
      }

      .st10 {
        fill: #fff;
        opacity: .3;
      }
    </style>
    <clipPath id="clippath">
      <rect class="st0" x=".2" y=".7" width="2400" height="1400"/>
    </clipPath>
    <clipPath id="clippath-1">
      <rect class="st0" y=".4" width="2400.5" height="1400.5"/>
    </clipPath>
    <clipPath id="clippath-2">
      <rect class="st0" x="2.8" y="-13.9" width="2396.1" height="603.8"/>
    </clipPath>
    <clipPath id="clippath-3">
      <rect class="st0" x="276.7" y="450.6" width="799.3" height="843.4"/>
    </clipPath>
    <clipPath id="clippath-4">
      <rect class="st0" y=".4" width="2400.5" height="1400.5"/>
    </clipPath>
    <clipPath id="clippath-5">
      <rect class="st0" x="28.7" y="625.4" width="2318.8" height="2446.8"/>
    </clipPath>
    <clipPath id="clippath-6">
      <rect class="st0" y="677.2" width="2351.4" height="523.3"/>
    </clipPath>
    <clipPath id="clippath-7">
      <rect class="st0" y="704" width="2400.5" height="769.6"/>
    </clipPath>
    <clipPath id="clippath-8">
      <rect class="st0" y="1123.2" width="2400.5" height="277.8"/>
    </clipPath>
    <clipPath id="clippath-9">
      <rect class="st0" x="1828.5" y="1045.9" width="592.6" height="318"/>
    </clipPath>
    <clipPath id="clippath-10">
      <rect class="st0" x="162.6" y="1137" width="2203.8" height="244.7"/>
    </clipPath>
    <clipPath id="clippath-11">
      <rect class="st0" x="131.1" y="1038.9" width="1847.5" height="274"/>
    </clipPath>
  </defs>
  <g class="st39">
    <image class="st8" width="2400" height="1400" transform="translate(.2 .7)" xlink:href="stage2-outline-1.png"/>
  </g>
  <g class="st15">
    <g>
      <path class="st13" d="M2400.2,1226.4v174.2H.2V502.9c3.2-2.1,6.5-4.1,9.8-6.1,9.4-6.2,19.5-11.4,30.2-15.4,25.4-10.7,37.3-12.2,64.4-17.6,2.3-.5,4.6-.7,6.9-.9,5.7-.5,11.4-.9,17-1.3,4-11.1,9.7-21.5,17-30.9,6-7.8,12.9-14.7,20.7-20.7,9.2-7.1,17.3-11.4,27.8-16.4,13.8-6.6,30.3-9.9,45.3-12.5,8-1.4,16.1-2.7,24.1-4.2,13.1-2.4,26.1-4.9,39.2-7.5,45.2-10.2,90.1-22,135-33.5,44.5-11.3,89.2-22,133.9-32.5,19.8-4.6,39.6-8.8,59.5-12.9,30.6-6.2,61.2-12.3,91.9-18,19.9-3.7,39.9-7,60-10.1,47-7.4,94-14.9,141.3-20.5,92.1-10.9,184.4-20.1,276.9-26.5,107.4-7.4,214.9-13.9,322.5-19.2,90.7-4.4,181.4-8.2,272.2-10.6,48.5-1.3,97.1-2.4,145.6-3.3,45.5-.9,91-1.6,136.5-1.6,47.5,0,95,.4,142.4,2,24.1.8,48.3,1.9,72.4,2.6,10.4.3,20.9,0,31.3.3,17.9.6,35.9.8,53.6,3.9l3.7.6c6.4,1.3,12.7,2.6,19,3.9v1032.2Z"/>
      <path class="st34" d="M.2,1400.7v-868c55.3-7.6,110.7-15,166.1-22.3,53.4-7,106.9-12.8,160.5-18.9,50.3-5.8,100.7-10,151.1-14.7,17.6-1.6,35.1-3.6,52.7-4.8,31.2-2.2,62.5-4.4,93.7-6.6,16.5-1.2,33-2.3,49.5-3.5,20.7-1.5,41.4-3.3,62.1-4.2,27.7-1.3,55.3-2.6,82.9-3.9,21.2-1,42.5-2.4,63.7-2.9,31.2-.7,62.5-1.4,93.8-2,16.5-.4,33-.3,49.5-.2,7.5,0,15,0,22.5,0,20.5,0,41-.1,61.5.3,32.8.6,65.7,1.3,98.5,1.9,19.4.4,38.8,1.4,58.1,2.1,33.1,1.2,66.1,2.5,99.1,3.7,15.7.6,31.4,1.7,47.2,2.7,36.4,2.2,72.9,4.4,109.3,6.6,29.6,1.8,59.4,3.1,89,5.8,59.7,5.6,119.4,11.2,179.1,16.8,17.1,1.6,34.1,4.5,51.2,6.8,35.3,4.8,70.6,9.6,105.9,14.4,7.6,1,15.2,2.1,22.7,3.1,6.2.8,12.5,2.3,18.7,3.4,33.4,6.2,66.8,12.3,100.2,18.5,47.9,8.8,95.6,18.5,142.9,30,33.9,8.3,67.5,18,100.5,29.2,19.5,6.6,39.3,13,58.4,20.9,3.3,1.4,6.5,2.8,9.8,4.2v781.6H.2Z"/>
      <path class="st34" d="M2400.2,619.1v117.2c-6.9,1.4-13.8,2.5-20.9,3.7-17.8,2.8-35.8,3.7-53.8,3.7h-1.6c-4.9,0-9.7-.4-14.6-.7-17.3-.9-34.9-2.2-52.3-3.5-3.8-.3-7.7-.6-11.5-.9-43-2.2-86.1-2.5-129.2-3.1-44.5-.6-89-.5-133.5-1.1-94.5-1.2-189-3.5-283.5-6.5-93.8-3-187.5-6.9-281.2-12.5-106.3-6.4-212.6-13.5-318.9-21.3-43.7-3.2-87.4-6.7-131.1-9.8-48.7-3.5-97.4-6.9-146.1-10.7-46.3-3.6-92.4-9.3-138.4-15.1-44.2-5.6-88.4-11.8-132.6-17.9-40.8-5.6-81.5-11.5-122.2-17.3-16.6-2.4-33.3-4.8-50-6.8-9.9-1.2-19.8-2.8-29.7-3.5-5.8-.4-11.6-.9-17.4-1.3-9.7-.1-19.5-.3-29.2-.4-7.4-.1-14.9.4-22.3.8-6.8.5-13.5,1-20.2,1.5,2.2-.2,4.5-.3,6.7-.5-4.4.3-8.7.7-13,1.1-6.2.9-12.4,1.1-18.6,1.4-5.1-.3-10.3-.7-15.4-1-10-1.4-19.6-4-28.8-7.9-17.9-7.6-33.8-19.9-45.7-35.3-12.4-16.1-20.1-35.2-22.6-55-1.9-14.8-.9-30,3-44.7.9-3.3,1.9-6.5,3.1-9.7,10-.7,20-1.2,30.1-1.3,21.2-.2,42.5,2.1,63.7,3.6,14.4,1,28.7,2.9,43,5.1,10.5,0,21.1-.3,31.6-.6,24.3-.6,48.7-1.5,73-2.7,22.7-1.1,45.3-2.8,68-3.8,35.2-1.7,70.4-3,105.6-4.9,49-3.7,98-7.9,147.1-10.4,46.6-2.5,93.1-4.1,139.8-4.1,93-.1,186,2,279,3.6,45.6.8,91.3,1.5,137,1.1,48-.3,96-1.6,144-1.7,45.2-.1,90.4-.6,135.6.2,60.6,1.1,121,4.8,181.3,10,17.6,1.5,35.2,3.2,52.8,4.8,9.4.5,18.8.9,28.2,1.1,14.9.4,29.8.2,44.8-.3,12.4-1,24.8-2.2,37.3-3.4,35.7-3.4,71.4-5.6,107.2-7.7,39.2-2.3,78.6-2,117.9-3.6,19.2-1.7,38.3-3.6,57.5-4.9,17.4-1.2,35.2-3.3,52.7-3.1,18.6.2,37.1,1.8,55.6,3.2,2.7.2,5.4.9,8.1,1.4,18.2,3.3,27.2,4.5,41.2,9.3,28.5,9.7,37.5,11.8,63.7,27,1.5.9,3,1.7,4.5,2.6,7.4,4.3,14.6,9,21.6,14v122.9h0Z"/>
      <path class="st34" d="M638,289.3c-2.3.5-4.7,1-7,1.4-3,.6-6.1,1.2-9.2,1.9,5.4-1.1,10.8-2.2,16.2-3.3Z"/>
      <path class="st34" d="M645.9,287.7c-2.6.5-5.2,1.1-7.9,1.6,2.6-.5,5.2-1.1,7.9-1.6Z"/>
      <path class="st33" d="M2400.2,583.3v334.8c-21.2,16.1-45.2,28.9-69.6,39.2-20.8,8.7-42.5,14.9-64.3,20.2-21.6,5.2-43.4,9.4-65.1,13.5-11.7,2.2-23.4,4.3-35.1,6.2-22,3.7-44.2,5.6-66.5,7.2-22.4,1.6-44.8,3.2-67.2,5.1-23.9,2-47.8,4.3-71.7,6.8-21.9,2.3-43.7,5.4-65.6,7.5-56.2,5.5-112.6,7.8-169.1,7.8s-6.2,0-9.3,0c-22.2,0-44.4-.8-66.6-1-22.9-.3-45.8-.1-68.7.1-47.5.5-95,1.1-142.5.7-46.7-.4-93.3-2.1-140-3.1-46.7-1-93.4-2.5-140.1-4.5-57-2.5-113.8-6.8-170.7-10.7-48.3-3.3-96.5-7-144.8-10.5-34-2.5-67.9-5-101.9-7.4-49.7-3.2-99.4-6-149-10.7-23.3-2.2-46.5-5.2-69.6-8.2-22.8-2.9-45.6-5.4-68.5-8.2-22.2-2.7-44.4-5.3-66.6-7.4-32.8-1.7-65.6-2.6-98.5-3-5.9,0-11.8-.1-17.7-.2-9.9,1.2-19.9,2.1-29.8,2.9-24.3,1.9-48.6,3.3-73,3.9-6,.2-12.1.2-18.1-.1-14.2-.7-28.5-1.6-42.7-2.9-12.1-1.1-23.9-4.8-35.8-7.2-18.3-3.8-46.3-16.4-62-26.3,0,0,0,0,0-.1-3.3-2-6.6-4-9.9-6.1v-206.5c11.1-7.7,22.2-15.4,33.7-22.5,21.9-13.4,45-24.5,68.1-35.6,9.7-4.7,19.7-8.7,29.8-12.4,23.8-8.8,47.8-17.1,71.9-25.1,11.1-3.7,22.2-7.3,33.4-10.8,11.8-3.7,23.7-7.4,35.8-10.1,24.8-5.4,49.6-11,74.7-14.4,11.1-1.5,22.4-2,33.6-2.8,25.7-1.8,51.4-3.7,77.1-5,12.1-.6,24.3-1.2,36.4-2,23.1-1.4,46.2-1.8,69.4-1.6,12.2,0,24.3.8,36.4,1.5,25.3,1.5,50.5,3.2,75.7,5.7,23.7,2.3,47.3,6.2,70.9,9.7,84.5,12.5,168.2,30.5,251.8,48,19.5,3.8,39.1,7.6,58.8,10.8,24.2,3.9,48.5,7.3,72.8,10.2,50.2,5.9,100.3,11.8,150.6,16.3,23.6,2.1,47.2,3.8,70.7,5.5,4.6.3,9.2.7,13.8,1,2.2.1,4.2.2,6.2.4,9.2,0,18.4.6,27.6,1.5,10.8.3,21.7,1.2,32.5,2.6,14.8,1,29.6,2,44.3,2.9,48.4,3.2,96.8,6.7,145.2,8.7,27.7,1.2,55.4,1.9,83.2,1.8,15.6,0,31.1-.2,46.6-.7,7.8-.2,15.6-.6,23.3-1,40.5-3.2,80.9-7.1,121.1-12.9,48.7-7.1,97.4-14,146-21.5,21.1-3.3,42.2-6.8,63.2-10.5,18-4.1,36-8.5,53.9-13.1,19.4-5,38.6-10.9,57.6-17.2,29-10.2,58.1-20.2,87.9-28,27.4-7.5,55.3-11.2,83.7-11.2s8.1,0,12.1.2h0Z"/>
      <path class="st30" d="M2400.2.7v193.6c-6.3-1.3-12.7-2.6-19-3.9l-3.7-.6c-17.7-3.1-35.7-3.3-53.6-3.9-10.4-.3-20.9,0-31.3-.3-24.1-.7-48.3-1.8-72.4-2.6-47.4-1.6-94.9-2-142.4-2-45.5,0-91,.7-136.5,1.6-48.5.9-97.1,2-145.6,3.3-90.8,2.4-181.5,6.2-272.2,10.6-107.6,5.3-215,11.8-322.5,19.2-92.5,6.4-184.8,15.5-276.9,26.5-47.2,5.6-94.3,13.1-141.3,20.5-20,3.2-40,6.4-60,10.1-30.7,5.7-61.3,11.8-91.9,18,2.3-.5,4.7-1,7-1.4-5.4,1.1-10.8,2.2-16.2,3.3,3-.6,6.1-1.2,9.2-1.9-19.9,4.1-39.7,8.3-59.5,12.9-44.7,10.5-89.4,21.2-133.9,32.5-45,11.5-89.8,23.2-135,33.5-13,2.6-26.1,5.1-39.2,7.5-8,1.4-16.1,2.8-24.1,4.2-15,2.6-31.5,5.8-45.3,12.5-10.4,5-18.6,9.3-27.8,16.4-7.8,6-14.7,12.9-20.7,20.7-7.2,9.4-12.9,19.8-17,30.9-5.6.4-11.3.8-17.1,1.3-2.4.2-4.6.4-6.9.9-27,5.4-39,6.8-64.4,17.6-10.7,4-20.8,9.1-30.2,15.4-3.3,2-6.6,4-9.8,6.1V.7h2400Z"/>
      <path class="st37" d="M2400.2,194.3v301.9c-7-5-14.2-9.8-21.6-14-1.5-.9-3-1.7-4.5-2.6-26.2-15.2-35.2-17.2-63.7-27-14-4.8-23-6-41.2-9.3-2.7-.5-5.4-1.2-8.1-1.4-18.5-1.5-37-3.1-55.6-3.2-17.6-.2-35.3,2-52.7,3.1-19.2,1.3-38.4,3.2-57.5,4.9-39.3,1.6-78.6,1.3-117.9,3.6-35.8,2.1-71.5,4.3-107.2,7.7-12.4,1.2-24.8,2.3-37.3,3.4-14.9.5-29.8.7-44.8.3-9.4-.3-18.8-.7-28.2-1.1-17.6-1.6-35.2-3.3-52.8-4.8-60.3-5.1-120.8-8.9-181.3-10-45.2-.8-90.4-.3-135.6-.2-48,.2-96,1.4-144,1.7-45.6.3-91.3-.4-137-1.1-93-1.6-186-3.8-279-3.6-46.6,0-93.2,1.7-139.8,4.1-49.1,2.6-98.1,6.7-147.1,10.4-35.2,1.9-70.4,3.2-105.6,4.9-22.7,1.1-45.3,2.7-68,3.8-24.3,1.2-48.6,2-73,2.7-10.5.3-21.1.5-31.6.6-14.3-2.2-28.6-4.1-43-5.1-21.1-1.5-42.4-3.8-63.7-3.6-10.1,0-20.1.6-30.1,1.3.4-1,.8-2.1,1.2-3.1.2-.4.3-.8.5-1.3.1-.3.2-.5.3-.8.1-.3.3-.7.4-1s.3-.7.4-1c.1-.3.3-.7.4-1,.4-.9.8-1.7,1.2-2.6.1-.3.2-.5.4-.8.1-.3.3-.5.4-.8.1-.3.3-.5.4-.8.3-.6.7-1.3,1-2,0-.2.2-.3.3-.5.2-.3.3-.6.5-.9.8-1.5,1.7-2.9,2.6-4.4.2-.3.4-.6.6-.9.4-.6.8-1.2,1.2-1.9.2-.3.4-.5.5-.8.1-.2.3-.4.4-.6.2-.4.5-.7.7-1.1.3-.4.6-.9.9-1.3.3-.4.5-.7.8-1.1.2-.3.5-.7.7-1,.3-.4.7-.9,1-1.3,6-7.8,12.9-14.7,20.7-20.7,9.2-7.1,17.3-11.4,27.8-16.4,13.8-6.6,30.3-9.9,45.3-12.5,8-1.4,16.1-2.7,24.1-4.2,13.1-2.4,26.1-4.9,39.2-7.5,45.2-10.2,90.1-22,135-33.5,44.5-11.3,89.2-22,133.9-32.5,19.8-4.6,39.6-8.8,59.5-12.9,30.6-6.2,61.2-12.3,91.9-18,19.9-3.7,39.9-7,60-10.1,47-7.4,94-14.9,141.3-20.5,92.1-10.9,184.4-20.1,276.9-26.5,107.4-7.4,214.9-13.9,322.5-19.2,90.7-4.4,181.4-8.2,272.2-10.6,48.5-1.3,97.1-2.4,145.6-3.3,45.5-.9,91-1.6,136.5-1.6,47.5,0,95,.4,142.4,2,24.1.8,48.3,1.9,72.4,2.6,10.4.3,20.9,0,31.3.3,17.9.6,35.9.8,53.6,3.9l3.7.6c6.4,1.3,12.7,2.6,19,3.9h0Z"/>
      <path class="st7" d="M2400.2,496.2v87.1c-4-.2-8.1-.2-12.1-.2-28.4,0-56.3,3.8-83.7,11.2-29.8,7.9-58.9,17.8-87.9,28-19,6.3-38.2,12.2-57.6,17.2-17.9,4.6-35.9,9-53.9,13.1-21,3.7-42.1,7.2-63.2,10.5-48.6,7.6-97.3,14.5-146,21.5-40.2,5.8-80.6,9.7-121.1,12.9-7.8.4-15.5.8-23.3,1-15.5.5-31,.6-46.6.7-27.7,0-55.5-.6-83.2-1.8-48.4-2-96.8-5.5-145.2-8.7-14.8-1-29.6-1.9-44.3-2.9-10.8-1.5-21.6-2.3-32.5-2.6-9.1-.9-18.3-1.4-27.6-1.5-2-.1-4.1-.2-6.2-.4-4.6-.3-9.2-.7-13.8-1-23.6-1.8-47.2-3.4-70.7-5.5-50.3-4.6-100.4-10.4-150.6-16.3-24.3-2.9-48.6-6.3-72.8-10.2-19.7-3.2-39.2-7-58.8-10.8-83.6-17.5-167.3-35.5-251.8-48-23.5-3.5-47.2-7.4-70.9-9.7-25.2-2.5-50.4-4.2-75.7-5.7-12.1-.7-24.3-1.4-36.4-1.5-23.2-.1-46.3.3-69.4,1.6-12.1.7-24.3,1.3-36.4,2-25.7,1.3-51.4,3.2-77.1,5-11.2.8-22.5,1.3-33.6,2.8-25.2,3.4-49.9,9-74.7,14.4-12.1,2.7-24,6.4-35.8,10.1-11.2,3.5-22.3,7.1-33.3,10.8-24.1,8-48.1,16.3-71.9,25.1-10.1,3.7-20.1,7.8-29.8,12.4-23.1,11.2-46.2,22.2-68.1,35.6-11.5,7-22.6,14.8-33.7,22.5v-212c3.2-2.1,6.5-4.1,9.8-6.1,9.4-6.2,19.5-11.4,30.2-15.4,25.4-10.7,37.3-12.2,64.4-17.6,2.3-.5,4.6-.7,6.9-.9,1,0,2-.2,3-.2.9,0,1.9-.2,2.8-.2,2.4-.2,4.8-.4,7.1-.5,1.4-.1,2.7-.2,4.1-.3.6,0,1.1,0,1.7-.1.1,0,.2,0,.3,0,1.2,0,2.4-.1,3.6-.2,1.9-.1,3.8-.2,5.6-.3.6,0,1.2,0,1.9,0,.8,0,1.5,0,2.3-.1.8,0,1.6,0,2.4-.1,1.2,0,2.5,0,3.8-.1.6,0,1.3,0,2,0,2.2,0,4.4,0,6.5-.1,21.2-.2,42.5,2.1,63.7,3.6,14.4,1,28.7,2.9,43,5.1,10.5,0,21.1-.3,31.6-.6,24.3-.6,48.7-1.5,73-2.7,22.7-1.1,45.3-2.8,68-3.8,35.2-1.7,70.4-3,105.6-4.9,49-3.7,98-7.9,147.1-10.4,46.6-2.5,93.1-4.1,139.8-4.1,93-.1,186,2,279,3.6,45.6.8,91.3,1.5,137,1.1,48-.3,96-1.6,144-1.7,45.2-.1,90.4-.6,135.6.2,60.6,1.1,121,4.8,181.3,10,17.6,1.5,35.2,3.2,52.8,4.8,9.4.5,18.8.9,28.2,1.1,14.9.4,29.8.2,44.8-.3,12.4-1,24.8-2.2,37.3-3.4,35.7-3.4,71.4-5.6,107.2-7.7,39.2-2.3,78.6-2,117.9-3.6,19.2-1.7,38.3-3.6,57.5-4.9,17.4-1.2,35.2-3.3,52.7-3.1,18.6.2,37.1,1.8,55.6,3.2,2.7.2,5.4.9,8.1,1.4,18.2,3.3,27.2,4.5,41.2,9.3,28.5,9.7,37.5,11.8,63.7,27,1.5.9,3,1.7,4.5,2.6,7.4,4.3,14.6,9,21.6,14h0Z"/>
      <path class="st3" d="M2400.2,1226.4v174.2H.2v-685.8c11.1-7.7,22.2-15.4,33.7-22.5,21.9-13.4,45-24.5,68.1-35.6,9.7-4.7,19.7-8.7,29.8-12.4,23.8-8.8,47.8-17.1,71.9-25.1,11.1-3.7,22.2-7.3,33.4-10.8,11.8-3.7,23.7-7.4,35.8-10.1,24.8-5.4,49.6-11,74.7-14.4,11.1-1.5,22.4-2,33.6-2.8,25.7-1.8,51.4-3.7,77.1-5,12.1-.6,24.3-1.2,36.4-2,23.1-1.4,46.3-1.8,69.4-1.6,12.2,0,24.3.8,36.4,1.5,25.3,1.5,50.5,3.2,75.7,5.7,23.7,2.3,47.3,6.2,70.9,9.7,84.5,12.5,168.2,30.5,251.8,48,19.5,3.8,39.1,7.6,58.8,10.8,24.2,3.9,48.5,7.3,72.8,10.2,50.2,5.9,100.3,11.8,150.6,16.3,23.6,2.1,47.2,3.8,70.7,5.5,4.6.3,9.2.7,13.8,1,2.2.1,4.2.2,6.2.4,9.2,0,18.4.6,27.6,1.5,10.8.3,21.7,1.2,32.5,2.6,14.8,1,29.6,2,44.3,2.9,48.4,3.2,96.8,6.7,145.2,8.7,27.7,1.2,55.4,1.9,83.2,1.8,15.6,0,31.1-.2,46.6-.7,7.8-.2,15.6-.6,23.3-1,40.5-3.2,80.9-7.1,121.1-12.9,48.7-7.1,97.4-14,146-21.5,21.1-3.3,42.2-6.8,63.2-10.5,18-4.1,36-8.5,53.9-13.1,19.4-5,38.6-10.9,57.6-17.2,29-10.2,58.1-20.2,87.9-28,27.4-7.5,55.3-11.2,83.7-11.2s8.1,0,12.1.2v643.1h0Z"/>
    </g>
  </g>
  <g class="st18">
    <g>
      <path class="st10" d="M1654.5,551.7c-11.8-.5-25.5-.4-40.2-.4-82.8.3-197.9.7-192.5-99.5-57-1.3-114-.2-171,.6-20.1.2-40.2,1.1-60.3,1-31.4,1.2-51-39-31-63.1,16.4-21.1,46.3-15.2,69.8-18.4,62-2.6,123.6-10.1,185.3-16-2.8-12.8,2.5-26.3,12.7-34.4,12.8-10.5,42-9.1,59.1-12.5,51.4-4,102.8-7.4,153.9-14.1-11.9-60.3,31.2-117.6,95.1-107.3,20.5-19.5,46.9-33,74.7-38.2,48.3-158.6,246.9-162.9,267.6,13.1,4.1.7,8.2,1.6,12.2,2.7,6.1,1.7,12,4.1,17.7,6.9,69.7-45.9,176.6-19.2,204.1,63.1,32.5-4.7,64,8.1,86.8,30.3-.3,2.2-.5,4.5-.7,6.7-1,10.1-.4,20.3-.5,30.4-.3,9.2-.8,18.4-1.6,27.6-.6,6.4-1,12.8-1.1,19.3-.1,5.1,0,10.3.3,15.4.4,9.5,1,18.9.9,28.3-.3,8.1-1.1,16.1-1.8,24.2-1,12.8-.8,25.7,0,38.6,0-1.6-.2-3.3-.3-5,.2,4.6.3,9.3.3,13.9s0,10.3-.1,15.5c0,5,0,10,.4,15-24.6,19.1-54.2,32.2-85.8,32.3-114.1,2.7-228.2,6.7-342.3,11-96.8,4-193.4,13.3-290.4,13.3s-14.3,0-21.4-.2h0Z"/>
      <path class="st10" d="M1793.5,588.5c-35.8-.6-96.4-.3-120.2-1.5-15.9-1.7-32.7-.4-47.8-6.5-31-12-42.6-53.7-21.3-79.5,27.7-30.8,70.8-42.5,109.7-52.1-5.8-80.6,62.9-138.6,141.4-123.1,23-67,98.2-99.2,164.1-77.4,39.4,12.9,78.8,39.5,91.5,80.8,60.3,12.8,104.2,77.8,94.9,138.5-4.6,31.8-26.7,58-52.6,75.7-3.7,12.1-12,22.6-23,29.1-1.9,1.1-3.9,2.1-5.9,2.9h0c-13.9,7.6-27.9,2-41.9,1.9-96.1,7.6-192.5,12.4-288.9,11.3h0Z"/>
      <path class="st10" d="M455.2,395.7c-51.5-.3-102.9-3.3-154.1-7.9-16.8-1.6-34.4-2-50-9.2-33.9-12.1-45-58.9-18.7-84,16.1-15.5,38.6-22,60.1-25.5,2.3-6.9,7.5-13.1,8.4-20.6-18.7-40.1,20.4-88.5,61.6-91,39.4-111,155.9-98.4,193,6.2,32.3,11.4,58,38.4,70.3,70.1,22.2-.7,44.1-4.7,65.2-1.1,26.5,6.8,40.6,39.4,26.5,63,35.8,2.9,73.5-7.2,108.1,5.3,25,9.7,25,47.9,0,57.5,0,0,0,0,0,0-47.7,16.2-98.9,19.7-148.3,28.2-73.5,10.2-148,8.5-222,9.2h0Z"/>
      <path class="st10" d="M57.6,485.1c-18.3-.6-36.5-3-54.6-5.8,0-1.4.2-2.7.3-4.1,1.7-23.9,3-47.7,3.8-71.6.4-10.8.8-21.5.8-32.3,0-5.8,0-11.5-.2-17.3-.2-4.4-.4-8.7-.7-13,27.4-12.1,56.9-19.8,79.6-24-15.3-115,135.5-153.4,197.6-68.2,31.6,12.2,56.2,41.1,64.5,73.7,63.9,1.9,128.1,3.4,191.3,14,31.6,5,62.5,13.9,94.2,18,36.2,4.5,72.4,9.4,108.7,13.2,35.3,3,66.1,4.5,100.7,4.7,19.2,1,38.3,2.9,57.5.8,58.3-3.9,115.8-17.2,174.5-16.8,3,0,6.1,0,9.2,0,13.8-.2,28.4-.4,39.4,8.5,16.7,12.3,14.9,39.7-3.2,49.8-9,5.5-19.8,5.6-30.1,6.5-15.6,1.4-31.2,2.5-46.8,3.1-45.1,1.3-90.1,4.1-135,8.2-110.1,13.9-220.9,19.1-331.4,28.8-100.4,9.4-201,15.8-301.8,18.1-57.9,2.5-115.9,6.5-173.8,6.5s-29.7-.3-44.6-.9h0Z"/>
      <path class="st10" d="M429.5,531.2c-6.7-1.3-7.4-1.5-13.8-3.8-2.8-1-5.5-2.5-8.1-3.9-4.6-2.6-8.7-6.1-13-9.2-5.7-3.8-11.6-7.4-17.6-10.6-3.5-1.6-7.1-3.1-10.7-4.5-3.4-1.1-6.9-2-10.4-2.8-6.4-1.1-12.8-1.9-19.3-2.4-5.7-.3-11.4-.4-17.1-.2-2,.2-4.1.4-6.1.7-.2.2-.3.4-.5.5-4.7,5-11.4,9.6-17.8,11.9-4.3,1.8-8.7,3-13.3,3.7-4.8.6-9.5.6-14.2,0-7-1-14.6-3.4-20.6-7.3-3.9-2.3-7.4-5-10.6-8.2-4.8-4.8-8.6-10.5-11.2-16.7-1.9-4.4-3.1-9-3.7-13.7-2.3.1-4.7.2-7,.1-8.6-.2-17.1-1.4-25.3-3.9-17.4-5.2-34.3-14.9-45.5-29.5-13.6-17.6-19-42.1-12.3-63.5,3-9.5,7.2-18.5,13.5-26.3,6.5-8,14.2-14.6,23-19.9,6.7-4,14.6-7.2,22.2-8.9,3.9-.9,7.9-1.8,11.9-2.1,7.1-.6,12.9-.6,20.1,0,6,.5,12,1.9,17.9,3.5.2,0,.3,0,.5.1,9.9-3.4,20.4-4.7,30.9-4,2.1-7.5,4.8-14.9,7.8-22,4-9.4,8.8-18.5,14.2-27.1,5.4-8.5,11.2-16.8,17.8-24.4,7.9-9,16.3-17.9,26.2-24.7,3.3-2.3,6.6-4.6,10.1-6.6,3.5-2,7.2-3.8,10.9-5.5,5.7-2.7,11.9-4.7,18-6.2,8.2-1.9,16.5-3.2,24.9-3,8.9.3,17.6,1.5,26.3,3.9,13.9,3.8,26.9,10.9,38.3,19.6,4.7,3.6,9.1,7.6,13.2,11.9,4.4,4.6,8.6,9.4,12.3,14.5,4.3,6,8.1,12.2,11.6,18.6.6.2,1.3.4,1.9.5,4.5,1.3,8.9,2.9,13.3,4.6,4.6,1.8,9.1,4.3,13.5,6.5,12,6.1,22.7,14.6,32.5,23.8,4.8,4.5,9.2,9.7,13.2,15,4.1,5.4,8,11,11.1,17,4.5,8.6,7.9,16.5,10.7,25.9,1.4,4.5,2.2,9.3,2.8,14,.5,3.7.8,7.6.8,11.4,5.3,1.1,10.6,2.3,15.8,3.9,4.7,1.4,9.3,2.9,13.9,4.7,2,.8,4.1,1.6,6.1,2.6,23.3-1,46.8-2,70.1-.1,4.6.4,9.2.8,13.8,1.2h0c8.5.3,16.5,2.7,23.3,7.9,7.8,6.1,13.1,15.1,14.5,25,1.4,10-1.4,20.4-7.6,28.4-5.9,7.6-15.2,13.5-25,14.5-6,.6-12,1.8-17.9,2.7-5.5.9-11,1.5-16.5,2.2-11.6,1.4-23.2,2-34.8,3-1.5.1-3.1.3-4.6.4-3,2.8-6.4,5.3-10,7.4-4.4,2.5-9.2,4.6-14.2,5.8-3.7.9-7.1,1.4-10.8,1.9-6.3.9-12.7,1-19.1,1.1-5.7,0-11.3,0-16.9,0-4.6,0-9.2-.2-13.8-.4-4.7-.2-9.4-.5-14.1-.9-1.7-.1-3.3-.3-5-.5-5-.6-9.6-2-14.3-3.8-.9-.4-1.8-.8-2.7-1.2-1.3.6-2.6,1.2-3.9,1.8-6.1,2.8-12.8,4.9-19.5,6.3-.8.2-1.5.3-2.3.5-3.1,2.3-6.1,4.6-9,7.1-1.7,1.6-3.4,3.2-5,4.7-4.5,4.2-8.9,8.3-13.5,12.3-3,2.6-6.5,4.8-9.9,6.8-4.9,3-10.7,5.7-16.4,6.9-5.2,1.1-10.4,1.9-15.7,1.9s-5.6-.2-8.4-.8h0Z"/>
      <path class="st10" d="M1859.2,573.7c-5.8-.3-11.6-.8-17.3-1.7-4.1-.7-8.1-1.5-12.1-2.3-2.6-.1-5.2-.2-7.8-.3-7.9-.4-15.9-.8-23.8-1.2-7.1.5-14.3.9-21.4,1.3-7.4.4-14.9.9-22.4.9-4.8,0-9.5,0-14.3,0-1.9,0-3.7,0-5.6,0-6.1-.2-11.9-.7-17.8-2.1-4.3-1-8.2-2.7-11.8-4.9-4.9-.2-9.8-.4-14.7-.7-13.7-.8-27.3-1.8-41-2.9-10.2-.8-20.3-2.1-30.5-3.2-10.5-1.2-21.1-2.3-31.6-3.5-10.8-1.2-21.6-2.5-32.4-3.9-4.7-.6-9.5-1.4-14.2-2.1-6.5-1-13.1-1.9-19.5-3.3-.2,0-.3,0-.5,0-4.2-.7-7.3-1.6-11.2-3.1-8.6-3.2-15.3-10.2-20-17.8-10.1-16.6-5.8-40.5,10.1-52,5.9-4.2,12-7.6,19.1-9.2,3-.7,6-1.3,9.1-1.8,2.5-.5,5-.9,7.5-1.3,4.5-.7,9-1.2,13.5-1.8,10.3-1.1,20.6-2,30.9-2.6,12.1-.8,24.2-1.4,36.3-1.9,1.5,0,3.1-.1,4.6-.1-.2-7.4.2-14.7,1-22.1,1.3-11.5,5.4-22.6,10.9-32.8,5.4-10,13.3-18.4,21.9-25.8,8.8-7.5,19.4-12.7,30.3-16,22.8-7,48.9-2.2,68.9,10.5,6.7,4.2,12.8,9.3,18.3,14.9,2.3-.9,4.6-1.7,7-2.4,10.8-3.5,22.8-4.9,34.1-4.6,5.7.1,11.4.5,17,1.5,3.7.6,7.3,1.4,11,2.3,3.8,1,7.6,2.4,11.3,3.8,12.2,4.4,22.8,12,32.3,20.6,3.1,2.8,6,6,8.6,9.4,5.1.4,10.2,1.4,15.2,2.5,6.9,1.6,13.8,4.8,19.9,8.4,6.2,3.8,12.3,8.4,17.2,13.8,3.9,4.4,6.6,7.8,9.8,12.7,1.9,3,3.5,6.2,5,9.4,3.2,6.6,5.3,14.2,6,21.5.6,6.1.5,10.7,0,16.9-.3,3.6-1.2,7.2-1.9,10.8-1.5,7-4.9,14.2-8.6,20.4-3.6,6.2-8,11.5-12.9,16.8-5,5.5-11.1,9.8-17.3,13.9-11.1,7.3-23.9,11.2-36.8,13.8-5.6,1.1-11.3,1.4-17.1,1.7-1.7,0-3.3.1-5,.1-2.4,0-4.8,0-7.1-.2h0Z"/>
      <path class="st10" d="M1578.1,454.1c-.8,0-1.6.1-2.4.2.8,0,1.6-.1,2.4-.2Z"/>
      <path class="st10" d="M1582.1,453.9l-2.6.2c-.4,0-.9,0-1.3,0,1.3,0,2.7-.2,4-.3Z"/>
      <path class="st10" d="M875.8,252.2c-8-.4-15.8-1.2-23.5-3.6-13-4.1-25.3-11.4-33.5-22.6-3.1-4.2-5.3-8-7.4-12.8-2.2-5.1-3.2-9.9-4.1-15.4-1.7-10.4.2-21.5,4.2-31.1,5.4-13.1,15.8-23.5,27.7-30.8,3.9-2.4,8.1-4.4,12.3-6.2,11-4.8,23.9-5.5,35.5-2.3,4.1,1.1,8,2.7,11.6,4.7.6,0,1.3,0,1.9-.1h0c6.8-22.5,22.8-43.7,46.5-49.7,6.9-1.7,13.7-2,20.8-1.4,7.1.7,13.8,3.5,20.1,6.7,5,2.6,9.6,6.6,13.6,10.5,4.3,4.3,7.8,9.3,11,14.5,2.5,4.1,4.6,8.5,6.3,13,2.2,5.9,3.9,12,4.4,18.4.5,5.5.4,11.1-.2,16.6,1.7,3,3.2,6.2,4.5,9.5,3.5,8.9,5.6,18.2,5.7,27.8,0,5-.8,10.2-2.1,14.9-1.7,6.2-4.7,11.6-8.4,16.8-2.6,3.8-6.5,7.4-10.1,10.1-5.2,3.8-10.9,6.5-17,8.2-10.2,2.9-21.1,2.3-31.2-.6-6.4-1.9-12.4-4.7-18-8.3,0,0-.2,0-.3.1-10.3,3.5-21.2,5.2-32.1,5.5-1.1.5-2.2.9-3.3,1.3-3.8,1.3-7.4,2.7-11.3,3.5-6.6,1.5-13.4,2.6-20.2,2.6s-2.1,0-3.1,0h0Z"/>
      <path class="st10" d="M1016.3,284.4c-6.6-.2-12.6-1.2-19-2.6-4.7-1-9.2-2.7-13.8-4.3-1.2-.4-2.3-.9-3.5-1.4-5.2,1.5-10.5,2.3-15.9,2.5-6.5.2-13.3-.6-19.5-2.5-.2,0-.5-.2-.7-.2-.6.1-1.1.2-1.7.3-14.2,2.4-29.2-1-41.5-8.2-8.1-4.7-15.5-11.8-19.9-20.1-1.3-2-2.3-4.1-3.1-6.4-.7-2-1.4-4-2.1-6-.5-2.4-1-4.7-1.5-7.1-.3-2.4-.5-4.9-.4-7.3,0-4.7.6-9.2,1.9-13.8,1.3-4.8,3.2-9.6,5.7-13.9,2.7-4.7,5.5-8,9.1-12,4.5-5,9.7-8.9,15.4-12.5,5.2-3.3,11.5-5.7,17.4-7.2,8.8-2.2,17.7-2.7,26.7-1.7,3,.3,6,1,8.8,1.9,2.4.7,4.7,1.5,7,2.5,1.7.7,3.2,1.4,4.5,2.2,1.5-1.8,3.1-3.5,4.7-5.1,2.3-2.3,4.9-4.5,7.5-6.5,3.8-2.8,7.5-4.8,11.8-6.9,6.9-3.4,14.9-4.7,22.5-4.8,7.9-.1,16.4,1.7,23.5,5.3,4.3,2.2,7.5,4.1,11.5,6.8.9.6,1.7,1.2,2.6,1.9,4.6.3,9.2,1.1,13.7,2.1,10.6,2.4,20.5,7.4,29.2,13.9,10.8,8.1,19.1,20,22.6,32.9,1.2,4.4,1.8,9,1.8,13.5,0,5-.8,9.6-1.8,14.4-.9,4.4-3.1,8.5-5.1,12.5-1.4,2.8-3.2,5.4-5.3,7.8-5.1,5.8-10.6,11-17.5,14.6-5.7,3-11.5,5.4-17.8,7-6.1,1.5-12.2,2.4-18.5,3-3.9.4-8,.7-12,.7h-1.3c-2.1.9-4.1,1.6-6.6,2.4-5.7,1.8-11.9,2.6-17.8,2.6s-1.1,0-1.7,0h0Z"/>
    </g>
  </g>
  <g class="st16">
    <g>
      <path class="st27" d="M1058.7,841.3c4,29.5,4,59.1,0,88.6-5.8,42.4-20,83.5-41.6,120.5-24.4,41.6-57.9,77.2-97.3,104.4h0c-9.4,1.7-18.9,2.6-28.5,2.6-27.7,0-55.1-7.4-79-21.4-8.2-4.8-15.9-10.3-23-16.6,3.7-.8,7.3-1.7,11-2.7,58.4-16.1,109.2-55.2,139.8-107.5,15.5-26.5,25.7-55.9,29.8-86.3,2.8-21.2,2.8-42.3,0-63.5-.6-3.5-1-7-1.4-10.5-1.1-10.1-3.2-20-5.4-29.8-4.7-23.8-9.7-47.4-19.8-69.7-5.2-11.5-10.5-23.4-17.4-34.1-13.2-20.5-24.5-36-41.8-53.5-8.6-8.6-17.7-17.1-27.8-24.2-10.3-7.2-20.5-15.1-31.7-21-17-9-33.3-17-50.9-23.1q-11.8-4.1,0,0c-6.1-2.1-12.4-4-19-5.7-27-6.8-49.6-9.8-77.5-10.4-5.9-.1-12.7.2-19.2.6h0c-7.5.5-14.7,1.2-20,1.8-2.7.3-5.4.6-8,1.1-12.9,2.2-25.8,4.9-38.6,7.9-12.2,2.9-24.5,8-35.9,12.2-23,8.5-45.9,22.5-65.5,37.3-10,7.6-19.8,15.8-28.2,25.1-16.8,18.6-28.4,31.5-41,53.4-6.3,11-11.9,22.4-17.1,34-5.3,11.6-8.8,23.5-13,35.8-4.1,12-6.9,24.8-7.9,37.4-2,25-3.9,42.2,0,67.2,1.7,10.8,3.8,21.5,6.5,32,6.2,24,12.8,35,24,56.9,8,15.8,25.1,36.1,37.5,48.7,7.3,7.5,15,14.7,23.5,20.7,17.8,12.5,32.2,22.8,52.8,30.8,25.6,9.9,33,11.7,60.3,16.4,9.1,1.6,22.9,2.3,36.2,2.1-2,8.1-4.4,14.8-8.4,25.7-.6,1.8-1.4,3.6-2.2,5.4.4,9.5,0,19-1.3,28.5-2,14.8-6.2,29.4-12.3,43-5.4-1.2-10.6-2.5-15.4-4.1-13.3-4.6-26.7-9.3-40-13.9-25.8-10.9-49.8-25-71.9-42.1-30.4-23.5-56.5-52.3-76.9-84.8-7.9-10.3-15.1-21.1-21.7-32.4-29.4-50.2-45-108.1-45-166.3s4-61.8,11.8-87.6c4.3-14.2,8.4-28.5,14.6-41.9,14.7-31.7,22-45.2,42.9-73.2,7.6-10.2,30.9-34.7,29.5-33.5,10.1-10,21.3-18.8,32-28.2,6.1-5.4,15.8-12.1,26.5-18.8,17.1-10.6,36.8-21,48.9-25.2,41-14.3,40.8-15.7,84.2-23,1-.2,2-.3,3-.5,2.5-.4,4.9-.7,7.4-.9,37.2-3.1,66.2-5.5,103.5-.1,16.7,2.4,33.7,4.9,49.7,10.4,14.4,5,29,9.3,43.2,15.1,14.1,5.8,27.3,13.6,41,20.4,3.2,1.6,6.3,3.6,9.3,5.6,14.3,9.5,29.8,19.2,43.8,29.9,8,6,15.7,12.4,23.2,19h0c5.7,5.1,11.3,10.5,16.5,16.1,22.4,23.8,39.1,43.5,55.5,71.9,14.8,25.6,28.3,56.5,35.5,85.2,2.9,14.2,5.8,28.3,8.7,42.5h0Z"/>
      <path class="st28" d="M426.3,622.3l-.2.2.2-.2Z"/>
      <path class="st27" d="M969.8,859.4c2.8,21.2,2.8,42.3,0,63.5-4.1,30.4-14.3,59.8-29.8,86.3-30.6,52.2-81.4,91.4-139.8,107.5-3.6,1-7.3,1.9-11,2.7-16.7,3.7-33.8,5.6-50.8,5.6-37.5,0-74.8-8.9-108.2-26.2-2.3,0-4.6.1-7,.2-13.3.2-27.1-.5-36.2-2.1-27.3-4.8-34.6-6.5-60.3-16.4-20.5-7.9-34.9-18.2-52.8-30.8-8.5-6-16.2-13.2-23.5-20.7-12.3-12.6-29.4-32.9-37.5-48.7-11.1-21.9-17.7-32.9-24-56.9-2.7-10.5-4.9-21.3-6.5-32-3.9-25-1.9-42.2,0-67.2,1-12.6,3.8-25.3,7.9-37.4,4.2-12.3,7.7-24.2,13-35.8,5.2-11.5,10.8-23,17.1-34,12.6-21.9,24.2-34.8,41-53.4,8.4-9.3,18.2-17.5,28.2-25.1,19.5-14.8,42.4-28.8,65.5-37.3,11.4-4.2,23.6-9.3,35.9-12.2,12.8-3,25.6-5.7,38.6-7.9,2.7-.5,5.3-.8,8-1.1,5.4-.6,12.6-1.3,20-1.8h0c6.6-.4,13.3-.7,19.2-.6,27.9.6,50.5,3.6,77.5,10.4,6.5,1.6,12.8,3.5,19,5.7q4.1,1.4,0,0c17.6,6.1,33.9,14.1,50.9,23.1,11.2,5.9,21.4,13.8,31.7,21,10,7,19.2,15.5,27.8,24.2,17.3,17.4,28.6,33,41.8,53.5,6.9,10.7,12.1,22.6,17.4,34.1,10.2,22.3,15.2,45.9,19.8,69.7,2.2,9.9,4.3,19.8,5.4,29.8.4,3.5.8,7,1.4,10.5h0Z"/>
      <path class="st35" d="M1058.7,841.3c4,29.5,4,59.1,0,88.6-5.8,42.4-20,83.5-41.6,120.5-24.4,41.6-57.9,77.2-97.3,104.4h0c-29.7,20.4-62.8,36-97.8,45.7-33.5,9.2-68.4,12.9-102.8,11.2-6.5.4-11.6.7-17,.7-10,0-20.8-.9-42.1-2.9-1.4-.1-2.9-.3-4.5-.5-18.5-1.1-38.8-3.4-56.6-7.3-5.4-1.2-10.6-2.5-15.4-4.1-13.3-4.6-26.7-9.3-40-13.9-25.8-10.9-49.8-25-71.9-42.1-30.4-23.5-56.5-52.3-76.9-84.8-7.9-10.3-15.1-21.1-21.7-32.4-29.4-50.2-45-108.1-45-166.3s4-61.8,11.8-87.6c4.3-14.2,8.4-28.5,14.6-41.9,14.7-31.7,22-45.2,42.9-73.2,7.6-10.2,30.9-34.7,29.5-33.5,10.1-10,21.3-18.8,32-28.2,6.1-5.4,15.8-12.1,26.5-18.8,17.1-10.6,36.8-21,48.9-25.2,41-14.3,40.8-15.7,84.2-23,1-.2,2-.3,3-.5,2.5-.4,4.9-.7,7.4-.9,37.2-3.1,66.2-5.5,103.5-.1,16.7,2.4,33.7,4.9,49.7,10.4,14.4,5,29,9.3,43.2,15.1,14.1,5.8,27.3,13.6,41,20.4,3.2,1.6,6.3,3.6,9.3,5.6,14.3,9.5,29.8,19.2,43.8,29.9,8,6,15.7,12.4,23.2,19h0c5.7,5.1,11.3,10.5,16.5,16.1,22.4,23.8,39.1,43.5,55.5,71.9,14.8,25.6,28.3,56.5,35.5,85.2,2.9,14.2,5.8,28.3,8.7,42.5h0ZM969.8,922.9c2.8-21.2,2.8-42.3,0-63.5-.6-3.5-1-7-1.4-10.5-1.1-10.1-3.2-20-5.4-29.8-4.7-23.8-9.7-47.4-19.8-69.7-5.2-11.5-10.5-23.4-17.4-34.1-13.2-20.5-24.5-36-41.8-53.5-8.6-8.6-17.7-17.1-27.8-24.2-10.3-7.2-20.5-15.1-31.7-21-17-9-33.3-17-50.9-23.1q-11.8-4.1,0,0c-6.1-2.1-12.4-4-19-5.7-27-6.8-49.6-9.8-77.5-10.4-5.9-.1-12.7.2-19.2.6h0c-7.5.5-14.7,1.2-20,1.8-2.7.3-5.4.6-8,1.1-12.9,2.2-25.8,4.9-38.6,7.9-12.2,2.9-24.5,8-35.9,12.2-23,8.5-45.9,22.5-65.5,37.3-10,7.6-19.8,15.8-28.2,25.1-16.8,18.6-28.4,31.5-41,53.4-6.3,11-11.9,22.4-17.1,34-5.3,11.6-8.8,23.5-13,35.8-4.1,12-6.9,24.8-7.9,37.4-2,25-3.9,42.2,0,67.2,1.7,10.8,3.8,21.5,6.5,32,6.2,24,12.8,35,24,56.9,8,15.8,25.1,36.1,37.5,48.7,7.3,7.5,15,14.7,23.5,20.7,17.8,12.5,32.2,22.8,52.8,30.8,25.6,9.9,33,11.7,60.3,16.4,9.1,1.6,22.9,2.3,36.2,2.1,2.3,0,4.7,0,7-.2,33.4,17.3,70.8,26.2,108.2,26.2,17,0,34.1-1.8,50.8-5.6,3.7-.8,7.3-1.7,11-2.7,58.4-16.1,109.2-55.2,139.8-107.5,15.5-26.5,25.7-55.9,29.8-86.3h0Z"/>
      <path class="st29" d="M1072.8,785.9c1.7,15.1,2.9,30.5,2.6,45.8-.2,10.7-1,21.5-2.2,32.2-1.1,10.7-3.8,21.4-5.9,31.8-.3,1.6-.7,3.2-1.2,4.9-.4,6.5-1,13-1.6,19.4-1.1,11.9-2,23.8-3.8,35.7-1.6,11-3.3,21.9-5.4,32.8-3.1,16.2-6.8,31.9-10.8,47.9-1.9,8.4-4.2,16.7-8.2,24.8-5.3,12.4-12.1,24-20.3,34.7-4,5.6-8.5,10.8-13.6,15.6-9.5,9.5-20.1,17.7-31.7,24.5-6,3.5-12.1,7.1-18.7,9.3-6.4,2.2-12.9,4.5-19.3,6.7-4.3,1.2-8.7,2.2-13.1,3,39.4-27.1,73-62.8,97.3-104.4,21.6-36.9,35.8-78,41.6-120.5,4-29.5,4-59.1,0-88.6-2.9-14.2-5.8-28.3-8.7-42.5-7.2-28.7-20.7-59.6-35.5-85.2-16.5-28.4-33.2-48.2-55.5-71.9-5.3-5.6-10.8-10.9-16.5-16.1h0c-7.5-6.7-15.2-13-23.2-19-14-10.6-29.5-20.4-43.8-29.9-3-2-6.1-4-9.3-5.6-13.6-6.8-26.8-14.7-41-20.4-14.1-5.8-28.8-10.1-43.2-15.1-16-5.5-33-8-49.7-10.4-37.3-5.4-66.2-3-103.5.1-2.5.2-4.9.5-7.4.9-1,.2-2,.3-3,.5-43.4,7.3-43.2,8.7-84.2,23-12.1,4.2-31.8,14.6-48.9,25.2-10.7,6.7-20.4,13.4-26.5,18.8-10.7,9.4-21.9,18.2-32,28.2,1.4-1.2-21.9,23.3-29.5,33.5-20.9,28.1-28.2,41.5-42.9,73.2-6.2,13.4-10.3,27.7-14.6,41.9-7.8,25.8-11.8,60.8-11.8,87.6,0,58.2,15.5,116.1,45,166.3,6.6,11.3,13.9,22.1,21.7,32.4,20.4,32.5,46.5,61.3,76.9,84.8,22.2,17.1,46.1,31.2,71.9,42.1,13.3,4.6,26.7,9.3,40,13.9,4.8,1.5,10,2.9,15.4,4.1-2.3,5.1-4.8,10-7.6,14.8-20.5,35-54.5,61.2-93.5,71.9-13.5,3.7-27.4,5.6-41.3,5.6-27.6,0-55.2-7.2-79.3-21.3-17.3-10.1-32.6-23.6-44.9-39.5-3.8-5.6-7.5-11.1-11.2-16.6-6.9-11.8-12.1-24.2-15.8-37.4-2.7-12.7-5.2-24.8-6.7-37.6-.7-5.8-1.2-11.7-1.7-17.6-1-11-2-22-3-33-.3-3.3-.7-6.6-1-9.9-.9-2.9-1.8-5.8-2.7-8.7-3.3-11.3-5.3-23-7.5-34.6-3.4-18.5-4.4-37.2-5.3-56-.5-11.2-.5-22.5,0-33.7.8-14.8,1.4-29.8,3.2-44.5,0-3.3.2-6.6.3-9.9.1-5.4.5-10.8.7-16.2.5-12,1.3-24.7,2.5-36.8,3.1-30.2,8.1-60.4,16.5-89.6,5.1-17.8,11.2-35.3,18-52.5,4.3-11,10-21.6,15.5-31.9,2.9-5.6,6-10.9,9.3-16.3,4.8-8,10.6-15.7,15.9-23.5,1.5-2.1,3-4.1,4.5-6.1,3.7-4.8,7.7-9.5,11.6-14.1,7.6-8.9,15.5-18.1,24.1-26.2,0,0,.2-.2.3-.2h0c9.4-8.8,19-17.2,28.9-25.5,13.3-11.1,28.1-20.8,42.6-30.4,10.4-6.8,20.8-13.4,31.5-19.7,4.9-2.9,9.9-5.5,14.9-8.2,8-4.4,16.5-8.3,24.8-12.4,3.3-1.7,6.7-3.3,10.1-4.8,27.5-12,56.5-19.5,86-24.4,4.1-.7,8.3-1.2,12.4-1.6,11.2-1,22.5-1.9,33.8-2.1,4,0,8,0,12.1.3,9.3.5,18.7.9,28,1.9,8.7,1,17.4,2,26,3.7,14.8,2.9,29.5,5.7,43.8,10.3,11.5,3.7,23.2,7.5,34.4,12.3,16.9,7.1,33.8,14.5,49.8,23.4,3.4,1.9,6.8,3.8,10.2,5.6,10,5.5,19.3,12.2,28.6,18.6,13.7,9.4,25.7,21,38,32.1,14,12.6,26.7,26.8,38.4,41.5,9.1,11.5,17.3,23.9,25.1,36.3,1.1,1.7,2.1,3.4,3.2,5.1,3.3,5.5,6.4,11.1,9.4,16.9,6.6,13,13.4,25.9,18.6,39.6,5.2,13.8,10.3,27.9,13.7,42.3,3.5,14.8,6.6,29.8,8.4,45h0Z"/>
    </g>
  </g>
  <g class="st17">
    <path class="st9" d="M.2,1400.7V.7h2400v193.6c-6.3-1.3-12.7-2.6-19-3.9l-3.7-.6c-17.7-3.1-35.7-3.3-53.6-3.9-10.4-.3-20.9,0-31.3-.3-24.1-.7-48.3-1.8-72.4-2.6-47.4-1.6-94.9-2-142.4-2h-2,2c47.5,0,95,.4,142.4,2,24.1.8,48.3,1.9,72.4,2.6,10.4.3,20.9,0,31.3.3,17.9.6,35.9.8,53.6,3.9l3.7.6c6.4,1.3,12.7,2.6,19,3.9v301.9c-7-5-14.2-9.8-21.6-14-1.5-.9-3-1.7-4.5-2.6-26.2-15.2-35.2-17.2-63.7-27-14-4.8-23-6-41.2-9.3-2.7-.5-5.4-1.2-8.1-1.4-18.5-1.5-37-3.1-55.6-3.2h-1.1,1.1c18.6.2,37.1,1.8,55.6,3.2,2.7.2,5.4.9,8.1,1.4,18.2,3.3,27.2,4.5,41.2,9.3,28.5,9.7,37.5,11.8,63.7,27,1.5.9,3,1.7,4.5,2.6,7.4,4.3,14.6,9,21.6,14v87.1c-4-.2-8.1-.2-12.1-.2h0,0c4.1,0,8.1,0,12.1.2v817.4H.2Z"/>
  </g>
  <g class="st23">
    <g>
      <path class="st25" d="M554.1,853.5c0,1-.2,2-.6,2.9,0,.2-.2.4-.3.6-.7,1.3-1.7,2.3-3.1,2.9-.1,0-.2.1-.4.2h0c-1.8.7-3.7.7-5.5,0-2.6-1-4.4-3.8-4.4-6.6s0-.4,0-.5c0-2.6-.1-5.3-.2-7.9-.1-2.3-.2-4.5-.3-6.8-.2-3.4-.4-6.9-.6-10.3,2.7-1.5,5.5-2.6,8.5-3.3,1.9-.5,3.8-.8,5.8-1,0,0,.2,0,.3,0,.2,5,.5,10,.7,14.9,0,2.2.1,4.3.2,6.5,0,.8,0,1.5,0,2.3,0,1.4,0,2.9,0,4.3,0,.6,0,1.2,0,1.8h0Z"/>
      <path class="st25" d="M614.7,949.5c0,.9,0,1.8,0,2.7-2,2.5-5.2,4.1-8.5,4.1-5.3,0-10-4.1-10.7-9.3-.8-5.9-1.5-11.8-1.6-17.8,0-5.7-.1-11.5-.1-17.2,0-2.1,0-4.2,0-6.3,0-9-.1-18.1-.2-27.1,0-2.9,0-5.8,0-8.8,0-2.1,0-4.2,0-6.3v-.8c0-.7,0-1.4,0-2.2,0-.3,0-.6,0-1,.5.3,1,.6,1.4.9.8.5,1.7,1.1,2.5,1.8,3.8,2.9,7,6.5,9.4,10.7,2,3.5,3.3,7.1,4.1,10.9,0,0,0,0,0,0,.2.9.4,1.8.6,2.7,0,.2,0,.5.1.7,0,.3.1.6.2.9h0c0,0,0,.2,0,.2.7,3.4,1.2,6.8,1.5,10.2.3,3.5.5,7.1.6,10.7,0,2,.1,4,.2,6,0,4.2.2,8.3.2,12.5.1,7.2.3,14.5.4,21.7h0Z"/>
      <path class="st25" d="M586.7,705.3c-.2,0-.3,0-.5,0,.4,0,.8,0,1.2,0-.2,0-.5,0-.7,0h0Z"/>
      <path class="st25" d="M613.2,898.8c.3,3.5.5,7.1.6,10.7-3.4.4-6.8.7-10.3.8-3.8,0-7.3-1.8-9.8-4.5-2.5-2.7-4-6.2-4-9.9s.5-4.2,1.3-6c-2.6-4-2.5-9.2-.8-13.6.7-2.3,1.7-4.5,3.1-6.3,1-1.3,2.1-2.4,3.5-3.4-1.4-.9-2.6-1.9-3.6-3-.8-1-1.5-2-2-3.1-1.1-2.5-1.2-5.3-.2-7.7.8,2.2,1.5,4.3,2,6.6,0,.1,0,.2,0,.3,0,0,0,0,0,0,.5.3,1,.6,1.4.9.8.5,1.7,1.1,2.5,1.8,3.8,2.9,7,6.5,9.4,10.7,2,3.5,3.3,7.1,4.1,10.9,0,0,0,0,0,0,.2.9.4,1.8.6,2.7,0,.2,0,.5.1.7,0,.3.1.6.2.9h0c0,0,0,.2,0,.2.7,3.4,1.2,6.8,1.5,10.2h0Z"/>
      <path class="st25" d="M593.3,859.7c.5.3,1,.6,1.4.9-.5,0-1,0-1.4,0s-1.3,0-2-.1c-2.5-.3-4.8-1.3-6.8-3-2.2,1-4.6,1.4-7.1,1.1-1.2-.2-2.5-.5-3.6-1.1-.7.3-1.4.5-2.2.6-2,.3-4-.2-5.7-1.2-3.8,2.4-8.8,1.9-12.4-.5-.2-.2-.5-.3-.7-.5-2.2-1.7-3.8-4.2-4-7.2-.4-3.8-.7-7.5-1-11.3,0-1-.1-2-.2-2.9-.2-3.3-.4-6.6-.5-9.9,1.9-.5,3.8-.8,5.8-1,0,0,.2,0,.3,0,2.4-.2,4.9-.1,7.3.2,6.2.8,12,3.3,16.9,7.1,2.4,1.9,4.6,4,6.4,6.4,2.5,3.3,4.1,6.7,5.5,10.5-.2-.6-.4-1.2-.6-1.7.8,2.2,1.7,4.4,2.4,6.6.8,2.2,1.5,4.3,2,6.6,0,.1,0,.2,0,.3,0,0,0,0,0,0h0Z"/>
      <path class="st25" d="M554,847.3c.2,1.4.2,2.9,0,4.3-.2,1.5-.6,2.9-1.2,4.2-.7,1.5-1.6,2.8-2.7,4-1.7,1.8-4,3.2-6.8,4-4.9,1.5-10,2.3-15,3-4.9.7-9.9,1.7-14.9,1.7-5.5.2-11.2.5-16.5-1.1,0-1.1,0-2.2,0-3.3,0-3.4.2-6.8.3-10.2,0-2.6.2-5.3.3-7.9,1.1-.9,2.1-2,3.1-3.2,1.4-1.7,2.3-3.8,3-5.9.8.6,1.5,1.2,2.2,1.9s1.6,1.8,2.3,2.7c3.2-1.1,6.6-1.6,10.1-1.6s4.6.2,6.9.7c3.3-5.5,8-9.9,13.5-12.8,2.7-1.5,5.5-2.6,8.5-3.3,1.9-.5,3.8-.8,5.8-1-.2,1.5-.6,3.1-1.4,4.5-1,2.2-2.1,4.2-3.7,6,0,0-.2.2-.3.3-.6.6-1.1,1.2-1.8,1.8.7.3,1.3.7,1.9,1.1,3.6,2.4,5.7,6.1,6.2,9.9h0Z"/>
      <path class="st25" d="M2019.2,804.6c0,.3,0,.6,0,.9,0-.3,0-.6,0-.9Z"/>
      <path class="st25" d="M2273.6,785.7c-.2,2.2-.6,4.3-1.5,6.5-.8,1.7-1.8,3.3-3.1,4.7.7-4,2.3-7.8,4.6-11.1Z"/>
      <path class="st25" d="M2268.8,798.4c5.5,4.7,6.7,12.5,4.1,18.9-.1-.2-.3-.5-.4-.7-3.3-5.5-4.4-12-3.6-18.2h0Z"/>
      <path class="st25" d="M2266.5,746.8c14.9.4,19.6,13.7,13.3,23.1,0-.5,0-1.1,0-1.6,0-2.9.2-5.8.2-8.8,0-.6,0-1.2,0-1.9-3.2-.9-6.3-1.6-9.5-2.3-3.2-.6-6.4-1.2-9.6-1.8-2.4-.5-4.8-.8-7.1-1.4-1.3-.3-2.5-.7-3.8-1-1.8-.5-3.5-1.2-5.1-2.1-.1,0-.2-.1-.4-.2-4-1.9-7-5.4-7.6-9.9-.4-3,.3-5.9,1.8-8.3,1.8-.2,3.6-.4,5.4-.6,2.2-3.9,7.1-4.9,11.1-5.6,4.7-.8,9.6-2,14.2-.2,7,3.4,9.1,12.7,2,17.3-1.7,1.1-3.4,2.2-5.2,3,0,.8,0,1.5,0,2.3h0Z"/>
      <path class="st25" d="M2189.1,641.8c.1.2.2.3.3.4-.1-.2-.2-.3-.3-.4Z"/>
      <path class="st24" d="M1359.5,870.1c0,0,0-.1,0-.2,0,.2,0,.3,0,.5,0,0,0-.2,0-.3h0Z"/>
      <path class="st24" d="M1359.4,869.6s0,0,0,0c0,0,0,0,0,0Z"/>
      <path class="st25" d="M506.4,829.1s0,0,0,0c-.1.4-.2.7-.4,1.1.1-.3.2-.7.4-1h0Z"/>
      <path class="st25" d="M1611.5,818.4c0,.4,0,.9,0,1.3,0-.4,0-.9,0-1.3Z"/>
      <path class="st26" d="M663.3,849.1c12.1.3,16.5,16.3,6,22.5-5.5,3.3-11.7,4.6-17.9,6.1,7.1,7.5,5.9,21-4.3,25-6,2.5-12.3,3.9-18.8,4.7-3.5.5-7,1.1-10.5,1.6.1,5.9.3,11.7.4,17.6,0,3.3,0,6.5-.2,9.8-.2,3.6-.6,7.2-1.1,10.8-.2,2-1,3.7-2.2,5.2.2,10.3.5,20.5.8,30.8.2,8.1.7,16.2,1.2,24.3.5,5,.9,10.1,1.4,15.2.5,5,1.3,9.9,2,14.9,1.1,8.1,2.7,16.2,4.3,24.2.6,2.8,1.3,5.5,2,8.2,0,.1.1.2.2.4,4,8.9,3.8,19.8,0,28.7-3.7,8.8-10.9,15.9-19.6,19.6-4.5,1.9-9.5,2.9-14.4,2.9s-9.8-1-14.4-2.9c-4.4-1.8-8.4-4.6-11.7-7.9-3.5-3.5-5.8-7.4-7.9-11.7-2-4.1-3.2-8.5-4.5-12.8-.7-2.4-1.3-4.8-1.8-7.2-1.5-6.6-2.9-13.2-4.1-19.9-2-11-3.6-22-4.6-33.2,0-.4,0-.7,0-1.1-2.6,1.5-5.4,2.7-8.4,3.3-3.5.8-6.2,1.1-9.7,1.2-.5,0-1,0-1.5,0-.4,0-.8,0-1.2,0-1.5,0-3,0-4.5-.3-5.4,4.1-12.1,6.5-18.8,6.5-9.7,0-19.5-5-25.1-13-11.1-.6-21.1-9.3-22.5-20.6-.3-2.5-.6-5.1-.8-7.6,0,.6,0,1.2.1,1.8,0-.9-.1-1.8-.2-2.8h0c-.5-8.5-.3-17-.5-25.4,0-4.9-.1-9.7-.2-14.6-.1-11.8-.1-23.6,0-35.5,0-8.2,0-16.3,0-24.5-.9-1.6-1.5-3.3-1.7-5.2-1.4-11.7-2.3-23.3-2.6-35-.2-11-.2-22-.4-33-.1-10.8-.4-21.7-.2-32.5,0-3.6.5-7.3,1.1-10.9.8-4.8,2.3-9.5,5.4-13.4,3.2-4.1,8-6.5,13.1-7.3,2.7-.4,5.6-.1,8.3.2,3,.4,6.1.9,9.1,1.6.8,0,1.7-.2,2.5-.3,5.7-.6,11.5-.8,17.2-1.1,7-.3,14-.2,21.1-.3,4,0,8-.1,12.1-.2,0-.8,0-1.6,0-2.4-.2-5.1-.4-10.2-.5-15.3,0-2.7-.2-5.3-.2-8,0-4.1-.3-8.2.6-12.3.5-2.1,1.7-4.3,3.3-5.9s4.4-3.2,7-4c.7-.2,1.4-.4,2.1-.6-.4-1.8,0-3.7,1.7-4.9,3-2,6.9-1.6,10.3-2,10.5-.8,21.1-1.4,31.7-.7,8.8.1,14.4,5.2,16.2,13.6,1.1,4.8,1.5,9.8,1.7,14.7.8,3.3,1.3,6.7,1.8,10.1.5,3.8.8,7.6,1.1,11.5.2,2.6.5,5.2.6,7.9.6,11.1,1.2,22.2,1.5,33.3.2,8.8.4,17.7.6,26.5,0,3,.1,6,.2,9,2.4,0,4.8,0,7.2,0,12.2.3,24.4,0,36.5.6-.2,0-.4,0-.6,0,3,0,5.9.5,8.7,1.8,6.9,2.7,8.2,12.6,2.2,17-1.7,1.3-3.5,2.3-5.5,3.1h0ZM577.5,752.4c0-1.5-.2-3-.2-4.5h0c0,1.4,0,2.9,0,4.3v.4c0,0,.2-.1.2-.2Z"/>
      <path class="st26" d="M421.3,911.1c12.4,9.3,6.9,29.7-8.5,31.7-11.1,1.5-22.2,3.3-33.4,5-10.2,1.4-20.3,3.5-30.6,3.4-4.5,0-9.1-.2-13.5-1.5-19-6.5-25.1-25.6-12.1-41.4-13.3-5.2-19.5-20.9-8.5-31.7-1.6-2.5-2.7-5.4-3.1-8.3-.2-1.5-.3-3-.2-4.5-4.7-2.5-8.1-7.2-8.8-12.6-.5-3.7.3-7.3,2-10.4-2.8-5.6-3.3-13,.9-18-8.7-1.2-11.3-12.8-3.6-17.3,2.2-1.3,4.6-1.5,7.1-.9,7.7,1.4,15.4,2,23.2,2.5,13.5.7,26.9,1.4,40.4,1,4.5-.3,8.2,1.7,10.6,4.6,1.2.2,2.1.9,3,1.6,1.2.9,2,2.3,2.8,3.5.5.7.8,1.5,1.1,2.3.5,1,.9,2.2,1.3,3.2.9,2.7,1.7,5.4,2.2,8.1.3,1.6.6,3.3.9,4.9.4,2.3.9,4.5,1.1,6.8.4,3.5.8,7,1.2,10.5.3,2.2.4,4.5.6,6.7.2,2.7.5,5.3.7,8,.4,5.2.8,10.5,1.2,15.8.7,8.1,1.5,16.2,2.2,24.4,2.2-.3,4.3-.5,6.5-.8,4.7-.6,9.5.6,13.3,3.5h0ZM381.7,911.1c0-.7-.1-1.5-.1-2.2-1,1-2.1,1.9-3.2,2.7,1.1-.2,2.2-.3,3.4-.5h0Z"/>
      <path class="st26" d="M109,868c0,10.7.3,21.3.2,32,0,3.3,0,6.5-.3,9.8-.2,3.1-2,6.2-4.2,8.4-2.2,2.2-5.2,3.7-8.4,4.2-.6,0-1.2.1-1.9.1-6.4,0-12.7-4.3-14.2-10.7-.8-3.5-.9-7.2-1.1-10.8,0-2-.2-4-.3-6-1.6-1.2-2.9-2.6-3.9-4.3-6-.4-11.6-4.6-13.2-10.6-.5-2-1-4.1-1.2-6.2-.2-1.5-.3-3.1-.4-4.7-.2-1.6-.3-3.2-.5-4.8,0-.3,0-.6,0-1-.1,0-.2,0-.3,0-3-.4-5.8-1.8-8-4-2.2-2.2-3.4-4.9-4-8-.3-1.8-.7-3.6-.9-5.4-.2-2.1-.3-4.2-.4-6.3,0-1.5-.2-3-.2-4.6-.1-2.7-.3-5.4-.4-8.2-.2-5.2-.4-10.4-.5-15.5-.1-5.6-.3-11.2-.3-16.8,0-2.1,0-4.2,0-6.3-.2-4.3-.3-8.7-.5-13-.1-4.1-.2-8.1-.3-12.2,0-2.9-.2-5.8-.2-8.7,0-.5,0-1,0-1.5-2.9.8-6.1.2-8.5-1.6-1.6-1.3-3.2-2.8-3.9-4.7-.7-1.8-1.2-3.5-1.4-5.4-.3-2.7,0-5.5-.2-8.2-.1-3.4-.2-6.8-.3-10.2-.2-5-.2-10.1-.2-15.1s0-7.9,0-11.9c0-7,.2-13.9.6-20.9.2-3.1.5-6.1,1.7-9,.9-2.1,2.3-3.8,4-5.1.6-3.5,3.4-6.3,6.9-6.7,2.1-.3,4.3.3,6,1.6,1.3-.3,2.7-.5,4-.7,5.2-.9,10.3-1.8,15.5-2.6,4.2-.7,8.4-1.4,12.6-.8,6,.9,10.5,4.8,13.6,9.6,1.2,2,2.3,4.1,3.1,6.2,2.7,7.2,3.9,14.9,4.8,22.4.6,4.5.9,9,1.2,13.5h0c0,.4,0,.7,0,.9h0c.2,2.7.3,5.3.5,7.9h0v.2s0,0,0,.1h0c0,.6,0,1.2,0,1.7.7,10.7,1,21.5,1.2,32.3.3,11,.3,21.9.1,32.8-.2,10.6-.6,21.1-1,31.7-.2,5.2-.4,10.3-.6,15.5,0,.1,0,.2,0,.4,2.1,2.4,3.5,5.3,4.2,8.4.7,3,.8,6,1,9.1.2,2.5.2,4.9.2,7.3,0,5.5.1,11.1.2,16.6h0Z"/>
      <path class="st26" d="M277.4,867.4c.7,6.3-.8,12.6-4.7,17.7-3.8,4.9-9.4,8.2-15.6,9-1,.1-2.1.2-3.2.2-5.2,0-10.4-1.7-14.6-5-4.7-3.6-8.6-9.5-9-15.6-1.5-19.8-2.5-39.6-3.3-59.5-.5-.2-1-.3-1.4-.5-7.2-.6-14.3-3.6-19.2-9-3.4-3.7-6.2-7.4-8.1-12-.2-.5-.4-.9-.5-1.3-3.4.3-6.8.2-10.1-.6-.1.2-.2.5-.4.7,0,5,0,9.9.3,14.9.5,12.1-14.8,19.4-24.1,11.8-3-2.3-5.3-6-5.7-9.8-.4-4.8-.8-9.7-1.1-14.5-5.7.8-6.3-5.8-6.9-10-1.1-8.5-1.8-17.1-2.6-25.7-1.9-22.6-3.7-45.2-6.3-67.8-1.3-5.3.6-11.9,6.2-13.9,2.5-1,5.1-1.2,7.7-1.7,5-1.1,9.8-2.5,14.8-3.7,16.5-4.3,33.5-5.9,50.3-8,3.9-.5,7.8-.9,11.7-1.6,3.6-.8,7.2-1.5,10.9-.5,1.4.3,2.7.8,3.8,1.5.8-.4,1.7-.7,2.6-.8,1.8-.3,3.8-.2,5.5.7.8.4,1.7.8,2.4,1.4.7.6,1.5,1.3,2,2.1,1.4,1.8,2.3,3.8,3,5.9,1.5,4.7,1.8,9.6,2.2,14.5.4,5.3.6,10.6.7,15.9.2,11.6.4,23.2.6,34.8.2,10.5.4,21,.5,31.5,0,3.4.1,6.7.1,10.1h0c1.5,10.6,2.8,21.2,4.3,31.7,2.5,19,5,37.9,7.2,57h0Z"/>
      <path class="st26" d="M1190.7,757.9c1,7.9-3.8,16.8-12.2,17.8-15.1,1.5-17.4-15.1-19.4-26.4-3.8,3.9-8.9,6.2-14,8-1.6,1.6-3.3,2.9-5.4,3.8-4.3,1.9-9.4,2.2-13.8.6-3.1.2-6.2-.1-9-1.3-2.4,11-18.1,10.7-19.9-.6-.2-1.4,0-2.9.3-4.2,0-4.5,0-9,0-13.5-4.3-.1-8.7-.2-13-.2-4.8,0-9.7-.1-14.6,0,0,9.2.8,18.3,1.3,27.5.2,3.8-1.7,7.8-4.3,10.4-5.5,5.7-15.4,5.7-20.8,0-.8-.8-1.5-1.7-2.1-2.7-.2,8.7-.4,17.4-.7,26.2-.3,9.9-.3,19.9-1.4,29.8-1.7,15.1-14.7,26.9-29.3,28.6-5.3,6.5-13,10.8-21.4,12-1.5.2-3,.3-4.5.3-7.4,0-14.6-2.4-20.5-7-7-5.4-11.3-13.2-12.7-21.9-.8-4.8-1.3-9.6-1.8-14.5-9.4-1.8-16.6-10.9-15.1-20.9,0,0,0-.2,0-.3.1-6.7-.2-13.3-.5-20-1.5-21.5-3-42.9-4.9-64.3-.9-10.5-1.9-21-3.2-31.4-.3-2.8-.7-5.5-1.1-8.2-.7-5.1-1-10.2.4-15.2,2.8-10,10.9-17.8,20.9-20.6,5.9-1.6,12.2-1.9,18.3-2.2,2.7,0,5.5-.2,8.2,0,6.6.3,13.1,1.1,19.7,2.2,3.6.6,7.2,1.3,10.7,2.2,1.5.4,2.9.8,4.3,1.2,8.3,2.5,15.4,7.1,20.7,14,7.1,9.2,9.9,20.9,11.8,32.1,1.1,6.5,1.6,13.3,1.9,19.9,0,1.5.1,3.1.2,4.6,1.9-3.8,4.8-7.1,8.9-8.9,4.8-2.3,10.4-1.8,15.6-1.9,9.3.2,18.6.6,27.9,1-.9-12.2-1.7-23.1,12-27.9,18.8-6,38.8-4,58.2-3.1,6.4.3,13.3,2.1,17.5,7.4,5.6,7.2,4.8,22.4,5.7,31.5.6,12.1.8,24.2,1.3,36.3h0Z"/>
      <path class="st26" d="M1411.8,843.5c.2,10.6,0,21.2,0,31.9,0,10,0,19.9-.3,29.9-.5,23.2-1.1,46.3-1.6,69.5-.2,7.5-.4,15.1-.7,22.6-.1,4.1-.3,8.2-.6,12.3-.3,6.3-.8,12.8-2.7,18.8-.8,2.3-1.5,4.6-2.5,6.8-1.5,3.5-3.4,6.4-5.6,9.5-2.7,3.9-6.3,7.4-10.2,10.2-5.7,4.1-12.2,6.6-19.3,6.6s-13.8-2.3-19.3-6.6c-.4-.3-.8-.6-1.1-.9-1.1.3-2.1.5-3.2.6-1.4.2-2.8.3-4.3.3-7,0-13.9-2.3-19.5-6.6-6.4-4.9-11.3-12.7-12.1-20.9-1.1-10.9-2.3-21.9-3.7-32.8-1.4-11.3-3.2-22.6-5.1-33.8-1.6-9.7-3.2-19.4-4.3-29.1-.8-6.4-1.5-12.9-2.3-19.3-.6-5.4-.9-10.8-1.4-16.2-.3-3.3-.6-6.7-.9-10-3.4-.6-6.7-2-9.5-4.2-4.3-3.3-7.8-8.7-8.2-14.2-.8-10.9-1.9-21.8-3.2-32.7-1.1-8.8-2.7-17.5-4.5-26.2-.6-2.5-1.1-5.1-1.8-7.6-.7-2.8-1.4-5.5-1.9-8.3-.6-3.9-.5-7.9.5-11.7,1.3-4.7,3.9-8.6,7.2-12.2,4.9-5.4,12.8-7.6,19.8-8.6,1.9-.3,3.8-.4,5.7-.5,3.6-.2,7.2-.5,10.9-.7,10.9-.5,21.8-1,32.7-1.4,5.6-.2,11.3-.4,16.9-.6,2.6,0,5.2-.2,7.8-.3,3.4,0,6.9,0,10.3.6,4.6.9,8.8,2.3,12.9,4.5,4.3,2.4,7.7,5.6,10.9,9.3,7.6,8.7,10.6,20.5,12.1,31.7.7,4.8.9,9.6,1.2,14.4.1,1.8.2,3.6.3,5.5.1,6.9.3,13.8.4,20.7h0ZM1311.3,810.7c-.3,0-.7,0-1,0,0,.1,0,.3,0,.4.3-.1.6-.2.9-.3Z"/>
      <path class="st26" d="M1684.7,949.7c.2,3.9-2.1,7.5-5.3,9.7-.1,5.1-.4,10.2-.7,15.2-.1,1.8-.3,3.4-1,5-.7,1.5-1.6,3-2.8,4.1-2.4,2.4-5.8,3.8-9.2,3.8s-6.4-1.3-8.7-3.4c0,0,0,0-.1.1-2.8,2.8-6.7,4.4-10.7,4.4-8.2,0-15.1-6.9-15.1-15.1,0-10.8,0-21.5.5-32.2.5-11.7,1.1-23.4,1.7-35.1.2-4.3.4-8.7.6-13-1.8,1.3-4,2.1-6.3,2.4-.6,0-1.3.1-1.9.1-7.2,0-13.9-5.4-14.8-12.8-.8-7.1-.9-14.3-.9-21.5-8.4,6.5-22.2,2-24.2-9.2-3.5,1.8-8.2,1.9-11.6-.3-3-.9-5.8-2.7-7.9-4.9-2.9,3.6-7.8,5.8-12.5,5.1-1.4.8-2.9,1.7-4.3,2.6-.2.2-.5.3-.7.5-3.3,9.1-7.8,17.8-12.2,26.4-3.4,12-6.7,23.9-9.5,36-2.7,10.8-5.2,21.7-7.6,32.5-2,7.7-2.9,16.8-9.6,22-3.7,2.9-8.5,4.1-13.1,3.5-8.7-1.2-15.1-8.8-15.2-17.4,0-4.5.2-9,.5-13.5-1.7-11.5-3.7-22.9-5.6-34.3-1.8-10.6-3.6-21.3-5.3-31.9-2.5-17.9-7.3-37.3-1.8-55,2.3-6.3,7.6-11.8,14.3-13.2,6.2-1.3,12.5-.1,18.7-1.7,9.1-1.9,18.1-4,27.1-6.3,0-8.9,0-17.8,0-26.7,0-19.2.2-38.5.2-57.8h0c0-2.7,1.3-5.3,3.3-7,.7-4.3,2.1-8.6,5.2-11.7,3.2-3,8.3-4.6,13.5-5.5,4.7-.8,9.4-1.1,13.3-1.4,4.4-.1,8,1,10.9,2.9,11.2,7.3,12.7,27,14,39.5,0-.2,0-.5,0-.8.4,5.1.9,10.3,1.1,15.4,12.3-1.1,24.7-.7,37.1-1.2,5.2-.2,10.5-.3,15.7-.6,4.3-.2,8.6-.7,12.9.3,10.5,2.4,15.5,10.3,17.9,20.2,2,7.2,2.6,14.9,3.1,22.4.4,9.7,1,19.5,1,29.3.4,3.6.7,7.3,1.1,10.9,1.1,11.4,1.9,22.8,2.6,34.2,1.4,22,2.1,44.1,2.2,66.1,0,6.2-.2,12.4.1,18.6h0ZM1632.2,775.5c-1.1,0-2.3,0-3.4,0,.3.5.6,1,.8,1.5.8-.5,1.7-1,2.6-1.4h0ZM1513.3,836.9c.3-.8.6-1.6.9-2.4-1.1.4-2.3.8-3.4,1.3.9.3,1.7.7,2.5,1.1h0Z"/>
      <path class="st26" d="M2346.4,815.1c.7,5.4.8,10.7-.8,15.9-2.2,7.3-6.3,13.7-12.3,18.3-6.1,4.7-13.6,7.3-21.3,7.3s-15.2-2.6-21.3-7.3c-6.8-5.2-11.1-12.6-12.9-20.9-.1-.3-.2-.7-.3-1-.9-2.3-1.9-4.7-3-6.9-.6-1.1-1.2-2.1-1.8-3.2-1.3,3.2-3.7,6.1-6.9,7.9,7.2,7.6,6.9,19.2.3,27-2.9,3.7-6.8,6.4-10.5,9.2-5.6,3.8-10.7,7.8-17.9,6.6-3.9-.4-7.3-2.3-9.9-4.9-1.7,10-13.4,15.7-22.2,10.3-11.2-5.8-11-33-12.8-44.7-3.1-37-2.1-74.2-4.3-111.3-.3,0-.6.1-1,.2h0c-4.9,9-19.1,6.7-20.5-3.6-3.6-.5-6.7-3.7-6.9-7.3-1.5-10.4-2.8-20.8-4.7-31.1-1-5.3-2-10.6-3.1-15.9-.9-5.9-3.4-12.4-1.1-18.3,0-.2.1-.3.2-.5,1.9-4.4,5.6-8,10.1-9.7,10.3-4.2,21.7-5.1,32.8-5.4,3.4-.2,6.3.1,8.8.8h0c10.6,2.9,14.1,12.7,16.4,25,2.9,15.1,4.8,30.5,6.1,45.8,0-.4,0-.8,0-1.2,1.1,12.3,1.8,24.6,2.2,36.9.9-.5,1.8-.9,2.8-1.2,2.8-.7,5.6-1.2,8.5-1.5.8-1.2,1.8-2.4,2.9-3.3,1.7-1.4,3.5-2.7,5.5-3.6.9-.4,1.9-.7,2.8-1l4.5-1.5c1.2-.4,2.5-.5,3.7-.8,2-.5,4-.9,6-1.3,5-.9,10-1.8,15.1-2.7,5.4-.9,10.8-1.8,16.2-2.7,1-.2,2-.3,3-.4.7,0,1.3-.2,2-.3,4.8-.7,9.4-.7,14.2.5,8.8,2.1,15.5,8.2,20,15.8,3.5,5.9,4.9,13.2,5.9,20,1.8,12.1,2.4,24.5,3.2,36.7.4,5.3.8,10.6,1.2,15.8.2,2.3.4,4.6.6,6.9.1,1.3.3,2.7.4,4,.1.8.2,1.6.3,2.5h0ZM2279.4,779.5c.1-3.2.2-6.4.3-9.6-1.7,2.5-4.2,4.8-7.6,6.5,1.3,2.8,1.8,5.9,1.4,9,0,0,0,.2,0,.3,1-1.4,2.1-2.7,3.3-3.9.8-.8,1.6-1.5,2.5-2.2ZM2268.8,798.4c0-.5.2-1.1.3-1.6-.3.3-.6.7-1,1,.2.2.5.4.7.6Z"/>
      <path class="st26" d="M2183.4,853.5c1.2,9-1.2,18.2-6.8,25.3-5.4,7-13.4,11.6-22.2,12.9-11.5,1.7-23.1,3-34.6,3.8-8.1.6-16.2,1.3-24.2,1.3s-8.9-.2-13.3-.8c-4.2-.6-8.3-1-12.5-2.2-3.9-1.1-7.4-2.7-10.9-4.6-2.8-1.6-5.4-3.6-7.7-5.9.6,6.6-.4,13-3.8,18.8-2,3.4-4.7,6.4-7.8,8.7.3,3.2.6,6.4,1.1,9.5,1.4,6.1,1.2,12.4-1.3,18.3-2.8,6.7-8.3,12.2-15.1,15-3.5,1.5-7.2,2.2-11,2.2s-7.5-.7-11-2.2c-3.3-1.4-6.4-3.5-9-6.1-2.4-2.5-4.9-5.7-6.1-9-1.8-5.1-3.2-10-4.1-15.3-.5-2.7-1-5.4-1.4-8.2-.8-5.3-1.4-10.6-1.8-16-.3-3.8-.8-7.6-.8-11.4,0-3.4-.2-6.8-.3-10.2-.1-5.5,0-11,.2-16.5,0-3.5.2-6.9.4-10.4-.1-.6-.3-1.1-.3-1.7-.3-2.1-.3-4.1-.2-6.2-1-1.1-1.8-2.5-2.3-4.2-1.7-6.9-2.6-13.8-3.1-20.8-.3-4-.5-7.9-.8-11.9-1-28.6-1.4-73-6.5-106.7-3.2-20.3,12.4-21.3,28-22.9,13.6-1.2,27.4-1.5,40.9,0,19.1,3,22.1,25.5,24.5,41.2,3,22.3,4.5,44.8,5.8,67.2,3.4-.5,6.9-.4,10.3-.6,2.6-.1,5.3-.3,7.9-.4,4.9-.2,9.7-.4,14.6-.6,4.4-.2,8.9,0,13.3,0,2.1,0,4.2,0,6.3,0,4.3,0,8.7.5,13,.9,2.4.2,5,.5,7.2,1.2,2.4.8,4.8,1.7,7.1,2.5,5.2,2,9.7,6.2,12.5,11,3.6,6.1,4.5,13.5,2.7,20.3-.6,2.1-1.4,4.2-2.5,6,4.6,1.2,9.1,3.4,12.8,6.2,7,5.4,11.7,13.5,12.9,22.2h0ZM2011.6,699.6c0-.3,0-.6,0-.9-4.7,0-9.3.2-14,.5-.5,0-1.1,0-1.6.2.3.2.5.3.8.5,2.6-.8,5.3-.9,7.9-.2,1.1-.3,2.2-.5,3.5-.5s2.2.2,3.3.4h0c0,0,0,0,0,0h0s0,0,0,0Z"/>
    </g>
  </g>
  <g class="st20">
    <g>
      <path class="st36" d="M1629.3,960.8c0,0,.2,0,.3,0-.9,1.3-1.8,2.7-2.8,4-.3-.3-.7-.6-1-.9,1.3-.9,2.6-1.9,3.6-3.2h0Z"/>
      <path class="st36" d="M2101.1,715.2s0,0,0,.1c.1.5.2,1,.3,1.4-.1-.5-.2-1-.3-1.5h0Z"/>
      <path class="st36" d="M952.3,845.7c.8,6.3.3,12.2-1,18.3-.7,3.1-1.8,6.2-2.9,9.2-1.8,4.8-4.3,9.4-6.7,13.9-7.6,13.9-24.6,20.3-39.6,16.9.6-2.4,1.2-4.8,2-7.2-2.9-.8-5.8-2.5-8-4.7-4.5,1.8-9.5,1.9-14,0-4.7-2-8.4-6-10-10.8-14.8-6.5-27-18-37-30.5-3.2-4-6.1-8.2-8.7-12.5-9.5-.8-18.9-1.6-28.3-3-2.1-.3-4.2-.7-6.3-1.1-1.3-.2-2.6-.5-3.9-.7-1.2-.2-2.4-.5-3.6-.8,0,.4,0,.9,0,1.3-.5,9.2-.9,18.4-1.6,27.6-.4,6.2-.8,12.5-1.2,18.7-.1-.4-.3-.8-.4-1.2,0,0,0,0,0,0-1.8-7.4-2.5-14.9-3.4-22.5-.7-5.2-1.2-10.5-1.7-15.8-1.1-10.1-2-20.3-3.2-30.4-.4-3.2-.7-6.5-1.1-9.8-.5-4.3-1.4-8.4-1.6-12.7,0-.2,0-.3,0-.5-.5-4.2-.2-8.3,1-12.3,0-.3,0-.7-.1-1-1.7-12.7,7.4-24.8,20.2-26.6,1.9-.2,3.8-.3,5.7,0,.8-1.5,1.8-3,2.9-4.3,2.9-3.7,6.4-6.8,10.5-9.2,4.2-2.5,8.6-3.7,13.4-4.6,9.6-1.8,20.2,1.4,27.7,7.2,3.8,3,7.1,6.7,9.6,10.8,1.3,2.3,2.2,4.5,3.1,6.8-.2-.5-.3-.9-.5-1.4,1.7,4.7,3.3,9.2,4.5,14.1.8,3.2,1.5,6.5,2,9.8.6,3.4,1.2,6.9,1.8,10.3.9,5.3,1.5,10.7,2.2,16,.6,4.6,1.2,9.2,1.9,13.8,4.3-3.3,9.4-5.8,14.6-7.2.8-.2,1.7-.4,2.6-.6,1.9-.5,3.8-.8,5.8-1.2,2-.2,4-.4,6-.5,9.2-.6,18.7,2.2,26.7,6.7,11.3,6.5,19.4,18.6,21.1,31.5h0ZM911.9,829.6c.5-1.8,1.3-3.5,2.3-5-8.1,0-16.2,0-24.3.2.2,3.1-.6,6.2-2.1,8.9-2.5,4.2-6.7,6.8-11.5,7.6-2.1.3-4.4.2-6.6,0,.6.6,1.2,1.1,1.8,1.7,1.9,1.6,3.9,3.2,6,4.6,1.8,1.2,3.7,2.3,5.7,3.3,1,.5,2,.9,3,1.3.8-.6,1.5-1.2,2.3-1.8,1.3-1,2.5-1.9,3.8-2.8,4.6-3.4,9.3-6.7,14-10,1.6-1.2,3.3-2.3,5.1-3.1,0-1.7.1-3.3.6-5h0ZM842.7,799.6c1.7-.1,3.5-.3,5.2-.4-.8-3.2-1.6-6.4-2.3-9.6-.6-3.2-1.3-6.4-1.9-9.6-1-5.2-1.9-10.5-2.8-15.7-1.4-8.2-2.7-16.4-3.8-24.6-2,2.3-4.5,4.1-7.2,5.2,0,4.5-.3,9.1-.5,13.6,0,2.1-.2,4.2-.4,6.3,1.2,3.3,2.3,6.7,3.5,10,1.6,4.5,3.5,8.8,5.3,13.2,1.6,3.9,3.2,7.8,4.9,11.6h0ZM808.5,801.3c-1.3-3.2-2.6-6.4-3.9-9.6-.5-1.3-1-2.5-1.5-3.8-3.2-2.1-5.6-5.3-6.5-9-1.2-5.1-1.8-10.3-2.3-15.5-1-2.6-2.1-5.1-3.3-7.6-.9-1.7-1.8-3.4-2.8-5,0,3.5,0,7-.2,10.4-.3,11.4-.8,22.8-1.4,34.2-.1,2.5-.3,5.1-.4,7.6,1.1-.3,2.2-.5,3.4-.7,2.8-.4,5.6-.4,8.5-.6,3.5-.2,7-.3,10.6-.4h0Z"/>
      <path class="st36" d="M750,811.1c0-.1,0-.2,0-.3,0,0,0-.2,0-.2,0,.2,0,.3,0,.5h0c0,0,0,0,0,0h0Z"/>
      <path class="st36" d="M397.5,1058.9c-2.6-.2-5.3-.4-7.9-.6-4.2-.3-8.3-.8-12.5-1.3-4.1-.5-8.3-1.3-12.3-2.4-3.6-1-7.3-1.8-10.7-3.5-3-1.5-5.5-3.2-7.9-5.4-2.4-2.2-4-5.2-5.4-8.1-1.4-2.9-2-6.5-1.9-9.7.1-2.6.5-5.1,1.6-7.6.8-1.8,1.8-3.4,3-5.1.1-.2.2-.3.3-.5-1.2-1.3-2.2-2.7-3.2-4.1.3.4.5.8.8,1.2-.1-.2-.2-.3-.4-.5-1.9-2.5-3.1-5.4-3.5-8.5-.9,0-1.8-.2-2.6-.2-2.6-.3-5.1-.8-7.6-1.6-2.7-.9-5.3-2-8-3-2.3-.9-4.4-2.4-6.1-4.3,1-1.1,2-2.1,3.2-3,5.2-4,12-5.8,18.6-5,6.4.9,12.4,4.3,16.3,9.5,2.9,3.8,5,8.9,5.3,14,4.3,2.1,8.1,5.2,11,9.2,3.5,4.9,6.2,10.1,7.7,16,.9,3.4,1.3,6.8,1.9,10.3.4,1.8.9,3.6,1.3,5.4,4.6.7,9.1,2.2,13.2,4.6,2.1,1.2,4,2.7,5.9,4.3h0Z"/>
      <path class="st36" d="M389.8,968.5c.1,0,.2,0,.3,0-.1,0-.2,0-.3,0Z"/>
      <path class="st1" d="M330.8,1198c-.6-.3-1.3-.6-1.9-.8-2.4-1-4.5-2.3-6.6-3.8-3.3-2.2-6-5.6-8-8.9-3-4.9-4.5-10.5-5-16.2-.3-3.3-1-6.6-1.4-9.9-.4-3.1-.7-6.3-1-9.4-.6-6.5-1.2-13-1.9-19.6-1.1-12.2-1.2-24.5-1.7-36.7-.1-3.7,0-7.3,0-11,0-7.6.1-15.2.1-22.8,0-10.3.8-20.7,1.3-31,.1-3.3.6-6.6.9-9.9.4-3.7.8-7.3,1.3-11,1-6.5,4.2-12.3,9.5-16.3,5.2-4,12-5.8,18.6-5,6.4.9,12.4,4.3,16.3,9.5,2.9,3.8,5,8.9,5.3,14,4.3,2.1,8.1,5.2,11,9.2,3.5,4.9,6.2,10.1,7.7,16,.9,3.4,1.3,6.8,1.9,10.3.4,1.8.9,3.6,1.3,5.4,4.6.7,9.1,2.2,13.2,4.6,5.4,3.2,10,7.7,13.2,13.2,3.4,5.8,4.7,11.9,5,18.5.2,4.9.6,9.7.6,14.6,0,3.7,0,7.3-.1,10.9,0,5.4-.3,10.8-.5,16.2-.5,12.6-1.4,25.2-2.3,37.9-.4,3.1-1.2,6.2-2.5,9.1-1.8,4.2-4.4,8.1-7.7,11.4-6.7,6.7-15.9,10.5-25.3,10.5s-9.1-.9-13.3-2.6c-1,.8-2.1,1.6-3.3,2.2-4.2,2.5-9.4,3.9-14.4,3.9s-7.2-.7-10.4-2.3h0Z"/>
      <path class="st32" d="M1218.4,1009.7c.1,6-1.6,12.2-4.7,17.4-1.8,3-4,5.6-6.5,7.9-.4,2.9-1.2,5.7-2.3,8.4-1.7,4.1-4.2,7.8-7.4,10.9-6.4,6.4-15.3,10.1-24.4,10.1s-17.9-3.7-24.4-10.1c-6.2-6.2-10.4-15.4-10.1-24.4.9-23.5,2.3-46.9,3.6-70.3,0-1,.1-2,.2-3.1-1.9,2.1-3.9,4.3-5.8,6.4-4.9,5.4-9.8,10.9-14.9,16.2-13.4,13.7-27.3,27-42.6,38.6-8.1,6.1-16.6,11.8-25.4,16.7-4.9,2.7-9.9,5.2-15.1,7.4-5.5,2.4-11.2,4-17,5.6-.7.2-1.4.4-2.1.6-5.4,1.6-11.1,1.8-16.5.8-1,8.7-2.1,17.4-3.1,26.1-.8,6.7-1.6,13.4-2.4,20-1,8.4-1.8,16.9-3,25.4-.9,6.4-2,12.7-3.5,18.9-1.1,4.9-3,9.5-4.4,14.3-2,6.3-5,11.9-9.6,16.6-4.6,4.6-10.3,7.9-16.5,9.6-6.5,1.8-13.5,1.8-19.9,0-3.8-1-7.3-2.7-10.4-4.8-7.6,6.9-16.5,12.8-26.6,15.2-4,1-7.9,1.5-11.9,1.5s-8.3-.6-12.5-1.7c-6.6-1.8-12.7-5.2-18.1-9.3-6.4-4.8-11.4-11.4-14.6-18.7-1.9-4.3-2.9-8.6-3.8-13,.1.6.2,1.1.3,1.6-1-5-2.2-9.9-3-15-.6-4-1-8-1.5-12-.3-2.7-.5-5.4-.7-8.1,0,0,0,.1-.2.2-3.3,3.9-6.8,7.9-10.5,11.5-4.9,4.8-10.1,8.8-15.7,12.6-10.8,7.3-23.1,12.7-36.3,12.9-12.3.2-24.6-4.8-33.8-13-3,2.2-6.2,4.1-9.6,5.7-3,1.3-6.3,2.4-9.5,3.2-2,.5-4,.9-6,1.5-7.8,2.5-17.1,1.6-24.5-1.6-4.4-1.9-8.5-4.6-11.9-8-.5-.6-1.1-1.1-1.6-1.7-1.4,1.3-2.9,2.6-4.5,3.8-3,2.2-6.4,4.3-9.9,5.7-3.4,1.3-6.4,2.3-10,2.7-2.1.3-4.2.4-6.4.4-3.7.1-8.4-.6-12-1.6-5.2-1.4-10.4-3.7-14.6-7.1-4-3.3-7.5-7-10.2-11.5-.5-.8-.9-1.6-1.3-2.3-7.3,2.8-15.4,3.3-23,1.2-10.8-3-19.6-10.9-24-21.1-2.1-4.7-4.3-9.3-5.5-14.4-.8-3.4-1.4-6.7-1.6-10.2-.2-2.3-.3-4.6-.4-6.9-.2-.2-.4-.3-.6-.5-3.6-2.8-6.2-6.1-8.7-9.9-4.7-7.3-6.6-15.7-6.5-24.3,0-2,0-4,0-6,0-3.1,0-6.2,0-9.2,0-6.9-.2-13.9-.2-20.8-.2-11.9-.7-23.9-.9-35.8-.3-11.8-.5-23.5,0-35.2.4-7.4.8-14.9,2.4-22.1.7-3.4,1.4-6.8,2.5-10,1-3,2-5.8,3.5-8.6,1.5-2.8,3.2-5.8,5.6-8,2.7-2.5,5.4-4.8,8.8-6.2,3.8-1.6,8.3-2.2,12.4-1.5,2.4.5,4.7,1.2,6.8,2.2,2.1-.7,4.3-1.1,6.5-1.1s2.2,0,3.4,0c1.4,0,2.8,0,4.3.1,2.9,0,5.8.1,8.6.2,5.6.1,11.3.3,16.9.4,10.5.3,21,.6,31.6.9,0-10,0-20,0-30,0-7.3,0-14.7,0-22,0-6.5,0-13-.5-19.5-.5-5.1-1.1-10.2-1.6-15.3-.5-5.8-.8-11.6-1-17.4-.2-5.4-.3-10.9-.3-16.3,0-5.2,0-10.4.1-15.6.2-5.7.8-11.5,3.9-16.5,2.6-4.2,6.8-6.9,11.6-8,3.6-.8,7.2-1,10.9-1.2,5.3-.2,10.7-.4,16-.2,11.4.4,22.7,1.2,34,2.4,0-.8,0-1.5,0-2.2-.3-6.9,0-13.9,1.5-20.7,1.2-5.3,4.2-10,8.3-13.5,2.1-1.8,4.7-3.1,7.3-3.9,1.7-.5,3.5-.8,5.3-1,4.9-.7,9.8-1.4,14.7-1.8,5.8-.5,11.6-1,17.4-1.2,7.2-.3,14.5-.6,21.8-.3,4.4.2,8.8.5,13.1,1,2.2.2,4.5.7,6.6,1.3.7.2,1.4.4,2,.6,3,0,5.9-.1,8.8-.1,3.2,0,6.4.1,9.6.3,7.2.5,15.2,1.5,20.5,7,2.2,2.2,3.8,5.1,4.7,8.1.6,2.1.7,4.3.8,6.5,0,1.2,0,2.3,0,3.5,0,2.5-.1,5,0,7.5,0,.2,0,.3,0,.5.8,10.1,2.4,20.2,4,30.2,1.6,10.6,3.2,21.3,5.2,31.9.5,2.7,1,5.4,1.5,8.1.9,3.8,1.7,7.5,2.6,11.3.1.6.3,1.2.5,1.8,1.5,0,3.1,0,4.7,0,5.3,0,10.5.1,15.8.2,21.7.5,43.5,1,65.2,1.7,5.6.2,11.1.4,16.7.5,2.7,0,5.5,0,8.2.1,1.1,0,2.2,0,3.3,0,2,0,4.2,0,6.2.2,0-.3,0-.6-.1-.9-.8-5.4-1.5-10.7-2.2-16.1-.8-5.3-1.6-10.6-2.2-15.9-.5-4.3.2-8.2,2.3-12,2.3-4.2,6.5-6.8,10.7-8.8,3.6-1.7,7.7-2.5,11.5-3.2,3.9-.8,8-1.2,11.9-1.6,7.5-.7,15-1,22.5-1.3,1.5,0,3,0,4.5,0h2.2c3.4,0,6.9,0,10.3,0,5.6,0,11.2.3,16.8.5,5.4.2,10.9.6,16.3.9,21.6,1.3,43,4,64.4,7,4.6.6,9.3,1.3,13.9,1.9,1.9.3,3.7.5,5.6.8.5,0,1.1.2,1.6.2,1.6-.4,3.3-.7,5-.7,6.9,0,13.4,3.7,16.9,9.7,2.1,3.5,3,7.8,2.6,11.9,0,10,.6,20,.6,29.9,0,12.2-.3,24.4-.7,36.6-.3,8.8-.5,17.6-.7,26.4.3,1.3.6,2.7.7,4.1.3,2.8.5,5.6.3,8.5-.1,3.1-.4,6.2-.7,9.3-.2,4-.4,8.1-.6,12.1,0,1.7-.1,3.4-.2,5.1v2c0,10.5.3,21,.4,31.5.2,10.2.6,20.5,1.1,30.7.2,3.6.3,7.1.5,10.7.3,3.7.5,7.5.8,11.2.3,3.1.5,6.3.8,9.4,0,.6.1,1.2.2,1.8.4,2.8.8,5.5.8,8.4h0ZM1160.6,848.8c.1-.1.2-.2.4-.3-.7-.2-1.3-.4-2-.5.5.3,1.1.6,1.6.9h0ZM1143.2,842.9c-1.2-.6-2.3-1.2-3.4-2-2,.5-4,.9-5.9,1.4,3.1-.1,6.2,0,9.3.6ZM908.2,970.9c.4-5.9.7-11.8,1.1-17.6-2.2-1.7-4-3.9-5.4-6.4-4.6-7.8-4.9-17.3-4.4-26.1.3-5.7,1.2-11.3,2.5-16.8-1.9-.4-3.8-1-5.6-1.8-.3-.1-.6-.2-.8-.4-1.5.9-2.9,1.9-4.3,2.8-1.5,1-2.9,2.1-4.3,3.2-.3.3-.6.6-.9.9-1.5,1.9-2.9,4-4.4,5.9-5,6.3-11.7,10.9-19.5,13.1-3.2.9-6.5,1.3-9.8,1.3-6.5,0-13.1-1.7-18.8-5-3.8-2.2-7.3-5-10.2-8.4-6.7-.4-13.3-2.7-18.5-7-2.1-1.7-4.2-3.3-6.1-5.2-2.9-2.9-5.4-6.4-7.2-10.1-4.8-2.9-8.5-7.5-10.4-12.9-.3,4.2-.6,8.5-1,12.7-1.2,12.2-2.4,24.4-3.9,36.6-1,8.3-1.8,16.6-2.7,24.9,3.8-.1,7.8.3,11.3,1.4,1.8.6,3.5,1.2,5.2,1.8,1.7.8,3.3,1.6,4.9,2.5,7.2,3.9,13.2,11.1,16.3,18.7,2.4,5.8,3.4,11.6,3.6,17.8.2,6.8-1.7,13.4-3.2,19.9-.4,2.3-.8,4.7-1.2,7,1.4-2.3,2.9-4.6,4.3-6.9,3-4.7,6-9.3,9.2-13.8,2.3-3.7,4.6-7.4,7.1-11,5.2-7.2,12.5-12.9,20.6-16.5,9.7-4.2,20.7-4,30.8-1.6,5.4,1.3,10.8,4.1,15.3,7.5,3,2.3,5.1,4.7,7.6,7.6.8.9,1.4,1.8,2,2.8,0-2.4.1-4.8.2-7.2.1-4.5.2-9.1.5-13.6h0ZM677.7,762.6h0c-.5,0-1-.1-1.5-.2,0,1,0,1.9,0,2.9,0,.9,0,1.8,0,2.7.1-1,.3-2.1.5-3.2.2-.8.4-1.5.7-2.2h0ZM676.7,776.1c.2-.2.5-.3.8-.5-.4-1-.7-2.1-.9-3.1,0,1.2,0,2.4.1,3.6ZM605,901.2s0,0-.1-.1c-.1-.1-.3-.2-.4-.3-.1,0-.2-.2-.3-.2.3.2.6.5.8.7h0Z"/>
      <path class="st32" d="M455.8,1031.3c3.2,3.2,5,7.6,5,12.1s-1.8,8.9-5,12.1c-3.2,3.2-7.6,4.9-12.1,5-1.7,0-3.4,0-5.1,0-9.8,0-19.7-.5-29.5-1-3.8-.2-7.7-.5-11.5-.8-1.8-1.6-3.8-3-5.9-4.3-4.1-2.4-8.6-3.9-13.2-4.6-.5-1.8-.9-3.6-1.3-5.4-.6-3.4-1-6.9-1.9-10.3-1.5-5.9-4.2-11.1-7.7-16-2.9-4-6.7-7.1-11-9.2-.3-5-2.3-10.1-5.3-14-4-5.1-9.9-8.6-16.3-9.5-6.6-.9-13.3.9-18.6,5-1.2.9-2.3,1.9-3.2,3-1.4-1.6-2.6-3.4-3.4-5.3-1.8-4.2-2.1-9.8,0-14,.8-1.6,1.4-3.3,2.3-4.8,0,0,0-.1.1-.2-3.5-2.8-5.9-6.8-6.5-11.4-.6-4.3.5-8.8,3-12.4-.7-1-1.3-2-1.8-3.2-.1-.3-.2-.6-.4-.9-.4,0-.8,0-1.2,0-3.8,0-7.5-1.6-9.8-4.8-2-2.8-2.8-6.2-1.9-9.5.9-3.2,3.2-5.9,6.3-7.1,1.6-.7,3.3-1.4,5-1.9,1.9-.6,4-.9,5.9-1.2,2.3-.4,4.6-.7,7-.9,3.5-.3,7-.7,10.4-1,5.9-.5,11.8-.9,17.7-1.2,5.7-.3,11.4-.5,17.1-.7,2.4,0,4.7-.1,7.1-.2,4.8-.1,9.6-.5,14.4-.2.9,0,1.7.1,2.5.2,3.2.2,6.2,1,8.8,3,3,2.3,4.9,5.7,5.4,9.4.5,3.6,0,7.3-1.8,10.4-.6,1-1.3,1.9-2.1,2.8,1.5,3.6,1.9,7.5.8,11.4-.9,3.2-2.7,6-5.1,8.2,0,3.8-1.2,7.5-3.4,10.5.1,0,.2,0,.4,0,0,0,0,0,0,0h0c2.7.6,5.2,1.6,7.4,3.3,3.1,2.4,5.3,5.7,6.4,9.5.6,2.4.8,4.8.5,7.2,4.1,2.7,6.9,7.7,7.6,12.4.9,6.3-1.7,12.9-6.8,16.7-1.7,1.3-3.4,2.5-5.2,3.7-.9.6-1.8,1.1-2.8,1.6.1,0,.3,0,.5,0,3.8.3,7.6.7,11.5,1,8.2.6,16.4,1.3,24.6,1.9,3.4.2,6.9.4,10.3.5,4.6.1,8.9,1.8,12.1,5h0Z"/>
      <path class="st32" d="M269.4,885.4c.1,4,.1,8,0,12.1-.2,9.5-3.7,18.5-10.5,25.3-6.7,6.7-15.8,10.5-25.3,10.5s-15.7-2.7-21.9-7.5c.4,4.5.9,9.1,1,13.7,0,3.5.2,7,.2,10.5.1,5,.3,10,.3,15,.2,12.4.3,24.9.5,37.3.2,11.6.4,23.2.6,34.8.2,10.9.6,21.7,1,32.6.7,21.1,1.8,42.2,2.7,63.3.4,8.6-3.7,17.6-9.8,23.6-6.2,6.2-14.8,9.8-23.6,9.8s-17.4-3.6-23.6-9.8c-3-3-5.5-6.7-7.1-10.6-1.8-4.2-2.4-8.4-2.6-13-.2-3.8-.4-7.6-.6-11.4-4.4,0-9.5-.8-13.5-2.8-3-1.5-6.3-2.9-9.1-4.8-2.1-1.4-4.2-2.7-6.2-4.2-3.3-2.4-6.3-5.1-9.2-7.9-6.6-6.4-11.4-14.2-15.4-22.4-3.7-7.6-5.7-15.9-7.2-24.2-1-5.6-1.6-11.2-1.9-16.8-1.5-.1-2.9-.3-4.4-.6-5-.8-9.8-2.1-14.4-4.1-3.1-1.3-5.9-2.9-8.7-4.7-.3,9.5-1.2,19.1-2.6,28.5-2.2,15.2-15.3,26.8-30.8,26.8s-16.2-3.3-22-9.1c-2.1-2.1-3.9-4.5-5.2-7v-332.5c.7-.7,1.5-1.3,2.4-1.8-.8-.3-1.6-.6-2.4-1v-17.5c2.5,0,4.8,1.5,5.8,3.7,2,.3,4,.5,5.9.7,6.2.3,12.4.3,18.7,0,1.8-.1,3.7-.3,5.5-.4,2.1,0,4.2,0,6.2.7,2.8.8,5.2,2.1,7.4,4.1,6.6,6,7.7,15.5,8.5,23.9.8,9.2.6,18.5.5,27.8,0,8.4-.5,16.7-.8,25.1.1,1.2.2,2.4.3,3.5.5,5.6.8,11.3.9,17,.2,11,.3,22,.2,33,0,9,0,18.1,0,27.1,4.2-.4,8.4-.4,12.5-.6,2.7-.1,5.5,0,8.2,0,1.8,0,3.6,0,5.3,0,6,0,11.9-.2,17.9-.5.2,0,.4,0,.6,0,3.4-.2,6.8-.4,10.2-.5.2,0,.4,0,.6,0,1.6-.1,3.3-.3,4.9-.5.3-6.1.6-12.2.9-18.3,0-.1,0-.2,0-.3-.5-10.9-1-21.8-1.5-32.8-.5-10.5-1.1-21.1-1.9-31.6,0,0,0-.1,0-.2,0-.5,0-1,0-1.5,0-.4,0-.9-.1-1.3,0-.2,0-.5,0-.7,0-1.3-.2-2.6-.3-3.9-.1-1.8,0-3.7.3-5.4.6-3,1.8-5.5,3.6-7.9,2.7-3.6,7.1-5.7,11.2-7.1,3.6-1.2,7.2-2.1,10.9-2.7,4.7-.7,9.6-.5,14.3-.6,2.7,0,5.4,0,8.1,0,10.8.1,21.5.5,32.2,1.1,8,.5,15.9,1.1,23.9,1.7,7.6.5,15.2.9,22.8,1.1,2.2,0,4.5.2,6.7.3,2.1.1,4.1.6,6.1,1.4,4.6,2,7.8,6.4,8.4,11.3.6,4.4-1,8.5-3,12.3.4.6.8,1.2,1.2,1.9,5,8.5,6.1,20.1,2,29.3-1.4,3-3,5.8-5,8.4,1.8,4.6,3.2,9.3,4.3,14.1,1.7,7.3,2.6,14.6,3.5,22.1.6,5.1.7,10.4.9,15.5h0ZM198.4,902c-.2-1.5-.3-3-.4-4.5,0-2.6-.2-5.2-.4-7.8-.7-8.5-1.5-17-3-25.4-.1-.6-.3-1.2-.4-1.8-.7-.6-1.4-1.2-2.1-1.9-2.6-2.6-4.9-5.6-6.8-8.9-.8,2.6-1.6,5.2-2.4,7.8,0,.9,0,1.7-.1,2.6-.2,2.9-.2,5.8-.2,8.6-.2,8.3-.6,16.7-.1,25,0,.2,0,.5,0,.7,5.7.4,11.2,2.4,15.8,5.6h0Z"/>
      <path class="st32" d="M1687.4,1043.8c1.3,9.8-1.3,19.9-7.4,27.7-5.9,7.6-14.8,12.9-24.4,14.1-9.2,1.2-18.3,2.5-27.4,3.9.5,1.3,1,2.7,1.4,4,2.7,9.7,1.3,20.2-3.8,28.8-4.9,8.4-13,14.6-22.4,17.2-5.9,1.7-12,3-18,4.6-6.2,1.6-12.4,3.2-18.8,4.4-3.1.6-6.4.6-9.5.8-.7,0-1.3,0-2,0-2.7,0-5.4-.3-8.1-.7-3.5-.5-7.1-1.2-10.5-2.3-2.2-.7-4.4-1.5-6.4-2.5-1.9,0-3.8,0-5.7,0-5-.1-10,0-15.1-.4-7.4-.4-14.6-1.2-21.8-3.2-6.1-1.7-11.7-4.6-17.3-7.4-.3-.1-.6-.3-.9-.4-8.9-4.1-16-10.8-19.9-19.9-1.9-4.6-2.9-9.6-2.9-14.5s0-.6,0-.9c-8.9,2.2-18.5.8-26.5-3.9-.4-.2-.8-.5-1.3-.8-4.2,3.4-9.1,5.7-14.3,7-2.9.7-5.8,1.1-8.7,1.1-7.2,0-14.2-2.2-20.1-6.8-3.3-2.6-6.2-5.8-8.3-9.4-1.4-2.5-2.6-5.1-3.3-7.8-.8-2.9-1.2-5.8-1.2-8.7-.1-2-.3-3.9-.3-5.9,0-3,.2-6,.5-8.9.6-10.1.9-20.3,1.6-30.4.7-10.9,1.3-21.8,2-32.7,1.4-23.3,2.7-46.7,4.8-70,1-11.3,2.1-22.6,3.4-33.8.6-4.9,1.5-9.8,2.3-14.7.6-3.2,1.5-6.4,2.3-9.6.4-1.6.9-3.2,1.6-4.7-.1-.3-.2-.5-.4-.8-1-2.1-1.5-4.4-1.5-6.7,0-5.1,2.9-9.4,5.8-13.3,1.6-2.2,3.5-4.3,5.2-6.4,2.2-2.7,4.7-5.3,7-7.9,1.5-1.7,3.1-3.4,4.7-5.1,7.6-8.1,15.3-16,23.3-23.8,1.8-1.8,3.6-3.5,5.5-5.2,1.6-1.5,3.2-3,4.8-4.3,2-1.6,4.4-3.1,6.9-3.8,3.7-1,7.2-.8,10.8.5,8.1,3,11,11.6,12.8,19.3.8,3.4,1.5,6.9,2.2,10.3,2.1,10.3,3.3,20.8,4.6,31.2.6,4.7,1.1,9.3,1.5,14,.5,5.1,1,10.2,1.1,15.4,0,1.8,0,3.6.1,5.4.3,3,.7,5.9.9,8.9,1,11,2.1,22.1,3,33.1.9,11.5,1.8,23,2.2,34.5.1,2.9.2,5.8.3,8.7,0,0,0,0,0,0,3.3-1,6.7-1.2,10-1.8,3-.5,6-1,9.1-1.6,4.4-.8,8.9-1.3,13.3-1.8,0-4.9,0-9.7-.2-14.6-.3-11.4-.7-22.8-1.3-34.2-.5-10.5-1.1-21-1.7-31.5-.3-5.4-.7-10.8-.8-16.3-.1-4.1.6-8.9,3.4-12.1,1.6-1.8,3.1-3.2,5.1-4.5,1.9-1.3,4.4-2,6.6-2.7,4.9-1.4,10-1.9,15-2.4,6.3-.7,12.7-.5,19.1-.7,4.6-.1,9.2-.1,13.8-.2,11.8,0,23.5-.1,35.2-.2,6.9,0,13.8,0,20.7-.1,6.4,0,12.1,4.9,13,11.3.1.8.1,1.6.1,2.4,0,0,0,.2.1.3.3.7.5,1.5.8,2.3.2.5.4,1.1.5,1.7.6,2.8,1.3,5.6,1.7,8.5.8,5.2,1.6,10.4,2.1,15.6.5,5.7,1.1,11.3,1.5,17,.5,6.4.8,12.7,1.2,19.1.5,9,.9,18,1.4,27,.2,3.5-1.5,7.1-3.9,9.5-.8.8-1.7,1.5-2.6,2-.6,1.9-1.8,3.7-3.1,5.1-2.3,2.3-5.5,3.6-8.8,3.6s-2.5-.2-3.7-.6c0,0-.2,0-.3,0-1,1.2-2.2,2.3-3.6,3.2.3.3.7.6,1,.9,1.8,1.6,3.3,3.5,4.4,5.7.3.7.7,1.3,1,1.9,2.1.2,4.1.4,6.2.7,4.2.6,8.2,1.7,12.3,2.8,13.5,3.4,23.9,15.7,25.7,29.4.7,5.2.2,10.6-1.4,15.6,6.6,5.9,11,14,12.2,22.8h0ZM1537.3,868.7c-.3-.3-.5-.6-.8-1-.4-.6-.8-1.2-1.1-1.8,0,1.3,0,2.7,0,4,.6-.5,1.3-.9,2-1.3h0ZM1433.4,823.7c-.8.8-1.6,1.5-2.4,2.3.2.1.3.3.4.4.2-.1.3-.2.5-.3.5-.8.9-1.6,1.4-2.4h0Z"/>
      <path class="st32" d="M1830.1,1089.7c0,3.2-.3,6.4-.7,9.6-.1,1.4-.3,2.8-.4,4.2-.2,2.2-.4,4.4-.7,6.7-.5,5-1.9,9.9-3,14.8-2.1,8.8-8.6,16.8-16.4,21.3-4,2.4-8.5,3.9-13.2,4.5-1.5.2-3,.3-4.5.3-3.8,0-7.5-.7-11.2-1.8.3,0,.6.2.8.3-1.7-.6-3.4-1.1-5.1-1.8-8.7-1-16.8-6-21.3-13.8-1.3-2.3-2.5-4.7-3.4-7.1.1.4.3.8.4,1.2-.7-1.9-1.4-3.8-1.8-5.7-.7-3.4-1.1-6.3-1.3-9.7-.1-2.3,0-4.5-.1-6.8-1.2-16.6-2.6-33.1-4.2-49.6-.5,1.9-1.1,3.8-1.7,5.7-2.3,7.7-8.7,13.6-16.8,14.7-.9.1-1.8.2-2.7.2-8,0-15.6-4.8-18.7-12.3-1-2.4-2.3-4.8-3.3-7.2-1.4-3.4-2.6-6.9-3.8-10.5-.4-1.2-.6-2.6-.8-3.8-.4-2.1-.9-4.1-1.2-6.2-.4-2.6-.8-5.2-1.1-7.8-1.3-11.7-2.3-23.4-3.3-35.2-1-11.2-1.7-22.5-2.3-33.7-.2-5.2-.6-10.4-.7-15.6-.1-6.6-.2-13.3-.3-19.9,0-5.7.1-11.4.2-17.1,0-4.9.2-9.8.4-14.8.3-10.4.6-20.8,1.1-31.2,1-23.5,2.2-47,4-70.5.8-10.7,1.8-21.5,3.1-32.2.6-5.1,1.2-10.3,2.2-15.4.6-3.2,1.1-6.4,1.9-9.6,0-.3.2-.6.2-1-.2-2.2-.3-4.4-.1-6.6.3-4.3,2-8.4,4.8-11.7,3.3-3.8,7.7-6.2,12.4-7.7,5.6-1.8,11.5-2.7,17.4-3.2,3.2-.3,6.5-.7,9.7-.7,6.3-.2,12.6-.4,18.8,0,5.5.4,10.9.9,16.4,1.6,2.6.3,5.1.8,7.7,1.2,5,1,10.2,2.1,14.6,4.8,6.8,4.2,9.5,11.7,10.9,19.2,3.3,1.8,5.8,4.7,7.5,8.2.5,1,.9,2.2,1.1,3.3.9,3.6.8,7.3-.7,10.8-1.2,2.9-3.4,5.7-6.2,7.4-.1,9.7-.2,19.4-.4,29.1-.3,11.2-.6,22.3-.8,33.5-.5,21.9-.9,43.8-2.1,65.6-1,18.3-2.1,36.6-3.2,54.8.5,1.5,1.1,2.9,1.6,4.4.8,2.2,1.1,4.7,1.5,7,.3,1.5.5,3.1.7,4.7.9,6.8,1.2,13.7,1.6,20.6,0-1.5-.2-3-.3-4.5,1.7,25.5,3,51.1,4.3,76.7,0,1.8.2,3.5.3,5.3,0,1.2.2,2.4.3,3.6,4.9,4.6,8.7,10.5,10.2,16.9,1,4.1,1.7,8,1.8,12.2h0Z"/>
      <path class="st32" d="M2349.5,844.7c1.7,6.3,1.3,13.1-1.2,19.1-3,7.1-8.6,12.3-15.5,15.5-.2.1-.5.2-.7.3,0,3.1-.4,6.2-1.3,9.2-.6,2-1.3,4-2.2,5.9,5.1,6.5,8.1,14.5,8.1,23s-1.8,13.1-5.1,18.8c-3.5,5.9-8.4,10.5-14.3,13.8,1.9,4.6,2.9,9.5,2.9,14.4s-1,10-2.9,14.7c-.5,1.2-.9,2.5-1.4,3.7-1.6,3.8-3.7,6.9-6.1,10.3-2.2,3.3-5.3,6.1-8.1,8.9-2.1,2-4.1,4-6.1,6-3.4,3.3-6.9,6.6-10.2,10-.2.2-.3.4-.5.6-2.4,6.6-6.3,12.3-11.9,16.6-6.3,4.9-14.1,7.5-22,7.5s-3.2-.1-4.8-.3c-17.4-2.4-31.1-17.8-31-35.5,0-.7,0-1.3,0-2-3.9,0-7.9-.3-11.8-1-.7-.1-1.5-.3-2.2-.4-.1,8.4-.2,16.9-.4,25.3-.2,11.9-1.2,23.9-2.6,35.7-.4,3.2-.8,6.3-1.3,9.5-2.3,16.1-16.3,28.5-32.6,28.5s-17.1-3.5-23.3-9.6c-3-3-5.4-6.6-7.1-10.5-.5-1.4-.9-2.7-1.4-4.1-.8-2.9-1.2-5.8-1.2-8.8v2.1c-.7-13-1.4-25.9-1.5-39,0-3,0-5.9,0-8.9-2,.1-4.1,0-6.1-.2-7.9-1.1-15.1-5.3-19.9-11.5-2.4-3.1-4.2-6.7-5.2-10.5-.8-2.7-1-5.4-1-8.1h0c-.4-12.2-.6-24.5-.4-36.8.1-7,.2-13.9.4-20.9,0-4.1,0-8.1.3-12.2,0-.1,0-.2,0-.3-1.4.7-2.9,1.3-4.5,1.8-1.6.5-3.2,1.1-4.9,1.6,4.2,5.2,7.1,11.5,8.1,18.3,1.3,9.8-1.3,19.8-7.4,27.6-6,7.8-14.6,12.5-24.3,14-24.6,3.9-49.3,7.2-74.1,10.3-4.4.6-8.8,1.2-13.2,1.7-7.9.8-15.8,1.8-23.8,2.1-.9,0-1.9,0-2.9,0-3.5,0-7.1-.2-10.4-.7-4.7-.7-9.2-2.1-13.8-3.2-12.2-2.9-22.1-13.5-25.4-25.4-1.7-6.3-1.7-13,0-19.3.3-1.1.7-2.2,1.1-3.3-.5-.7-1-1.5-1.4-2.2-4.7-8.1-5.5-17.4-2.9-26.2,0,.1,0,.2-.1.4,0-.2.2-.5.2-.7.2-.6.4-1.1.6-1.7,1-2.9,2.1-5.7,3.7-8.3.2-.4.5-.8.8-1.2-7.1-2.9-12.7-9.2-14.7-16.6-1.2-4.4-1.2-9,0-13.4,1.5-5.4,4.7-9.6,8.9-13.2,3-2.5,6.6-4.3,10.4-5.4,3.2-.9,6.4-1,9.7-1.1,20.9-1.5,41.7-3.6,62.5-5.2,7.8-.6,15.6-1.1,23.4-1.7,21.7-1.9,43.3-4,64.9-6.8,7.8-1,15.6-2,23.4-3,3.6-.5,7.2-.9,10.8-1.3.5-16.7,1.1-33.5,2.4-50.1.9-10.8,1.8-21.6,2.9-32.4,0-.5.1-.9.1-1.4,0-.3,0-.6-.1-.9-1.4-10.7-3.1-21.3-4.9-31.9-.4-2.5-.9-4.9-1.4-7.3-.1-.7-.3-1.3-.4-2,0,0,0-.2,0-.3-.4-1.8-.8-3.7-1.1-5.6-.3-2.4-.2-4.7.3-7.1,1-4.8,4.8-9.2,9.1-11.4,5.6-2.8,11.9-3.7,18.1-4.5,5.4-.7,10.8-1.2,16.1-1.7,6-.5,12-.9,18.1-1.1,3.6-.2,7.3-.3,10.9,0,4.6.5,8.9,2.1,12.6,4.9,4,3,6.7,7.6,8.4,12.2,1.6,4.1,2.5,8.2,3.3,12.5.6,3,1,6.1,1.3,9.1.3,3.4.6,6.8.9,10.2.5,6.1.8,12.2,1.2,18.3.7,11.1,1.2,22.2,1.8,33.2.8,15.3,1.3,30.7,1.8,46,1.5,0,3.1-.2,4.6-.2,4.7-.2,9.5-.5,14.2-.7,12.1-.6,24.2-1.2,36.4-1.8,9.2-.5,18.4-1,27.6-1.5,3.1-.2,6.2-.5,9.3-.7,6.8-.5,13.6-1.6,20.4-1.8-.2,0-.4,0-.6,0,1.9,0,3.8-.1,5.7-.2,12.9-.1,24.6,9,28.1,21.4h0ZM2137.8,713.1c0-.1,0-.2.1-.3-.2,0-.4,0-.6,0-.4,0-.7,0-1.1,0,.5,0,1.1.1,1.6.2h0ZM2126.9,715c1.3-.8,2.7-1.4,4.2-1.8-2.1.2-4.2.4-6.2.7,0,.8,0,1.5,0,2.3.7-.4,1.3-.8,2-1.2h0Z"/>
    </g>
  </g>
  <g class="st19">
    <g>
      <path class="st14" d="M2014.1,954.8c0,.1,0,.3,0,.4,0-.1,0-.3,0-.4Z"/>
      <path class="st14" d="M1073.3,1126.8c0,0,0,.2,0,.3,0,0,0-.2,0-.3Z"/>
      <path class="st14" d="M1073.3,1126.6c0,0,0,.1,0,.2,0,0,0-.1,0-.2Z"/>
      <path class="st14" d="M1073.5,1124.9c0,.4,0,.7,0,1.1,0-.4,0-.7,0-1.1Z"/>
      <path class="st14" d="M1074.3,1112.9c0,0,0,.1,0,.2,0,0,0-.1,0-.2Z"/>
      <path class="st14" d="M1074.3,1112.9c0-.5,0-.9,0-1.4,0,.5,0,.9,0,1.4h0Z"/>
      <path class="st14" d="M2375.7,827.7c0,0,0,.1,0,.2,0,0,0-.1,0-.2Z"/>
      <path class="st14" d="M2375.6,827.2c0-.1,0-.2,0-.3,0,.3,0,.6,0,.9,0-.2,0-.4,0-.5Z"/>
      <path class="st14" d="M2400.2,830.8v542.5h0v-542.5h0Z"/>
      <path class="st14" d="M1636.7,1473.4h.2-.2Z"/>
      <path class="st41" d="M2400.2,830.7v569.9H.2v-48.7H.2v-412.1c2.6,0,5.2,0,7.8,0,7,0,14.1.1,21.1.3,9.6.3,19.1.9,28.6,2.2,4.5.6,8.9,1.3,13.3,2.4,2.2.5,4.2,1.3,6.3,2,1.1-1,2.5-1.6,4.1-1,2.7,1,3.4,4.6,4.1,7,.4.6.7,1.3,1,1.9.8,1.6.8,3.5.3,5.2,0,.2,0,.4,0,.5.7,5.4,1.4,10.9,1.9,16.3.6,7,1.1,14,1.6,21.1,2.6-.3,5.1-.3,7.8,0,2.8.2,5.5.5,8.3.8,5.3.6,10.6,1.2,15.9,1.8,10.9,1.3,21.9,2.2,32.8,3.2,2,.2,4,.3,5.9.5,1.5,0,3,.1,4.5,0,.2-2.4.4-4.9.6-7.3.4-5,.9-9.9,1.4-14.9.5-5.2,1-10.5,1.6-15.7.6-4.9,1.5-9.8,2.5-14.6.5-2.5.8-5,1-7.5.6-9.6,1-19.1,1.7-28.7.6-9.4,1.4-18.8,2-28.1.4-5.5.6-11,1.1-16.5.4-4.3.8-8.5,1.7-12.8.8-3.6,2.8-7,5.6-9.5,1-.9,2-1.8,3-2.6,1.4-1.3,2.8-2.7,4.2-4.1,3.2-3.7,6.5-7.3,10-10.8,3.9-3.8,7.8-7.7,11.6-11.6,7.8-7.9,15.3-16,22.9-24,5.3-5.5,10.6-10.9,15.9-16.5,5.3-5.7,10.6-11.3,15.8-17.1,3.4-4,6.8-8,10.1-12.1,1.8-2.2,3.7-4.2,5.5-6.3,2-2.2,4.4-4.3,7.4-4.9,1.9-.4,3.5-.5,5.4-.3,2.6.3,5.4,1.7,7.2,3.6,3.5,3.5,4.6,8.5,4.9,13.2.2,3,.4,5.9.6,8.9.3,5.2.6,10.5.9,15.7.2,3.2.4,6.4.6,9.6,1.6,21.8,3.2,43.6,5.2,65.3,1.9,21.4,3.1,42.9,3.6,64.5.3,12.1.5,24.3.6,36.4.1,10.1.1,20.2.3,30.3.1,6.1.2,12.3.3,18.4,0,5.1.4,10.3.5,15.4.4,9.5,1,19,1.5,28.5.8,10.4,1.6,20.8,2.3,31.2.4,6.6.9,13.1,1.3,19.6.4,5.6.4,11.2.7,16.8.1,3.6.4,7.2.5,10.7,0,1.1.2,2.2.3,3.4.2,0,.4,0,.6,0,7,.4,14,.6,21,.8,4.4,0,8.9.2,13.3.3,0-2.3.2-4.5.2-6.8.4-11,.8-22.1.9-33.2.1-22.3.2-44.6.2-66.8,0-21.5-.2-43.1-1.1-64.6-.9-22.7-2.5-45.3-3-67.9-.1-6,0-12.1.8-18,.3-1.9.7-3.9,1.3-5.8.8-2.5,2-4.6,3.5-6.7,1.6-2.3,4.2-4.1,6.7-5.2,2.4-1,5-1.4,7.6-1.3,5.1.2,10.3.6,15.4.9,11.4.8,22.8,1.3,34.1,2.2,5.1.4,10.1.8,15.2,1.2,5.4.5,10.8.9,16.1,1.7,5.2.7,10.4,1.4,15.4,2.9,4.4,1.3,8.7,3.4,11.8,6.8,1.9,2.1,3.3,4.4,4.1,7.1.7,2.2.9,4.5.9,6.8,0,2.9-.3,5.9-.5,8.8-.1,2.9-.2,5.8-.4,8.8-.4,11.2-.2,22.4,0,33.6.1,10.2.2,20.5,0,30.7,0,3.6-.2,7.1-.3,10.7.4-.1.8-.2,1.3-.3.8-.2,1.7-.3,2.5-.5,1.7-.3,3.6-.1,5.4-.1,2,0,4,.3,6,.4,5.2.4,10.5.9,15.7,1.4,11.3,1.1,22.5,2.8,33.7,4.6,5.3.9,10.5,1.9,15.8,2.9,6.5,1.3,13.7,2.7,18.4,7.8,1.9,2,3.1,4.3,3.9,7,.5,1.7.5,3.5.5,5.3s0,2.6,0,3.9c-.3,10.8-1.2,21.5-1.9,32.3-.5,8.7-.5,17.5-.8,26.2-.1,4.1-.2,8.1-.4,12.1,1.9.1,3.9.3,5.8.4,2.7.2,5.3.4,8,.6,21.3,1.3,42.6,2.4,63.9,3.8,5.4.3,10.7.7,16.1,1,0,0-.2,0-.3,0,.5,0,.9,0,1.4.1.3,0,.6,0,.9,0h.3c.7,0,1.3.1,2,.2,1.2,0,2.5.2,3.7.2h0c.5,0,1,0,1.5,0h0c.1,0,.2,0,.4,0,.2,0,.3,0,.5,0h.2c.3,0,.6,0,.9,0,.6,0,1.2,0,1.7.1,0,0,.2,0,.3,0h0c.2,0,.5,0,.7,0,.8,0,1.7.1,2.5.2,1,0,2,.1,3,.2.7,0,1.3,0,2,.1h.2c0,0,.1,0,.2,0,11.3.8,22.6,1.6,34,2.4,5.5.4,10.9.9,16.4,1.5,4.6.5,9.2,1.1,13.8,1.8,0-4.7,0-9.3,0-14,0-21.5-.3-42.9-1-64.3-.7-22.2-1.6-44.5-3-66.7-.2-4-.5-8.1-.8-12.1-.9-11.4-1.8-22.8-2.8-34.2-.5-5.1-1-10.3-1.4-15.4-.3-3.4-.6-6.8-.8-10.2-.2-4.2-.3-8.4.2-12.6.6-4.5,2.4-9,5.8-12,2.1-1.9,4.4-3.1,7.1-3.9,2.1-.6,4.4-.7,6.6-.5,10.7.6,21.4,1.7,32.1,3,5.2.6,10.4,1.3,15.6,1.9,4.8.5,9.5.8,14.3,1.2,10.5.6,21,.9,31.6,1,.8,0,1.6,0,2.4,0,3,0,6,0,9,.4,5.1.8,9.2,4.3,11.1,9,.6,1.5,1,3.2,1.4,4.8.7,3,1.2,6.1,1.7,9.2.4,2.6.9,5.2,1.3,7.9,1.8,10.5,3.8,21,5.4,31.6,1.6,11,2.8,22.1,3.9,33.2,1,10,1.8,19.9,2.5,29.9h0c0,.2,0,.4,0,.5h0c0,.2,0,.2,0,.2h0s0,0,0,0c0,.2,0,.4,0,.5,0,0,0-.2,0-.3.4,5.8.8,11.6,1.2,17.5.4,6.2.8,12.3,1.2,18.4,0-.1,0-.2,0-.4.8,11.2,1.6,22.5,2.5,33.7.8,10.3,1.5,20.5,2.3,30.8,1.1,12.8,1.7,25.7,4.1,38.3.2,1,.5,2.1.7,3.1,3.4,0,6.8,0,10.1.3,1.9,0,3.8.2,5.8.3.2-3.9.4-7.8.6-11.6,1.2-23.1,2.6-46.2,4.1-69.3h0c.7-10.5,1.4-21.1,1.1-31.6,0-.4,0-.8-.1-1.1-.2-.4-.3-.8-.4-1.2-.7-2.6-.7-5.2,0-7.8.8-3,2.7-5.6,5.1-7.5,2.4-1.8,5.1-2.6,8-3.2,2.9-.5,6-.4,8.9-.3,5.5.2,11,.4,16.4.7,10.5.4,21,.8,31.5.7,7.1,0,14.2-.3,21.4-.7,2.7-.2,5.3-.4,8-.5,0-.2,0-.5,0-.7.4-5.9.6-11.9,1.2-17.8.4-4.2.9-8.5,2.2-12.6,1.7-5.2,4.9-9.6,10-11.9,2.5-1.1,5.1-1.6,7.8-2.1,10.3-2,20.9-2.3,31.3-2,10.6.3,21.2.9,31.8,1.3,11.5.4,22.9.7,34.4.7s17.8-.4,26.7-.8c1.6,0,3.2-.1,4.8-.2.7-10.2,1.4-20.3,2-30.5.7-12,.8-24,1.3-36,.2-6.1.5-12.2.8-18.3.2-3.7.4-7.4,1.2-11,.8-3.5,3.5-6.7,6.8-8.1,1.9-.8,4-1.1,6-.8,1.8.2,3.3,1,5,1.7,1.1.3,2.3.6,3.4.9,3.8.7,7.6,1,11.4,1.5,12.8.8,25.7,1.2,38.5,1.2,13.4,0,26.9.4,40.4-.4,3.7-.3,7.3-.6,11-.9,1.8-.2,3.5-.4,5.2-.5,2.3-.2,4.7-.4,7,.3,3.2.9,5.8,2.7,7.8,5.3,3.1,4,3.8,9.5,4.4,14.3.3,2.4.4,4.8.6,7.3.4,4.3.5,8.6.8,12.9.4,7.9.5,15.9.7,23.8.2,7.1.3,14.2.3,21.4.1,15.9.1,31.8-.5,47.6-.3,6.4-.5,12.7-.8,19.1,4.1-.3,8.1-.6,12.2-.9h0c.6,0,1.3,0,1.9-.1,15.4-1,30.8-1.9,46.2-2.2,7.6-.2,15.1-.3,22.7-.5,3.5,0,7-.2,10.5,0,4.3.2,8.6.5,12.5,2.7,5.7,3.2,9.1,8.7,11.1,14.8,2.5,7.7,2.8,15.9,3.3,23.9.2,3.9.4,7.8.6,11.6.3,8.1.5,16.1.7,24.2.2,7.5.4,15,.6,22.5,0,.4,0,.8,0,1.2,12.9-.7,25.8-1.6,38.7-2.1,16.2-.6,32.5-1,48.7-1.3,9.6-.2,19.1-.3,28.7-.3,4.9,0,9.7,0,14.6.1,2,0,4.1,0,6.1.1,0-.9.2-1.7.3-2.6.2-3.4.4-6.9.6-10.3.3-4.3.3-8.6.4-12.8.2-7.1.3-14.2.4-21.3.2-15.6.3-31.3,1-46.9.7-16.4,1.5-32.8,2.6-49.2.5-7.8,1.3-15.5,2.5-23.2.8-5.5,1.6-11.4,5.1-15.8,4.7-6,12.9-6.6,19.9-7.3,15.9-1.5,31.9-.8,47.8-.2,7.4.3,14.8.9,22.1,1.3,3.9.2,7.8.4,11.7.6,1.6,0,3.2.2,4.8.2,3.9.2,7.8.3,11.4,1.8,10.9,4.6,13.8,18,15.4,28.5.8,5.1,1.1,10.3,1.5,15.4.7,7.9.8,16,1.1,23.9.5,16.1.9,32.3,1.4,48.4.4,14.3.8,28.6,1.1,42.8.1,5.5.2,10.9.4,16.4,2.8.2,5.6.4,8.4.6,5.3.3,10.5.6,15.8.9.3-3,.5-5.9.7-8.9.4-7.7.7-15.4.8-23.1.2-7.6-.2-15.2-.6-22.8-.8-15.3-1.5-30.6-1.6-45.9-.2-15.4-.1-30.8.7-46.2.8-15.6,1.8-31.2,3.1-46.7.3-3.7.6-7.5.8-11.2.9-14.7,1.6-29.5.8-44.2-.2-2.5-.4-5-.9-7.4-.7-3.7-.9-7.5.2-11.2,1.1-3.7,2.7-7.1,4.4-10.6h0c0-.1.1-.2.2-.4h0c0,0,0-.1.1-.2h0s0,0,0-.1c0-.1.1-.3.2-.4,0,0,0-.2.1-.3,0-.1.1-.2.2-.4.2-.5.5-1,.8-1.5,0,0,0,0,0-.1,0,0,0-.1.1-.2,0-.1.1-.2.2-.4,0,0,0,0,0-.1,7-14,15.1-27.5,23.6-40.7,8.6-13.2,17.2-26.5,26.2-39.5.9-1.3,1.8-2.7,2.8-4,3.2-4.1,7.6-7.3,13-7.3s6.7,1,9,3c1.1.9,2.1,1.8,3,2.9.7,1,1.4,2,2,3,1.1,1.8,2,3.7,2.9,5.6,3.5,6.6,7.7,12.7,11.3,19.2,3.8,6.8,7.5,13.8,11.2,20.7,3.6,6.8,7.2,13.5,10.7,20.3.8,1.6,1.6,3.1,2.4,4.7.3.5.5,1.1.8,1.6.3.6.6,1.1.8,1.6,1.4,2.8,2.8,5.6,4.2,8.4,3.2,6.3,6.6,12.6,10.5,18.6,1.6,2.3,3.3,4.6,5,6.9,1.4,1.9,2.6,4,3.4,6.2.8,2,1.2,3.9,1.6,6,.5,2.6.8,5.2,1,7.8.4,5.8,0,11.7-.4,17.5.2,1.6.3,3.2.4,4.8.5,6.2.8,12.4,1.2,18.7.6,11,1,22,1.6,32.9.5,9.6,1,19.1,1.6,28.7.8-.7,1.6-1.3,2.6-1.7,2.8-1.2,6-.8,8.4.9,6.2.2,12.5-.3,18.8-.6,10.3-.8,20.6-1.7,30.9-2.8,2.2-.2,4.4-.4,6.7-.6,0-.3,0-.6,0-.9-.3-5.8-.6-11.5-.9-17.3-.5-6.2-1.2-12.4-2.2-18.6-.2-.8-.4-1.7-.6-2.5-.5-1.8-.9-3.7-.9-5.6,0-3.7,1.4-7.1,3.9-9.8,3.2-3.5,7.7-4.8,12.2-5.5,3.3-.5,6.8-.6,10.1-.5,5.6,0,11.2.3,16.8.6,11,.6,22,.8,33,1.1,11.2.3,22.4.7,33.6,1.6,2.9.2,5.8.8,8.7,1.4,3.2.7,6.2,2.1,9.1,3.6,10.2,5.2,11,17.9,11.7,28,.8,11.2,1.3,22.4,1.4,33.6,0,3.9,0,7.8,0,11.7,6.4,1,13,1.4,19.6,1.8,22.4,1.2,44.7,2.1,67.1,2.7,5.9.2,11.9.3,17.8.5,2.9,0,5.8.2,8.6.2.8,0,1.6,0,2.4,0,1.3-7.1,1.9-14.4,2.6-21.6.5-4.6.9-9.2,1.2-13.8.4-6.4.8-12.7,1.2-19.1,0,.8-.1,1.6-.2,2.4.5-11.5.8-23,1.1-34.4.2-10.7.2-21.5-.4-32.2,0-.3,0-.7,0-1-1-10.5-2.1-21-3.5-31.4-.7-5.4-1.5-10.8-2.1-16.2-.4-2.8-.7-5.6-.9-8.4-.2-1.8-.3-3.7-.3-5.5,0-3,.3-6,1-8.9.8-3.2,2.7-6,4.9-8.4,2.1-2.3,5.1-3.6,7.9-4.5,3.3-1,6.9-1,10.2-1.1,2.5,0,4.9-.2,7.4-.2,5.4,0,10.7-.2,16.1,0,11.5.3,22.9,1.1,34.3,1.8,11.1.7,22.2,1.2,33.2,2.3,5.1.5,10.2,1.1,15.3,1.6,2.2.2,4.5.4,6.7.7v30.1c-1.8-.3-3.5-.5-5.3-.7-.2.5-.4,1.1-.7,1.6.6,4.7,1.6,9.3,2.4,13.9,1,5.1,1.9,10.2,2.9,15.2.2,1.2.5,2.5.7,3.7h0ZM92.4,1026.6c.2-.2.3-.4.5-.6-.2,0-.3,0-.5,0,0,.2,0,.4,0,.6h0Z"/>
    </g>
  </g>
  <g class="st22">
    <g>
      <path class="st40" d="M2400.2,1364.2v36.5H.2v-169.4c9.8.6,19.6,1.3,29.4,2.4,7.1.8,14.1,1.7,21.1,2.7,12.9,1.8,25.8,3.9,38.7,5.9,26.6,4.2,53.2,8.4,79.8,12.4,33.2,5.1,66.2,11.8,99.1,18.8,35.9,7.7,71.6,15.7,107.2,24.6,32.9,8.2,66,15.6,99.1,22.6,47.3,9.4,94.7,18.7,142.3,26.5,25.1,4.1,50.3,7.3,75.5,10.4,27.2,3.3,54.4,6.5,81.7,9.3,1.6.2,3.3.3,4.9.5,22.6,1,45.1,1.6,67.7,1.8,26.1.2,52.2.5,78.3-.2,27.6-.8,55.2-2,82.8-3.2,25.9-1.1,51.8-1.7,77.8-2.6,23.9-.8,47.8-1.9,71.7-3.3,15.4-1.1,30.8-2.4,46.2-3.8,20.7-1.9,41.3-4.4,61.9-6.4,21.5-2,42.9-4.6,64.2-7.6,18.6-2.6,37-5.2,55.4-8.6,26.6-5.6,53.2-11.3,79.9-16.5,26-5.1,51.9-10.2,77.8-15.5,24.7-5,49.5-9.4,74.3-13.7,12.5-2.2,24.9-4.4,37.4-6.7,12.7-2.4,25.4-4.9,38.3-6.7,13-1.8,26.2-2.6,39.3-3.6,18.5-1.4,37-2.4,55.5-3.3,26-1.2,52.1-2.6,78.1-3.2,26-.6,51.9-1.3,77.9-1,13,.1,25.9.1,38.9.8,19.1.9,38.1,2.5,57.1,4.1,24.7,2.1,49.3,4.5,73.8,7.9,30.9,4.4,61.5,9.8,91.6,17.9,28.6,7.7,56.8,17,84,28.5,22.9,9.7,45.1,21,68.1,30.3,6.8,2.8,13.7,5.4,20.6,8,.2,0,.4.2.7.2.4,0,.9,0,1.4,0,6.9,0,13.8,1.2,20.3,3.4h0Z"/>
      <path class="st38" d="M2400.2,1364.2v36.5H.2v-169.4c9.8.6,19.6,1.3,29.4,2.4,7.1.8,14.1,1.7,21.1,2.7,12.9,1.8,25.8,3.9,38.7,5.9,26.6,4.2,53.2,8.4,79.8,12.4,33.2,5.1,66.2,11.8,99.1,18.8,35.9,7.7,71.6,15.7,107.2,24.6,32.9,8.2,66,15.6,99.1,22.6,47.3,9.4,94.7,18.7,142.3,26.5,25.1,4.1,50.3,7.3,75.5,10.4,27.2,3.3,54.4,6.5,81.7,9.3,1.6.2,3.3.3,4.9.5,22.6,1,45.1,1.6,67.7,1.8,26.1.2,52.2.5,78.3-.2,27.6-.8,55.2-2,82.8-3.2,25.9-1.1,51.8-1.7,77.8-2.6,23.9-.8,47.8-1.9,71.7-3.3,15.4-1.1,30.8-2.4,46.2-3.8,20.7-1.9,41.3-4.4,61.9-6.4,21.5-2,42.9-4.6,64.2-7.6,18.6-2.6,37-5.2,55.4-8.6,26.6-5.6,53.2-11.3,79.9-16.5,26-5.1,51.9-10.2,77.8-15.5,24.7-5,49.5-9.4,74.3-13.7,12.5-2.2,24.9-4.4,37.4-6.7,12.7-2.4,25.4-4.9,38.3-6.7,13-1.8,26.2-2.6,39.3-3.6,18.5-1.4,37-2.4,55.5-3.3,26-1.2,52.1-2.6,78.1-3.2,26-.6,51.9-1.3,77.9-1,13,.1,25.9.1,38.9.8,19.1.9,38.1,2.5,57.1,4.1,24.7,2.1,49.3,4.5,73.8,7.9,30.9,4.4,61.5,9.8,91.6,17.9,28.6,7.7,56.8,17,84,28.5,22.9,9.7,45.1,21,68.1,30.3,6.8,2.8,13.7,5.4,20.6,8,.2,0,.4.2.7.2.4,0,.9,0,1.4,0,6.9,0,13.8,1.2,20.3,3.4h0Z"/>
      <path class="st6" d="M2400.2,1151.7v212.5c-6.5-2.2-13.4-3.4-20.3-3.4s-.9,0-1.4,0c-.2,0-.4-.1-.7-.2-6.9-2.6-13.8-5.2-20.6-8-23.1-9.3-45.3-20.6-68.1-30.3-27.2-11.5-55.4-20.8-84-28.5-30.1-8.1-60.8-13.5-91.6-17.9-24.6-3.5-49.1-5.8-73.8-7.9-19-1.6-38-3.2-57.1-4.1-12.9-.6-25.9-.6-38.9-.8-26-.3-51.9.3-77.9,1-26,.7-52.1,2-78.1,3.2-18.5.9-37,1.9-55.5,3.3-13.1,1-26.3,1.8-39.3,3.6-12.8,1.8-25.5,4.4-38.3,6.7-12.4,2.3-24.9,4.5-37.4,6.7-24.8,4.3-49.6,8.7-74.3,13.7-25.9,5.3-51.8,10.4-77.8,15.5-26.7,5.2-53.3,10.9-79.9,16.5-18.4,3.4-36.9,6-55.4,8.6-21.4,3-42.8,5.5-64.2,7.6-20.7,2-41.3,4.4-61.9,6.4-15.4,1.4-30.8,2.7-46.2,3.8-23.9,1.4-47.8,2.6-71.7,3.3-25.9.9-51.8,1.4-77.8,2.6-27.6,1.2-55.2,2.4-82.8,3.2-26.1.7-52.2.4-78.3.2-22.6-.1-45.1-.7-67.7-1.8-1.6-.1-3.3-.3-4.9-.5-27.2-2.8-54.5-5.9-81.7-9.3-25.2-3.1-50.5-6.2-75.5-10.4-47.6-7.8-95-17.1-142.3-26.5-33.2-7-66.2-14.4-99.1-22.6-35.6-8.9-71.4-16.9-107.2-24.6-32.9-7-65.9-13.8-99.1-18.8-26.6-4.1-53.2-8.2-79.8-12.4-12.9-2-25.8-4.1-38.7-5.9-7-1-14.1-1.9-21.1-2.7-9.8-1.1-19.6-1.8-29.4-2.4v-9.8c2.8-1.7,5.7-3.4,8.6-5,10.9-6,21.6-11.7,32.9-17.2,5.9-2.9,11.8-6.2,17.8-8.7,12.7-5.3,25.5-10.3,38.4-15.2,32-11.9,64.6-22,98-29.2,21-4.6,42-8.8,63.2-11.7,22.4-3,44.9-4.5,67.4-5.7,102-5.5,203.8,5.5,305.4,13,52.3,3.1,104.5,6,156.8,9.1,3.4.2,6.8.4,10.1.6,9.5.6,18.9,1.2,28.4,1.9,2.1.1,4.2.3,6.3.4,24.8,1.7,49.7,3.4,74.5,5.2,56.3,4,112.5,8.5,168.7,13.6,57.1,5.2,114.2,11.2,171.3,16.7,31.4,3,62.7,5.5,94.2,7.8,53.2,2.7,106.3,4.8,159.5,5.9,56.8,1.2,113.5,2.3,170.3,3.3,41.8.7,83.6,1.5,125.3,1,24.2-.3,48.3-.9,72.4-1.7,11.4-.4,22.8-1,34.1-1.7,27.4-2.4,54.8-5.1,82.3-8,28-3,56-6.3,84-9.5,54.4-6.2,108.9-11.6,163.4-17,49.4-4.9,98.6-11.2,148.1-15.9,6.2-.6,12.4-1.2,18.6-1.7h0Z"/>
    </g>
  </g>
  <g class="st21">
    <g>
      <path class="st5" d="M2001.4,1261.1c5.3-2.1,9.2-7.4,14.7-9.6-.4-.6-.7-1.1-1.1-1.7-1.5-2.4-2.7-5.1-3.5-8-.2.1-.4.3-.6.4-.6.6-1.2,1.2-1.8,1.8-.7,7.4-3.9,12.7-7.8,17h0ZM1984.3,1323.1c-21.7-2.7-38.9-20.3-45.3-40.7-12.6,5.7-28.9,3.4-38-7.5-11.2-2.4-14.3-16.4-15.9-25.5-32.5,3.6-56.5-25.2-35.3-53.6-9.5-14.7-1.8-35,13.7-41.9-12.9-15.7-3.2-39.4,15.2-45.3.7-14.9,3.4-31.3,13.5-42.9,21.4-19.7,44.8-.4,46.2,24.7,19.7-1.4,35.5,19.4,26,37.5,3.7,4.2,5.9,9.5,6.7,15.1.2,1.7.3,3.4.2,5.1,6.5,3.9,11.4,10.9,12.5,18.4,3.7,2,7,4.6,9.9,8,2.8,3.4,4.8,7.4,5.9,11.7,23.1-10.9,55.4-4.7,65.3,20.9,84,3.6,70.2,140.8-28.4,106-15.1,10.4-34.6,11.9-52.3,9.8h0Z"/>
      <path class="st5" d="M2135.6,1247.4c.7,0,1.4,0,2.1,0,0,0,.1,0,.1,0-4.1-1.5-8.2-4.2-12.8-3.8,3.5,1.2,6.8,3.2,10.5,3.9h0ZM2256,1258.4c10.5,1.1,19.8,8.3,24.7,17.4,5.1-2.2,10.6-2.8,16.1-2.4-10.2-8.8-14.1-23.5-10.4-36.3-21.5,20.1-58.7,2.2-56.7-27,.4-11.9,0-24.2-6.5-34.6-25.5-1.9-36.7,26.8-39.6,47.9,21.5-1.1,37.4,22.7,31.9,42.6,1.5,3.2,3.6,8.8,8,7.8,6.8-10.9,19.8-17.2,32.6-15.3h0ZM2313.1,1363c-11.8-.2-23.4-4.6-32.5-12.3-15.5,2.2-32-.7-44.1-11.2-27.6,6.4-57.2-7.7-70.6-32.5-14.3,4.2-29.4,7.6-44.3,4.8-23.5-4.7-56.6-19.6-51.6-48.5-9.8-9.7.9-22.5,4.2-32.9,9.8-21.6,32-35.8,55.6-36.5,8.2-82.9,126.3-119,158.2-31.4,38.4-4.6,76.2,21,75,61.9,57.9,39.7,15.9,139.1-49.8,138.5h0Z"/>
      <path class="st5" d="M2212.5,1342c-18.9-1.6-48.4-11.2-60.6-26.2-8.2-10.5-14-24.8-11.1-38.3.4-5.7,1.9-11.9,7.5-14.9,12.4-6.8,23.9,6.2,29.6,16,6,11.3,15.6,23.7,29.9,21.8,9.3-4.1,17.4-11,27.6-13.1,7.2-2.1,15.4.2,20.7,5.5,10.3,9.9,6.4,26.4-3.1,35.4-10.7,9.7-26.6,13.7-40.4,13.9h0Z"/>
    </g>
  </g>
  <g class="st12">
    <g>
      <path class="st2" d="M2359.6,1263.3c6,16.1,6.5,35.1-1.2,50.8-3.9,8-9.5,15-16.8,20.2-7.3,5.2-16.3,9-25.4,9s-2.6,0-3.9-.2c-6.5-.8-12.4-3.7-17.1-8.1-3.3-3.1-5.6-6.9-7.6-10.9-12.1,4.8-26.4,4-37.4-3.2-6.1-4-11.4-9.4-14.2-16.2-1.1.7-2.2,1.4-3.3,2.1-5,3-10.4,4.8-16.1,6-10.6,2.1-21.9,0-31.1-5.6-8.7-5.3-16.2-13.7-19.7-23.3-.8-2.1-1.4-4.2-1.8-6.3,0,0-.1,0-.2,0-2.9,1.3-5.7,2.4-8.7,3.4-2,.7-3.9,1.1-6,1.5-4.1.7-8.2.6-12.2-.1-1.9.6-3.8,1-5.8,1.2-4.1.4-7.9,0-11.9-.9-6.4-1.4-12.2-5.8-16.2-10.8-2.3-2.9-3.9-6.3-4.7-9.9-5.8-2.9-9.6-9.4-8.6-16.1.6-4.1,1.5-8.1,2.9-11.9,1.6-4.3,4.4-7.9,7.3-11.3,5.5-6.2,13.7-10.4,21.7-12.4,4.3-1.1,8.8-1.6,13.2-1.3,5,.3,9.7,1.4,14.4,3.2,1.3.5,2.6,1,3.8,1.6.5-2.2,1-4.4,1.5-6.6,2.8-11.8,5.7-23.7,11.3-34.6,8.2-15.9,22.8-29.5,40.7-33.2,9.8-2,19.8-1.9,29.4.9,9,2.6,17.1,7.6,23.7,14.1,8.3,8.2,13.5,18.9,16.9,29.9.9,2.8,1.5,5.6,2.1,8.4.3,0,.6-.2.8-.3,3-1,6.3-1.6,9.5-1.8,3-.2,5.6-.2,8.6,0,2.2.2,4.3.7,6.5,1.1,3.8.8,7.5,2.6,10.9,4.5,3.6,1.9,6.8,4.7,9.7,7.5,5.2,5.2,9.2,11.9,11.8,18.8,1.9,5.2,3.1,10.7,3.5,16.2,1.5.9,3,1.9,4.4,3,7,5.4,12.1,13.4,15.2,21.7h0Z"/>
      <path class="st2" d="M2085.3,1252.3c6.3,10.8,2.7,25.7-8.4,31.9-3.5,2-7.3,3.5-11.3,4.1-2.4.3-4.8.4-7.2.3-1.9,0-3.8-.2-5.8-.4h0c-.1,0-.2.1-.4.2-2.9,1.3-5.9,2-9,2.5-5.4,1-11.2,0-16.4-1.6-2-.6-3.9-1.3-5.9-2.1-1.4,1-2.9,1.9-4.2,2.8-3.6,2.4-7.6,4.2-11.7,5.6-3.7,1.3-7.6,1.8-11.4,1.8s-2.6,0-3.8-.2c-5.3-.5-10.1-2.3-14.8-4.7-4.3-2.2-8.1-5.8-11.1-9.6-4-5.1-5.9-11.4-6.2-17.8-.5-9.6,4.1-19.1,10.8-25.7,3.6-3.5,8-6.3,12.7-8,2.7-.9,5.4-1.6,8.1-2.2,0-.1,0-.2.2-.4,1.9-4.7,4.8-8.8,8.6-12.2,3.9-3.4,8-6.4,12.8-8.5,5.2-2.3,11.2-3,16.7-2.1,6,1,11.5,3.8,15.7,8.2,4.1,4.1,6.5,9.6,8.3,15,1.5,4.3,2.1,8.8,2.4,13.4.6,0,1.1,0,1.7,0,0,0,0,0,.1,0h.2c4.6-2.3,10.4-2.4,15.3-1.1,5.8,1.6,10.9,5.5,13.9,10.7h0ZM2001.8,1270.9s0,0,0,0c-.2-.4-.4-.8-.7-1.3.2.4.4.8.6,1.2Z"/>
      <path class="st2" d="M1047.4,1202.3c1.3,3.9,1.8,8.2,1.4,12.3-.2,2.6-1,5-1.8,7.5-.8,2.6-1.2,5.3-2.1,7.8-1.9,5.5-4.9,10.7-9.7,14-5.2,3.6-11.4,4.6-17.5,4.5-3.1,0-6.1-.5-9.1-1.2-1.5-.4-3.1-1-4.5-1.6-.2,0-.4-.2-.6-.3-1.2.6-2.5,1.2-3.8,1.7-3.2,1.4-6.7,2.1-10.2,2.1s-3-.1-4.6-.4c-4.9-1-9.2-3.2-13.2-6.1-1.7-1.2-3.3-2.7-4.8-4.2-2-2-3.5-4.4-4.7-6.9-1.1-2.3-1.6-5.1-1.6-7.6,0-2.5.3-4.9,1.1-7.3.9-2.6,2.1-4.9,3.7-7.1,1.7-2.4,4.1-4.2,6.5-5.8.4-2.3,1.3-4.5,2.4-6.5,1.2-2.3,3-4.3,5.1-5.8,2.1-1.4,4.5-2.1,7-2.6,2.8-.5,6-.3,8.7.4,1.1.3,2.1.6,3.1,1.1,3.5-2.3,7.1-4.5,10.9-6.2,3.5-1.5,7.2-2.2,11-2.2,4.1,0,8.1,1.3,11.6,3.2,6.9,3.6,13.2,9.8,15.7,17.3h0Z"/>
      <path class="st2" d="M986.9,1257.9c.9,6.4-3.8,12.7-10.2,13.5-2.3.3-4.6.6-6.9.7-1.2,0-2.3.2-3.5.2-1,0-2,0-3-.2-2.6,1-5.4,1.7-8.1,2.3-2.4.5-4.8.8-7.3.9-.4,0-.9,0-1.3,0-1.6,0-3.2-.2-4.8-.3-3.4-.4-6.7-1.1-9.7-2.8-2.1-1.1-3.9-3.1-5.1-5.1-1.4-2.2-2.3-4.8-2.5-7.5-.5-5.4,1.8-11,5-15.2,1.6-2.1,4-3.9,6.4-5,2.5-1.1,5.5-1.9,8.3-1.4,1.2.2,2.3.5,3.4.9,1,.4,2,1.1,2.9,1.7,1,.8,2,1.9,2.7,3,.8,1.4,1.4,2.8,1.8,4.3.2.7.3,1.3.3,2,.7-.7,1.5-1.3,2.3-1.8,2.9-1.7,6.2-2,9.4-1.2.4,0,.8.2,1.1.4,2.3.1,4.6.2,6.9.2,5.9,0,11.1,4.5,11.9,10.4h0Z"/>
      <path class="st2" d="M1301.3,1248.6c.8,4.2,0,8.6-1.2,12.7-1.2,3.7-3.4,6.8-6.8,8.8-2.3,1.3-4.9,2-7.5,2s-2.6-.2-3.9-.5c-4.3-1.2-7.8-4.4-9.6-8.4-.8,0-1.6,0-2.3-.3-2.9-.7-5.2-2.7-7-4.9-2.3-2.7-3-6.4-2.9-9.9.1-3.8,1-7.6,3.3-10.7,2.4-3.3,6-5.6,10-6.3,1.8-.3,3.4-.3,5.2,0,1.6.2,3.4.4,5,.9,3.1.9,6.3,2.2,9.1,3.9,1.9,1.2,3.9,2.8,5.2,4.6.9,1.2,1.7,2.4,2.3,3.8.6,1.4,1,2.9,1.2,4.4h0Z"/>
      <path class="st2" d="M481.1,1290.7c.4,5.3-.8,10.7-2.6,15.6-1.5,4.1-3.8,7.9-6.4,11.4-3.5,4.7-8.2,8.4-13.5,11-4.6,2.2-9.9,3.3-15.1,2.9-.8.4-1.6.7-2.4,1-4.6,1.9-9.6,3.1-14.5,3.7-2.5.3-5,.4-7.5.4-6.3,0-12.5-.8-18.7-1.9-8.4-1.6-16.6-3.4-24.5-6.7-1.5-.6-3-1.3-4.4-2.1-3.7,1-7.6,1.5-11.5,1.4-3.7,0-7.5-.6-11.1-1.8-3.8-1.3-7.3-3.1-10.6-5.4-5.5-3.9-10.3-9.6-12.6-16-.6-1.6-1.1-3-1.4-4.7-.5-2.6-.8-4.9-.9-7.5,0-.5,0-1.1,0-1.6-2.4.9-4.9,1.6-7.4,2-3.5.6-7,.8-10.5.8s-2.9,0-4.3,0c-3.9-.1-7.7-.5-11.6-1.4-5-1.1-9.7-3.5-13.9-6.4-1.8-1.2-3.4-2.6-4.9-4.1-.5,0-1,0-1.6,0-3.4,0-6.8-.6-10.2-1.3-5.1-1.1-9.8-3.2-14.4-5.6-4.8-2.5-9.1-6.2-12.4-10.6-1.5,1-3.3,1.7-5.3,1.7s-2.9-.3-4.2-1c-3.5-1.5-6.1-4.9-7.7-8.2-2-4.1-2.5-8.8-2.3-13.3.4-8.9,3.9-17.7,10.9-23.5,2.9-2.4,6.6-3.9,10.4-4.6,0-1.7.1-3.5.3-5.2.7-8.8,4.4-17.1,9.4-24.3,5.1-7.3,12.6-12.7,20.6-16.4,8.2-3.8,17.6-5.2,26.5-4,9.4,1.3,18.3,6.2,24.6,13.2,6,6.6,10.6,15,12.5,23.8.9,4.1,1.2,8.2,1.2,12.3.3,1.6.6,3.2.9,4.9.6,4.1,1,8.3.9,12.4,0,1.5-.1,2.9-.3,4.2,2.8,3.1,5.2,6.2,7.6,9.7,2,3,3.2,6.4,4.1,9.8,1.7-1.1,3.4-2.1,5.2-2.9.2-.8.4-1.6.7-2.3,2.7-7.6,8.8-13.4,16.1-16.6,3.6-1.6,7.9-2.1,11.8-2,4.8.2,9.5,1.7,13.7,4,7.1,3.8,12.6,10.2,17.1,16.7.9,1.3,1.7,2.6,2.5,3.9,1.1-.4,2.2-.7,3.3-1,4.1-1.2,8.5-2.1,12.8-2.5,4.7-.5,9.4-.4,14.1,0,5,.4,9.9,1.8,14.5,3.5,4.2,1.5,8.2,3.9,11.7,6.6,4.2,3.2,7.7,7.3,10.4,11.9,1.4,2.4,2.5,5,3.3,7.7.9,2.9,1.3,5.8,1.5,8.8h0Z"/>
      <path class="st2" d="M298.9,1313c2.2,8.8.4,17.9-2.9,26.2-1.3,3.2-2.7,6.2-4.3,9.2-1.2,2.3-2.6,4.6-3.8,6.9-.6,1.1-1.1,2.2-1.7,3.4-2.1,4.2-5.1,8.1-8.5,11.3-3.9,3.7-8.4,6.7-13.4,8.5-3,1.1-5.8,1.8-8.9,2.3-2.1.4-4.3.5-6.5.5s-1.4,0-2.1,0c-5.8-.1-11.7-1.2-17.2-2.9-3.5-1.1-6.9-2.4-10.1-4.2-2.2-1.2-4.2-2.7-6-4.4-5.8.7-11.8.5-17.4-.4-4.1-.7-8.2-1.6-12-3.3-4.8-2.2-9.3-5.3-12.5-9.5-6.2-8-8.7-18.4-6.9-28.4,1.6-8.7,5.7-16.7,12.1-22.8,6.7-6.3,15.1-10.1,24.1-11.6,1-.2,2.1-.3,3.1-.4,1.7-3.1,4.2-5.8,7.2-7.6,6.4-3.9,14.4-4.6,21.5-2.5,3.2,1,6.3,2.5,9.1,4.3.3.2.5.3.8.5,4.2-1.3,8.5-2,12.9-2.3,9.2-.6,18.4,1.5,26.5,5.9,8.1,4.4,14.8,12.2,17,21.2h0Z"/>
    </g>
  </g>
  <g class="st11">
    <g>
      <path class="st31" d="M158.3,1124.7c.1,0,.3,0,.4,0h.4c-.3,0-.6,0-.8,0h0Z"/>
      <path class="st31" d="M158,1124.6c.1,0,.2,0,.3,0-.1,0-.2,0-.3,0Z"/>
      <path class="st31" d="M199.4,1140.6h.8c-.3,0-.6,0-.8,0Z"/>
      <path class="st31" d="M1522.7,1248.7c-.2,0-.4.1-.5.2.2,0,.4-.1.5-.2Z"/>
      <path class="st31" d="M1523.1,1248.6c0,0-.2,0-.3,0,0,0,0,0-.1,0,.1,0,.3,0,.4-.1h0Z"/>
      <path class="st4" d="M1977.2,1195.4c1,3.8-.1,7.5-2.7,10.3-2.1,2.3-4.6,4.3-7.5,5.5-2.4,1-5.1,1.6-7.6,2.1-4.1.7-8.3.8-12.4.9-6.2,0-12.4.2-18.6.4,0,1.2,0,2.4,0,3.7.2,6.6.4,13.1.4,19.7,0,3.5,0,7-.3,10.4-.2,3.5-.8,6.9-1.4,10.4-.4,2.1-1.2,4-2.7,5.5s-4.2,2.8-6.8,2.8-5-1-6.8-2.8-2.9-4.3-2.8-6.8c.1-2.7.2-5.4.3-8.2.2-2.8.3-5.5.5-8.3.3-5.2.5-10.4.6-15.6,0-3.1.2-6.2.2-9.3-3.8.4-7.6.8-11.3,1.1-4.2.4-8.5.8-12.7,1.1-1.9.2-3.8.4-5.7.6-1,.1-2,.2-3,.4-.9.8-2.2,1.3-3.5,1.3s-3.2-.8-4.3-2.1c-1.5-1.3-2.1-3.5-1.6-5.4.4-1.2,1-2.3,2-3.1.9-.7,1.8-1.2,2.8-1.6,1.2-.6,2.5-1.1,3.8-1.6,1.5-.5,2.9-1.2,4.4-1.6,1.5-.4,3-.9,4.4-1.3,5.2-1.5,10.5-2.8,15.7-4.2,3.1-.8,6.2-1.7,9.2-2.6v-5.2c0-1.6.1-3.3.1-4.9-2.5,0-4.9,0-7.4,0-5.4,0-10.7-.3-16.1,0-1.3.2-2.6.3-4,.5-1.3.8-2.8,1.2-4.5,1.2s-2.4-.3-3.6-.7c-4.7-1.7-6.7-7.5-4.8-11.9,1-2.3,2.8-3.9,4.9-4.8,0,0,0,0,0,0,1.1-.4,2.2-.7,3.4-.7,1.8-.5,3.5-1,5.3-1.4,1.2-.2,2.3-.5,3.5-.7-.3-.3-.6-.7-.8-1.1-1-1.7-1.2-4.1-.4-5.9,0-.4.2-.7.4-1,.6-1.1,1.2-2.2,1.9-3.2,1.5-2.2,3.6-4.3,5.6-6,3.3-2.8,7.2-4.8,11.2-6.5,1.8-.8,3.5-1.5,5.3-2.3,0-1.3,0-2.7-.1-4-5.9.8-11.7,1.7-17.6,2.4-.8.2-1.6.3-2.4.3-5.3,0-9.8-4.5-9.8-9.8s4.5-9.8,9.8-9.8,1.4,0,2,.2c1.1-.2,2.1-.3,3.1-.5,4.7-1,9.3-2.2,13.9-3.3h0c0-.4,0-.8,0-1.1-1.6-.2-3.2-.3-4.8-.6-4.9-.8-8.5-5.3-7.9-10.3.3-2.4,1.6-4.6,3.5-6,2.2-1.7,5-2.2,7.6-1.7-.3-3.4-.8-6.8-1.4-10.2,0-.4-.2-.8-.3-1.2-.8-1.3-1.1-3-.6-4.6.6-2.7,3.5-4.4,6.1-4,3.1.4,4.8,2.8,6,5.5,1.4,3.4,2.1,7.1,2.8,10.7.3,1.7.6,3.3.9,5,3.9,1,6.8,4.8,6.8,8.9s-.7,3.9-1.8,5.4c1.1-.2,2.2-.5,3.3-.7,2.5-.5,4.9-1.1,7.4-1.3,2.6-.2,5.2-.2,7.7-.2,5.2,0,9.8,4.1,10.5,9.2.3,2.3-.2,4.8-1.3,6.8-1.4,2.5-3.7,4-6.3,4.9-.5.2-.9.3-1.4.5-1.6.6-3.2,1.1-4.9,1.5,1.4,0,2.8.2,4.2.3,2.1.2,4.2,1.4,5.7,2.8s2.9,4.4,2.9,7.1c0,4.8-3.7,9.4-8.6,9.9-3.4.3-6.8.9-10.3,1.3-2.8.3-5.5.6-8.3,1,.1,2.1.2,4.1.3,6.2,1.8-.2,3.6-.5,5.3-.7,3.1-.3,6.3-.7,9.5-.6,3.7,0,7.4.5,11.1.8,4.3.3,7.8,4.3,8.4,8.4.6,4.7-2.4,9.7-7.1,10.8-2.7.6-5.3,1.5-8,2.1-3.1.8-6.1,1.3-9.2,1.7-3,.4-6,.6-9,.8,0,2.1.1,4.2.2,6.3,1.8-.4,3.6-.8,5.4-1.1,5.4-1.1,10.8-2,16.2-2.6,2.6-.3,5.2-.6,7.7-1,1.8-.3,3.6-.6,5.4-.6,1.1,0,2.2,0,3.4.2,1.3.3,2.6.5,3.9.9,3.6,1,6.4,3.8,7.4,7.4h0ZM1910.3,1165c0-1.6,0-3.1,0-4.7-1.5.4-2.9.9-4.3,1.3-1.3.5-2.6,1-3.8,1.6-.8.4-1.6.9-2.4,1.4-.6.4-1.1.8-1.7,1.3,0,.2-.1.3-.2.5,3.4-.4,6.8-.6,10.2-1.1.7,0,1.5-.2,2.2-.3h0Z"/>
      <path class="st4" d="M1555.1,1270.1c.5,3.4-1.7,6.7-5,7.6-1.1.3-2.2.6-3.2.9-1.4.4-2.9.7-4.3,1-2.1.4-4.3.6-6.5.8-.5,0-1.1.1-1.6.2v2.6c2.3-.4,4.6-.8,6.9-1,2.5-.3,5,1.2,5.7,3.7.2.7.2,1.5.1,2.2.4.1.8.2,1.2.4,1.5.5,2.9,1.3,3.9,2.6,1,1.3,1.5,2.9,1.5,4.5,0,3.8-2.8,6.7-6.4,7.3-1.3.2-2.6.4-3.9.6-1.2.3-2.3.7-3.5,1-2.7,1-5.5,2-8.2,2.9-1.5,1.8-3.8,2.9-6.1,2.9s-1.6-.1-2.3-.4c0,0-.2,0-.2,0-3.1.8-6.3,1.3-9.4,1.8-1.6.2-3.2.4-4.8.5-2,.2-3.9.2-5.9,0-.3,0-.6,0-.8,0-.6.1-1.1.2-1.7.2-1,0-2-.2-2.9-.6-2.8-1.2-4.7-4.1-4.7-7.1s1.4-5.1,3.5-6.5c-1-.6-1.7-1.5-2.1-2.7-.7-2.7,1.1-5.4,3.8-5.8.2,0,.5,0,.7-.1,3.4-.8,6.9-1.4,10.4-1.9,2-.3,4-.5,6-.8,1-.1,2-.3,3.1-.5.1-1.1.2-2.1.4-3.2-3.1.6-6.1,1.2-9.2,1.8,0,0-.1,0-.2,0-.7.2-1.4.3-2.2.3-1.4,0-2.8-.3-4-1.1-2.1-1.2-3.6-3.4-3.9-5.8-.7-4.9,3.6-9.6,8.6-9.1l1-.2c3-.7,6-1.5,9-2.4,1.2-.3,2.4-.7,3.6-1,.1-.8.3-1.6.4-2.4-.3,0-.7,0-1,0-.9,0-1.8-.2-2.7-.4-.8-.1-1.4-.3-2.1-.6-1.2-.4-2-1-2.9-1.8-2.4-2.2-1.9-6.3.5-8.2,1.4-1.1,3-1.6,4.6-2.2,1.3-.5,2.7-.9,4-1.4.2,0,.4-.2.7-.2.3-.1.6-.2,1-.3,0-.8.2-1.7.2-2.5.3-3,3.3-5.2,6.3-4.8,1.4.2,2.8,1,3.7,2.1s1.2,2.5,1.1,3.8c1.1.1,2.2.3,3.4.5,1.7.3,3.2,1,4.5,2.2s2,2.8,2.2,4.5c.5,3.7-1.9,7.8-5.7,8.7-.2,0-.4,0-.6.1,3.5,0,6.8.7,10.3,1.1,3,.4,5.5,2.9,5.9,5.9h0Z"/>
      <path class="st4" d="M627.8,1202.9c1.8,4.3-.3,9.3-4.5,11.1-4.5,1.9-9.1,3.5-13.8,4.7-4.4,1.1-8.9,1.5-13.4,1.5h-.9c0,1.3.2,2.7.2,4.1,0,2.3-.1,4.5-.3,6.7-.1,1.7-1.1,3.4-2.2,4.5-1.5,1.5-3.5,2.3-5.6,2.3-4.4,0-7.8-3.6-7.9-7.9,0-3.5,0-7,0-10.4-1.8,0-3.5-.2-5.3-.2-1.2,0-2.5-.1-3.7-.1-1.8,0-3.7,0-5.5-.2-1.8-.2-3.5-1.5-4.2-3.2-.8-1.9-.4-4.4,1.1-5.8.7-.6,1.3-1.2,2.2-1.6.8-.3,1.5-.7,2.3-.8.2,0,.4,0,.6-.1,0,0-.1,0-.2,0-1.1.2-2.3.4-3.4.4s-.3,0-.4,0c-1.5,0-2.9-1-3.3-2.5-.4-1.6.3-3.1,1.7-3.9,1.1-.6,2.5-1,3.7-1.4,1.7-.6,3.4-1.2,5.1-1.8,1.8-.6,3.5-1.2,5.3-1.6,1.1-.3,2.3-.5,3.4-.7,0-1.1-.1-2.2-.2-3.3-1.1,0-2.2,0-3.3.1-2.1,0-4.2.2-6.3.2-.4,0-.8,0-1.1,0-3.9,0-7.6-3.3-7.6-7.5s3.8-7.7,7.8-7.5c3.2-.7,6.5-1.3,9.8-1.9,0-.8,0-1.6,0-2.5-.8.2-1.6.3-2.4.3-1.2,0-2.3-.2-3.3-.7-1.8-.9-3.4-1.8-4.9-3.1-1.7-1.4-3.2-3.2-3.8-5.4-.6-2.1-.3-4.4.8-6.3,1.7-3.1,5.4-4.2,8.5-3.3,0,0,0,0,0,0,.3,0,.6.2.8.2,1.2.3,2.4.6,3.7.9.3-2.6,2.5-4.6,5.1-4.6s.7,0,1,0c1.3-3,4.4-5.1,7.8-5.1s8.5,3.9,8.5,8.5-3.9,8.5-8.5,8.5-2.2-.2-3.3-.7c0,.2,0,.4,0,.6.4,2.7.8,5.3,1.2,8,.2,1,.3,2,.5,2.9,1.1,0,2.3-.2,3.4-.2,1.6,0,3.2,0,4.8,0,1.9.2,3.7.5,5.6.9,3.4.8,5.7,4.2,5.7,7.5s-.6,3.4-1.6,4.8c-1.3,1.7-3.1,2.6-5.1,3-1.6.3-3.1.6-4.7.9-1.3.2-2.6.3-3.9.4-.5,0-1,0-1.5,0,0,.4.1.8.2,1.2,1.7-.3,3.5-.6,5.2-.7,2.1-.2,4.1-.4,6.2-.5,2.1,0,4.2,0,6.4,0,3,0,5.5,2.2,5.9,5.2,0,.5,0,.9,0,1.4.1,0,.2,0,.4-.1,2.2-.8,4.4-.9,6.6,0,2,.8,3.7,2.5,4.5,4.5h0Z"/>
      <path class="st4" d="M690.2,1232.8c1.8,1.8,2.9,4.3,2.9,6.9,0,5.2-4.3,9.8-9.6,9.8h-.2c-4.5-.1-8.9-.3-13.3-.5,0,.2-.1.4-.2.6.7,1.4,1.2,2.9,1.2,4.6,0,5.3-4.5,9.8-9.8,9.8s-9.8-4.5-9.8-9.8.9-4.6,2.3-6.3c-2.2-.2-4.4-.5-6.6-.9-2.1-.4-4.3-1.1-6.1-2.3-.6,4.1-4.2,7.4-8.4,7.4s-8.5-3.9-8.5-8.5,3.9-8.5,8.5-8.5,2.2.2,3.2.6c-.4-2.8.9-5.9,2.8-7.8.7-.7,1.5-1.3,2.3-1.7-2.6-.9-4.5-3.4-4.5-6.2s.3-2.1.8-3.1c-2.8-2.5-4.6-6.1-4.6-10.1s2.7-9.2,6.7-11.6c-.4-1.2-.6-2.5-.6-3.8,0-7.1,6-13.1,13.1-13.1s5.3.9,7.4,2.3c1.2-.7,2.5-1,3.9-1,2.1,0,4,.8,5.5,2.1.4,0,.8,0,1.1,0,4.8,0,8.8,4,8.8,8.8s-4,8.8-8.8,8.8-4.5-.9-6-2.4c-1,2.3-2.7,4.2-4.8,5.6.2.6.4,1.1.5,1.7.2,0,.3-.1.5-.2,2.6-.9,5.2-1.4,8-1.8,2.8-.3,5.5,1.6,5.9,4.5.2,1.4-.2,2.8-1,3.9-.9,1.1-2,1.7-3.4,1.9,0,.2,0,.4,0,.7,0,1,0,1.9,0,2.9,1.4.4,2.7,1.3,3.7,2.3,1.7,1.7,2.7,4,2.7,6.4s-.5,3.4-1.4,4.8c3.1.1,6.1.3,9.2.4,2.6.1,5,1,6.9,2.9h0ZM659.4,1213.1c0-.2,0-.5,0-.7-.3,0-.7,0-1,0-.5,1-1.1,2-1.8,2.9.9,0,1.9,0,2.8,0,0-.7,0-1.4,0-2.1h0Z"/>
      <path class="st4" d="M662.3,1156.7c4.2,0,7.7,3.5,7.7,7.7s-3.5,7.7-7.7,7.7-7.7-3.5-7.7-7.7,3.5-7.7,7.7-7.7Z"/>
      <path class="st4" d="M579,1130.7c4.6,0,8.5,3.9,8.5,8.5s-3.9,8.5-8.5,8.5-8.5-3.9-8.5-8.5,3.9-8.5,8.5-8.5Z"/>
      <path class="st4" d="M252.4,1220.8c.3,2.3-.3,4.7-1.7,6.5-1.3,1.7-3.5,3.1-5.7,3.3-5.2.4-10.4,1.1-15.7,1.4-5.5.4-11.1.4-16.6.4h-.4c-5.1,0-10.2-.3-15.4-.6-.3,0-.7,0-1,0,0,2.2,0,4.4,0,6.6,0,3.7-.2,7.3-.7,11-.6,3.8-3.8,6.7-7.7,6.7s-7.4-2.9-7.7-6.7c-.2-2.1-.3-4.2-.2-6.3,0-2,.3-4,.5-6,.2-2.1.4-4.2.5-6.3-5.9-.4-11.9-.6-17.9-1.2-3-.3-5.9-.7-8.9-1.3-1.6-.3-3.1-.7-4.7-1.1-1-.3-2-.6-3-1-.7-.3-1.4-.6-2-1-.8-.4-1.4-1.1-2.1-1.7-1.2-1.2-1.8-3.1-1.3-4.8.3-1,.8-1.7,1.6-2.4.6-.5,1.3-.8,2-1-3.9-1.3-7.8-2.8-10.7-5.8-1.7-1.8-2.5-4.1-2.2-6.5.4-2.8,2.2-4.9,4.7-6.1,2.7-1.3,5.8-1.7,8.7-2.1,2.5-.3,5-.6,7.5-.9.5,0,1-.1,1.4-.2-.2-2.5.4-5.1,1.6-7.2-.1,0-.2,0-.3,0-1.6-.1-3.1-.4-4.6-.6-.8,0-1.5-.3-2.2-.4-.5,0-1-.2-1.4-.3-1.9.2-3.8-.3-5.3-1.4-1.5-1.2-2.3-2.8-2.7-4.7,0-.2,0-.4-.1-.6-.5-2.5.8-5.1,2.7-6.7,2.5-2,5.6-2.4,8.6-2.8,1.9-.2,3.9-.2,5.8-.2,3.4,0,6.8,0,10.3,0h.6c2.5-.4,5-.7,7.5-.9,1.9-.2,3.9-.3,5.8-.4.6,0,1.2,0,1.7-.1,0-1.8,0-3.7,0-5.5,0-1.6,0-3.1,0-4.7-3.1,1.5-6.2,3-9.4,4.4-3.4,1.5-6.8,2.9-10.3,4.1-1.9.7-3.9,1.3-5.8,1.8-2.6.7-5.2,1.1-7.9,1.5-.5,0-1.1.1-1.6.1-5.4,0-10.3-3.6-11.8-8.9-.9-3.1-.4-6.6,1.2-9.3,1.5-2.6,4.2-4.9,7.2-5.6,1.6-.3,3.2-.7,4.8-.8.5,0,1.1,0,1.6,0,1.3,0,2.6.2,3.9.3,1.8.2,3.6.4,5.5.5.3,0,.5,0,.8,0h0c1.7,0,3.4.1,5.2.1.9-.3,1.7-.6,2.6-.8l4.1-1.2c1.4-.4,2.9-.6,4.4-.9,1.7-.4,3.5-.6,5.2-.8,0-1,0-2.1,0-3.1-5.4-.8-10.7-1.8-16-2.9-1.1-.2-2.1-.4-3.2-.5-.5,0-1,0-1.5,0s0,0-.1,0h0,0,0c-.8.2-1.6.2-2.4,0-1.8-.5-2.9-1.9-3.2-3.7-.3-1.4.4-3,1.3-4,1.5-1.5,3.5-2.3,5.5-2.7-1.1,0-2.1,0-3.2-.2-2.2-.2-4.3-.5-6.1-1.9-2.8-2.1-4-6.2-2.5-9.4.9-1.9,2.3-3.4,4.2-4.2,1.2-.5,2.4-.7,3.7-.9.7-.1,1.4-.3,2.1-.4-1.4,0-2.8,0-4.2,0-.9,0-1.9,0-2.8,0h-.4c-.9,0-1.7-.2-2.4-.7,0,0,0,0,0,0-.2-.1-.4-.3-.5-.4-1.2-1.3,0-3.3.9-4.3,1.1-1.2,2.4-2,3.9-2.8,1.5-.8,3.2-1.3,4.8-1.9,1.4-.5,2.9-.9,4.3-1.4,3.3-1.2,6.6-2.5,9.8-3.9,2.6-1.1,5.3-2,7.9-2.9v-2c-.5-.2-.9-.3-1.4-.5-4.7-1.7-9.7-3.7-13.4-7.3-2.7-2.7-3.5-6.8-2-10.3.6-1.5,1.6-2.8,2.9-3.8,1.6-1.2,3.4-1.8,5.4-1.9,2.8-.3,5.6,0,8.5.4,0-1.1,0-2.1,0-3.2-1.6-.7-3.2-1.6-4.7-2.5-1.6-1-3.3-2.3-4.3-4-.6-1.1-.7-2.2-.5-3.4,0,0,0,0,0,.1,0-.2,0-.3,0-.4v-.2c0-1.1.9-2,2-2s1.9.8,2,1.7c.5.1,1,.3,1.5.4,1.3.2,2.7.4,4,.6v-3c.1-1.7.3-3.5.3-5.2,0-2.2,1.9-4.1,4.1-4.1s4.1,1.9,4.1,4.1c0,2.3.1,4.6.2,6.8,0,.7,0,1.3,0,2,.1,0,.2,0,.3,0,2.4,0,4.7.2,7.1,0,.5,0,1.1,0,1.6-.1,1.9-.2,3.8.2,5.3,1.4,1.5,1.1,2.5,2.8,2.7,4.7.5,3.7-2.2,7.7-6.1,8-.8,0-1.6.1-2.4.2,3.7.1,7.4.3,11.1.6,2.4.1,4.8.2,7.2,0,5.1-.2,9.5,4,10.2,8.9.7,4.9-2.5,10.1-7.4,11.3-3,.7-6.1,1.6-9.1,2.2.2.4.3.8.5,1.2.9,3.1-.2,6.4-2.6,8.5,1-.1,1.9-.2,2.9-.3,2.1-.2,4.3-.5,6.4-.7.8,0,1.6-.1,2.4-.2,2.1-.2,4.2,0,6.3,0,4.8.4,8.8,4.8,9.4,9.4.8,5.5-2.8,10.6-8,12.1-4.2,1.3-8.5,1.4-12.9,1.7-3,.2-6.1.3-9.1.5-4.5.3-8.9.7-13.4,1.2,0,.6,0,1.3,0,1.9,6.1,0,12.1-.2,18.2-.6,9.8-.7,19.6-1.7,29.3-3,5.4-.8,10.6,3.2,11.3,8.6.6,4.1-1.6,8.3-5.2,10.2.2.6.4,1.2.4,1.8.6,4.3-2.2,9-6.6,10-2.8.6-5.5,1.7-8.2,2.4-3.1.8-6.2,1.4-9.4,1.8-3,.4-6,.5-8.9.6-2.5.1-4.9,0-7.4,0-4.1,0-8.2,0-12.4-.1.1,3.1.2,6.2.3,9.3,1.3-.2,2.7-.5,4-.7,4.9-1,9.9-2.1,14.8-3.3,2.7-.6,5.4-1.2,8.1-1.8,1.5-.3,3.1-.6,4.6-.8,2-.2,3.9-.2,5.8-.2,1.8,0,3.4.4,4.9,1.3,1.8,1.1,3.3,2.7,4.1,4.7,1.7,3.9.5,9.1-3.1,11.6-.9.6-1.7,1.2-2.6,1.8,2.3,1,4.2,2.8,5.5,4.9,1.4,2.3,1.9,5,1.5,7.7,0,.2,0,.4,0,.5.7.2,1.4.3,2.1.5.8.1,1.6.3,2.3.4,4.6.7,8.1,4.6,8.1,9.2s-3.5,8.6-8.1,9.2c-.9.1-1.7.2-2.6.4-2.2.5-4.3,1.1-6.4,1.6-.2,0-.4,0-.6.1,2.3,0,4.6.2,6.9.2,4.3,0,8,3.2,8.6,7.5h0ZM196.1,1066.3c-.8,0-1.6-.2-2.4-.4-1-.2-2-.5-2.9-.9,0,.2,0,.5,0,.8,1.8.2,3.5.4,5.3.5h0ZM193.9,1140.1c-.2,0-.3,0-.5,0h0c.2,0,.3,0,.5,0h0ZM181.5,1124.8v-.7c-2.1.2-4.3.4-6.4.5,2.1,0,4.3.1,6.4.2h0Z"/>
    </g>
  </g>
</svg>