<svg width="80" height="40" viewBox="0 0 80 40" fill="none" xmlns="http://www.w3.org/2000/svg">
<circle cx="20" cy="20" r="20" fill="#D9D9D9"/>
<circle cx="60" cy="20" r="20" fill="#D9D9D9"/>
<rect x="20" width="40" height="40" fill="#D9D9D9"/>
<circle cx="60" cy="20" r="15" fill="#8E8E8E"/>
<path d="M17.6523 13.5977C16.832 14.9297 16.3594 16.5 16.3594 18.1797C16.3594 22.0078 18.8125 25.2656 22.2344 26.4492C21.75 26.5586 21.2461 26.6172 20.7266 26.6172C16.9453 26.6172 13.875 23.543 13.875 19.7422C13.875 17.0508 15.4141 14.7266 17.6562 13.5977H17.6523ZM20.0781 11.0195C15.5586 11.3516 12 15.1289 12 19.7422C12 24.5742 15.9062 28.4922 20.7305 28.4922C22.5977 28.4922 24.3242 27.9062 25.7461 26.9062C25.8203 26.8555 25.8906 26.8008 25.9609 26.75C26.1484 26.6094 26.3281 26.4609 26.5039 26.3047C26.6094 26.2109 26.7109 26.1172 26.8125 26.0195C27.0078 25.8281 27.0586 25.5312 26.9336 25.2891C26.8086 25.0469 26.5391 24.9102 26.2695 24.957C26.125 24.9805 25.9805 25.0039 25.8359 25.0195C25.6406 25.0391 25.4414 25.0547 25.2383 25.0586C25.1914 25.0586 25.1406 25.0586 25.0938 25.0586H25.082C21.3008 25.0508 18.2383 21.9766 18.2383 18.1836C18.2383 16.043 19.2109 14.1328 20.7422 12.8711C20.7812 12.8359 20.8242 12.8047 20.8672 12.7695C21.0234 12.6445 21.1875 12.5273 21.3555 12.418C21.4766 12.3398 21.6016 12.2617 21.7305 12.1914C21.9688 12.0547 22.0898 11.7812 22.0312 11.5156C21.9727 11.25 21.7461 11.0508 21.4727 11.0273C21.332 11.0156 21.1953 11.0078 21.0547 11.0039C20.9492 11 20.8398 11 20.7344 11C20.6055 11 20.4805 11.0039 20.3516 11.0078C20.2617 11.0117 20.1719 11.0156 20.082 11.0234L20.0781 11.0195Z" fill="white"/>
<path d="M59.973 23.6493C57.976 23.6493 56.3509 22.0242 56.3509 20.0272C56.3509 18.0302 57.9755 16.4051 59.973 16.4051C61.9705 16.4051 63.5951 18.0297 63.5951 20.0272C63.5951 22.0247 61.97 23.6493 59.973 23.6493ZM59.973 17.7451C58.7149 17.7451 57.6909 18.7691 57.6909 20.0272C57.6909 21.2853 58.7149 22.3093 59.973 22.3093C61.2312 22.3093 62.2551 21.2853 62.2551 20.0272C62.2551 18.7691 61.2312 17.7451 59.973 17.7451Z" fill="white"/>
<path d="M59.973 23.7978C57.8936 23.7978 56.2018 22.106 56.2018 20.0267C56.2018 17.9473 57.8936 16.2555 59.973 16.2555C62.0524 16.2555 63.7442 17.9473 63.7442 20.0267C63.7442 22.106 62.0524 23.7978 59.973 23.7978ZM59.973 16.5541C58.0579 16.5541 56.5 18.1121 56.5 20.0272C56.5 21.9423 58.0579 23.5002 59.973 23.5002C61.8881 23.5002 63.4461 21.9423 63.4461 20.0272C63.4461 18.1121 61.8881 16.5541 59.973 16.5541ZM59.973 22.4584C58.6325 22.4584 57.5418 21.3677 57.5418 20.0272C57.5418 18.6867 58.6325 17.596 59.973 17.596C61.3135 17.596 62.4042 18.6867 62.4042 20.0272C62.4042 21.3677 61.3135 22.4584 59.973 22.4584ZM59.973 17.8936C58.7967 17.8936 57.8394 18.8504 57.8394 20.0272C57.8394 21.204 58.7962 22.1608 59.973 22.1608C61.1498 22.1608 62.1066 21.204 62.1066 20.0272C62.1066 18.8504 61.1498 17.8936 59.973 17.8936Z" fill="white"/>
<path d="M60.0885 25.7715C60.1004 26.5494 60.1123 27.3278 60.1242 28.1057Z" fill="white"/>
<path d="M60.2519 25.7689L59.9267 25.7739L59.9626 28.1083L60.2878 28.1033L60.2519 25.7689Z" fill="white"/>
<path d="M60.1242 28.8375C59.7253 28.8375 59.399 28.5171 59.393 28.1171L59.3572 25.7829C59.3512 25.3785 59.6738 25.0462 60.0776 25.0397C60.0814 25.0397 60.0852 25.0397 60.089 25.0397C60.488 25.0397 60.8143 25.3601 60.8203 25.7601L60.856 28.0943C60.8625 28.4987 60.5395 28.831 60.1356 28.8375C60.1318 28.8375 60.128 28.8375 60.1242 28.8375Z" fill="white"/>
<path d="M60.1242 29.0001C59.6385 29.0001 59.2374 28.6049 59.2304 28.1192L59.1946 25.7851C59.1908 25.546 59.2802 25.32 59.4467 25.1487C59.6131 24.9774 59.8364 24.8809 60.0749 24.8771H60.089C60.5747 24.8771 60.9758 25.2723 60.9829 25.7574L61.0187 28.0916C61.0225 28.3306 60.933 28.5567 60.7666 28.728C60.6002 28.8993 60.3768 28.9958 60.1383 28.9995L60.1242 29.0001ZM60.089 25.2023H60.0798C59.928 25.2045 59.786 25.2663 59.6803 25.3753C59.5746 25.4842 59.5177 25.6284 59.5198 25.7802L59.5556 28.1143C59.5605 28.4233 59.8158 28.6749 60.1248 28.6749H60.134C60.2858 28.6727 60.4278 28.6109 60.5335 28.5019C60.6392 28.393 60.6961 28.2488 60.694 28.097L60.6582 25.7628C60.6533 25.4539 60.398 25.2023 60.089 25.2023Z" fill="white"/>
<path d="M55.9817 24.1437C55.4402 24.7026 54.8981 25.2609 54.3566 25.8198Z" fill="white"/>
<path d="M55.8656 24.0297L54.2403 25.7057L54.4737 25.9322L56.0991 24.2561L55.8656 24.0297Z" fill="white"/>
<path d="M54.3566 26.5516C54.1728 26.5516 53.9896 26.4827 53.8471 26.345C53.5571 26.0637 53.55 25.6002 53.8313 25.3102L55.4565 23.6341C55.7378 23.3441 56.2013 23.3371 56.4913 23.6184C56.7813 23.8997 56.7883 24.3632 56.507 24.6532L54.8819 26.3293C54.7382 26.4773 54.5474 26.5516 54.3566 26.5516Z" fill="white"/>
<path d="M54.3566 26.7142C54.123 26.7142 53.9018 26.6247 53.7343 26.4616C53.563 26.2952 53.4665 26.0724 53.4627 25.8333C53.4589 25.5943 53.5484 25.3682 53.7148 25.1969L55.3399 23.5208C55.6831 23.1669 56.2506 23.1582 56.6046 23.5013C56.9585 23.8445 56.9672 24.412 56.6241 24.766L54.999 26.4421C54.8288 26.6171 54.6011 26.7142 54.3566 26.7142ZM55.9817 23.575C55.8332 23.575 55.6847 23.6325 55.573 23.7474L53.9479 25.4235C53.8422 25.5325 53.7853 25.6767 53.7874 25.8284C53.7896 25.9802 53.8514 26.1222 53.9604 26.2285C54.0671 26.332 54.2075 26.3889 54.3566 26.3889C54.5057 26.3889 54.6569 26.3277 54.7653 26.216L56.3905 24.5399C56.6089 24.3144 56.6035 23.9534 56.378 23.735C56.2674 23.6282 56.1248 23.575 55.9817 23.575Z" fill="white"/>
<path d="M54.2287 20.0885C53.4508 20.1004 52.6724 20.1123 51.8945 20.1242Z" fill="white"/>
<path d="M54.2269 19.9256L51.8925 19.9615L51.8975 20.2867L54.2319 20.2508L54.2269 19.9256Z" fill="white"/>
<path d="M51.8945 20.856C51.4956 20.856 51.1692 20.5357 51.1633 20.1356C51.1573 19.7312 51.4798 19.3989 51.8837 19.3924L54.2178 19.3567C54.6206 19.3512 54.9545 19.6732 54.961 20.0771C54.967 20.4815 54.6444 20.8137 54.2406 20.8202L51.9064 20.856C51.9027 20.856 51.8983 20.856 51.8945 20.856Z" fill="white"/>
<path d="M51.8945 21.0186C51.4088 21.0186 51.0077 20.624 51.0001 20.1383C50.9925 19.645 51.3877 19.2379 51.8804 19.2304L54.2146 19.1946C54.7095 19.1875 55.115 19.5827 55.1226 20.0749C55.1301 20.5682 54.735 20.9753 54.2422 20.9829L51.8945 21.0186ZM54.2276 19.5193C54.2276 19.5193 54.2222 19.5193 54.2195 19.5193L51.8853 19.5551C51.5715 19.5599 51.3199 19.819 51.3248 20.1329C51.3297 20.4419 51.585 20.6934 51.8934 20.6934H51.9027L54.2368 20.6576C54.3886 20.6555 54.5306 20.5942 54.6369 20.4847C54.7426 20.3757 54.7995 20.2316 54.7973 20.0798C54.7924 19.7692 54.5382 19.5193 54.2276 19.5193Z" fill="white"/>
<path d="M55.8565 15.9817L54.1804 14.3566Z" fill="white"/>
<path d="M54.2938 14.2397L54.0674 14.4732L55.7434 16.0985L55.9698 15.865L54.2938 14.2397Z" fill="white"/>
<path d="M55.8565 16.7135C55.6728 16.7135 55.4895 16.6447 55.347 16.507L53.6709 14.8819C53.3809 14.6005 53.3738 14.1371 53.6552 13.847C53.9365 13.557 54.4 13.55 54.69 13.8313L56.3661 15.4565C56.6561 15.7378 56.6631 16.2013 56.3818 16.4913C56.2381 16.6393 56.0473 16.7135 55.8565 16.7135Z" fill="white"/>
<path d="M55.8565 16.8761C55.6229 16.8761 55.4017 16.7867 55.2337 16.6241L53.5576 14.9989C53.2036 14.6558 53.195 14.0883 53.5381 13.7343C53.8818 13.3803 54.4488 13.3717 54.8027 13.7148L56.4788 15.3399C56.8328 15.683 56.8415 16.2506 56.4983 16.6046C56.3281 16.7797 56.101 16.8761 55.8565 16.8761ZM54.181 13.7874C54.0325 13.7874 53.8839 13.8449 53.7723 13.9603C53.5538 14.1858 53.5592 14.5469 53.7847 14.7653L55.4608 16.3904C55.5676 16.494 55.7085 16.5509 55.8571 16.5509C56.0056 16.5509 56.1574 16.4896 56.2658 16.378C56.4842 16.1525 56.4788 15.7915 56.2533 15.573L54.5772 13.9479C54.4666 13.8411 54.3241 13.7874 54.181 13.7874Z" fill="white"/>
<path d="M59.9112 14.2287C59.8993 13.4508 59.8874 12.6724 59.8754 11.8945Z" fill="white"/>
<path d="M60.0383 11.8919L59.713 11.8969L59.7489 14.2313L60.0741 14.2263L60.0383 11.8919Z" fill="white"/>
<path d="M59.9112 14.9605C59.5122 14.9605 59.1859 14.6401 59.18 14.24L59.1442 11.9059C59.1382 11.5015 59.4607 11.1692 59.8646 11.1627C60.2668 11.1573 60.6013 11.4793 60.6078 11.8831L60.6435 14.2173C60.65 14.6217 60.327 14.954 59.9231 14.9605C59.9193 14.9605 59.915 14.9605 59.9112 14.9605Z" fill="white"/>
<path d="M59.9112 15.1231C59.4255 15.1231 59.0244 14.7279 59.0173 14.2422L58.9816 11.9081C58.9778 11.669 59.0672 11.443 59.2336 11.2717C59.4 11.1004 59.6228 11.0039 59.8619 11.0001C60.3552 10.993 60.7623 11.3882 60.7698 11.881L60.8056 14.2151C60.8094 14.4542 60.72 14.6802 60.5536 14.8515C60.3871 15.0228 60.1644 15.1193 59.9253 15.1231H59.9112ZM59.8749 11.3253C59.8749 11.3253 59.8695 11.3253 59.8668 11.3253C59.715 11.3275 59.573 11.3893 59.4673 11.4983C59.3615 11.6072 59.3046 11.7514 59.3068 11.9032L59.3426 14.2373C59.3475 14.5463 59.6028 14.7978 59.9112 14.7978H59.9204C60.0722 14.7957 60.2142 14.7339 60.3199 14.6249C60.4256 14.516 60.4826 14.3718 60.4804 14.22L60.4446 11.8858C60.4397 11.5752 60.185 11.3253 59.8749 11.3253Z" fill="white"/>
<path d="M64.0185 15.8565C64.56 15.2976 65.1021 14.7393 65.6436 14.1804Z" fill="white"/>
<path d="M65.5268 14.0664L63.9014 15.7425L64.1349 15.9689L65.7602 14.2928L65.5268 14.0664Z" fill="white"/>
<path d="M64.0185 16.5883C63.8347 16.5883 63.651 16.5195 63.5089 16.3818C63.2189 16.1004 63.2119 15.637 63.4932 15.347L65.1183 13.6709C65.3997 13.3809 65.8631 13.3738 66.1532 13.6552C66.4432 13.9365 66.4502 14.4 66.1689 14.69L64.5437 16.3661C64.4001 16.514 64.2093 16.5883 64.0185 16.5883Z" fill="white"/>
<path d="M64.0185 16.7509C63.7848 16.7509 63.5637 16.6615 63.3956 16.4983C63.2243 16.3319 63.1279 16.1091 63.1241 15.8701C63.1203 15.631 63.2097 15.405 63.3761 15.2337L65.0013 13.5576C65.1677 13.3863 65.3905 13.2898 65.6295 13.286C65.868 13.2817 66.0946 13.3722 66.2659 13.5381C66.4372 13.7045 66.5337 13.9273 66.5375 14.1663C66.5413 14.4054 66.4518 14.6314 66.2854 14.8027L64.6603 16.4788C64.4906 16.6539 64.263 16.7509 64.0185 16.7509ZM65.6436 13.6112C65.6409 13.6112 65.6376 13.6112 65.6344 13.6112C65.4826 13.6134 65.3406 13.6752 65.2343 13.7842L63.6092 15.4603C63.5035 15.5692 63.4466 15.7134 63.4488 15.8652C63.4509 16.017 63.5127 16.159 63.6217 16.2652C63.7285 16.3688 63.8689 16.4257 64.0179 16.4257C64.167 16.4257 64.3182 16.3644 64.4267 16.2528L66.0518 14.5767C66.1575 14.4677 66.2144 14.3235 66.2122 14.1717C66.2101 14.02 66.1483 13.8779 66.0393 13.7717C65.9325 13.6682 65.7927 13.6112 65.6436 13.6112Z" fill="white"/>
<path d="M65.7715 19.9112C66.5494 19.8993 67.3278 19.8873 68.1057 19.8754Z" fill="white"/>
<path d="M68.1039 19.7119L65.7694 19.7478L65.7744 20.073L68.1089 20.0372L68.1039 19.7119Z" fill="white"/>
<path d="M65.771 20.643C65.372 20.643 65.0457 20.3226 65.0397 19.9226C65.0332 19.5182 65.3563 19.1859 65.7602 19.1794L68.0943 19.1436C68.4987 19.1398 68.831 19.4602 68.8375 19.864C68.844 20.2684 68.5209 20.6007 68.1171 20.6072L65.7829 20.643C65.7791 20.643 65.7748 20.643 65.771 20.643Z" fill="white"/>
<path d="M65.771 20.8056C65.2853 20.8056 64.8842 20.4104 64.8771 19.9247C64.8733 19.6857 64.9628 19.4596 65.1292 19.2884C65.2956 19.1171 65.5184 19.0206 65.7574 19.0168L68.0916 18.981C68.0943 18.981 68.0976 18.981 68.1008 18.981C68.5903 18.981 68.9925 19.374 68.9996 19.8619C69.0034 20.1009 68.9139 20.327 68.7475 20.4983C68.5811 20.6696 68.3583 20.766 68.1192 20.7698L65.771 20.8056ZM68.1019 19.3062C68.1019 19.3062 68.0981 19.3062 68.0959 19.3062L65.7629 19.342C65.6111 19.3442 65.4691 19.406 65.3628 19.5149C65.2571 19.6239 65.2002 19.7681 65.2024 19.9199C65.2072 20.2288 65.462 20.4804 65.771 20.4804H65.7802L68.1144 20.4446C68.2661 20.4424 68.4082 20.3812 68.5144 20.2717C68.6201 20.1627 68.677 20.0185 68.6749 19.8667C68.67 19.5567 68.4136 19.3062 68.1019 19.3062Z" fill="white"/>
<path d="M64.1437 24.0185C64.7026 24.56 65.2609 25.1021 65.8198 25.6436Z" fill="white"/>
<path d="M64.2571 23.9019L64.0307 24.1354L65.7067 25.7608L65.9331 25.5273L64.2571 23.9019Z" fill="white"/>
<path d="M65.8198 26.3754C65.636 26.3754 65.4528 26.3065 65.3102 26.1689L63.6341 24.5437C63.3441 24.2624 63.3371 23.7989 63.6184 23.5089C63.8998 23.2189 64.3632 23.2119 64.6532 23.4932L66.3293 25.1183C66.6193 25.3997 66.6264 25.8631 66.345 26.1531C66.2014 26.3011 66.0106 26.3754 65.8198 26.3754Z" fill="white"/>
<path d="M65.8198 26.538C65.5861 26.538 65.365 26.4486 65.1969 26.2854L63.5209 24.6603C63.3496 24.4939 63.2531 24.2711 63.2493 24.032C63.2455 23.793 63.3349 23.5669 63.5013 23.3956C63.8445 23.0417 64.412 23.033 64.766 23.3761L66.4421 25.0012C66.6134 25.1677 66.7099 25.3904 66.7137 25.6295C66.7174 25.8686 66.628 26.0946 66.4616 26.2659C66.2919 26.441 66.0643 26.538 65.8198 26.538ZM64.1437 23.4493C63.9952 23.4493 63.8466 23.5073 63.735 23.6222C63.6293 23.7312 63.5724 23.8754 63.5745 24.0271C63.5767 24.1789 63.6385 24.3209 63.7474 24.4272L65.4235 26.0523C65.5303 26.1558 65.6707 26.2128 65.8198 26.2128C65.9688 26.2128 66.1201 26.1515 66.2285 26.0398C66.3342 25.9309 66.3911 25.7867 66.389 25.6349C66.3868 25.4831 66.325 25.3411 66.216 25.2349L64.54 23.6097C64.4294 23.503 64.2868 23.4493 64.1437 23.4493Z" fill="white"/>
</svg>
