<svg width="18" height="18" viewBox="0 0 18 18" fill="none" xmlns="http://www.w3.org/2000/svg">
<path d="M8.973 12.6493C6.97602 12.6493 5.35089 11.0242 5.35089 9.0272C5.35089 7.03021 6.97547 5.40508 8.973 5.40508C10.9705 5.40508 12.5951 7.02967 12.5951 9.0272C12.5951 11.0247 10.97 12.6493 8.973 12.6493ZM8.973 6.74508C7.71486 6.74508 6.69089 7.76905 6.69089 9.0272C6.69089 10.2853 7.71486 11.3093 8.973 11.3093C10.2312 11.3093 11.2551 10.2853 11.2551 9.0272C11.2551 7.76905 10.2312 6.74508 8.973 6.74508Z" fill="white"/>
<path d="M8.973 12.7978C6.89362 12.7978 5.20182 11.106 5.20182 9.02665C5.20182 6.94727 6.89362 5.25547 8.973 5.25547C11.0524 5.25547 12.7442 6.94727 12.7442 9.02665C12.7442 11.106 11.0524 12.7978 8.973 12.7978ZM8.973 5.55415C7.05787 5.55415 5.49996 7.11206 5.49996 9.0272C5.49996 10.9423 7.05787 12.5002 8.973 12.5002C10.8881 12.5002 12.4461 10.9423 12.4461 9.0272C12.4461 7.11206 10.8881 5.55415 8.973 5.55415ZM8.973 11.4584C7.63246 11.4584 6.54182 10.3677 6.54182 9.0272C6.54182 7.68666 7.63246 6.59601 8.973 6.59601C10.3135 6.59601 11.4042 7.68666 11.4042 9.0272C11.4042 10.3677 10.3135 11.4584 8.973 11.4584ZM8.973 6.89361C7.79671 6.89361 6.83941 7.85036 6.83941 9.0272C6.83941 10.204 7.79617 11.1608 8.973 11.1608C10.1498 11.1608 11.1066 10.204 11.1066 9.0272C11.1066 7.85036 10.1498 6.89361 8.973 6.89361Z" fill="white"/>
<path d="M9.08847 14.7715C9.10039 15.5494 9.11232 16.3278 9.12424 17.1057L9.08847 14.7715Z" fill="white"/>
<path d="M9.2519 14.7689L8.92669 14.7739L8.96255 17.1083L9.28776 17.1033L9.2519 14.7689Z" fill="white"/>
<path d="M9.12424 17.8375C8.72528 17.8375 8.39895 17.5171 8.39299 17.1171L8.35721 14.7829C8.35125 14.3785 8.67378 14.0462 9.07762 14.0397C9.08142 14.0397 9.08521 14.0397 9.08901 14.0397C9.48797 14.0397 9.8143 14.3601 9.82026 14.7601L9.85604 17.0943C9.86254 17.4987 9.53947 17.831 9.13563 17.8375C9.13183 17.8375 9.12804 17.8375 9.12424 17.8375Z" fill="white"/>
<path d="M9.12424 18.0001C8.63855 18.0001 8.23741 17.6049 8.23037 17.1192L8.19459 14.7851C8.1908 14.546 8.28024 14.32 8.44665 14.1487C8.61307 13.9774 8.8364 13.8809 9.07491 13.8771H9.08901C9.5747 13.8771 9.97583 14.2723 9.98288 14.7574L10.0187 17.0916C10.0225 17.3306 9.93301 17.5567 9.7666 17.728C9.60018 17.8993 9.37685 17.9958 9.13834 17.9995L9.12424 18.0001ZM9.08901 14.2023H9.07979C8.92801 14.2045 8.78599 14.2663 8.68029 14.3753C8.57458 14.4842 8.51766 14.6284 8.51983 14.7802L8.55561 17.1143C8.56049 17.4233 8.8158 17.6749 9.12478 17.6749H9.134C9.28578 17.6727 9.4278 17.6109 9.5335 17.5019C9.63921 17.393 9.69613 17.2488 9.69396 17.097L9.65818 14.7628C9.6533 14.4539 9.39799 14.2023 9.08901 14.2023Z" fill="white"/>
<path d="M4.98174 13.1437C4.44021 13.7026 3.89814 14.2609 3.35661 14.8198L4.98174 13.1437Z" fill="white"/>
<path d="M4.86559 13.0297L3.24026 14.7057L3.47374 14.9322L5.09907 13.2561L4.86559 13.0297Z" fill="white"/>
<path d="M3.35661 15.5516C3.17285 15.5516 2.98963 15.4827 2.84706 15.345C2.55706 15.0637 2.55001 14.6002 2.83134 14.3102L4.45647 12.6341C4.73781 12.3441 5.20128 12.3371 5.49128 12.6184C5.78129 12.8997 5.78834 13.3632 5.507 13.6532L3.88188 15.3293C3.73823 15.4773 3.54742 15.5516 3.35661 15.5516Z" fill="white"/>
<path d="M3.35661 15.7142C3.12298 15.7142 2.90181 15.6247 2.73431 15.4616C2.56302 15.2952 2.46653 15.0724 2.46273 14.8333C2.45894 14.5943 2.54838 14.3682 2.7148 14.1969L4.33993 12.5208C4.68306 12.1669 5.2506 12.1582 5.60458 12.5013C5.95855 12.8445 5.96722 13.412 5.62409 13.766L3.99896 15.4421C3.82875 15.6171 3.60108 15.7142 3.35661 15.7142ZM4.98174 12.575C4.83321 12.575 4.68468 12.6325 4.57302 12.7474L2.94789 14.4235C2.84218 14.5325 2.78527 14.6767 2.78744 14.8284C2.7896 14.9802 2.8514 15.1222 2.96036 15.2285C3.06714 15.332 3.20754 15.3889 3.35661 15.3889C3.50568 15.3889 3.65692 15.3277 3.76533 15.216L5.39046 13.5399C5.60891 13.3144 5.60349 12.9534 5.37799 12.735C5.26741 12.6282 5.12484 12.575 4.98174 12.575Z" fill="white"/>
<path d="M3.22868 9.08845C2.45081 9.10038 1.6724 9.1123 0.894524 9.12423L3.22868 9.08845Z" fill="white"/>
<path d="M3.22689 8.92559L0.892465 8.96145L0.897461 9.28665L3.23188 9.2508L3.22689 8.92559Z" fill="white"/>
<path d="M0.894524 9.85602C0.49556 9.85602 0.169234 9.53566 0.163271 9.13561C0.157308 8.73123 0.47984 8.39894 0.883683 8.39243L3.21784 8.35665C3.6206 8.35123 3.95451 8.67322 3.96102 9.07707C3.96698 9.48145 3.64445 9.81374 3.24061 9.82025L0.90645 9.85602C0.902655 9.85602 0.898319 9.85602 0.894524 9.85602Z" fill="white"/>
<path d="M0.894524 10.0186C0.408829 10.0186 0.00769649 9.62402 0.000107503 9.13832C-0.00748149 8.64504 0.387688 8.23794 0.88043 8.23035L3.21459 8.19458C3.7095 8.18753 4.11497 8.5827 4.12256 9.0749C4.13014 9.56818 3.73497 9.97528 3.24223 9.98287L0.894524 10.0186ZM3.2276 8.51928C3.2276 8.51928 3.22218 8.51928 3.21947 8.51928L0.885309 8.55505C0.57145 8.55993 0.319929 8.81904 0.324808 9.1329C0.329686 9.44188 0.585002 9.6934 0.89344 9.6934H0.902655L3.23681 9.65763C3.38859 9.65546 3.53061 9.5942 3.63686 9.4847C3.74256 9.37575 3.79948 9.23156 3.79731 9.07978C3.79243 8.76917 3.5382 8.51928 3.2276 8.51928Z" fill="white"/>
<path d="M4.85652 4.98172L3.18044 3.35659L4.85652 4.98172Z" fill="white"/>
<path d="M3.29381 3.23968L3.06739 3.47317L4.74343 5.0985L4.96985 4.86501L3.29381 3.23968Z" fill="white"/>
<path d="M4.85652 5.71352C4.67276 5.71352 4.48954 5.64467 4.34697 5.50699L2.67089 3.88186C2.38088 3.60053 2.37384 3.13706 2.65517 2.84705C2.9365 2.55704 3.39998 2.54999 3.68998 2.83133L5.36607 4.45646C5.65607 4.73779 5.66312 5.20126 5.38179 5.49127C5.23814 5.63925 5.04733 5.71352 4.85652 5.71352Z" fill="white"/>
<path d="M4.85652 5.87614C4.62289 5.87614 4.40172 5.7867 4.23368 5.62408L2.5576 3.99895C2.20362 3.65582 2.19495 3.08827 2.53808 2.7343C2.88176 2.38033 3.44876 2.37165 3.80273 2.71478L5.47882 4.33991C5.83279 4.68304 5.84146 5.25059 5.49833 5.60456C5.32812 5.77965 5.10099 5.87614 4.85652 5.87614ZM3.18098 2.78742C3.03245 2.78742 2.88392 2.84488 2.77226 2.96034C2.5538 3.18584 2.55922 3.54686 2.78472 3.76532L4.46081 5.39044C4.5676 5.49398 4.70853 5.5509 4.85706 5.5509C5.00559 5.5509 5.15737 5.48964 5.26578 5.37798C5.48424 5.15247 5.47882 4.79146 5.25331 4.573L3.57723 2.94787C3.46665 2.84109 3.32408 2.78742 3.18098 2.78742Z" fill="white"/>
<path d="M8.91121 3.22867C8.89928 2.45079 8.88736 1.67238 8.87543 0.89451L8.91121 3.22867Z" fill="white"/>
<path d="M9.03825 0.891924L8.71305 0.896919L8.74891 3.23134L9.07411 3.22635L9.03825 0.891924Z" fill="white"/>
<path d="M8.91121 3.96046C8.51224 3.96046 8.18592 3.6401 8.17995 3.24005L8.14418 0.905893C8.13822 0.501508 8.46075 0.169219 8.86459 0.162714C9.26681 0.157293 9.60126 0.479283 9.60777 0.883126L9.64355 3.21728C9.65005 3.62167 9.32698 3.95396 8.92313 3.96046C8.91934 3.96046 8.915 3.96046 8.91121 3.96046Z" fill="white"/>
<path d="M8.91121 4.12308C8.42551 4.12308 8.02438 3.72791 8.01733 3.24222L7.98156 0.908061C7.97776 0.669008 8.06721 0.442965 8.23362 0.27167C8.40004 0.100376 8.62283 0.0038873 8.86188 9.28035e-05C9.35516 -0.00695411 9.76226 0.388215 9.76985 0.880958L9.80563 3.21511C9.80942 3.45417 9.71998 3.68021 9.55356 3.85151C9.38715 4.0228 9.16436 4.11929 8.9253 4.12308H8.91121ZM8.87489 0.325335C8.87489 0.325335 8.86947 0.325335 8.86676 0.325335C8.71498 0.327503 8.57296 0.3893 8.46725 0.498256C8.36155 0.607212 8.30463 0.751403 8.3068 0.903183L8.34258 3.23734C8.34746 3.54632 8.60277 3.79784 8.91121 3.79784H8.92042C9.0722 3.79567 9.21423 3.73388 9.31993 3.62492C9.42563 3.51596 9.48255 3.37177 9.48038 3.21999L9.44461 0.885836C9.43973 0.57523 9.18495 0.325335 8.87489 0.325335Z" fill="white"/>
<path d="M13.0185 4.8565C13.56 4.29763 14.1021 3.7393 14.6436 3.18042L13.0185 4.8565Z" fill="white"/>
<path d="M14.5268 3.06642L12.9014 4.74246L13.1349 4.96889L14.7602 3.29284L14.5268 3.06642Z" fill="white"/>
<path d="M13.0185 5.5883C12.8347 5.5883 12.651 5.51946 12.5089 5.38177C12.2189 5.10044 12.2119 4.63697 12.4932 4.34696L14.1183 2.67088C14.3997 2.38087 14.8631 2.37382 15.1532 2.65516C15.4432 2.93649 15.4502 3.39996 15.1689 3.68997L13.5437 5.36605C13.4001 5.51404 13.2093 5.5883 13.0185 5.5883Z" fill="white"/>
<path d="M13.0185 5.75092C12.7848 5.75092 12.5637 5.66148 12.3956 5.49832C12.2243 5.3319 12.1279 5.10911 12.1241 4.87006C12.1203 4.631 12.2097 4.40496 12.3761 4.23366L14.0013 2.55758C14.1677 2.38629 14.3905 2.2898 14.6295 2.286C14.868 2.28167 15.0946 2.37219 15.2659 2.53807C15.4372 2.70448 15.5337 2.92727 15.5375 3.16633C15.5413 3.40538 15.4518 3.63142 15.2854 3.80272L13.6603 5.4788C13.4906 5.65389 13.263 5.75092 13.0185 5.75092ZM14.6436 2.61125C14.6409 2.61125 14.6376 2.61125 14.6344 2.61125C14.4826 2.61342 14.3406 2.67521 14.2343 2.78417L12.6092 4.46025C12.5035 4.56921 12.4466 4.7134 12.4488 4.86518C12.4509 5.01696 12.5127 5.15898 12.6217 5.26523C12.7285 5.36876 12.8689 5.42568 13.0179 5.42568C13.167 5.42568 13.3182 5.36442 13.4267 5.25276L15.0518 3.57668C15.1575 3.46772 15.2144 3.32353 15.2122 3.17175C15.2101 3.01997 15.1483 2.87795 15.0393 2.7717C14.9325 2.66816 14.7927 2.61125 14.6436 2.61125Z" fill="white"/>
<path d="M14.7715 8.91119C15.5494 8.89927 16.3278 8.88734 17.1057 8.87542L14.7715 8.91119Z" fill="white"/>
<path d="M17.1039 8.71195L14.7694 8.74781L14.7744 9.07301L17.1089 9.03715L17.1039 8.71195Z" fill="white"/>
<path d="M14.771 9.64299C14.372 9.64299 14.0457 9.32263 14.0397 8.92258C14.0332 8.51819 14.3563 8.1859 14.7602 8.1794L17.0943 8.14362C17.4987 8.13983 17.831 8.46019 17.8375 8.86403C17.844 9.26842 17.5209 9.60071 17.1171 9.60721L14.7829 9.64299C14.7791 9.64299 14.7748 9.64299 14.771 9.64299Z" fill="white"/>
<path d="M14.771 9.80561C14.2853 9.80561 13.8842 9.41044 13.8771 8.92474C13.8733 8.68569 13.9628 8.45965 14.1292 8.28835C14.2956 8.11706 14.5184 8.02057 14.7574 8.01678L17.0916 7.981C17.0943 7.981 17.0976 7.981 17.1008 7.981C17.5903 7.981 17.9925 8.374 17.9996 8.86186C18.0034 9.10092 17.9139 9.32696 17.7475 9.49826C17.5811 9.66955 17.3583 9.76604 17.1192 9.76983L14.771 9.80561ZM17.1019 8.30624C17.1019 8.30624 17.0981 8.30624 17.0959 8.30624L14.7629 8.34202C14.6111 8.34419 14.4691 8.40598 14.3628 8.51494C14.2571 8.6239 14.2002 8.76809 14.2024 8.91987C14.2072 9.22885 14.462 9.48037 14.771 9.48037H14.7802L17.1144 9.44459C17.2661 9.44242 17.4082 9.38117 17.5144 9.27167C17.6201 9.16271 17.677 9.01852 17.6749 8.86674C17.67 8.55668 17.4136 8.30624 17.1019 8.30624Z" fill="white"/>
<path d="M13.1437 13.0185C13.7026 13.56 14.2609 14.1021 14.8198 14.6436L13.1437 13.0185Z" fill="white"/>
<path d="M13.2571 12.9019L13.0307 13.1354L14.7067 14.7608L14.9331 14.5273L13.2571 12.9019Z" fill="white"/>
<path d="M14.8198 15.3754C14.636 15.3754 14.4528 15.3065 14.3102 15.1689L12.6341 13.5437C12.3441 13.2624 12.3371 12.7989 12.6184 12.5089C12.8998 12.2189 13.3632 12.2119 13.6532 12.4932L15.3293 14.1183C15.6193 14.3997 15.6264 14.8631 15.345 15.1531C15.2014 15.3011 15.0106 15.3754 14.8198 15.3754Z" fill="white"/>
<path d="M14.8198 15.538C14.5861 15.538 14.365 15.4486 14.1969 15.2854L12.5209 13.6603C12.3496 13.4939 12.2531 13.2711 12.2493 13.032C12.2455 12.793 12.3349 12.5669 12.5013 12.3956C12.8445 12.0417 13.412 12.033 13.766 12.3761L15.4421 14.0012C15.6134 14.1677 15.7099 14.3904 15.7137 14.6295C15.7174 14.8686 15.628 15.0946 15.4616 15.2659C15.2919 15.441 15.0643 15.538 14.8198 15.538ZM13.1437 12.4493C12.9952 12.4493 12.8466 12.5073 12.735 12.6222C12.6293 12.7312 12.5724 12.8754 12.5745 13.0271C12.5767 13.1789 12.6385 13.3209 12.7474 13.4272L14.4235 15.0523C14.5303 15.1558 14.6707 15.2128 14.8198 15.2128C14.9689 15.2128 15.1201 15.1515 15.2285 15.0398C15.3342 14.9309 15.3911 14.7867 15.389 14.6349C15.3868 14.4831 15.325 14.3411 15.216 14.2349L13.54 12.6097C13.4294 12.503 13.2868 12.4493 13.1437 12.4493Z" fill="white"/>
</svg>
