<svg width="44" height="22" viewBox="0 0 44 22" fill="none" xmlns="http://www.w3.org/2000/svg">
<path d="M3.55654 20.8315C3.73961 21.3525 4.31043 21.6265 4.83149 21.4435L13.3226 18.4601C13.8437 18.277 14.1177 17.7062 13.9346 17.1851C13.7515 16.6641 13.1807 16.3901 12.6597 16.5732L5.11197 19.2251L2.46009 11.6774C2.27701 11.1563 1.7062 10.8823 1.18514 11.0654C0.664082 11.2485 0.390091 11.8193 0.573166 12.3403L3.55654 20.8315ZM43.5 1V4.63647e-06C37.7854 4.63647e-06 30.2652 -0.134268 22.9708 2.30149C15.6173 4.75696 8.52255 9.80878 3.59848 20.0673L4.5 20.5L5.40152 20.9327C10.0774 11.1912 16.7327 6.49304 23.6042 4.19852C30.5348 1.88427 37.7146 2 43.5 2V1Z" fill="white"/>
</svg>
