<svg width="1071" height="15" viewBox="0 0 1071 15" fill="none" xmlns="http://www.w3.org/2000/svg">
<circle cx="7.5" cy="7.5" r="7.5" fill="#878787"/>
<circle cx="1063.5" cy="7.5" r="7.5" fill="#878787"/>
<circle cx="51.5" cy="7.5" r="7.5" fill="#878787"/>
<circle cx="95.5" cy="7.5" r="7.5" fill="#878787"/>
<circle cx="139.5" cy="7.5" r="7.5" fill="#878787"/>
<circle cx="227.5" cy="7.5" r="7.5" fill="#878787"/>
<circle cx="315.5" cy="7.5" r="7.5" fill="#878787"/>
<circle cx="403.5" cy="7.5" r="7.5" fill="#878787"/>
<circle cx="491.5" cy="7.5" r="7.5" fill="#878787"/>
<circle cx="579.5" cy="7.5" r="7.5" fill="#878787"/>
<circle cx="667.5" cy="7.5" r="7.5" fill="#878787"/>
<circle cx="755.5" cy="7.5" r="7.5" fill="#878787"/>
<circle cx="843.5" cy="7.5" r="7.5" fill="#878787"/>
<circle cx="183.5" cy="7.5" r="7.5" fill="#878787"/>
<circle cx="271.5" cy="7.5" r="7.5" fill="#878787"/>
<circle cx="359.5" cy="7.5" r="7.5" fill="#878787"/>
<circle cx="447.5" cy="7.5" r="7.5" fill="#878787"/>
<circle cx="535.5" cy="7.5" r="7.5" fill="#878787"/>
<circle cx="623.5" cy="7.5" r="7.5" fill="#878787"/>
<circle cx="711.5" cy="7.5" r="7.5" fill="#878787"/>
<circle cx="799.5" cy="7.5" r="7.5" fill="#878787"/>
<circle cx="887.5" cy="7.5" r="7.5" fill="#878787"/>
<circle cx="931.5" cy="7.5" r="7.5" fill="#878787"/>
<circle cx="975.5" cy="7.5" r="7.5" fill="#878787"/>
<circle cx="1019.5" cy="7.5" r="7.5" fill="#878787"/>
</svg>
